<?xml version="1.0" encoding="utf-8"?>
<!-- Generator: Adobe Illustrator 17.0.0, SVG Export Plug-In . SVG Version: 6.00 Build 0)  -->
<!DOCTYPE svg PUBLIC "-//W3C//DTD SVG 1.1//EN" "http://www.w3.org/Graphics/SVG/1.1/DTD/svg11.dtd">
<svg version="1.1" id="Calque_1" xmlns="http://www.w3.org/2000/svg" xmlns:xlink="http://www.w3.org/1999/xlink" x="0px" y="0px"
	 width="750px" height="750px" viewBox="0 0 750 750" style="enable-background:new 0 0 750 750;" xml:space="preserve">
<path id="Floor_6_" style="fill:#F5F5F5;" d="M634.36,381.96c143.53,82.87,143.53,217.22,0,300.09
	c-143.53,82.87-376.24,82.87-519.77,0c-143.53-82.87-143.53-217.22,0-300.09C258.12,299.1,490.83,299.09,634.36,381.96z"/>
<path id="Shadow_11_" style="fill:#E0E0E0;" d="M485.17,582.07c26.39,15.24,26.39,39.94,0,55.18c-26.39,15.24-69.18,15.24-95.57,0
	c-26.39-15.24-26.39-39.94,0-55.18C415.99,566.84,458.78,566.84,485.17,582.07z"/>
<path id="Shadow_28_" style="fill:#E0E0E0;" d="M660.98,558.97c26.39,15.24,26.39,39.94,0,55.18c-26.39,15.24-69.18,15.24-95.57,0
	c-26.39-15.24-26.39-39.94,0-55.18C591.8,543.73,634.59,543.73,660.98,558.97z"/>
<path id="Shadow_29_" style="fill:#E0E0E0;" d="M291.33,640.57c26.39,15.24,26.39,39.94,0,55.18c-26.39,15.24-69.18,15.24-95.57,0
	c-26.39-15.24-26.39-39.94,0-55.18S264.94,625.34,291.33,640.57z"/>
<g id="Plants_1_">
	<g id="XMLID_3168_">
		<path id="XMLID_3172_" style="fill:#37474F;" d="M132.76,539.86c0,0-1.77-41.26-19.06-64.21c-17.29-22.95-38.5-26.26-49.02-19.8
			c-7.67,4.71-6.63,18.68,6.64,27.82c13.27,9.13,38.86,32.36,42.86,47.53L132.76,539.86z"/>
		<g id="XMLID_3169_">
			<path id="XMLID_3170_" style="fill:#FFFFFF;" d="M121.41,533.85c-0.58-0.04-1.03-0.53-1-1.12c1.78-37.43-31.07-60.77-39.96-64.97
				c-0.53-0.25-0.76-0.89-0.51-1.42c0.25-0.54,0.89-0.76,1.42-0.51c9.17,4.33,43.02,28.39,41.19,67.01
				c-0.03,0.59-0.53,1.05-1.12,1.02C121.43,533.85,121.41,533.85,121.41,533.85z"/>
		</g>
	</g>
	<g id="XMLID_3162_">
		<path id="XMLID_3167_" style="fill:#455A64;" d="M124.55,526.83c-2.4-0.35-4.73-0.77-6.31-2.51c-2.01-2.22-1.84-5.59-2.77-8.44
			c-1.52-4.67-6.13-7.83-10.93-8.84s-9.8-0.18-14.57,0.99c-9.63,2.36-18.89-3.56-28.55-2.86c-3.45,0.25-6.95,1.07-9.78,3.06
			s-4.87,5.31-4.68,8.76c0.16,2.88,1.83,5.5,3.98,7.43c2.14,1.93,4.74,3.26,7.31,4.57c2.82,1.44,5.65,2.88,8.47,4.32
			c1.4,0.71,2.82,1.45,3.94,2.55c2.09,2.09,3.55,6.13,2.96,9.02c-0.65,3.23-3.3,5.76-4.09,8.96c-1.03,4.2,1.53,8.69,5.22,10.96
			c3.69,2.27,8.22,2.7,12.55,2.45c4.32-0.25,8.6-1.11,12.93-1.19c2.92-0.05,5.95,0.29,8.43,1.83c3.02,1.88,4.78,5.25,5.92,8.62
			c0.73,2.17,1.3,4.45,2.65,6.3c1.4,1.91,3.53,3.19,5.75,4c4.27,1.56,9.23,1.61,13.49-0.02c3.57-1.37,5.32-5.4,6.65-8.9
			c1.34-3.5,1.97-7.69,1.88-11.41c-0.25-9.72-2.43-20.2-6.64-28.97c-2.01-4.19-4.93-8.37-9.34-9.82
			C127.61,527.24,126.06,527.05,124.55,526.83z"/>
		<g id="XMLID_3165_">
			<path id="XMLID_3166_" style="fill:#FFFFFF;" d="M133.9,571.69c-0.39,0-0.76-0.25-0.9-0.64c-10.07-28.89-57.75-54.03-75.19-56.91
				c-0.52-0.09-0.87-0.58-0.79-1.1c0.09-0.52,0.59-0.88,1.1-0.79c17.77,2.93,66.38,28.62,76.68,58.16c0.17,0.5-0.09,1.04-0.58,1.21
				C134.11,571.67,134.01,571.69,133.9,571.69z"/>
		</g>
		<g id="XMLID_3163_">
			<path id="XMLID_3164_" style="fill:#FFFFFF;" d="M91.05,555.87c-0.28,0-0.57-0.13-0.76-0.37c-0.32-0.42-0.24-1.02,0.18-1.34
				c0.43-0.33,10.79-8.16,26.48-8.51h0.02c0.52,0,0.94,0.41,0.95,0.93c0.01,0.53-0.41,0.96-0.93,0.97
				c-15.07,0.34-25.26,8.04-25.36,8.11C91.46,555.81,91.26,555.87,91.05,555.87z"/>
		</g>
	</g>
</g>
<g id="XMLID_3538_">
	<g id="XMLID_4068_">
		<path id="XMLID_4261_" style="fill:#455A64;" d="M134.4,594.05c-1.91-1.1-3.45-3.9-3.45-6.25l0-340.34c0-2.35,1.65-5.21,3.68-6.38
			L535.03,9.92c2.03-1.17,5.23-1.23,7.14-0.13c1.91,1.1,3.46,3.9,3.46,6.25l0,340.34c0,2.35-1.65,5.21-3.68,6.38l-400.4,231.15
			C139.51,595.09,136.31,595.15,134.4,594.05z"/>
		<path id="XMLID_4259_" style="fill:#27DEBF;" d="M140.84,594.23c-0.05,0.02-0.1,0.05-0.15,0.05c-0.12,0.07-0.24,0.1-0.36,0.14
			c-0.09,0.03-0.17,0.07-0.27,0.09c-0.15,0.05-0.32,0.1-0.51,0.12c-0.1,0.03-0.22,0.07-0.34,0.07c-0.17,0.03-0.37,0.07-0.56,0.09
			c-1.51,0.17-3.1-0.07-4.24-0.73c-1.92-1.11-3.45-3.9-3.45-6.24l-0.02-296.71l6.93,4v296.7c0,1.67,0.83,2.64,2.04,2.64
			c0.17,0,0.32-0.02,0.49-0.07c0.03,0,0.05,0,0.09-0.02C140.6,594.32,140.72,594.29,140.84,594.23z"/>
		<path id="XMLID_2826_" style="opacity:0.81;fill:#E0E0E0;" d="M140.84,594.23c-0.05,0.02-0.1,0.05-0.15,0.05
			c-0.12,0.07-0.24,0.1-0.36,0.14c-0.09,0.03-0.17,0.07-0.27,0.09c-0.15,0.05-0.32,0.1-0.51,0.12c-0.1,0.03-0.22,0.07-0.34,0.07
			c-0.17,0.03-0.37,0.07-0.56,0.09c-1.51,0.17-3.1-0.07-4.24-0.73c-1.92-1.11-3.45-3.9-3.45-6.24l-0.02-296.71l6.93,4v296.7
			c0,1.67,0.83,2.64,2.04,2.64c0.17,0,0.32-0.02,0.49-0.07c0.03,0,0.05,0,0.09-0.02C140.6,594.32,140.72,594.29,140.84,594.23z"/>
		<polygon id="XMLID_2360_" style="fill:#27DEBF;" points="137.86,295.09 130.94,291.09 130.94,356.99 137.86,361.02 		"/>
		<polygon id="XMLID_2359_" style="opacity:0.15;" points="137.86,295.09 130.94,291.09 130.94,356.99 137.86,361.02 		"/>
		<path id="XMLID_4258_" style="fill:#263238;" d="M138.94,247.82c-0.66,1.14-1.07,2.45-1.07,3.62v43.64l-6.93-4v-43.63
			c0-0.15,0-0.29,0.02-0.44c0.03-0.31,0.09-0.61,0.15-0.92c0.19-0.77,0.51-1.57,0.92-2.28L138.94,247.82z"/>
		<path id="XMLID_4257_" style="fill:#37474F;" d="M545.62,16.03v19.69l-293.5,169.44c-2.02,1.17-3.68,0.22-3.68-2.13v-7.45
			c0-2.35-1.65-3.3-3.69-2.13l-89.38,51.61c-2.04,1.17-3.69,4.03-3.69,6.38v7.45c0,2.35-1.65,5.21-3.68,6.38l-10.14,5.85v-19.69
			c0-2.35,1.65-5.21,3.68-6.38l400.4-231.16C543.97,12.73,545.62,13.68,545.62,16.03z"/>
		<path id="XMLID_4256_" style="fill:#27DEBF;" d="M545.63,356.37c0,2.35-1.65,5.21-3.69,6.38l-400.4,231.16
			c-2.02,1.17-3.68,0.22-3.68-2.13V271.13l10.14-5.85c2.02-1.17,5.33-19.04,7.37-20.21l87.88-50.74c2.04-1.17,6.84,12.02,8.86,10.84
			l293.5-169.44v23.96L545.63,356.37z"/>
		<path id="XMLID_2824_" style="opacity:0.9;fill:#FFFFFF;" d="M545.63,356.37c0,2.35-1.65,5.21-3.69,6.38l-400.4,231.16
			c-2.02,1.17-3.68,0.22-3.68-2.13V271.13l10.14-5.85c2.02-1.17,5.33-19.04,7.37-20.21l87.88-50.74c2.04-1.17,6.84,12.02,8.86,10.84
			l293.5-169.44v23.96L545.63,356.37z"/>
		<g id="XMLID_3171_" style="opacity:0.4;">
			<path style="fill:#27DEBF;" d="M544.62,37.45v22.23l0.02,296.7c0,1.99-1.46,4.52-3.19,5.51l-400.4,231.16
				c-0.41,0.24-0.81,0.37-1.14,0.37c-0.94,0-1.04-1.14-1.04-1.63V271.71l9.64-5.57c1.24-0.72,2.16-3.65,4.13-10.67
				c0.99-3.54,2.49-8.9,3.24-9.55l87.69-50.63c0.76,0.52,2.32,3.27,3.27,4.95c2.17,3.82,3.48,5.99,5.01,5.99
				c0.28,0,0.54-0.07,0.77-0.21L544.62,37.45 M545.62,35.72l-293.5,169.44c-0.09,0.05-0.18,0.07-0.27,0.07
				c-2.06,0-6.24-10.99-8.31-10.99c-0.1,0-0.19,0.02-0.28,0.07l-87.88,50.74c-2.04,1.17-5.34,19.04-7.37,20.21l-10.14,5.85v320.65
				c0,1.67,0.83,2.63,2.04,2.63c0.49,0,1.05-0.16,1.64-0.5l400.4-231.16c2.04-1.17,3.69-4.03,3.69-6.38l-0.02-296.7V35.72
				L545.62,35.72z"/>
		</g>
		<polygon id="XMLID_2357_" style="fill:#27DEBF;" points="137.86,295.09 137.86,361.02 545.62,125.63 545.62,59.68 		"/>
		<path id="XMLID_4249_" style="fill:#F0F0F0;" d="M545.62,35.72v23.96L137.86,295.09v-23.96l7.57-4.39
			c2.02-1.17,2.71-2.96,3.68-6.38l2.57-8.92c0.81-3.1,1.65-5.21,3.69-6.38l87.88-50.74c2.04-1.17,3.63-1.3,5.19,1.26l3.15,5.72
			c1.16,2,1.73,3.17,3.76,2L545.62,35.72z"/>
		<g id="XMLID_4245_">
			<path id="XMLID_4248_" style="fill:#27DEBF;" d="M528.34,28.38c2.56-1.48,4.64-0.28,4.64,2.68s-2.08,6.55-4.64,8.03
				c-2.56,1.48-4.64,0.28-4.64-2.68C523.71,33.45,525.78,29.86,528.34,28.38z"/>
			<path id="XMLID_4247_" style="fill:#27DEBF;" d="M511.66,38c2.56-1.48,4.64-0.28,4.64,2.68c0,2.96-2.08,6.55-4.64,8.03
				c-2.56,1.48-4.64,0.28-4.64-2.68C507.02,43.07,509.1,39.48,511.66,38z"/>
			<path id="XMLID_4246_" style="fill:#27DEBF;" d="M494.97,47.62c2.56-1.48,4.64-0.28,4.64,2.68c0,2.96-2.08,6.55-4.64,8.03
				c-2.56,1.48-4.64,0.28-4.64-2.68C490.33,52.7,492.41,49.1,494.97,47.62z"/>
		</g>
		<path id="XMLID_4244_" style="opacity:0.5;fill:#455A64;" d="M154.76,272.86l-5.78,3.34l2.2-4.24c0.19-0.37,0.21-0.84,0.04-1.04
			c-0.17-0.2-0.46-0.06-0.66,0.31l-3.14,6.03c0,0.01-0.01,0.02-0.01,0.02c-0.03,0.07-0.06,0.15-0.08,0.22
			c-0.01,0.03-0.02,0.05-0.03,0.07c-0.03,0.1-0.04,0.21-0.04,0.31c0,0.1,0.02,0.19,0.04,0.26c0.01,0.02,0.02,0.03,0.03,0.04
			c0.02,0.05,0.05,0.1,0.08,0.13c0,0,0,0.01,0.01,0.01l3.14,2.41c0.09,0.07,0.2,0.06,0.31,0c0.13-0.07,0.26-0.23,0.35-0.45
			c0.17-0.4,0.15-0.84-0.04-0.99l-2.2-1.7l5.78-3.34c0.26-0.15,0.47-0.59,0.47-0.98C155.23,272.91,155.02,272.71,154.76,272.86z"/>
		<path id="XMLID_4223_" style="opacity:0.5;fill:#455A64;" d="M159.59,270.07l5.78-3.34l-2.2-1.7c-0.19-0.15-0.21-0.59-0.04-0.99
			c0.17-0.4,0.46-0.59,0.66-0.45l3.14,2.41c0,0,0.01,0.01,0.01,0.01c0.03,0.03,0.06,0.08,0.08,0.13c0.01,0.02,0.02,0.03,0.03,0.04
			c0.03,0.07,0.04,0.16,0.04,0.26c0,0.1-0.02,0.21-0.04,0.31c-0.01,0.03-0.02,0.05-0.03,0.07c-0.02,0.08-0.05,0.15-0.08,0.22
			c0,0.01,0,0.02-0.01,0.02l-3.14,6.03c-0.09,0.17-0.2,0.29-0.31,0.35c-0.13,0.07-0.26,0.07-0.35-0.04
			c-0.17-0.2-0.15-0.66,0.04-1.04l2.2-4.24l-5.78,3.34c-0.26,0.15-0.47-0.05-0.47-0.45C159.13,270.66,159.34,270.22,159.59,270.07z"
			/>
		<path id="XMLID_4222_" style="opacity:0.5;fill:#455A64;" d="M178.56,253.41c-0.04-0.35-0.34-0.3-0.49,0.07l-0.79,1.94
			c-1.35-0.15-2.99,1.17-4.09,3.51c-1.43,3.03-1.43,6.62,0,8c0.72,0.69,1.66,0.7,2.6,0.15c0.94-0.54,1.88-1.64,2.6-3.15
			c0.18-0.38,0.18-0.84,0-1.01c-0.18-0.17-0.48,0-0.66,0.38c-1.07,2.26-2.81,3.27-3.88,2.24c-1.07-1.03-1.07-3.71,0-5.97
			c0.76-1.61,1.86-2.56,2.81-2.62l-0.6,1.46c-0.15,0.38-0.01,0.73,0.23,0.57l2.36-1.54c0.17-0.11,0.29-0.41,0.26-0.65L178.56,253.41
			z"/>
		<path id="XMLID_4221_" style="opacity:0.5;fill:#455A64;" d="M240.72,205.26l2.11-4.46c0.25-0.53,0.25-1.15,0-1.39
			c-0.25-0.24-0.65-0.01-0.9,0.52l-2.11,4.46l-2.11-2.03c-0.25-0.24-0.65-0.01-0.9,0.52c-0.25,0.53-0.25,1.15,0,1.39l2.11,2.03
			l-2.11,4.46c-0.25,0.53-0.25,1.15,0,1.39c0.12,0.12,0.29,0.12,0.45,0.03c0.16-0.09,0.33-0.28,0.45-0.55l2.11-4.46l2.11,2.03
			c0.12,0.12,0.29,0.12,0.45,0.03c0.16-0.09,0.33-0.28,0.45-0.55c0.25-0.53,0.25-1.15,0-1.39L240.72,205.26z"/>
		<path id="XMLID_4220_" style="fill:#FFFFFF;" d="M186.24,258.9v-7.45c0-2.35,1.65-5.21,3.68-6.38L521.21,53.9
			c2.03-1.17,3.68-0.22,3.68,2.13l0,7.45c0,2.35-1.65,5.21-3.68,6.38L189.92,261.03C187.89,262.2,186.24,261.25,186.24,258.9z"/>
		<g id="XMLID_4216_">
			<path id="XMLID_4217_" style="fill:#E0E0E0;" d="M516.19,70.28c-0.1,0-0.19-0.02-0.27-0.05c-0.26-0.11-0.52-0.42-0.46-0.95
				l0.37-3.09c0-0.01,0-0.02,0.01-0.03l-1.49-1.08c-0.21-0.15-0.32-0.4-0.33-0.7c-0.01-0.44,0.21-0.91,0.55-1.17l2.16-1.67
				c0.05-0.04,0.11-0.13,0.15-0.25l0.97-3.17c0.16-0.52,0.54-0.89,0.96-0.92c0.3-0.03,0.57,0.14,0.7,0.42v0l0.87,1.85l1.96-0.75
				c0.3-0.11,0.61-0.04,0.81,0.18c0.27,0.31,0.28,0.84,0.03,1.32l-1.56,2.94c-0.06,0.11-0.08,0.22-0.07,0.27l0.37,2.66
				c0.07,0.47-0.16,0.94-0.42,1.2c-0.22,0.22-0.48,0.32-0.73,0.29l-1.94-0.24l-1.88,2.52C516.7,70.17,516.43,70.28,516.19,70.28z
				 M514.99,64.35l1.49,1.08c0.25,0.18,0.36,0.5,0.32,0.88l-0.31,2.55l1.61-2.05c0.23-0.3,0.53-0.44,0.83-0.41l1.94,0.24
				c-0.03-0.03,0.09-0.25,0.07-0.39l-0.37-2.66c-0.04-0.27,0.03-0.58,0.17-0.86l1.56-2.93l-1.79,0.69
				c-0.38,0.14-0.76-0.01-0.93-0.37l-0.81-1.71c0,0.01-0.01,0.02-0.01,0.03l-0.97,3.17c-0.09,0.3-0.27,0.56-0.48,0.73l-2.16,1.67
				C515.05,64.06,514.99,64.25,514.99,64.35z"/>
		</g>
		<g id="XMLID_4071_" style="opacity:0.5;">
			<g id="XMLID_4207_">
				<path id="XMLID_4214_" style="fill:#455A64;" d="M529.23,52.99c-0.44,0-0.87-0.23-1.11-0.64c-0.35-0.61-0.14-1.39,0.47-1.74
					l10.37-5.99c0.61-0.35,1.39-0.14,1.74,0.47c0.35,0.61,0.14,1.39-0.47,1.74l-10.37,5.99C529.67,52.93,529.45,52.99,529.23,52.99z
					"/>
			</g>
			<g id="XMLID_4201_">
				<path id="XMLID_4203_" style="fill:#455A64;" d="M529.23,58.98c-0.44,0-0.87-0.23-1.11-0.64c-0.35-0.61-0.14-1.39,0.47-1.74
					l10.37-5.99c0.61-0.36,1.39-0.14,1.74,0.47c0.35,0.61,0.14,1.39-0.47,1.74l-10.37,5.99C529.67,58.92,529.45,58.98,529.23,58.98z
					"/>
			</g>
			<g id="XMLID_4072_">
				<path id="XMLID_4073_" style="fill:#455A64;" d="M529.23,64.96c-0.44,0-0.87-0.23-1.11-0.64c-0.35-0.61-0.14-1.39,0.47-1.74
					l10.37-5.99c0.61-0.36,1.39-0.14,1.74,0.47c0.35,0.61,0.14,1.39-0.47,1.74l-10.37,5.99C529.67,64.91,529.45,64.96,529.23,64.96z
					"/>
			</g>
		</g>
		<polygon id="XMLID_4070_" style="fill:#E0E0E0;" points="137.86,271.13 137.86,295.09 130.94,291.09 130.94,267.15 		"/>
	</g>
	
		<text id="XMLID_3803_" transform="matrix(0.6495 -0.375 0 1 416.6972 182.4748)" style="fill:#455A64; font-family:'Rubik-Medium'; font-size:39.68;">About us</text>
	<g id="XMLID_3542_">
		<polygon id="XMLID_3210_" style="opacity:0.1;fill:#27DEBF;" points="155.55,376.56 268.33,311.45 268.33,495.3 155.23,560.22 		
			"/>
		<g id="XMLID_3281_">
			<path id="XMLID_3211_" style="opacity:0.15;fill:#27DEBF;" d="M293.18,300.49l136.05-78.55c2.73-1.58,4.95-0.38,4.95,2.68
				s-2.21,6.83-4.94,8.42l-136.08,79.43c-2.73,1.59-4.94,0.32-4.94-2.83l0-0.57C288.23,305.91,290.45,302.07,293.18,300.49z"/>
			<path id="XMLID_3279_" style="opacity:0.1;fill:#27DEBF;" d="M291.77,324.29l225.11-129.97c1.95-1.13,3.54-0.33,3.54,1.79
				c0,2.12-1.58,4.74-3.54,5.87L291.77,331.95c-1.95,1.13-3.54,0.33-3.54-1.79C288.23,328.04,289.81,325.42,291.77,324.29z"/>
			<path id="XMLID_3283_" style="opacity:0.1;fill:#27DEBF;" d="M291.77,339.67L516.88,209.7c1.95-1.13,3.54-0.33,3.54,1.79
				c0,2.12-1.58,4.74-3.54,5.87L291.77,347.33c-1.95,1.13-3.54,0.33-3.54-1.79S289.81,340.79,291.77,339.67z"/>
			<path id="XMLID_3291_" style="opacity:0.1;fill:#27DEBF;" d="M291.77,355.05l225.11-129.97c1.95-1.13,3.54-0.33,3.54,1.79
				c0,2.12-1.58,4.74-3.54,5.87L291.77,362.71c-1.95,1.13-3.54,0.33-3.54-1.79C288.23,358.8,289.81,356.17,291.77,355.05z"/>
			<path id="XMLID_3292_" style="opacity:0.1;fill:#27DEBF;" d="M291.77,370.42l225.11-129.97c1.95-1.13,3.54-0.33,3.54,1.79
				c0,2.12-1.58,4.74-3.54,5.87L291.77,378.08c-1.95,1.13-3.54,0.33-3.54-1.79S289.81,371.55,291.77,370.42z"/>
			<path id="XMLID_3293_" style="opacity:0.1;fill:#27DEBF;" d="M291.77,385.8l157.06-91.4c1.95-1.13,3.54-0.33,3.54,1.79
				c0,2.12-1.58,4.74-3.54,5.87l-157.06,91.4c-1.95,1.13-3.54,0.33-3.54-1.79C288.23,389.56,289.81,386.93,291.77,385.8z"/>
			<path id="XMLID_3543_" style="opacity:0.1;fill:#27DEBF;" d="M291.77,416.56l225.11-129.97c1.95-1.13,3.54-0.33,3.54,1.79
				c0,2.12-1.58,4.74-3.54,5.87L291.77,424.22c-1.95,1.13-3.54,0.33-3.54-1.79C288.23,420.32,289.81,417.69,291.77,416.56z"/>
			<path id="XMLID_3544_" style="opacity:0.1;fill:#27DEBF;" d="M291.77,431.94l225.11-129.97c1.95-1.13,3.54-0.33,3.54,1.79
				c0,2.12-1.58,4.74-3.54,5.87L291.77,439.6c-1.95,1.13-3.54,0.33-3.54-1.79C288.23,435.7,289.81,433.07,291.77,431.94z"/>
			<path id="XMLID_3553_" style="opacity:0.1;fill:#27DEBF;" d="M291.77,447.32l225.11-129.97c1.95-1.13,3.54-0.33,3.54,1.79
				c0,2.12-1.58,4.74-3.54,5.87L291.77,454.98c-1.95,1.13-3.54,0.33-3.54-1.79C288.23,451.07,289.81,448.45,291.77,447.32z"/>
			<path id="XMLID_3554_" style="opacity:0.1;fill:#27DEBF;" d="M291.77,462.7l82.71-48.28c1.95-1.13,3.54-0.33,3.54,1.79
				c0,2.12-1.58,4.74-3.54,5.87l-82.71,48.27c-1.95,1.13-3.54,0.33-3.54-1.79C288.23,466.45,289.81,463.82,291.77,462.7z"/>
		</g>
	</g>
</g>
<g id="XMLID_3461_">
	<g id="XMLID_3988_">
		<path id="XMLID_3991_" style="fill:#FFA8A7;" d="M592.58,374.42c11.97-38.84,23.61-64.42,11.75-72.34l0,0
			c-11.05,2.05-16,7.51-18.35,22.08c-2.46,15.28-7.59,36.57-10.57,48.86c-2.39,9.81-7.04,22.15-11.03,29.66
			c-0.71,1.33-1.89,2.33-3.26,2.87c-3.69,1.44-5.46,3.33-8.47,5.48c-2.36,1.68-4.09,1.87-3.98,2.58c0.14,0.91,1.2,2.55,3.7,2.28
			c1.26-0.14,2.98-0.78,5.15-1.65c0,0-2.18,5.84-6.45,9.41c-5.78,4.84-4.92,9.68,4.39,10.24c3.34,0.2,11.06-2.84,18.23-15.04
			c2.06-3.52,4.46-9.27,6.38-14.07C585.08,392.29,590.19,382.2,592.58,374.42z"/>
		<path id="XMLID_3990_" style="fill:#27DEBF;" d="M606.45,301.62c0,0-9.21-0.48-14.79,5.67s-12.1,42.94-12.1,42.94
			s6.11,8.4,22.22,4.96L606.45,301.62z"/>
		<path id="XMLID_3989_" style="opacity:0.3;" d="M606.45,301.62c0,0-9.21-0.48-14.79,5.67s-12.1,42.94-12.1,42.94
			s6.11,8.4,22.22,4.96L606.45,301.62z"/>
	</g>
	<g id="XMLID_3945_">
		<rect id="XMLID_3987_" x="637.17" y="562.54" style="fill:#FFA8A7;" width="12.37" height="22.05"/>
		<polygon id="XMLID_3986_" style="fill:#FFA8A7;" points="606.66,561.36 594.3,561.8 593.68,538.47 606.66,538.03 		"/>
		<path id="XMLID_3985_" style="fill:#37474F;" d="M651.27,371.65c0,12.3-1.81,111.27-1.81,111.27c0.29,3.54,3.47,10.06,2.78,23.66
			c-0.94,18.46-2.19,66.98-2.19,66.98s-6,3.65-13.77,0.28c0,0-11.7-67.2-13.91-85.5c-1.93-15.97-5.21-69.73-5.21-69.73l-6.7,62.52
			c0,0,2.28,9.52,1.53,20.47c-0.58,8.46-4.55,52.54-4.55,52.54s-5.82,4.11-14.28,1.14c0,0-7.03-66.38-7.18-74.15
			c-0.16-8.85,4.11-109.61,4.11-109.61L651.27,371.65z"/>
		<path id="XMLID_3984_" style="fill:#263238;" d="M637.17,578.23v-1.84c-1.18,0.54-3.93,11.46-8.84,16.12
			c-3.9,3.71-9.22,7.99-10.57,12.12c-1.41,4.3,7.41,6.67,11.05,6c4.23-0.78,11.57-3.89,13.41-6.76c1.84-2.88,2.7-7.13,4.2-9.23
			c1.5-2.11,4.95-4.47,5.76-6.91c0.44-1.34-0.08-4.28-0.71-6.76c-0.57-2.28-1.19-4.78-1.94-4.57c0,0.28,0,1.4,0,1.4
			c-0.9,1.04-3.38,2.06-6.18,2.18C641.54,580.04,637.15,579.66,637.17,578.23z"/>
		<path id="XMLID_3983_" style="fill:#263238;" d="M594.17,557.83c-0.64,0.02-1.16,0.97-2.58,2.56c-1.71,1.93-4.51,4.01-7.27,5.45
			c-4.63,2.41-13.63,6.13-17.71,8.04c-2.55,1.19-2.43,4.4,0.21,6.22c2.63,1.82,8.98,3.14,16.61,1.36c4.16-0.97,9.56-4.96,12.99-4.75
			c3.42,0.22,9.83,0.16,12.36-1.65c2.53-1.81,1.52-5.69,0.8-9.02c-0.78-3.63-1.75-9.3-2.91-9.05v1.25
			c-1.49,2.34-9.16,3.3-12.42,1.57L594.17,557.83z"/>
		<path id="XMLID_3980_" style="fill:#263238;" d="M617.17,418.61c0,0-9.88-2.9-17.22-10.28c0,0,3.32,6.48,13.2,12.51l-2.11,55.83
			L617.17,418.61z"/>
	</g>
	<g id="XMLID_3920_">
		<path id="XMLID_3931_" style="fill:#27DEBF;" d="M644.84,304.56c0,0,9.68,0.89,8.99,19.32l-2.14,29.36l0.06,44.07
			c-9.09,10.3-49.4,9.55-63.21-0.83c0,0,1.56-52.15,2.5-72.22c0.66-14.27,3.94-21.45,17.97-23.02l17.24,0.76L644.84,304.56z"/>
		<polygon id="XMLID_3921_" style="opacity:0.3;" points="617.36,314.23 615.14,329.71 609.97,329.62 615.81,330.54 		"/>
	</g>
	<g id="XMLID_3860_">
		<path id="XMLID_3880_" style="fill:#263238;" d="M630.26,263.02c0,10.59-8.24,19.17-18.41,19.17c-10.17,0-17.95-8.59-18.41-19.17
			c-0.81-18.72,8.24-19.17,18.41-19.17C622.02,243.84,630.26,252.43,630.26,263.02z"/>
		<g id="XMLID_3871_">
			<path id="XMLID_3879_" style="fill:#263238;" d="M640.75,272.53c0,0-2.82,13.82-3.96,16.09c-1.13,2.27-3.47,2.92-3.47,2.92
				l0.2-9.72L640.75,272.53z"/>
			<path id="XMLID_3878_" style="fill:#263238;" d="M637.21,252.73c0,0,2.02-0.51,4.18,2.85c1.84,2.88,2.26,9.35-0.63,16.94
				l-5.32,0.64L637.21,252.73z"/>
			<path id="XMLID_3877_" style="fill:#FFA8A7;" d="M633.84,273.17c1.07,0.66,2.59-1.47,3.9-2.9c1.32-1.43,5.61-3.39,7.75,1.31
				c2.18,4.79-1.89,11.12-5.27,12.22c-5.83,1.9-6.7-1.99-6.7-1.99l-0.44,21.89c-7.73,11.96-25.25,11.53-18.95-0.58l0.02-6.66
				c0,0-5.28,0.83-7.85,0.42c-4.28-0.69-6.98-4.21-8.28-9.04c-2.09-7.76-2.88-14.02-1.11-29.28c1.94-16.72,20.61-16.9,30.7-10.29
				C637.68,254.88,633.84,273.17,633.84,273.17z"/>
			<path id="XMLID_3876_" style="fill:#263238;" d="M633.18,298.79c0,0-2.72,5.88-7.57,9.49c-4.46,3.32-9.16,3.89-9.16,3.89
				s4.54,3,6.47,7.26c1.93,4.25,15.54-7.46,15.41-15.77c0,0-2.14-8.35-5.06-8.88L633.18,298.79z"/>
			<path id="XMLID_3875_" style="fill:#263238;" d="M616.44,312.17c0,0-4.2-2.09-2.31-9.06l0.02-6.66l-1.84,0.25
				c-1.43,1.29-3.68,4.32-4.42,7.66c-0.42,1.91-1.46,11.57,0.39,13.49C609.95,319.6,612.68,312.69,616.44,312.17z"/>
			<path id="XMLID_3874_" style="fill:#263238;" d="M626.68,254.94c0.48-0.06,1-0.11,1.44,0.1c1.58,0.72,1.92,5.64,2.2,7.06
				c0.94,4.79,1.71,12.91,3.52,12.95c0.54,0.01,2.58-3.51,3.9-4.77c1.84-1.74-0.53-17.53-0.53-17.53s1.77-3.92-1.77-7.98
				c-3.31-3.8-8.52-4.63-13.27-4.9c-5.6-0.31-11.29,0.12-16.81-1.11c-1.75-0.39-3.48-0.95-5.27-1.13c-0.17-0.02-0.35-0.03-0.48,0.08
				c-0.18,0.15-0.15,0.43-0.11,0.65c0.34,1.65,0.93,3.25,1.75,4.73c-3.29-0.26-6.54-0.9-9.68-1.9c-0.18-0.06-0.37-0.12-0.55-0.06
				c-0.37,0.12-0.43,0.61-0.41,0.99c0.22,3.97,2.1,9.93,5.32,12.26c2.51,1.82,6.46,2.93,9.56,3.01
				C614.14,257.61,619.52,255.79,626.68,254.94z"/>
			<path id="XMLID_3873_" style="fill:#263238;" d="M637.2,253.57l6.45-3.61c-0.92-1.92-3.1-2.68-4.88-1.68
				C636.98,249.28,636.28,251.64,637.2,253.57z"/>
			<path id="XMLID_3872_" style="fill:#F28F8F;" d="M614.14,296.46c0,0,9.56-2.01,12.91-3.86c2.24-1.24,4.08-3.39,4.62-4.76
				c0,0-0.63,2.96-2.63,5.62c-2.45,3.26-14.9,5.65-14.9,5.65L614.14,296.46z"/>
		</g>
		<g id="XMLID_3861_">
			<path id="XMLID_3870_" style="fill:#263238;" d="M616.44,270.68c0,1.15,0.86,2.07,1.92,2.07c1.06,0,1.92-0.93,1.92-2.08
				c0-1.15-0.86-2.07-1.92-2.07C617.3,268.6,616.44,269.53,616.44,270.68z"/>
			<path id="XMLID_3869_" style="fill:#263238;" d="M619.52,262.42l4.1,2.36c0.6-1.23,0.18-2.75-0.96-3.4
				C621.53,260.72,620.12,261.19,619.52,262.42z"/>
			<path id="XMLID_3868_" style="fill:#F28F8F;" d="M615.01,284.47l-4.37,1.71c0.43,1.31,1.76,1.98,2.97,1.51
				C614.81,287.21,615.44,285.77,615.01,284.47z"/>
			<path id="XMLID_3864_" style="fill:#263238;" d="M598.86,264.17l3.74-3c-0.76-1.11-2.22-1.35-3.25-0.52
				C598.32,261.48,598.1,263.06,598.86,264.17z"/>
			<path id="XMLID_3863_" style="fill:#263238;" d="M600.5,270.11c0,1.15,0.86,2.07,1.92,2.07c1.06,0,1.92-0.93,1.92-2.08
				c0-1.15-0.86-2.07-1.92-2.07C601.36,268.03,600.5,268.97,600.5,270.11z"/>
			<polygon id="XMLID_3862_" style="fill:#F28F8F;" points="610.76,268.51 610.53,280.61 603.66,279.04 			"/>
		</g>
	</g>
	<g id="XMLID_3463_">
		<path id="XMLID_3856_" style="fill:#27DEBF;" d="M663.66,280.68c2.76-3.66,8.34,4.47,10.93,10.07c2.58,5.6,2.62,8.77,0.51,11
			c-2.11,2.22-6.12,0.87-10.13-4.43C660.96,292,662.08,283.38,663.66,280.68z"/>
		<path id="XMLID_3854_" style="opacity:0.5;" d="M663.66,280.68c2.76-3.66,8.34,4.47,10.93,10.07c2.58,5.6,2.62,8.77,0.51,11
			c-2.11,2.22-6.12,0.87-10.13-4.43C660.96,292,662.08,283.38,663.66,280.68z"/>
		<g id="XMLID_3852_">
			<path id="XMLID_3853_" style="fill:#FFA8A7;" d="M683.08,281.76c-9.74,22.93-23.43,35.75-29.56,50.46
				c-8.03-0.55-14.28-19.92-8.3-28.2c0,0,23.49-25.43,25.62-35.42c1.89-8.87,4.43-23.5,4.2-30.99c-0.04-1.25-0.59-2.41-1.44-3.32
				c-2.46-2.65-2.47-4.78-4.05-7.71c-1.23-2.28-2.58-3.14-2.2-3.65c0.49-0.66,2.06-1.52,4-0.3c0.98,0.62,1.61,1.34,3.03,2.91
				c0,0,0.63-4.04-1.39-8.59c-2.73-6.17-2.07-9.31,6.26-7.12c5.22,1.38,8.49,5.72,9.27,18.26c0.23,3.61,0.52,11.09,0.09,15.66
				c-0.9,9.65-1.48,19.71-2.67,27.7C685.41,274.99,684.49,278.46,683.08,281.76z"/>
		</g>
		<path id="XMLID_3683_" style="fill:#27DEBF;" d="M642.85,304.29l20.72-23.68c0,0-2.46,5.77,2.93,14.17c5.39,8.4,8.6,6.95,8.6,6.95
			s-12.23,17.85-15.51,23.83c-3.28,5.98-6.68,11.01-6.68,11.01s-0.82,2.11-3.87,2.11C645.99,338.69,637.94,325.2,642.85,304.29z"/>
		<path id="XMLID_3464_" style="opacity:0.3;" d="M642.85,304.29l20.72-23.68c0,0-2.46,5.77,2.93,14.17c5.39,8.4,8.6,6.95,8.6,6.95
			s-12.23,17.85-15.51,23.83c-3.28,5.98-6.68,11.01-6.68,11.01s-0.82,2.11-3.87,2.11C645.99,338.69,637.94,325.2,642.85,304.29z"/>
	</g>
</g>
<g id="XMLID_3992_">
	<g id="XMLID_4622_">
		<g id="XMLID_4625_">
			<polygon id="XMLID_4626_" style="fill:#F28F8F;" points="474.79,357.51 484.55,370.5 474.07,382.51 460.57,366.72 			"/>
		</g>
		<g id="XMLID_4623_">
			<path id="XMLID_4624_" style="fill:#455A64;" d="M442.88,327.99c8.51,0.4,12.56,1.71,17.02,6.96
				c4.35,5.12,26.73,37.47,26.73,37.47s-3.94,11.04-12.55,10.1l-15.67-16.15L442.88,327.99z"/>
		</g>
	</g>
	<g id="XMLID_4609_">
		<g id="XMLID_4617_">
			<path id="XMLID_4619_" style="fill:#263238;" d="M401.13,597.66c-0.28,2.05-0.87,4.44-0.98,10.24
				c-0.12,6.22-1.26,8.43-1.41,13.53c-0.17,5.83,0.83,8.01,3.2,11.29s8.58,6.25,11.2,0.71c2.66-5.61,2.29-9.17,1.45-14.89
				c-0.87-5.91-0.98-9.18-1.48-13.69c-0.44-3.98-0.97-7-0.97-7L401.13,597.66z"/>
			<path id="XMLID_4618_" style="fill:#FFBDA7;" d="M418.78,548.76l-20.49-0.37c0.3,13.67,2.48,36.44,2.83,49.27
				c0.07,2.42-0.06,18.77,0.85,23.74c1.37,7.47,10.23,6.46,10.7,1.99c0.47-4.47-0.57-23.56-0.54-25.53
				c-0.08-8.23,3.78-29.7,5.8-44.48C418.04,552.66,418.69,549.47,418.78,548.76z"/>
		</g>
		<g id="XMLID_4612_">
			<path id="XMLID_4614_" style="fill:#263238;" d="M448.89,587.02c0,0-1.06,0.06-1.23,0.92c-0.2,1.03-0.24,2.65-0.67,4.33
				c-0.59,2.34-1.09,6.2-0.73,8.11c0.36,1.91,4.71,4.75,7.7,5.25c2.98,0.5,7.19,3.45,9.52,5.64c2.86,2.69,9.04,5.24,13.24,5.21
				c4.98-0.04,8.45-1.66,10.09-4.32c1.71-2.78-1.49-2.99-7.18-6.68c-1.29-0.84-2.76-1.79-4.42-2.87
				c-9.01-5.89-12.31-9.04-14.86-14.93L448.89,587.02z"/>
			<path id="XMLID_4613_" style="fill:#FFBDA7;" d="M460.43,583.82c-0.15-4.23,2.02-35.43,2.02-35.43l-17.62,1.98
				c4.17,24.87,4.5,33.34,4.03,36.96l0,0c-0.03,0.09-0.11,0.44-0.11,1.04c0.02,4.83,5.47,7.44,9.72,10.66
				c1.68,1.27,6,5.19,11.06,6.92c3.27,1.11,9.33,1.54,10.1-0.45c-5.18-3.95-12.22-9.12-16.33-13.63
				C461.33,589.71,460.58,588.05,460.43,583.82z"/>
		</g>
		<path id="XMLID_4611_" style="fill:#27DEBF;" d="M403.05,407.35c-9.61,21,0.35,94.96,0.35,94.96c-0.29,3.41-4.18,10.11-5.64,25.11
			c-1.71,17.72,3.17,65.15,3.17,65.15s4.68,3.5,11.47,0.24c0,0,12.4-69.69,14.62-87.31c1.94-15.37,5.66-49.18,5.66-49.18l10.58,49.1
			c0,0-2.72,8.61-3.35,15.17c-1,10.36,9.09,62.37,9.09,62.37s4.72,2.49,11.43-0.22c0,0,4.47-67.19,5.41-79.67
			c1.57-20.96-4-86.38-7.84-98.78L403.05,407.35z"/>
		<path id="XMLID_3191_" style="opacity:0.5;" d="M403.05,407.35c-9.61,21,0.35,94.96,0.35,94.96c-0.29,3.41-4.18,10.11-5.64,25.11
			c-1.71,17.72,3.17,65.15,3.17,65.15s4.68,3.5,11.47,0.24c0,0,12.4-69.69,14.62-87.31c1.94-15.37,5.66-49.18,5.66-49.18l10.58,49.1
			c0,0-2.72,8.61-3.35,15.17c-1,10.36,9.09,62.37,9.09,62.37s4.72,2.49,11.43-0.22c0,0,4.47-67.19,5.41-79.67
			c1.57-20.96-4-86.38-7.84-98.78L403.05,407.35z"/>
		<path id="XMLID_4610_" style="opacity:0.2;" d="M432.68,456.31l3.12-19.5c0,0,13.2-2.73,19.19-8.36c0,0-6.28,7.81-15.61,10.37
			l-3.51,15.01L442,499.3L432.68,456.31z"/>
	</g>
	<g id="XMLID_4360_">
		<g id="XMLID_4362_">
			<path id="XMLID_4377_" style="fill:#27DEBF;" d="M407.98,342.13l13.08,3.41v-27.64l0,0c-7.22-1.88-13.08,2.29-13.08,9.31V342.13z
				"/>
			<path id="XMLID_6_" style="opacity:0.6;" d="M407.98,342.13l13.08,3.41v-27.64l0,0c-7.22-1.88-13.08,2.29-13.08,9.31V342.13z"/>
			<path id="XMLID_4608_" style="fill:#27DEBF;" d="M433.85,321.82l-4.69-0.11c-14.3-0.33-25.64-12.67-25.32-27.56l0,0
				c-0.08-16.23,12.57-29.46,28.15-29.54l0,0c15.59-0.08,28.29,13.01,28.37,29.24l-0.04,1.68
				C459.95,310.39,448.12,322.15,433.85,321.82z"/>
			<path id="XMLID_5_" style="opacity:0.6;" d="M433.85,321.82l-4.69-0.11c-14.3-0.33-25.64-12.67-25.32-27.56l0,0
				c-0.08-16.23,12.57-29.46,28.15-29.54l0,0c15.59-0.08,28.29,13.01,28.37,29.24l-0.04,1.68
				C459.95,310.39,448.12,322.15,433.85,321.82z"/>
			<path id="XMLID_2865_" style="fill:#27DEBF;" d="M411.95,271.41c-0.53-2.03-2.55-3.17-4.53-2.54l1.25,4.83
				c-0.27-0.32-0.57-0.61-0.94-0.82c-1.76-1.04-3.96-0.33-4.92,1.57l6.37,3.75c0.33-0.66,0.46-1.39,0.42-2.09
				C411.41,275.36,412.45,273.34,411.95,271.41z"/>
			<path id="XMLID_1_" style="opacity:0.6;" d="M411.95,271.41c-0.53-2.03-2.55-3.17-4.53-2.54l1.25,4.83
				c-0.27-0.32-0.57-0.61-0.94-0.82c-1.76-1.04-3.96-0.33-4.92,1.57l6.37,3.75c0.33-0.66,0.46-1.39,0.42-2.09
				C411.41,275.36,412.45,273.34,411.95,271.41z"/>
			<g id="XMLID_4372_">
				<path id="XMLID_4374_" style="fill:#37474F;" d="M419.67,329.12c0,0-9.46,1.34-13.08,2.51c5.06,12.42-2.88,31.6-2.88,31.6
					l7.49,23.07c-5.17,10.6-9.44,15.86-11.19,24.48c4.76,9.31,38.43,18.2,60.34,1.23c0,0-0.71-23.57-3.5-37.3
					c7.18-14,6.01-18.11,4.54-22.99c-3.41-11.35-10.3-15.72-18.51-23.72l-4.95-0.52L419.67,329.12z"/>
			</g>
			<path id="XMLID_1928_" style="fill:#263238;" d="M412.07,395.54c4.06-4.17,12.68-5.36,12.68-5.36l-7.91-4.51l-8.87-21.39
				c6.16-11.83,5.33-23.54,5.33-23.54l-5.09-1.22c0.62,11.31-4.51,23.71-4.51,23.71l7.49,23.07c-5.17,10.6-9.44,15.86-11.19,24.48
				c3.26,6.37,20.06,12.54,37.37,10.36C414.19,419.59,408.16,399.57,412.07,395.54z"/>
			<g id="XMLID_3196_">
				<path id="XMLID_3198_" style="fill:#E6E6E6;" d="M435.5,421.34c0.32-0.03,0.63-0.07,0.95-0.1
					C436.18,421.25,435.88,421.28,435.5,421.34z"/>
			</g>
			<g id="XMLID_4363_">
				<path id="XMLID_4371_" style="fill:#FFBDA7;" d="M449.83,279.1c2.81,2.58,6.32,8.19,6.04,24.56
					c-0.24,13.88-4.54,17.33-6.7,18.33c-2.16,1-6.35,0.42-10.42-0.26l-0.05,5.75c0,0,5.36,5.95,5.03,9.77
					c-0.33,3.82-7.63,5.4-12.91,1.7c-5.28-3.7-9.77-9.88-9.77-9.88L421,311.6c0,0-2.38,2.43-6.46-1.24
					c-3.36-3.03-4.52-8.17-1.92-10.94c2.6-2.77,7.42-2.05,9.29,1.88c0,0,9.28-0.78,17.84-5.25
					C447.34,292.08,450.37,284.92,449.83,279.1z"/>
				
					<ellipse id="XMLID_4370_" transform="matrix(0.9985 -0.0546 0.0546 0.9985 -15.7593 24.313)" style="fill:#263238;" cx="437.08" cy="300.57" rx="1.68" ry="1.81"/>
				<path id="XMLID_4369_" style="fill:#F79776;" d="M439.37,312.11l4.36,1.42c-0.36,1.3-1.62,2.03-2.82,1.64
					C439.71,314.78,439.02,313.41,439.37,312.11z"/>
				<path id="XMLID_4368_" style="fill:#263238;" d="M454.45,294.22l-3.95-1.35c0.3-1.14,1.42-1.77,2.52-1.4
					C454.1,291.84,454.74,293.07,454.45,294.22z"/>
				<path id="XMLID_4367_" style="fill:#27DEBF;" d="M421.94,299.65l-0.05,5.87c1.57,0.07,2.85-1.18,2.86-2.8
					C424.77,301.1,423.51,299.73,421.94,299.65z"/>
				<path id="XMLID_7_" style="opacity:0.6;" d="M421.94,299.65l-0.05,5.87c1.57,0.07,2.85-1.18,2.86-2.8
					C424.77,301.1,423.51,299.73,421.94,299.65z"/>
				
					<ellipse id="XMLID_4366_" transform="matrix(0.9985 -0.0548 0.0548 0.9985 -15.7601 25.1855)" style="fill:#263238;" cx="451.41" cy="300" rx="1.68" ry="1.81"/>
				<polygon id="XMLID_4365_" style="fill:#F79776;" points="443.78,297.53 443.73,308.9 449.03,307.16 				"/>
				<path id="XMLID_4364_" style="fill:#F79776;" d="M438.75,321.72c-4.29-0.56-13.11-3.15-14.5-6.77c0,0,0.47,2.28,3.11,4.61
					c2.65,2.34,11.37,4.96,11.37,4.96L438.75,321.72z"/>
			</g>
		</g>
	</g>
	<g id="XMLID_4067_">
		<path id="XMLID_4359_" style="fill:#FFBDA7;" d="M386.5,387.21c0,0,10.48,14.89,12.28,16.84c1.8,1.95,3.03,1.3,4.98,0.43
			c1.95-0.87,5.65-1.97,7.28-2.38c3.2-0.79,3.89,2.16,0.72,4.27c-2.29,1.53-4.92,2.19-3.82,3.44c1.1,1.25,4.49,3.44,7.65,4.69
			c7.73,3.05,7.14,4.58,5.71,7.09c-1.24,2.18-4.85,6.89-18.69,1.33c-5.71-2.29-13.75-8.81-17.54-13.01c-5.47-6.06-14-16.92-14-16.92
			L386.5,387.21z"/>
		<path id="XMLID_4358_" style="fill:#455A64;" d="M408.61,331.1c-3.8,0.25-10.93,1.17-19.88,16.03
			c-7.85,13.03-20.01,30.72-22.28,37.04c-0.91,2.55,2.65,7.87,7.23,13.3c6.27-0.27,11.96-4.6,14.92-8.06
			c-1.37-3.17-2.89-5.25-2.89-5.25l18.36-20.94c0,0,6.97-6.39,8.43-14.75C414.08,339.51,413.6,332.42,408.61,331.1z"/>
	</g>
	<g id="XMLID_3993_">
		<g id="XMLID_4063_">
			<polygon id="XMLID_4065_" style="fill:#27DEBF;" points="511.38,359.28 466.12,371.2 453.67,422.41 496.7,409.91 			"/>
			<polygon id="XMLID_4064_" style="opacity:0.25;" points="511.38,359.28 466.12,371.2 453.67,422.41 496.7,409.91 			"/>
		</g>
		<g id="XMLID_4061_" style="opacity:0.1;">
			<path id="XMLID_4062_" d="M490.93,395.54c0.42,1.15,3.19,5.31,8.46,5.06l0.33-1.13L490.93,395.54z"/>
		</g>
		<g id="XMLID_4055_" style="opacity:0.1;">
			<path id="XMLID_4056_" d="M497.75,367.41c0,0,0.17-0.77,0.37-1.73c0.21-0.95-2.45-0.99-5.93-0.09l-6.67,1.73
				c-3.48,0.9-6.47,2.41-6.68,3.36l-0.37,1.73L497.75,367.41z"/>
		</g>
		<g id="XMLID_4000_">
			<path id="XMLID_4001_" style="fill:#37474F;" d="M501.23,360.93c0.13-0.6-0.94-0.75-2.4-0.35l-2.64,0.73c0,0,0.79-3.73-5.07-2.43
				c-5.86,1.3-7.14,5.54-7.14,5.54s-1.26,0.36-2.82,0.8c-1.56,0.44-2.97,1.28-3.15,1.87l-0.33,1.07l23.31-6.14
				C500.98,362.03,501.1,361.52,501.23,360.93z"/>
		</g>
		<g id="XMLID_3998_">
			<path id="XMLID_3999_" style="fill:#37474F;" d="M498.02,362.77c-2.14,0.52-3.02,0.8-3.34,2.27c-0.36,1.68-0.51,2.91-0.51,2.91
				l-10.32,2.73c0,0,0.5-2.13,0.66-2.95c0.16-0.83-0.19-1.33-1.83-0.89l-0.14-0.66l16.17-4.12L498.02,362.77z"/>
		</g>
		<g id="XMLID_3996_">
			<path id="XMLID_3997_" style="fill:#37474F;" d="M498.37,367.58c0,0,0.17-0.77,0.37-1.73c0.21-0.95-2.45-0.99-5.93-0.09
				l-6.67,1.73c-3.48,0.9-6.47,2.41-6.68,3.36l-0.37,1.73L498.37,367.58z"/>
		</g>
		<g id="XMLID_3994_">
			<path id="XMLID_3995_" style="fill:#FFBDA7;" d="M506.62,375.72c0,0-1.69,5.79-2.08,7.17c-0.39,1.38-5.46,3.86-8.79,4.77
				c-3.33,0.91-6.97,2-5.39,6.65c1.45,4.29,6.93,5.27,9.71,5.15c2.79-0.12,6.6-2.79,8.11-7.08c1.92-5.48,0.88-11.33,1.65-14.53
				C510.59,374.66,508.28,373.81,506.62,375.72z"/>
		</g>
	</g>
</g>
<g id="XMLID_4627_">
	<g id="XMLID_4729_">
		<path id="XMLID_4731_" style="fill:#914F4E;" d="M335.19,377.08c-6.21-6.25-8.43-3.82-9.21,3.04c-0.58,5.06-2.07,8.38-2.07,8.38
			c-0.44-2.12-0.62-3.09-1.17-4.14c-1.08-2.09-2.9-2.14-3.68-1.81c-0.61,0.25,0.14,1.71,0.05,4.36c-0.12,3.4-1.22,5.28-0.43,8.9
			c0.3,1.35,0.05,2.76-0.61,3.98c-3.35,6.2-14.03,17.67-21.56,25.93c-6.66-6.01-21.55-19.47-28.67-25.89
			c-9.78-8.81-12.97-12.78-22.43-12.14c0,0,3.66,1.11,8.05,4.82c4.38,3.71,3.34,24.92,3.34,24.92s32.54,23.33,35.88,25.55
			c0.49,0.33,0.99,0.62,1.49,0.89c3.27,1.74,7.31,0.91,9.75-1.87c6.95-7.94,17.07-23.56,22.92-31.69c2.75-3.81,5.4-9.01,7.07-12.32
			C339.71,386.53,339.08,381,335.19,377.08z"/>
		<path id="XMLID_4730_" style="fill:#27DEBF;" d="M246.37,387.11c0,0,6.59-1.72,13.09,3.21c5.58,4.24,29.34,26.08,29.34,26.08
			s0.65,11.57-11.43,18.48l-29.2-20.59L246.37,387.11z"/>
		<path id="XMLID_2372_" style="opacity:0.3;" d="M246.37,387.11c0,0,6.59-1.72,13.09,3.21c5.58,4.24,29.34,26.08,29.34,26.08
			s0.65,11.57-11.43,18.48l-29.2-20.59L246.37,387.11z"/>
	</g>
	<g id="XMLID_4680_">
		<rect id="XMLID_4728_" x="205.84" y="648.39" style="fill:#914F4E;" width="12.37" height="22.05"/>
		<polygon id="XMLID_4727_" style="fill:#914F4E;" points="248.71,647.22 261.07,647.66 261.69,624.33 248.71,623.89 		"/>
		<path id="XMLID_4726_" style="fill:#37474F;" d="M204.1,457.51c0,12.3,1.81,111.27,1.81,111.27c-0.29,3.54-3.47,10.06-2.78,23.66
			c0.94,18.46,2.19,66.98,2.19,66.98s6,3.65,13.77,0.28c0,0,11.7-67.2,13.91-85.5c1.93-15.97,5.21-69.73,5.21-69.73l6.7,62.52
			c0,0-2.28,9.52-1.53,20.47c0.58,8.46,4.55,52.54,4.55,52.54s5.82,4.11,14.28,1.14c0,0,7.03-66.38,7.18-74.15
			c0.16-8.85-4.11-109.61-4.11-109.61L204.1,457.51z"/>
		<path id="XMLID_4725_" style="fill:#263238;" d="M218.21,664.09v-1.84c1.18,0.54,3.93,11.46,8.84,16.12
			c3.9,3.71,9.22,7.99,10.57,12.12c1.41,4.3-7.41,6.67-11.05,6c-4.23-0.78-11.57-3.89-13.41-6.76c-1.84-2.88-2.7-7.13-4.2-9.23
			c-1.5-2.11-4.95-4.47-5.76-6.91c-0.44-1.34,0.08-4.28,0.71-6.76c0.57-2.28,1.19-4.78,1.94-4.57c0,0.28,0,1.4,0,1.4
			c0.9,1.04,3.38,2.06,6.18,2.18C213.83,665.9,218.22,665.52,218.21,664.09z"/>
		<path id="XMLID_4682_" style="fill:#263238;" d="M261.2,643.69c0.64,0.02,1.16,0.97,2.58,2.56c1.71,1.93,4.51,4.01,7.27,5.45
			c4.63,2.41,13.63,6.13,17.71,8.04c2.55,1.19,2.43,4.4-0.21,6.22c-2.63,1.82-8.98,3.14-16.61,1.36c-4.15-0.97-9.56-4.96-12.99-4.75
			c-3.42,0.22-9.83,0.16-12.36-1.65c-2.53-1.81-1.52-5.69-0.8-9.02c0.78-3.63,1.75-9.3,2.91-9.05v1.25
			c1.49,2.34,9.16,3.3,12.42,1.57L261.2,643.69z"/>
		<path id="XMLID_4681_" style="fill:#263238;" d="M238.21,504.47c0,0,9.88-2.9,17.22-10.28c0,0-3.32,6.48-13.2,12.51l2.11,55.83
			L238.21,504.47z"/>
	</g>
	<g id="XMLID_4677_">
		<path id="XMLID_4679_" style="fill:#27DEBF;" d="M210.53,390.42c0,0-9.68,0.89-8.99,19.32l2.14,29.36l-0.2,44.07
			c9.09,10.3,49.4,9.55,63.21-0.83c0,0-1.42-52.15-2.35-72.22c-0.66-14.27-3.95-21.45-17.97-23.02l-17.24,0.76L210.53,390.42z"/>
		<polygon id="XMLID_4678_" style="opacity:0.3;" points="238.01,400.09 240.23,415.57 245.4,415.48 239.57,416.4 		"/>
	</g>
	<g id="XMLID_4674_">
		<path id="XMLID_4676_" style="fill:#914F4E;" d="M179.84,453.72c5.02-40.33,16.56-60.38,30.62-62.74l-1,25.81
			c0,0-9.45,21.54-13.39,42.7c-1.85,9.93-3.99,27.19-3.44,35.68c0.1,1.5,0.76,2.9,1.8,3.96c2.77,2.83,3.61,5.28,5.48,8.47
			c1.46,2.5,2.96,3.38,2.58,3.98c-0.5,0.77-2.14,1.83-4.31,0.56c-1.09-0.64-2.4-1.94-4.02-3.62c0,0-0.41,6.22,2.02,11.23
			c3.29,6.78,2.74,10.36-6.37,8.36c-5.71-1.25-9.83-7.28-11.36-21.34c-0.44-4.05-0.5-10.6-0.28-15.77
			C178.73,477.56,178.84,461.79,179.84,453.72z"/>
		<path id="XMLID_4675_" style="fill:#27DEBF;" d="M211.27,390.32c-7.31-0.03-13.97,1.26-19.27,11.46
			c-5.08,9.79-8.99,30.53-10.96,37.3c0,0,10.67,6.3,20.48,6.15l6.91-23.98C208.42,421.25,213.09,410.05,211.27,390.32z"/>
		<path id="XMLID_2361_" style="opacity:0.3;" d="M211.27,390.32c-7.31-0.03-13.97,1.26-19.27,11.46
			c-5.08,9.79-8.99,30.53-10.96,37.3c0,0,10.67,6.3,20.48,6.15l6.91-23.98C208.42,421.25,213.09,410.05,211.27,390.32z"/>
	</g>
	<g id="XMLID_4646_">
		<ellipse id="XMLID_4673_" style="fill:#263238;" cx="244.74" cy="348.8" rx="18.41" ry="19.17"/>
		<g id="XMLID_4654_">
			<path id="XMLID_4672_" style="fill:#263238;" d="M214.62,358.39c0,0,2.82,13.82,3.96,16.09c1.13,2.27,3.47,2.92,3.47,2.92
				l-0.2-9.72L214.62,358.39z"/>
			<path id="XMLID_4671_" style="fill:#263238;" d="M218.17,338.59c0,0-2.02-0.51-4.18,2.85c-1.84,2.88-2.26,9.35,0.63,16.94
				l5.32,0.64L218.17,338.59z"/>
			<path id="XMLID_4670_" style="fill:#914F4E;" d="M221.54,359.03c-1.07,0.66-2.59-1.47-3.9-2.9c-1.32-1.43-5.61-3.39-7.75,1.31
				c-2.18,4.79,1.89,11.12,5.27,12.22c5.83,1.9,6.7-1.99,6.7-1.99l0.44,21.89c7.73,11.96,25.25,11.53,18.95-0.58l-0.02-6.66
				c0,0,5.28,0.83,7.85,0.42c4.28-0.69,6.98-4.21,8.28-9.04c2.09-7.76,2.88-14.02,1.11-29.28c-1.94-16.72-20.62-16.9-30.7-10.29
				C217.69,340.74,221.54,359.03,221.54,359.03z"/>
			<path id="XMLID_4659_" style="fill:#263238;" d="M222.2,384.65c0,0,2.72,5.88,7.57,9.49c4.46,3.32,9.16,3.89,9.16,3.89
				s-4.54,3-6.47,7.26c-1.93,4.25-15.54-7.46-15.41-15.77c0,0,2.14-8.35,5.06-8.88L222.2,384.65z"/>
			<path id="XMLID_4658_" style="fill:#263238;" d="M238.94,398.03c0,0,4.2-2.09,2.31-9.06l-0.02-6.66l1.84,0.25
				c1.43,1.29,3.68,4.32,4.42,7.66c0.42,1.91,1.46,11.57-0.39,13.49C245.43,405.46,242.7,398.55,238.94,398.03z"/>
			<path id="XMLID_4657_" style="fill:#263238;" d="M221.54,360.9c-0.54,0.01-2.58-3.51-3.9-4.77c-1.84-1.74,0.53-17.53,0.53-17.53
				s-1.77-3.92,1.77-7.98c2.52-2.89,6.73-3.21,13.92-4.39c2.8-0.46,5.79-0.76,8.52-1.54c2.92-0.83,5.8-2.77,8.52-4.15
				c0.9-0.46,1.91-0.93,2.88-0.66c0.94,0.25,1.59,1.15,1.83,2.09c0.24,0.94,0.15,1.93,0.05,2.89c1.66-1.84,4.92-1.57,6.62,0.24
				c1.7,1.81,1.94,4.67,1.03,6.98c-0.9,2.31-2.77,4.13-4.82,5.52c-9.04,6.1-19.7,4.41-29.82,3.21c-0.48-0.06-1-0.11-1.44,0.1
				c-1.58,0.72-1.92,5.64-2.2,7.06C224.12,352.74,223.34,360.86,221.54,360.9z"/>
			<path id="XMLID_4656_" style="fill:#263238;" d="M218.18,339.43l-6.45-3.61c0.92-1.92,3.1-2.68,4.88-1.68
				C218.39,335.14,219.09,337.5,218.18,339.43z"/>
			<path id="XMLID_4655_" style="fill:#783736;" d="M241.23,382.32c0,0-9.56-2.01-12.91-3.86c-2.24-1.24-4.08-3.39-4.62-4.76
				c0,0,0.63,2.96,2.63,5.62c2.45,3.26,14.9,5.65,14.9,5.65L241.23,382.32z"/>
		</g>
		<g id="XMLID_4647_">
			<path id="XMLID_4653_" style="fill:#263238;" d="M237.77,355.97c0,1.15-0.86,2.07-1.92,2.07c-1.06,0-1.92-0.93-1.92-2.08
				c0-1.15,0.86-2.07,1.92-2.07C236.92,353.89,237.77,354.82,237.77,355.97z"/>
			<path id="XMLID_4652_" style="fill:#263238;" d="M234.48,347.67l-4.1,2.36c-0.6-1.23-0.18-2.75,0.96-3.4
				C232.47,345.98,233.88,346.45,234.48,347.67z"/>
			<path id="XMLID_4651_" style="fill:#783736;" d="M240.37,370.33l4.37,1.71c-0.43,1.31-1.76,1.98-2.97,1.51
				C240.56,373.07,239.93,371.63,240.37,370.33z"/>
			<path id="XMLID_4650_" style="fill:#263238;" d="M256.92,349.96l-4.31-2.1c0.5-1.26,1.87-1.8,3.05-1.22
				C256.85,347.22,257.42,348.71,256.92,349.96z"/>
			<path id="XMLID_4649_" style="fill:#263238;" d="M254.08,355.97c0,1.15-0.86,2.07-1.92,2.07c-1.06,0-1.92-0.93-1.92-2.08
				c0-1.15,0.86-2.07,1.92-2.07C253.22,353.89,254.08,354.82,254.08,355.97z"/>
			<polygon id="XMLID_4648_" style="fill:#783736;" points="243.22,354.49 243.44,366.59 250.31,365.02 			"/>
		</g>
	</g>
	<g id="XMLID_4628_">
		<g id="XMLID_4638_">
			<path id="XMLID_4642_" style="fill:#263238;" d="M234.81,350.97c-2.59,0-4.7,2.15-4.7,4.79c0,2.64,2.11,4.79,4.7,4.79h0.87
				c2.59,0,4.7-2.15,4.7-4.79c0-2.64-2.11-4.79-4.7-4.79H234.81z M229.16,355.75c0-3.17,2.53-5.76,5.65-5.76l0.87,0
				c3.12,0,5.65,2.58,5.65,5.76c0,3.17-2.53,5.76-5.65,5.76h-0.87C231.69,361.51,229.16,358.93,229.16,355.75z"/>
		</g>
		<g id="XMLID_4634_">
			<path id="XMLID_4635_" style="fill:#263238;" d="M252.04,350.97c-2.59,0-4.7,2.15-4.7,4.79c0,2.64,2.11,4.79,4.7,4.79l0.87,0
				c2.59,0,4.7-2.15,4.7-4.79c0-2.64-2.11-4.79-4.7-4.79H252.04z M246.39,355.75c0-3.17,2.53-5.76,5.65-5.76h0.87
				c3.12,0,5.65,2.58,5.65,5.76c0,3.17-2.53,5.76-5.65,5.76h-0.87C248.92,361.51,246.39,358.93,246.39,355.75z"/>
		</g>
		<path id="XMLID_4633_" style="fill:#263238;" d="M241.26,354.62c0.52-0.87,1.69-1.48,2.99-1.55c1.11-0.06,2.09,0.32,2.6,1
			l0.76-0.59c-0.71-0.96-1.95-1.46-3.41-1.38c-1.62,0.08-3.06,0.86-3.75,2.01L241.26,354.62z"/>
		<rect id="XMLID_4632_" x="219.94" y="354.57" style="fill:#263238;" width="9.74" height="0.97"/>
	</g>
</g>
</svg>
