<?xml version="1.0" encoding="utf-8"?>
<!-- Generator: Adobe Illustrator 17.0.0, SVG Export Plug-In . SVG Version: 6.00 Build 0)  -->
<!DOCTYPE svg PUBLIC "-//W3C//DTD SVG 1.1//EN" "http://www.w3.org/Graphics/SVG/1.1/DTD/svg11.dtd">
<svg version="1.1" id="Calque_1" xmlns="http://www.w3.org/2000/svg" xmlns:xlink="http://www.w3.org/1999/xlink" x="0px" y="0px"
	 width="960px" height="560px" viewBox="0 0 960 560" style="enable-background:new 0 0 960 560;" xml:space="preserve">
<path style="fill:#FFFFFF;" d="M738.05,265.71L617.89,146.07c-5.86-5.83-15.32-5.81-21.15,0.05c-5.83,5.85-5.81,15.32,0.05,21.15
	l94.15,93.74H225.5c-8.26,0-14.95,6.69-14.95,14.95c0,8.26,6.7,14.95,14.95,14.95h466.13l-94.85,94.43
	c-5.85,5.83-5.87,15.3-0.05,21.15c2.92,2.94,6.76,4.41,10.6,4.41c3.82,0,7.63-1.45,10.55-4.36l120.16-119.64
	c2.82-2.81,4.4-6.62,4.4-10.6C742.46,272.33,740.87,268.52,738.05,265.71z"/>
</svg>
