<?xml version="1.0" encoding="utf-8"?>
<!-- Generator: Adobe Illustrator 17.0.0, SVG Export Plug-In . SVG Version: 6.00 Build 0)  -->
<!DOCTYPE svg PUBLIC "-//W3C//DTD SVG 1.1//EN" "http://www.w3.org/Graphics/SVG/1.1/DTD/svg11.dtd">
<svg version="1.1" id="Calque_1" xmlns="http://www.w3.org/2000/svg" xmlns:xlink="http://www.w3.org/1999/xlink" x="0px" y="0px"
	 width="960px" height="560px" viewBox="0 0 960 560" style="enable-background:new 0 0 960 560;" xml:space="preserve">
<rect x="-1" style="opacity:0.9;fill:#353535;" width="961" height="561"/>
<g>
	<g>
		<g>
			<g>
				<polygon style="fill:#FFFFFF;" points="-377.69,1537.9 -377.69,1537.9 -377.69,1537.9 				"/>
				<path style="fill:#FFFFFF;" d="M-378.62,1540.32c-0.52,0.14-0.92,0.12-0.92,0.12l0.02-0.1c0.48-0.38,1.69-1.56,1.85-2.11
					c0.07-0.24-0.01-0.32-0.01-0.33l-1.55,0.66l-1.29,0.58l0,0c-0.89-0.95-2.24-1.55-3.76-1.55c-2.69,0-4.87,1.9-4.87,4.26
					c0,0.43,0.06,1.21,0.2,1.61c0,0.12,0.01-0.12,0,0c-1.73-0.05-3.95-0.76-5.93-1.76c-3.9-1.98-4.14-3.34-4.14-3.34
					c-0.61,0.65-0.93,2.8-0.31,4.49c0.4,1.08,1.76,2.05,1.76,2.05l0,0c0,0-0.61,0.01-1.25-0.21c-0.64-0.22-0.88-0.43-0.88-0.43
					c-0.38,0.93,0.38,2.58,1.7,3.77c0.77,0.69,2.17,1.13,2.17,1.13l-2.19,0.06c-0.12,2.13,4.47,3.4,4.47,3.4l0,0
					c-1.35,1.04-2.91,1.67-4.59,1.67c-0.87,0-1.71-0.13-2.5-0.37c2.21,1.82,5.06,3.08,8.15,2.92c8.21-0.43,12.84-7.49,13.06-14.41
					l0.01,0.01c0,0,0.38-0.19,1.21-1.01c0.82-0.82,1.33-1.78,1.33-1.78S-378.11,1540.18-378.62,1540.32z"/>
				<path style="fill:#FFFFFF;" d="M-377.69,1537.9C-377.69,1538.03-377.69,1537.91-377.69,1537.9L-377.69,1537.9z"/>
			</g>
		</g>
		<g>
			<path style="fill:#FFFFFF;" d="M-427.18,1564.2v-13.04h4.38l0.66-5.08h-5.03v-3.24c0-1.47,0.41-2.47,2.52-2.47l2.69,0v-4.55
				c-0.47-0.06-2.06-0.2-3.92-0.2c-3.88,0-6.54,2.37-6.54,6.72v3.75h-4.39v5.08h4.39v13.04H-427.18L-427.18,1564.2z"/>
		</g>
		<g>
			<g>
				<g>
					<path style="fill:#FFFFFF;" d="M-472.45,1560.69h-10.82c-4.8,0-8.71-3.91-8.71-8.71v-9.53c0-4.8,3.91-8.71,8.71-8.71h10.82
						c4.8,0,8.71,3.91,8.71,8.71v9.53C-463.74,1556.79-467.64,1560.69-472.45,1560.69z M-483.26,1535.68
						c-3.73,0-6.77,3.04-6.77,6.77v9.53c0,3.73,3.04,6.77,6.77,6.77h10.82c3.73,0,6.77-3.04,6.77-6.77v-9.53
						c0-3.73-3.04-6.77-6.77-6.77H-483.26z"/>
				</g>
				<g>
					<path style="fill:#FFFFFF;" d="M-477.85,1554.97c-4.27,0-7.75-3.48-7.75-7.75c0-4.27,3.48-7.75,7.75-7.75
						c4.27,0,7.75,3.48,7.75,7.75C-470.1,1551.5-473.58,1554.97-477.85,1554.97z M-477.85,1541.41c-3.21,0-5.82,2.61-5.82,5.82
						c0,3.21,2.61,5.81,5.82,5.81c3.21,0,5.81-2.61,5.81-5.81C-472.04,1544.02-474.65,1541.41-477.85,1541.41z"/>
				</g>
				<g>
					<circle style="fill:#FFFFFF;" cx="-470.22" cy="1539.71" r="1.61"/>
				</g>
			</g>
		</g>
		<g>
			<g>
				<g>
					<path style="fill:#FFFFFF;" d="M-345.22,1560.23c-2.28,0-4.51-0.6-6.49-1.75l-5.07,1.75l1.04-5.37
						c-1.63-2.24-2.49-4.87-2.49-7.64c0-7.17,5.83-13,13-13c7.17,0,13,5.83,13,13C-332.22,1554.39-338.05,1560.23-345.22,1560.23z
						 M-351.47,1556.35l0.39,0.25c1.77,1.11,3.79,1.69,5.86,1.69c6.1,0,11.07-4.97,11.07-11.07s-4.97-11.07-11.07-11.07
						c-6.1,0-11.07,4.97-11.07,11.07c0,2.48,0.81,4.84,2.35,6.8l0.27,0.35l-0.57,2.93L-351.47,1556.35z"/>
				</g>
				<path style="fill:#FFFFFF;" d="M-351.79,1542.23c0,0,0.76-1.33,1.38-1.41c0.62-0.08,1.42-0.08,1.64,0.33
					c0.22,0.41,1.18,2.77,1.18,2.77s0.16,0.41-0.09,0.8c-0.25,0.39-0.83,0.96-0.83,0.96s-0.32,0.41,0,0.84
					c0.32,0.43,0.81,1.23,1.83,2.24c1.02,1.02,2.97,1.74,2.97,1.74s0.28,0.04,0.46-0.14c0.18-0.18,1.14-1.39,1.14-1.39
					s0.31-0.4,0.83-0.16c0.51,0.24,2.74,1.35,2.74,1.35s0.26,0.1,0.26,0.49c0,0.39-0.16,1.36-0.49,1.68
					c-0.33,0.33-1.28,1.33-2.71,1.33c-1.43,0-4.84-1.16-6.66-2.98c-1.82-1.82-3.43-3.66-3.81-5.34
					C-352.31,1543.67-352.25,1542.92-351.79,1542.23z"/>
			</g>
		</g>
	</g>
</g>
<g style="opacity:0.1;">
	<g>
		<path style="fill:none;stroke:#000000;stroke-width:4;stroke-miterlimit:10;" d="M139.64,435.56l-34.92-11.86
			c-3.69-1.25-5.66-5.26-4.41-8.95l0,0c1.25-3.69,5.26-5.66,8.94-4.41l34.92,11.86c3.69,1.25,5.66,5.26,4.41,8.94l0,0
			C147.33,434.84,143.33,436.81,139.64,435.56z"/>
		<path style="fill:none;stroke:#000000;stroke-width:4;stroke-miterlimit:10;" d="M135.05,449.08l-34.92-11.86
			c-3.69-1.25-5.66-5.26-4.41-8.94l0,0c1.25-3.69,5.26-5.66,8.95-4.41l34.92,11.85c3.69,1.25,5.66,5.26,4.41,8.95l0,0
			C142.74,448.35,138.74,450.33,135.05,449.08z"/>
		<path style="fill:none;stroke:#000000;stroke-width:4;stroke-miterlimit:10;" d="M104.01,373.86L104.01,373.86L104.01,373.86
			c0.04,0.12,0.07,0.23,0.11,0.35c0.78,2.49,5.38,18.27,3.46,35.78l37.46,12.36c8.88-15.21,21.97-25.14,24.08-26.68
			c0.1-0.07,0.2-0.14,0.29-0.21l0,0l0,0c1.02-0.73,2.01-1.51,2.97-2.34c5.64-4.87,10.08-11.28,12.58-18.86
			c7.37-22.32-4.75-46.39-27.07-53.76c-22.32-7.37-46.39,4.75-53.76,27.08c-2.5,7.59-2.76,15.38-1.12,22.65
			C103.29,371.45,103.63,372.67,104.01,373.86z"/>
		<path style="fill:none;stroke:#000000;stroke-width:4;stroke-miterlimit:10;" d="M102.04,438.03c-0.42,7.4,4.14,14.45,11.52,16.89
			c7.28,2.4,15.03-0.45,19.15-6.48L102.04,438.03z"/>
		<path style="fill:none;stroke:#000000;stroke-width:4;stroke-miterlimit:10;" d="M119.31,413.67l11.13-33.73
			c1.1-3.32-0.71-6.9-4.03-8c-3.32-1.1-6.9,0.71-8,4.03c-1.1,3.32,0.71,6.9,4.03,8l13.36,4.41"/>
		<path style="fill:none;stroke:#000000;stroke-width:4;stroke-miterlimit:10;" d="M134,418.52l11.13-33.73
			c1.1-3.32,4.68-5.12,8-4.03c3.32,1.1,5.12,4.68,4.03,8c-1.1,3.32-4.68,5.12-8,4.03l-13.36-4.41"/>
	</g>
	<g>
		
			<line style="fill:none;stroke:#000000;stroke-width:4;stroke-linecap:round;stroke-miterlimit:10;" x1="192.87" y1="385.89" x2="204.15" y2="389.61"/>
		
			<line style="fill:none;stroke:#000000;stroke-width:4;stroke-linecap:round;stroke-miterlimit:10;" x1="198.04" y1="371.68" x2="209.79" y2="369.9"/>
		
			<line style="fill:none;stroke:#000000;stroke-width:4;stroke-linecap:round;stroke-miterlimit:10;" x1="184.98" y1="398.08" x2="193.36" y2="406.49"/>
	</g>
	<g>
		
			<line style="fill:none;stroke:#000000;stroke-width:4;stroke-linecap:round;stroke-miterlimit:10;" x1="88.11" y1="351.31" x2="76.83" y2="347.59"/>
		
			<line style="fill:none;stroke:#000000;stroke-width:4;stroke-linecap:round;stroke-miterlimit:10;" x1="92.41" y1="336.81" x2="84.03" y2="328.39"/>
		
			<line style="fill:none;stroke:#000000;stroke-width:4;stroke-linecap:round;stroke-miterlimit:10;" x1="87.19" y1="365.8" x2="75.45" y2="367.57"/>
	</g>
</g>
<path style="fill:none;stroke:#FA8231;stroke-width:4;stroke-linecap:round;stroke-linejoin:round;stroke-miterlimit:10;" d="
	M1044.22,1175.78c-11.86,0-21.48-9.62-21.48-21.48c0,11.86-9.62,21.48-21.48,21.48c11.86,0,21.48,9.62,21.48,21.48
	C1022.74,1185.4,1032.35,1175.78,1044.22,1175.78z"/>
<path style="fill:none;stroke:#BF085B;stroke-width:4;stroke-linecap:round;stroke-linejoin:round;stroke-miterlimit:10;" d="
	M737.3,1128.24c-11.86,0-21.48-9.62-21.48-21.48c0,11.86-9.62,21.48-21.48,21.48c11.86,0,21.48,9.62,21.48,21.48
	C715.82,1137.86,725.44,1128.24,737.3,1128.24z"/>
<path style="fill:none;stroke:#FDA14D;stroke-width:4;stroke-linecap:round;stroke-linejoin:round;stroke-miterlimit:10;" d="
	M1243.63,1272.45c-11.86,0-21.48-9.62-21.48-21.48c0,11.86-9.62,21.48-21.48,21.48c11.86,0,21.48,9.62,21.48,21.48
	C1222.15,1282.06,1231.77,1272.45,1243.63,1272.45z"/>
<path style="fill:none;stroke:#FA8231;stroke-width:4;stroke-linecap:round;stroke-linejoin:round;stroke-miterlimit:10;" d="
	M933.02,1292.18c-11.86,0-21.48-9.62-21.48-21.48c0,11.86-9.62,21.48-21.48,21.48c11.86,0,21.48,9.62,21.48,21.48
	C911.54,1301.8,921.16,1292.18,933.02,1292.18z"/>
<path style="fill:none;stroke:#BF085B;stroke-width:4;stroke-linecap:round;stroke-linejoin:round;stroke-miterlimit:10;" d="
	M1073.88,890.24c-11.86,0-21.48-9.62-21.48-21.48c0,11.86-9.62,21.48-21.48,21.48c11.86,0,21.48,9.62,21.48,21.48
	C1052.4,899.86,1062.01,890.24,1073.88,890.24z"/>
<path style="fill:none;stroke:#BF085B;stroke-width:4;stroke-linecap:round;stroke-linejoin:round;stroke-miterlimit:10;" d="
	M783.99,1266.28c-9.62,0-17.42-7.8-17.42-17.42c0,9.62-7.8,17.42-17.42,17.42c9.62,0,17.42,7.8,17.42,17.42
	C766.57,1274.08,774.37,1266.28,783.99,1266.28z"/>
<path style="fill:none;stroke:#FDA14D;stroke-width:4;stroke-linecap:round;stroke-linejoin:round;stroke-miterlimit:10;" d="
	M1203.35,1377.29c-9.62,0-17.42-7.8-17.42-17.42c0,9.62-7.8,17.42-17.42,17.42c9.62,0,17.42,7.8,17.42,17.42
	C1185.93,1385.08,1193.73,1377.29,1203.35,1377.29z"/>
<path style="fill:none;stroke:#BF085B;stroke-width:4;stroke-linecap:round;stroke-linejoin:round;stroke-miterlimit:10;" d="
	M1017.09,1058.12c-9.62,0-17.42-7.8-17.42-17.42c0,9.62-7.8,17.42-17.42,17.42c9.62,0,17.42,7.8,17.42,17.42
	C999.67,1065.91,1007.47,1058.12,1017.09,1058.12z"/>
<path style="fill:none;stroke:#BF085B;stroke-width:4;stroke-linecap:round;stroke-linejoin:round;stroke-miterlimit:10;" d="
	M1148.53,801.17c-9.62,0-17.42-7.8-17.42-17.42c0,9.62-7.8,17.42-17.42,17.42c9.62,0,17.42,7.8,17.42,17.42
	C1131.11,808.97,1138.91,801.17,1148.53,801.17z"/>
<path style="fill:none;stroke:#FDA14D;stroke-width:4;stroke-linecap:round;stroke-linejoin:round;stroke-miterlimit:10;" d="
	M957.55,1572.96c-9.62,0-17.42-7.8-17.42-17.42c0,9.62-7.8,17.42-17.42,17.42c9.62,0,17.42,7.8,17.42,17.42
	C940.13,1580.76,947.93,1572.96,957.55,1572.96z"/>
<circle style="fill:none;stroke:#BF085B;stroke-width:4;stroke-linecap:round;stroke-linejoin:round;stroke-miterlimit:10;" cx="833.97" cy="1066.71" r="8.59"/>
<circle style="fill:none;stroke:#FDA14D;stroke-width:4;stroke-linecap:round;stroke-linejoin:round;stroke-miterlimit:10;" cx="1244.88" cy="1121.3" r="8.59"/>
<circle style="fill:none;stroke:#FDA14D;stroke-width:4;stroke-linecap:round;stroke-linejoin:round;stroke-miterlimit:10;" cx="1184.78" cy="1202.54" r="8.59"/>
<circle style="fill:none;stroke:#BF085B;stroke-width:4;stroke-linecap:round;stroke-linejoin:round;stroke-miterlimit:10;" cx="976.79" cy="809.76" r="8.59"/>
<circle style="fill:none;stroke:#BF085B;stroke-width:4;stroke-linecap:round;stroke-linejoin:round;stroke-miterlimit:10;" cx="1052.4" cy="975" r="8.59"/>
<circle style="fill:none;stroke:#BF085B;stroke-width:4;stroke-linecap:round;stroke-linejoin:round;stroke-miterlimit:10;" cx="762.14" cy="809.76" r="8.59"/>
<circle style="fill:none;stroke:#BF085B;stroke-width:4;stroke-linecap:round;stroke-linejoin:round;stroke-miterlimit:10;" cx="633.14" cy="1456.24" r="8.59"/>
<circle style="fill:none;stroke:#FDA14D;stroke-width:4;stroke-linecap:round;stroke-linejoin:round;stroke-miterlimit:10;" cx="962.81" cy="1377.29" r="8.59"/>
<circle style="fill:none;stroke:#FDA14D;stroke-width:4;stroke-linecap:round;stroke-linejoin:round;stroke-miterlimit:10;" cx="855.84" cy="1491.01" r="8.59"/>
<circle style="fill:none;stroke:#FDA14D;stroke-width:4;stroke-linecap:round;stroke-linejoin:round;stroke-miterlimit:10;" cx="1069.65" cy="1467.6" r="8.59"/>
<g style="opacity:0.1;">
	
		<ellipse style="fill:none;stroke:#000000;stroke-width:4;stroke-linecap:round;stroke-linejoin:round;stroke-miterlimit:10;" cx="386.28" cy="458.96" rx="62.72" ry="29.73"/>
	
		<ellipse transform="matrix(0.8541 0.52 -0.52 0.8541 295.0125 -133.9387)" style="fill:none;stroke:#000000;stroke-width:4;stroke-linecap:round;stroke-linejoin:round;stroke-miterlimit:10;" cx="386.28" cy="458.96" rx="29.73" ry="62.72"/>
	
		<ellipse transform="matrix(-0.8541 0.52 -0.52 -0.8541 954.897 650.0966)" style="fill:none;stroke:#000000;stroke-width:4;stroke-linecap:round;stroke-linejoin:round;stroke-miterlimit:10;" cx="386.28" cy="458.96" rx="29.73" ry="62.72"/>
	
		<circle style="fill:none;stroke:#000000;stroke-width:4;stroke-linecap:round;stroke-linejoin:round;stroke-miterlimit:10;" cx="386.28" cy="458.96" r="7.87"/>
</g>
<g style="opacity:0.1;">
	
		<circle style="fill:none;stroke:#000000;stroke-width:4;stroke-linecap:round;stroke-linejoin:round;stroke-miterlimit:10;" cx="352.6" cy="78.76" r="8.59"/>
	
		<circle style="fill:none;stroke:#000000;stroke-width:4;stroke-linecap:round;stroke-linejoin:round;stroke-miterlimit:10;" cx="444.54" cy="144.67" r="8.59"/>
	
		<circle style="fill:none;stroke:#000000;stroke-width:4;stroke-linecap:round;stroke-linejoin:round;stroke-miterlimit:10;" cx="412.2" cy="108.69" r="18.32"/>
	<g>
		
			<polygon style="fill:none;stroke:#000000;stroke-width:4;stroke-linecap:round;stroke-linejoin:round;stroke-miterlimit:10;" points="
			444.12,108.69 438,119.37 434.77,131.26 422.89,134.49 412.2,140.61 401.51,134.49 389.62,131.26 386.39,119.37 380.27,108.69 
			386.39,98 389.62,86.11 401.51,82.88 412.2,76.76 422.89,82.88 434.77,86.11 438,98 		"/>
	</g>
	<path style="fill:none;stroke:#000000;stroke-width:4;stroke-linecap:round;stroke-linejoin:round;stroke-miterlimit:10;" d="
		M435.95,144.67c0-4.74,3.85-8.59,8.59-8.59c2.56,0,4.86,1.13,6.43,2.91c6.54-8.36,10.45-18.87,10.45-30.31
		c0-27.19-22.04-49.23-49.23-49.23c-27.19,0-49.23,22.04-49.23,49.23s22.04,49.23,49.23,49.23c9.56,0,18.47-2.73,26.02-7.44
		C436.82,148.94,435.95,146.91,435.95,144.67z"/>
	<path style="fill:none;stroke:#000000;stroke-width:4;stroke-linecap:round;stroke-linejoin:round;stroke-miterlimit:10;" d="
		M412.2,42.07c-22.97,0-43.23,11.63-55.2,29.32c2.51,1.5,4.2,4.24,4.2,7.38c0,4.74-3.85,8.59-8.59,8.59c-1.17,0-2.28-0.24-3.29-0.66
		c-2.41,6.89-3.73,14.28-3.73,21.99c0,36.79,29.83,66.62,66.62,66.62c36.79,0,66.62-29.83,66.62-66.62S448.99,42.07,412.2,42.07z"/>
</g>
<g style="opacity:0.1;">
	<g>
		<g>
			<path style="fill:none;stroke:#000000;stroke-width:4;stroke-linecap:round;stroke-miterlimit:10;" d="M445.31,292.37
				l-30.41,29.9c-3.21,3.16-8.38,3.11-11.53-0.1l0,0c-3.16-3.21-3.11-8.38,0.1-11.53l30.41-29.9c3.21-3.16,8.38-3.11,11.53,0.1l0,0
				C448.56,284.05,448.52,289.21,445.31,292.37z"/>
		</g>
	</g>
	
		<circle style="fill:none;stroke:#000000;stroke-width:4;stroke-linecap:round;stroke-miterlimit:10;" cx="481.17" cy="244.73" r="35.04"/>
	
		<circle style="fill:none;stroke:#000000;stroke-width:4;stroke-linecap:round;stroke-miterlimit:10;" cx="481.17" cy="244.73" r="25.28"/>
	
		<line style="fill:none;stroke:#000000;stroke-width:4;stroke-linecap:round;stroke-miterlimit:10;" x1="456.39" y1="269.5" x2="446.56" y2="279.34"/>
</g>
<g style="opacity:0.1;">
	<g>
		<g>
			<path style="fill:none;stroke:#000000;stroke-width:4;stroke-linecap:round;stroke-miterlimit:10;" d="M645.42,489.13
				l-46.48,10.73l-2.09-9.06c-0.48-2.1,0.82-4.19,2.92-4.68l38.88-8.98c2.1-0.48,4.19,0.82,4.68,2.92L645.42,489.13z"/>
		</g>
	</g>
	<circle style="fill:none;stroke:#000000;stroke-width:4;stroke-miterlimit:10;" cx="600.18" cy="403.32" r="47.65"/>
	<path style="fill:none;stroke:#000000;stroke-width:4;stroke-linecap:round;stroke-linejoin:round;stroke-miterlimit:10;" d="
		M622.4,445.47l-44.44-84.3l-5.55-10.23c-28.97,15.27-40.07,51.13-24.8,80.1c15.27,28.97,51.13,40.07,80.1,24.8l-5.43-10.3"/>
	<path style="fill:none;stroke:#000000;stroke-width:4;stroke-miterlimit:10;" d="M556.49,384.32c10.27,1.98,21.26,0.63,31.23-4.63
		c9.97-5.26,17.3-13.56,21.47-23.15c-10.27-1.98-21.26-0.63-31.23,4.63C567.99,366.43,560.66,374.72,556.49,384.32z"/>
	<path style="fill:none;stroke:#000000;stroke-width:4;stroke-miterlimit:10;" d="M591.17,450.1c10.27,1.98,21.26,0.63,31.23-4.63
		c9.97-5.26,17.3-13.56,21.47-23.15c-10.27-1.98-21.26-0.63-31.23,4.63C602.67,432.21,595.34,440.5,591.17,450.1z"/>
	
		<ellipse transform="matrix(0.8846 -0.4664 0.4664 0.8846 -118.8273 326.4394)" style="fill:none;stroke:#000000;stroke-width:4;stroke-miterlimit:10;" cx="600.18" cy="403.32" rx="23.82" ry="47.65"/>
	<line style="fill:none;stroke:#000000;stroke-width:4;stroke-miterlimit:10;" x1="558.03" y1="425.54" x2="642.33" y2="381.1"/>
	<line style="fill:none;stroke:#000000;stroke-width:4;stroke-miterlimit:10;" x1="614.02" y1="461.02" x2="618.94" y2="481.54"/>
	
		<line style="fill:none;stroke:#000000;stroke-width:4;stroke-linecap:round;stroke-miterlimit:10;" x1="593.35" y1="501.77" x2="652.6" y2="487.56"/>
</g>
<g style="opacity:0.1;">
	
		<circle style="fill:none;stroke:#000000;stroke-width:4;stroke-linecap:round;stroke-linejoin:round;stroke-miterlimit:10;" cx="761.09" cy="409.17" r="5.86"/>
	
		<circle style="fill:none;stroke:#000000;stroke-width:4;stroke-linecap:round;stroke-linejoin:round;stroke-miterlimit:10;" cx="771.74" cy="381.19" r="5.86"/>
	
		<circle style="fill:none;stroke:#000000;stroke-width:4;stroke-linecap:round;stroke-linejoin:round;stroke-miterlimit:10;" cx="844.92" cy="375.42" r="5.86"/>
	<g>
		<g>
			<path style="fill:none;stroke:#000000;stroke-width:4;stroke-linecap:round;stroke-miterlimit:10;" d="M802.54,426.67
				l-31.23,14.67c-1.67,0.79-3.66,0.07-4.45-1.6l-2-4.26c-0.79-1.67-0.07-3.66,1.6-4.45l31.23-14.67c1.67-0.79,3.66-0.07,4.45,1.6
				l2,4.26C804.93,423.89,804.21,425.88,802.54,426.67z"/>
		</g>
		<path style="fill:none;stroke:#000000;stroke-width:4;stroke-linecap:round;stroke-miterlimit:10;" d="M814.66,459.99
			l-15.28-31.82l-24.72,11.87l15.28,31.82l9.64,53.24c3.17,6.61,11.1,9.39,17.7,6.22l26.69-12.82c6.61-3.17,9.39-11.1,6.22-17.7
			L814.66,459.99z"/>
		<path style="fill:none;stroke:#000000;stroke-width:4;stroke-linecap:round;stroke-miterlimit:10;" d="M794.29,495.87
			c0,0,5.1-8.26,18.66-7.79c13.56,0.47,15.84-11.88,15.84-11.88"/>
	</g>
	<g>
		<g>
			<path style="fill:none;stroke:#000000;stroke-width:4;stroke-linecap:round;stroke-miterlimit:10;" d="M866.04,396.17
				l-31.23,14.67c-1.67,0.79-3.66,0.07-4.45-1.6l-2-4.26c-0.79-1.67-0.07-3.66,1.6-4.45l31.23-14.67c1.67-0.79,3.66-0.07,4.45,1.6
				l2,4.26C868.43,393.4,867.71,395.39,866.04,396.17z"/>
		</g>
		<path style="fill:none;stroke:#000000;stroke-width:4;stroke-linecap:round;stroke-miterlimit:10;" d="M875.99,488.31
			c3.28,6.83,11.47,9.7,18.3,6.43c6.83-3.28,9.7-11.47,6.43-18.3l-37.83-78.77l-24.72,11.87L875.99,488.31z"/>
		<path style="fill:none;stroke:#000000;stroke-width:4;stroke-linecap:round;stroke-miterlimit:10;" d="M875.99,488.31
			c3.28,6.83,11.47,9.7,18.3,6.43c6.83-3.28,9.7-11.47,6.43-18.3l-37.83-78.77l-24.72,11.87L875.99,488.31z"/>
		<path style="fill:none;stroke:#000000;stroke-width:4;stroke-linecap:round;stroke-miterlimit:10;" d="M862.81,460.85
			c2.98-1.9,7.52-3.67,13.99-3.44c6.2,0.21,10.04-2.26,12.39-5"/>
	</g>
</g>
<g style="opacity:0.1;">
	<path style="fill:none;stroke:#000000;stroke-width:4;stroke-linecap:round;stroke-miterlimit:10;" d="M200.04,212.7L82.07,177.46
		c-8.58-2.56-13.45-11.59-10.89-20.17l23.56-78.9c2.56-8.58,11.59-13.45,20.17-10.89l117.97,35.24
		c8.58,2.56,13.45,11.59,10.89,20.17l-23.56,78.9C217.65,210.38,208.62,215.26,200.04,212.7z"/>
	
		<line style="fill:none;stroke:#000000;stroke-width:4;stroke-linecap:round;stroke-miterlimit:10;" x1="73.96" y1="147.97" x2="223" y2="192.48"/>
	<circle style="fill:none;stroke:#000000;stroke-miterlimit:10;" cx="144.96" cy="182" r="4.05"/>
	
		<rect x="121.37" y="194.75" transform="matrix(0.9582 0.2862 -0.2862 0.9582 63.7909 -31.2494)" style="fill:none;stroke:#000000;stroke-width:4;stroke-linecap:round;stroke-miterlimit:10;" width="34.87" height="15.73"/>
	
		<line style="fill:none;stroke:#000000;stroke-width:4;stroke-linecap:round;stroke-miterlimit:10;" x1="107.48" y1="202.35" x2="165.15" y2="219.57"/>
</g>
<g style="opacity:0.1;">
	<g>
		
			<rect x="809.57" y="91.37" transform="matrix(-0.9003 0.4353 -0.4353 -0.9003 1637.2222 -60.5445)" style="fill:none;stroke:#000000;stroke-width:4;stroke-linecap:round;stroke-linejoin:round;stroke-miterlimit:10;" width="31.96" height="131.75"/>
		
			<line style="fill:none;stroke:#000000;stroke-width:4;stroke-linecap:round;stroke-linejoin:round;stroke-miterlimit:10;" x1="818.13" y1="105.21" x2="803.75" y2="112.16"/>
		
			<line style="fill:none;stroke:#000000;stroke-width:4;stroke-linecap:round;stroke-linejoin:round;stroke-miterlimit:10;" x1="831.42" y1="132.69" x2="817.04" y2="139.65"/>
		
			<line style="fill:none;stroke:#000000;stroke-width:4;stroke-linecap:round;stroke-linejoin:round;stroke-miterlimit:10;" x1="844.71" y1="160.17" x2="830.32" y2="167.13"/>
		
			<line style="fill:none;stroke:#000000;stroke-width:4;stroke-linecap:round;stroke-linejoin:round;stroke-miterlimit:10;" x1="858" y1="187.65" x2="843.61" y2="194.61"/>
		
			<line style="fill:none;stroke:#000000;stroke-width:4;stroke-linecap:round;stroke-linejoin:round;stroke-miterlimit:10;" x1="822.53" y1="114.31" x2="815.34" y2="117.78"/>
		
			<line style="fill:none;stroke:#000000;stroke-width:4;stroke-linecap:round;stroke-linejoin:round;stroke-miterlimit:10;" x1="826.98" y1="123.5" x2="819.79" y2="126.98"/>
		
			<line style="fill:none;stroke:#000000;stroke-width:4;stroke-linecap:round;stroke-linejoin:round;stroke-miterlimit:10;" x1="835.84" y1="141.84" x2="828.65" y2="145.31"/>
		
			<line style="fill:none;stroke:#000000;stroke-width:4;stroke-linecap:round;stroke-linejoin:round;stroke-miterlimit:10;" x1="840.29" y1="151.03" x2="833.1" y2="154.5"/>
		
			<line style="fill:none;stroke:#000000;stroke-width:4;stroke-linecap:round;stroke-linejoin:round;stroke-miterlimit:10;" x1="849.15" y1="169.36" x2="841.96" y2="172.84"/>
		
			<line style="fill:none;stroke:#000000;stroke-width:4;stroke-linecap:round;stroke-linejoin:round;stroke-miterlimit:10;" x1="853.6" y1="178.56" x2="846.41" y2="182.03"/>
	</g>
	<g>
		<g>
			
				<line style="fill:none;stroke:#000000;stroke-width:4;stroke-linecap:round;stroke-linejoin:round;stroke-miterlimit:10;" x1="775.98" y1="159.5" x2="767.35" y2="163.67"/>
			
				<line style="fill:none;stroke:#000000;stroke-width:4;stroke-linecap:round;stroke-linejoin:round;stroke-miterlimit:10;" x1="789.27" y1="186.98" x2="780.64" y2="191.15"/>
			
				<line style="fill:none;stroke:#000000;stroke-width:4;stroke-linecap:round;stroke-linejoin:round;stroke-miterlimit:10;" x1="802.55" y1="214.46" x2="793.93" y2="218.63"/>
			
				<line style="fill:none;stroke:#000000;stroke-width:4;stroke-linecap:round;stroke-linejoin:round;stroke-miterlimit:10;" x1="767.09" y1="141.11" x2="762.78" y2="143.2"/>
			
				<line style="fill:none;stroke:#000000;stroke-width:4;stroke-linecap:round;stroke-linejoin:round;stroke-miterlimit:10;" x1="771.53" y1="150.3" x2="767.22" y2="152.39"/>
			
				<line style="fill:none;stroke:#000000;stroke-width:4;stroke-linecap:round;stroke-linejoin:round;stroke-miterlimit:10;" x1="780.4" y1="168.64" x2="776.09" y2="170.73"/>
			
				<line style="fill:none;stroke:#000000;stroke-width:4;stroke-linecap:round;stroke-linejoin:round;stroke-miterlimit:10;" x1="784.85" y1="177.83" x2="780.53" y2="179.92"/>
			
				<line style="fill:none;stroke:#000000;stroke-width:4;stroke-linecap:round;stroke-linejoin:round;stroke-miterlimit:10;" x1="793.71" y1="196.17" x2="789.4" y2="198.26"/>
			
				<line style="fill:none;stroke:#000000;stroke-width:4;stroke-linecap:round;stroke-linejoin:round;stroke-miterlimit:10;" x1="807.22" y1="224.1" x2="802.9" y2="226.19"/>
			
				<line style="fill:none;stroke:#000000;stroke-width:4;stroke-linecap:round;stroke-linejoin:round;stroke-miterlimit:10;" x1="798.16" y1="205.36" x2="793.84" y2="207.45"/>
		</g>
		
			<polygon style="fill:none;stroke:#000000;stroke-width:4;stroke-linecap:round;stroke-linejoin:round;stroke-miterlimit:10;" points="
			749.57,267.15 755.81,117.79 813.16,236.4 		"/>
		
			<polygon style="fill:none;stroke:#000000;stroke-width:4;stroke-linecap:round;stroke-linejoin:round;stroke-miterlimit:10;" points="
			770.11,235.87 771.81,195.02 787.5,227.46 		"/>
	</g>
</g>
<g style="opacity:0.1;">
	<g>
		<g>
			
				<rect x="594.49" y="83.54" transform="matrix(0.7071 -0.7071 0.7071 0.7071 88.2777 469.2338)" style="fill:none;stroke:#000000;stroke-width:4;stroke-linecap:round;stroke-linejoin:round;stroke-miterlimit:10;" width="32.13" height="89.03"/>
		</g>
	</g>
	
		<polygon style="fill:none;stroke:#000000;stroke-width:4;stroke-linecap:round;stroke-linejoin:round;stroke-miterlimit:10;" points="
		659.55,177.05 653.39,148.17 630.67,170.89 	"/>
	
		<line style="fill:none;stroke:#000000;stroke-width:4;stroke-linecap:round;stroke-linejoin:round;stroke-miterlimit:10;" x1="656.67" y1="163.57" x2="646.07" y2="174.17"/>
	<path style="fill:none;stroke:#000000;stroke-width:4;stroke-linecap:round;stroke-linejoin:round;stroke-miterlimit:10;" d="
		M561.04,90.62l12.08-12.08c2.94-2.94,7.7-2.94,10.64,0l6.68,6.68l-22.72,22.72l-6.68-6.68C558.1,98.32,558.1,93.55,561.04,90.62z"
		/>
	
		<line style="fill:none;stroke:#000000;stroke-width:4;stroke-linecap:round;stroke-linejoin:round;stroke-miterlimit:10;" x1="596.58" y1="91.36" x2="573.86" y2="114.08"/>
	
		<line style="fill:none;stroke:#000000;stroke-width:4;stroke-linecap:round;stroke-linejoin:round;stroke-miterlimit:10;" x1="642.03" y1="159.53" x2="585.22" y2="102.72"/>
</g>
<path style="fill:#223982;" d="M757.98,1572.96"/>
<rect x="-1012.09" y="788" style="fill:none;" width="1200" height="800"/>
</svg>
