<?xml version="1.0" encoding="utf-8"?>
<!-- Generator: Adobe Illustrator 17.0.0, SVG Export Plug-In . SVG Version: 6.00 Build 0)  -->
<!DOCTYPE svg PUBLIC "-//W3C//DTD SVG 1.1//EN" "http://www.w3.org/Graphics/SVG/1.1/DTD/svg11.dtd">
<svg version="1.1" id="Calque_1" xmlns="http://www.w3.org/2000/svg" xmlns:xlink="http://www.w3.org/1999/xlink" x="0px" y="0px"
	 width="750px" height="750px" viewBox="0 0 750 750" style="enable-background:new 0 0 750 750;" xml:space="preserve">
<g>
	<g style="opacity:0.18;">
		<linearGradient id="SVGID_1_" gradientUnits="userSpaceOnUse" x1="403.4907" y1="451.1658" x2="747.5197" y2="451.1658">
			<stop  offset="0" style="stop-color:#A6B3C7"/>
			<stop  offset="1" style="stop-color:#A6B3B3"/>
		</linearGradient>
		<path style="fill:url(#SVGID_1_);" d="M720.42,671.37H430.59c-14.97,0-27.1-12.13-27.1-27.1V258.06c0-14.97,12.13-27.1,27.1-27.1
			h289.83c14.97,0,27.1,12.13,27.1,27.1v386.21C747.52,659.24,735.39,671.37,720.42,671.37z"/>
	</g>
	<g>
		<g>
			<rect x="491.87" y="525.73" style="fill:#E0E0E0;" width="1.22" height="106.42"/>
		</g>
		<g>
			<rect x="546.59" y="525.73" style="fill:#E0E0E0;" width="1.22" height="106.42"/>
		</g>
		<g>
			<rect x="611.07" y="525.73" style="fill:#E0E0E0;" width="1.22" height="106.42"/>
		</g>
		<g>
			<rect x="681.71" y="525.73" style="fill:#E0E0E0;" width="1.22" height="106.42"/>
		</g>
		<g>
			<linearGradient id="SVGID_2_" gradientUnits="userSpaceOnUse" x1="492.4056" y1="558.035" x2="682.5667" y2="558.035">
				<stop  offset="0" style="stop-color:#186DA1"/>
				<stop  offset="1" style="stop-color:#639C38"/>
			</linearGradient>
			<path style="fill:url(#SVGID_2_);" d="M677.93,582.36c-0.02-0.1-1.9-9.85-10.44-14.93c-6.48-3.85-15.14-4.07-25.73-0.65
				c-11,3.55-19.62,5.28-27.1,5.28c-16.15,0-27-8.04-45.14-23.05c-11.32-9.37-25.07-12.74-38.74-9.49
				c-14.89,3.54-27.33,14.49-34.13,30.03l-4.24-1.85c7.39-16.89,20.99-28.8,37.3-32.68c7.29-1.73,14.66-1.76,21.9-0.07
				c7.54,1.75,14.56,5.29,20.86,10.5c26.21,21.7,35.22,27.48,67.87,16.93c11.94-3.86,21.89-3.49,29.57,1.11
				c10.34,6.18,12.57,17.79,12.66,18.27L677.93,582.36z"/>
		</g>
	</g>
	<g>
		<g>
			<g>
				<rect x="444.57" y="267.53" style="fill:#DED7D5;" width="88.48" height="10.09"/>
			</g>
		</g>
	</g>
	<g>
		<g>
			<g>
				<rect x="444.57" y="289.69" style="fill:#DED7D5;" width="64.97" height="10.09"/>
			</g>
		</g>
	</g>
	<g>
		<g>
			<g>
				<rect x="444.57" y="311.86" style="fill:#DED7D5;" width="159.73" height="10.09"/>
			</g>
		</g>
	</g>
	<g>
		<linearGradient id="SVGID_3_" gradientUnits="userSpaceOnUse" x1="429.4543" y1="412.7331" x2="707.0738" y2="412.7331">
			<stop  offset="0" style="stop-color:#186DA1"/>
			<stop  offset="1" style="stop-color:#639C38"/>
		</linearGradient>
		<path style="fill:url(#SVGID_3_);" d="M429.45,491.74l247.28-158.02l30.34,147.4L429.45,491.74z M674.46,339.12L441.54,487.96
			l261.49-10L674.46,339.12z"/>
	</g>
	<g>
		<path style="fill:#3D8ED1;" d="M446.79,525.36c-0.93,0.46-2.79,0.93-5.17,0.93c-5.52,0-9.67-3.48-9.67-9.9
			c0-6.13,4.15-10.28,10.22-10.28c2.44,0,3.98,0.52,4.65,0.87l-0.61,2.06c-0.96-0.46-2.32-0.81-3.95-0.81
			c-4.59,0-7.64,2.93-7.64,8.07c0,4.79,2.76,7.87,7.52,7.87c1.54,0,3.11-0.32,4.12-0.81L446.79,525.36z"/>
	</g>
	<g>
		<path style="fill:#3D8ED1;" d="M671.2,318.39l-2.03,6.16h-2.61l6.65-19.57h3.05l6.68,19.57h-2.7l-2.09-6.16H671.2z M677.62,316.42
			l-1.92-5.63c-0.43-1.28-0.73-2.44-1.02-3.57h-0.06c-0.29,1.16-0.61,2.35-0.99,3.54l-1.92,5.66H677.62z"/>
	</g>
	<g>
		<path style="fill:#3D8ED1;" d="M704.9,496.37c1.1-0.23,2.85-0.41,4.62-0.41c2.53,0,4.15,0.44,5.37,1.42
			c1.02,0.76,1.63,1.92,1.63,3.46c0,1.89-1.25,3.54-3.31,4.3v0.06c1.86,0.46,4.04,2,4.04,4.91c0,1.68-0.67,2.96-1.65,3.92
			c-1.37,1.25-3.57,1.83-6.77,1.83c-1.74,0-3.08-0.12-3.92-0.23V496.37z M707.43,504.39h2.29c2.67,0,4.24-1.39,4.24-3.28
			c0-2.29-1.74-3.19-4.3-3.19c-1.16,0-1.83,0.09-2.24,0.17V504.39z M707.43,513.76c0.49,0.09,1.22,0.12,2.12,0.12
			c2.61,0,5.02-0.96,5.02-3.8c0-2.67-2.29-3.77-5.05-3.77h-2.09V513.76z"/>
	</g>
	<g>
		<g>
			<g>
				<linearGradient id="SVGID_4_" gradientUnits="userSpaceOnUse" x1="350.7327" y1="320.9704" x2="416.806" y2="320.9704">
					<stop  offset="0" style="stop-color:#D5E4FF"/>
					<stop  offset="1" style="stop-color:#EDFFFE"/>
				</linearGradient>
				<path style="fill:url(#SVGID_4_);" d="M414.87,309.85c-4.94-13.83-18.16-22.32-32.09-21.9c-3.37,0.1-6.78,0.73-10.13,1.92
					c-10.14,3.63-17.42,11.71-20.41,21.25c-2.07,6.62-2.08,13.94,0.43,20.97c0.25,0.7,0.52,1.39,0.81,2.06
					c1.32,3.05,3.06,5.8,5.12,8.22c8.64,10.16,22.98,14.45,36.29,9.7C412.07,345.93,421.01,327.02,414.87,309.85z M392.11,344.29
					c-9.97,3.57-20.73,0.35-27.21-7.27c-1.54-1.82-2.85-3.88-3.84-6.16c-0.22-0.5-0.42-1.02-0.61-1.54
					c-1.89-5.27-1.87-10.76-0.32-15.72c2.24-7.16,7.69-13.22,15.3-15.94c2.51-0.9,5.07-1.37,7.6-1.44
					c10.44-0.32,20.35,6.05,24.06,16.42C411.69,325.51,404.99,339.68,392.11,344.29z"/>
			</g>
		</g>
		<g>
			<g>
				<path style="fill:#FF4F58;" d="M360.13,313.59l-7.89-2.46c2.99-9.55,10.26-17.63,20.41-21.25c3.35-1.2,6.76-1.82,10.13-1.92
					l0.25,8.26c-2.53,0.08-5.09,0.54-7.6,1.44C367.83,300.37,362.37,306.43,360.13,313.59z"/>
			</g>
		</g>
		<g>
			<g>
				<path style="fill:#FF6F59;" d="M361.06,330.85l-7.58,3.3c-0.29-0.67-0.56-1.36-0.81-2.06c-2.51-7.03-2.5-14.35-0.43-20.97
					l7.89,2.46c-1.55,4.96-1.56,10.45,0.32,15.72C360.64,329.83,360.85,330.35,361.06,330.85z"/>
			</g>
		</g>
		<g>
			<g>
				<path style="fill:#FFAD5B;" d="M358.6,342.37c-2.06-2.42-3.8-5.18-5.12-8.22l7.58-3.3c0.99,2.28,2.29,4.35,3.84,6.16
					L358.6,342.37z"/>
			</g>
		</g>
	</g>
	<rect x="350.73" y="369.7" style="fill:#BDC1C9;" width="66.07" height="5.1"/>
	<rect x="350.73" y="380.53" style="fill:#BDC1C9;" width="49.44" height="5.1"/>
	<g>
		<g>
			<g>
				<path style="fill:#323657;" d="M591.25,319.29c0.01,0,0.02-0.01,0.03,0C591.15,319.34,591.13,319.35,591.25,319.29z"/>
			</g>
		</g>
	</g>
	<g style="opacity:0.18;">
		<linearGradient id="SVGID_5_" gradientUnits="userSpaceOnUse" x1="353.1964" y1="134.8285" x2="584.2385" y2="134.8285">
			<stop  offset="0" style="stop-color:#A6B3C7"/>
			<stop  offset="1" style="stop-color:#A6B3B3"/>
		</linearGradient>
		<path style="fill:url(#SVGID_5_);" d="M571.03,217.19H366.41c-7.3,0-13.21-5.91-13.21-13.21V65.68c0-7.3,5.91-13.21,13.21-13.21
			h204.62c7.3,0,13.21,5.91,13.21,13.21v138.3C584.24,211.27,578.32,217.19,571.03,217.19z"/>
	</g>
	<g>
		<g>
			<path style="fill:#FFFFFF;" d="M559.29,148.69h-37.23c-1.57,0-2.85-1.28-2.85-2.85v-5.75c0-1.57,1.28-2.85,2.85-2.85h37.23
				c1.57,0,2.85,1.28,2.85,2.85v5.75C562.14,147.41,560.86,148.69,559.29,148.69z"/>
		</g>
	</g>
	<g>
		<g>
			<path style="fill:#FFFFFF;" d="M559.29,130.38h-37.23c-1.57,0-2.85-1.28-2.85-2.85v-5.75c0-1.57,1.28-2.85,2.85-2.85h37.23
				c1.57,0,2.85,1.28,2.85,2.85v5.75C562.14,129.11,560.86,130.38,559.29,130.38z"/>
		</g>
	</g>
	<g>
		<g>
			<path style="fill:#FFFFFF;" d="M559.29,112.08h-37.23c-1.57,0-2.85-1.28-2.85-2.85v-5.75c0-1.57,1.28-2.85,2.85-2.85h37.23
				c1.57,0,2.85,1.28,2.85,2.85v5.75C562.14,110.8,560.86,112.08,559.29,112.08z"/>
		</g>
	</g>
	<g>
		<g>
			<g>
				<path style="fill:#FFFFFF;" d="M498.46,111.71c-9.55-26.7-35.06-43.09-61.95-42.29c-6.51,0.2-13.1,1.4-19.57,3.71
					c-19.59,7.01-33.63,22.61-39.4,41.04c-4,12.77-4.02,26.91,0.83,40.48c0.48,1.35,1.01,2.68,1.57,3.98
					c2.55,5.88,5.91,11.2,9.89,15.87c16.69,19.62,44.38,27.91,70.07,18.72C493.06,181.37,510.32,144.88,498.46,111.71z
					 M454.52,178.21c-19.26,6.89-40.02,0.67-52.53-14.04c-2.98-3.51-5.5-7.49-7.41-11.9c-0.42-0.97-0.82-1.97-1.18-2.98
					c-3.64-10.18-3.62-20.77-0.62-30.35c4.33-13.82,14.86-25.52,29.54-30.77c4.85-1.73,9.79-2.64,14.67-2.78
					c20.16-0.61,39.29,11.69,46.45,31.7C492.33,141.95,479.38,169.31,454.52,178.21z"/>
			</g>
		</g>
		<g>
			<g>
				<path style="fill:#1A598C;" d="M392.77,118.94l-15.24-4.76c5.77-18.43,19.82-34.03,39.4-41.04c6.47-2.31,13.06-3.52,19.57-3.71
					l0.48,15.96c-4.88,0.15-9.82,1.05-14.67,2.78C407.63,93.42,397.1,105.12,392.77,118.94z"/>
			</g>
		</g>
		<g>
			<g>
				<path style="fill:#2273B5;" d="M394.58,152.27l-14.64,6.37c-0.56-1.3-1.09-2.63-1.57-3.98c-4.86-13.58-4.83-27.71-0.83-40.48
					l15.24,4.76c-3,9.58-3.02,20.17,0.62,30.35C393.76,150.3,394.15,151.29,394.58,152.27z"/>
			</g>
		</g>
		<g>
			<g>
				<path style="fill:#3788CC;" d="M389.83,174.51c-3.98-4.68-7.33-9.99-9.89-15.87l14.64-6.37c1.91,4.41,4.43,8.4,7.41,11.9
					L389.83,174.51z"/>
			</g>
		</g>
	</g>
	<rect x="196.83" y="248.31" style="fill:#B8B8B8;" width="13" height="4.19"/>
	<rect x="308.27" y="248.31" style="fill:#B8B8B8;" width="22.96" height="4.19"/>
	<rect x="246.67" y="248.31" style="fill:#B8B8B8;" width="22.96" height="4.19"/>
	<rect x="374.65" y="248.31" style="fill:#B8B8B8;" width="12.88" height="4.19"/>
	<linearGradient id="SVGID_6_" gradientUnits="userSpaceOnUse" x1="532.033" y1="294.738" x2="591.2816" y2="294.738">
		<stop  offset="0" style="stop-color:#D5E4FF"/>
		<stop  offset="1" style="stop-color:#EDFFFE"/>
	</linearGradient>
	<rect x="532.03" y="290.03" style="opacity:0.18;fill:url(#SVGID_6_);" width="59.25" height="9.42"/>
	<linearGradient id="SVGID_7_" gradientUnits="userSpaceOnUse" x1="532.033" y1="277.1727" x2="603.7908" y2="277.1727">
		<stop  offset="0" style="stop-color:#D5E4FF"/>
		<stop  offset="1" style="stop-color:#EDFFFE"/>
	</linearGradient>
	<rect x="532.03" y="272.46" style="opacity:0.18;fill:url(#SVGID_7_);" width="71.76" height="9.42"/>
	<linearGradient id="SVGID_8_" gradientUnits="userSpaceOnUse" x1="336.6101" y1="43.3738" x2="376.6213" y2="43.3738">
		<stop  offset="0" style="stop-color:#D5E4FF"/>
		<stop  offset="1" style="stop-color:#EDFFFE"/>
	</linearGradient>
	<rect x="336.61" y="39.75" style="opacity:0.18;fill:url(#SVGID_8_);" width="40.01" height="7.25"/>
	<linearGradient id="SVGID_9_" gradientUnits="userSpaceOnUse" x1="336.6101" y1="37.049" x2="376.6213" y2="37.049">
		<stop  offset="0" style="stop-color:#D5E4FF"/>
		<stop  offset="1" style="stop-color:#EDFFFE"/>
	</linearGradient>
	<rect x="336.61" y="36.37" style="opacity:0.18;fill:url(#SVGID_9_);" width="40.01" height="1.36"/>
	<linearGradient id="SVGID_10_" gradientUnits="userSpaceOnUse" x1="26.1533" y1="244.8741" x2="190.5001" y2="80.5273">
		<stop  offset="0.0829" style="stop-color:#BCD7E8"/>
		<stop  offset="1" style="stop-color:#E6E7E8"/>
	</linearGradient>
	<polygon style="fill:url(#SVGID_10_);" points="151.02,119.53 166.97,119.53 162.09,109.41 146.14,109.41 	"/>
	<linearGradient id="SVGID_11_" gradientUnits="userSpaceOnUse" x1="19.3835" y1="238.106" x2="183.7323" y2="73.7572">
		<stop  offset="0.0829" style="stop-color:#BCD7E8"/>
		<stop  offset="1" style="stop-color:#E6E7E8"/>
	</linearGradient>
	<polygon style="fill:url(#SVGID_11_);" points="143.56,119.53 147.36,119.53 142.48,109.41 138.68,109.41 	"/>
	<linearGradient id="SVGID_12_" gradientUnits="userSpaceOnUse" x1="2.9484" y1="221.6683" x2="167.2953" y2="57.3215">
		<stop  offset="0.0829" style="stop-color:#BCD7E8"/>
		<stop  offset="1" style="stop-color:#E6E7E8"/>
	</linearGradient>
	<polygon style="fill:url(#SVGID_12_);" points="88.45,107.47 153.04,107.47 150.9,102.41 86.31,102.41 	"/>
	<linearGradient id="SVGID_13_" gradientUnits="userSpaceOnUse" x1="3.4657" y1="190.9717" x2="167.8129" y2="26.6245">
		<stop  offset="0.0829" style="stop-color:#BCD7E8"/>
		<stop  offset="1" style="stop-color:#E6E7E8"/>
	</linearGradient>
	<rect x="58.98" y="119.53" style="fill:url(#SVGID_13_);" width="29.64" height="2.21"/>
	<linearGradient id="SVGID_14_" gradientUnits="userSpaceOnUse" x1="-8.7683" y1="692.7681" x2="155.5791" y2="528.4207">
		<stop  offset="0.0829" style="stop-color:#BCD7E8"/>
		<stop  offset="1" style="stop-color:#E6E7E8"/>
	</linearGradient>
	<rect x="44.21" y="621.97" style="fill:url(#SVGID_14_);" width="29.64" height="5.99"/>
	<linearGradient id="SVGID_15_" gradientUnits="userSpaceOnUse" x1="-36.3846" y1="665.1514" x2="127.9621" y2="500.8047">
		<stop  offset="0.0829" style="stop-color:#BCD7E8"/>
		<stop  offset="1" style="stop-color:#E6E7E8"/>
	</linearGradient>
	<polygon style="fill:url(#SVGID_15_);" points="49.14,572.32 49.14,592.37 0,592.37 0,595.89 49.14,595.89 49.14,599.01 0,599.01 
		0,613.81 49.14,613.81 50.25,613.81 51.35,613.81 51.35,572.32 	"/>
	<linearGradient id="SVGID_16_" gradientUnits="userSpaceOnUse" x1="418.4158" y1="613.5455" x2="320.5355" y2="265.8655">
		<stop  offset="0" style="stop-color:#EEA886"/>
		<stop  offset="0.7927" style="stop-color:#CF9174"/>
	</linearGradient>
	<path style="fill:url(#SVGID_16_);" d="M619.47,668.18L493.42,750h-49.11l-87.5-98.69c0,0-105.1-42.45-127.01-57.99
		c-1.78-1.26-3.02-2.35-3.6-3.22c-7.71-11.56,152.78-130.6,152.78-141.2c0-10.6,1.45-90.12,0.96-96.87
		c-0.48-6.75-14.7-65.07-5.94-93.98c0,0,9.31-31.49,28.91-26.35c0,0,2.46,0.21,2.46,4.74c0,0.27-0.01,0.53-0.03,0.82
		c-0.06,0.97-0.21,2.11-0.51,3.44c-1.93,8.67,4.5,40.49,8.67,49.16c4.18,8.68,15.1,25.06,17.68,39.2
		c2.57,14.13,13.5,56.22,17.67,67.15c4.17,10.93,15.43,29.56,17.03,39.84c1.6,10.27,3.85,37.91,9.31,48.2
		c5.46,10.27,21.37,63.93,35.82,81.28C525.5,582.87,619.47,668.18,619.47,668.18z"/>
	<linearGradient id="SVGID_17_" gradientUnits="userSpaceOnUse" x1="565.8373" y1="688.8453" x2="356.4098" y2="197.7734">
		<stop  offset="0" style="stop-color:#EEA886"/>
		<stop  offset="0.7927" style="stop-color:#CF9174"/>
		<stop  offset="0.8049" style="stop-color:#CC8E71"/>
		<stop  offset="0.9257" style="stop-color:#B4765A"/>
		<stop  offset="1" style="stop-color:#AB6D52"/>
	</linearGradient>
	<path style="fill:url(#SVGID_17_);" d="M613.09,662.36l-47.51,16.63c0,0-73.98-79.42-100.32-98.7
		c-26.34-19.28-10.28-88.03-14.14-103.47c-3.86-15.44-3.21-48.17-12.85-62.91c-9.64-14.73-10.92-48.23-12.85-63.65
		c-1.93-15.42-10.28-26.99-20.05-61.05c-9.57-33.34-0.4-51.21-0.01-51.94c-0.06,0.96-0.21,2.1-0.51,3.43
		c-1.93,8.67,4.5,40.48,8.67,49.16c4.18,8.68,15.1,25.06,17.68,39.2c2.56,14.13,13.49,56.22,17.67,67.14
		c4.17,10.93,15.42,29.56,17.03,39.85c1.6,10.27,3.86,37.91,9.31,48.19c5.47,10.28,21.37,63.93,35.83,81.28
		C525.5,582.87,613.09,662.36,613.09,662.36z"/>
	<linearGradient id="SVGID_18_" gradientUnits="userSpaceOnUse" x1="406.927" y1="617.9042" x2="373.0008" y2="427.83">
		<stop  offset="0" style="stop-color:#EEA886"/>
		<stop  offset="0.7927" style="stop-color:#CF9174"/>
		<stop  offset="0.8049" style="stop-color:#CC8E71"/>
		<stop  offset="0.9257" style="stop-color:#B4765A"/>
		<stop  offset="1" style="stop-color:#AB6D52"/>
	</linearGradient>
	<path style="fill:url(#SVGID_18_);" d="M379.95,352.02c0,0,9.34,40.9,9.97,61.89c0.63,21,15.57,43.24,18.95,70.92
		c3.37,27.67-13.57,100.77-29.2,108.32C364.05,600.7,379.95,352.02,379.95,352.02z"/>
	<linearGradient id="SVGID_19_" gradientUnits="userSpaceOnUse" x1="339.7802" y1="657.5731" x2="202.4671" y2="431.1917">
		<stop  offset="0" style="stop-color:#EEA886"/>
		<stop  offset="0.3051" style="stop-color:#E29F7F"/>
		<stop  offset="0.7927" style="stop-color:#CF9174"/>
		<stop  offset="0.8049" style="stop-color:#CC8E71"/>
		<stop  offset="0.9257" style="stop-color:#B4765A"/>
		<stop  offset="1" style="stop-color:#AB6D52"/>
	</linearGradient>
	<path style="fill:url(#SVGID_19_);" d="M426.32,729.7l-69.5-78.4c0,0-105.1-42.45-127.01-57.99h76.41c0,0-15.42,7.38,4.34,19.43
		c19.76,12.05,91.09,24.58,95.42,37.11C410.32,662.39,369.46,640.54,426.32,729.7z"/>
	<linearGradient id="SVGID_20_" gradientUnits="userSpaceOnUse" x1="414.7211" y1="507.1938" x2="376.8086" y2="401.4885">
		<stop  offset="0" style="stop-color:#CF9174"/>
		<stop  offset="1" style="stop-color:#91624C"/>
	</linearGradient>
	<path style="fill:url(#SVGID_20_);" d="M379.95,352.02c0,0,13.98,53.5,8.84,71.49c-5.14,17.99-8.84,44.98-8.84,44.98
		S380.23,374.35,379.95,352.02z"/>
	<linearGradient id="SVGID_21_" gradientUnits="userSpaceOnUse" x1="266.0705" y1="278.9287" x2="266.0705" y2="569.3481">
		<stop  offset="0.0829" style="stop-color:#BCD7E8"/>
		<stop  offset="1" style="stop-color:#E6E7E8"/>
	</linearGradient>
	<path style="fill:url(#SVGID_21_);" d="M379.95,203.91v362.2c0,14.94-12.11,27.04-27.05,27.04H179.24
		c-7.91,0-15.02-3.39-19.96-8.79c-4.41-4.82-7.09-11.21-7.09-18.25v-362.2c0-14.95,12.12-27.05,27.05-27.05H352.9
		C367.85,176.85,379.95,188.96,379.95,203.91z"/>
	<rect x="169.53" y="195" style="fill:#EFF4FF;" width="193.12" height="331.67"/>
	<linearGradient id="SVGID_22_" gradientUnits="userSpaceOnUse" x1="276.3348" y1="579.9244" x2="256.327" y2="540.4888">
		<stop  offset="0" style="stop-color:#A1A1A1"/>
		<stop  offset="0.956" style="stop-color:#BDBDBD"/>
	</linearGradient>
	<ellipse style="fill:url(#SVGID_22_);" cx="266.07" cy="559.7" rx="23.83" ry="17.49"/>
	<linearGradient id="SVGID_23_" gradientUnits="userSpaceOnUse" x1="691.9568" y1="937.9647" x2="489.0418" y2="660.1146">
		<stop  offset="0" style="stop-color:#B3F7FF"/>
		<stop  offset="1" style="stop-color:#ADBEFF"/>
	</linearGradient>
	<polygon style="fill:url(#SVGID_23_);" points="642.18,685.01 546.36,750 420.96,750 413.01,740.8 582.47,627.73 	"/>
	<linearGradient id="SVGID_24_" gradientUnits="userSpaceOnUse" x1="801.6294" y1="934.2433" x2="572.0597" y2="700.3907">
		<stop  offset="0" style="stop-color:#B3F7FF"/>
		<stop  offset="1" style="stop-color:#ADBEFF"/>
	</linearGradient>
	<path style="fill:url(#SVGID_24_);" d="M726.41,750H503.38l115.47-75.39c16.84-11.01,39.24-7.86,52.39,7.37L726.41,750z"/>
	<path style="fill:#FFFFFF;" d="M281.75,176.85l-122.48,407.5c-4.41-4.82-7.09-11.21-7.09-18.25v-362.2
		c0-14.95,12.12-27.05,27.05-27.05H281.75z"/>
	<polygon style="fill:#FFFFFF;" points="192.86,593.15 317.98,176.85 299.04,176.85 173.93,593.15 	"/>
	<linearGradient id="SVGID_25_" gradientUnits="userSpaceOnUse" x1="156.3882" y1="585.8146" x2="125.5332" y2="427.0393">
		<stop  offset="0" style="stop-color:#EEA886"/>
		<stop  offset="0.7927" style="stop-color:#CF9174"/>
		<stop  offset="0.8049" style="stop-color:#CC8E71"/>
		<stop  offset="0.9257" style="stop-color:#B4765A"/>
		<stop  offset="1" style="stop-color:#AB6D52"/>
	</linearGradient>
	<path style="fill:url(#SVGID_25_);" d="M133.72,476.56c0,0-15.42,13.4-15.29,24.25c0.12,10.69,0.44,17.97,3.36,23.5
		c2.22,4.2,29.82,40.36,35.94,39.91c5.3-0.38,16.29-9.33,13.68-21.64c-2.61-12.31-13.18-31.46-13.68-32.95v-38.42L133.72,476.56z"/>
	<linearGradient id="SVGID_26_" gradientUnits="userSpaceOnUse" x1="141.2625" y1="508.8509" x2="159.8974" y2="586.6037">
		<stop  offset="0" style="stop-color:#DE9C7D"/>
		<stop  offset="1" style="stop-color:#FFE0D1"/>
	</linearGradient>
	<path style="fill:url(#SVGID_26_);" d="M152.74,559.62c0,0,6.84-9.82,9.95-12.31c3.11-2.49-16.54-34.44-25.74-25.99
		C127.75,529.77,139.69,548.43,152.74,559.62z"/>
	<linearGradient id="SVGID_27_" gradientUnits="userSpaceOnUse" x1="143.297" y1="488.9571" x2="117.5935" y2="362.3672">
		<stop  offset="0" style="stop-color:#EEA886"/>
		<stop  offset="0.7927" style="stop-color:#CF9174"/>
	</linearGradient>
	<path style="fill:url(#SVGID_27_);" d="M122.6,395.17c0,0-19.92,17.32-19.76,31.33c0.16,13.82,0.56,23.21,4.34,30.36
		c2.86,5.42,38.88,53.98,46.43,51.57c7.55-2.41,21.04-12.05,17.67-27.95c-3.37-15.9-17.03-40.64-17.67-42.57v-49.64L122.6,395.17z"
		/>
	<linearGradient id="SVGID_28_" gradientUnits="userSpaceOnUse" x1="132.7825" y1="436.8701" x2="153.9877" y2="529.7238">
		<stop  offset="0" style="stop-color:#DE9C7D"/>
		<stop  offset="1" style="stop-color:#FFE0D1"/>
	</linearGradient>
	<path style="fill:url(#SVGID_28_);" d="M147.18,502.48c0,0,8.84-12.69,12.85-15.9c4.02-3.21-21.37-44.5-33.25-33.58
		C114.89,463.92,130.31,488.02,147.18,502.48z"/>
	<linearGradient id="SVGID_29_" gradientUnits="userSpaceOnUse" x1="137.1939" y1="417.7226" x2="138.1578" y2="230.0075">
		<stop  offset="0" style="stop-color:#EEA886"/>
		<stop  offset="0.2483" style="stop-color:#E4A180"/>
		<stop  offset="0.7927" style="stop-color:#CF9174"/>
		<stop  offset="0.8049" style="stop-color:#CC8E71"/>
		<stop  offset="0.9257" style="stop-color:#B4765A"/>
		<stop  offset="1" style="stop-color:#AB6D52"/>
	</linearGradient>
	<path style="fill:url(#SVGID_29_);" d="M122.6,332.26c0,0-19.92,17.32-19.76,31.33c0.16,13.82,0.56,23.21,4.34,30.36
		c2.86,5.42,38.88,53.98,46.43,51.57c7.55-2.41,21.04-12.05,17.67-27.95c-3.37-15.9-17.03-40.64-17.67-42.57v-49.64L122.6,332.26z"
		/>
	<linearGradient id="SVGID_30_" gradientUnits="userSpaceOnUse" x1="137.5693" y1="384.356" x2="149.4571" y2="467.2494">
		<stop  offset="0" style="stop-color:#DE9C7D"/>
		<stop  offset="1" style="stop-color:#FFE0D1"/>
	</linearGradient>
	<path style="fill:url(#SVGID_30_);" d="M147.18,439.57c0,0,8.84-12.69,12.85-15.9c4.02-3.21-21.37-44.5-33.25-33.57
		C114.89,401.02,130.31,425.12,147.18,439.57z"/>
	<linearGradient id="SVGID_31_" gradientUnits="userSpaceOnUse" x1="123.8397" y1="335.7218" x2="182.3201" y2="248.3592">
		<stop  offset="0" style="stop-color:#EEA886"/>
		<stop  offset="0.7927" style="stop-color:#CF9174"/>
		<stop  offset="0.8049" style="stop-color:#CC8E71"/>
		<stop  offset="0.9257" style="stop-color:#B4765A"/>
		<stop  offset="1" style="stop-color:#AB6D52"/>
	</linearGradient>
	<path style="fill:url(#SVGID_31_);" d="M152.19,264.79l1.42,63.13c-34.55,18.31-46.91,6.75-48.36,3.86
		c-1.45-2.89,30.36-50.6,35.18-57.35C145.25,267.68,152.19,264.79,152.19,264.79z"/>
	<linearGradient id="SVGID_32_" gradientUnits="userSpaceOnUse" x1="149.3197" y1="292.3117" x2="86.9887" y2="335.3651">
		<stop  offset="0" style="stop-color:#DE9C7D"/>
		<stop  offset="1" style="stop-color:#FFE0D1"/>
	</linearGradient>
	<path style="fill:url(#SVGID_32_);" d="M105.2,334.35c0,0,15.15-11.41,20.61-13.49c5.46-2.09,15.23-26.36,9.64-28.43
		C124.2,288.25,101.15,332.02,105.2,334.35z"/>
	<g>
		<path style="fill:#EEA886;" d="M436.47,351.57c0,0,10.36,4.72,12.75,0.82c2.39-3.89,7.49-7.94,9.15-9.14
			c2.23-1.6,7.45-9.06,9.27-6.25c1.82,2.82-8.05,12.72-9.75,15.21c-1.69,2.49,11.08,1.01,13.53,2.65
			c2.45,1.64,2.57,23.73-6.26,23.69c-8.83-0.04-17.95-6.17-19.52-5.85c-1.57,0.31-11.71-1.99-11.71-1.99L436.47,351.57z"/>
		<path style="fill:#EEA886;" d="M469.39,354.35c0,0,26.93,2,28.55,3.7c1.62,1.71,1.35,3.23-1.18,3.15
			c-2.53-0.08-26.11-1.14-26.11-1.14s31.24,7.97,32.87,9.05c0.95,0.63,0.62,3.6-0.75,3.69c-1.36,0.09-32.84-5.94-32.84-5.94
			s29.15,7.5,30.23,8.84c0.95,1.17-0.01,3.85-2.22,3.45c-2.21-0.4-29.71-5.74-29.71-5.74s20.82,6.87,21.07,8.6
			c0.15,1.06-0.03,3.63-5.34,1.68c-5.31-1.95-18.37-5.15-18.37-5.15L469.39,354.35z"/>
		<g>
			<path style="fill:#292C47;" d="M341.12,507.61c0.1,1.16-0.1,8.43-0.43,19.05h-56.06c-0.91-4.07-0.86-12.95-1.49-12.88
				c-0.65,0.07-2.58,8.97-3.96,12.88h-64.71c2.89-23.83,6.36-49.76,9.11-70.6c0.2-1.39,0.37-2.72,0.53-3.98
				c1.01-7.58,1.76-13.14,2.12-15.82c0.17-1.15,0.25-1.76,0.25-1.76c1.38-0.65,2.84-1.23,4.35-1.78
				c36.11-12.98,105.75,0.76,105.75,0.76C342.48,471.43,341.12,507.61,341.12,507.61z"/>
		</g>
		<g>
			<path style="fill:#51578F;" d="M304.11,234.62c0,0,59.14,12.56,64.07,28.99c4.93,16.44,13.7,43.48,24.44,86.19
				c1.62,6.42,62.67-2.19,62.67-2.19s5.08,26.04,5.22,26.88c0.37,2.27-82.48,6.47-88.45,4.96c-8.63-2.19-23.17-59.95-23.17-59.95
				s-7.83,87.26-7.83,100.74c0,13.48,0.89,40.77,0.89,40.77s-21.91,8.4-64.47,6.18c0,0-67.73-2.33-56.17-22.97
				c8.74-15.61,3.38-120.62,2.07-121.28c-1.31-0.66-24.93,28.92-22.63,34.61c2.3,5.69,63.41,26.11,63.41,26.11s1.79,6.58-7.71,21.49
				c0,0-91.28-26.67-91.6-32.26c-0.33-5.59,37.96-114.11,50.47-119.8c18-8.18,65.09-21.04,65.09-21.04L304.11,234.62z"/>
		</g>
		
			<rect x="212.67" y="330.14" transform="matrix(0.9603 0.2788 -0.2788 0.9603 117.0888 -54.1235)" style="fill:#D9C7C1;" width="72.31" height="108.89"/>
		
			<rect x="206.02" y="328.21" transform="matrix(0.9603 0.2788 -0.2788 0.9603 116.2894 -52.3471)" style="fill:#6DBD7D;" width="72.31" height="108.89"/>
		
			<rect x="197.29" y="298.68" transform="matrix(0.9603 0.2788 -0.2788 0.9603 110.9446 -52.6249)" style="fill:#EDDAD3;" width="86.4" height="130.11"/>
		
			<rect x="189.34" y="296.37" transform="matrix(0.9603 0.2788 -0.2788 0.9603 109.9871 -50.5019)" style="fill:#548AD1;" width="86.4" height="130.11"/>
		
			<rect x="216.1" y="321.82" transform="matrix(0.9604 0.2788 -0.2788 0.9604 100.3162 -54.1356)" style="fill:#609EF0;" width="48.77" height="7.6"/>
		
			<rect x="211.14" y="335.55" transform="matrix(0.9603 0.2788 -0.2788 0.9603 103.9522 -52.2111)" style="fill:#609EF0;" width="48.77" height="7.6"/>
		<path style="fill:#E6A281;" d="M283.14,380.63c0,0,6.6-0.18,8.62-0.47c2.02-0.29,0.69,4-1.66,4.81
			C287.75,385.78,283.14,380.63,283.14,380.63z"/>
		<path style="fill:#EEA886;" d="M286.99,412.14c0,0-2.88,0.7-4.29,0.39c0,0-2.52-0.76-4.34-1.19c-0.58-0.13-1.09-0.24-1.42-0.27
			c-1.4-0.14-4.51-0.03-7.78-1.31c-3.26-1.28-14.34-6.95-14.34-6.95l3.17-10.29l2.39-8.16c0,0,18.71-4.98,21.89-4.14
			c0.31,0.08,0.61,0.18,0.89,0.29c2.62,0.97,4.17,2.8,5.49,3.46c0.48,0.25,5.12,3.03,5.36,4.63c0.34,2.22-0.33,3.89-1.47,4.92
			c0,0,0.47,4.37-1.15,6.84c0,0,0.56,4.02-2.33,6.52C289.06,406.88,289.17,411.02,286.99,412.14z"/>
		<path style="fill:#51578F;" d="M264.17,383.01c0,0,0.16,13.79-8.35,24.09c0,0-66.38-22.87-74.37-26.01
			c-7.98-3.14,29.01-101.44,29.01-101.44l27.22,9.27l-14.62,27.65c0,0-7.24,15.49-22.29,40.97
			C200.76,357.54,210.03,365.7,264.17,383.01z"/>
		<path style="fill:#EED9CF;" d="M260.82,237.65c0,0-0.66,26.31,26.44,25.68c28.05-0.65,22.11-27.5,22.11-27.5
			S288.14,226.58,260.82,237.65z"/>
		<path style="fill:#EEA886;" d="M303.15,214.05c0,0-2.44,13.35,1.75,22.48c0,0,4.27,21.26-17.49,22.21
			c-21.76,0.95-21.53-22.93-21.53-22.93s4.47-2.6,1-21.62C263.41,195.16,303.15,214.05,303.15,214.05z"/>
		<g>
			<path style="fill:#EEA886;" d="M289.92,136.81c0,0,27.85,4.49,23.61,49.11c-4.24,44.61-28.82,40.96-30.46,40.91
				c-1.64-0.05-24.67,0.81-26.47-53.66C256.6,173.17,255.82,132.89,289.92,136.81z"/>
		</g>
		<g>
			<path style="fill:#EEA886;" d="M313.96,173.32c0,0,3.05-3.34,4.17,0.04c1.12,3.38-3.97,17.92-4.35,19.14c0,0-0.56,1.31-1.29,0.59
				C311.76,192.36,313.96,173.32,313.96,173.32z"/>
		</g>
		<g>
			<path style="fill:#EEA886;" d="M257.28,172.75c0,0-2.99-3.4-4.17-0.04c-1.18,3.35,3.74,18.65,3.99,19.22c0,0,0.53,1.32,1.28,0.61
				C259.12,191.84,257.28,172.75,257.28,172.75z"/>
		</g>
		<g>
			<path style="fill:#434343;" d="M313.94,180.16l-3.99,5.46c0,0,0.11-11.97-0.53-13.84c-0.64-1.88,0.76-8.41,0.22-9.76
				c-0.54-1.35-19.05,3.68-49.4,0.59c0,0,3.38,10.78,1.4,11.54c-1.98,0.77-1.01,14.01-1.01,14.01l-3.28-3.79
				c0,0-3.7-22.63-3.34-26.41c0.48-5.03-1.23-28.51,41.49-24.48c4.89,0.46,9.59,2.25,13.49,5.3c4.39,3.43,8.9,8.77,8.49,16.12
				C316.95,164.61,313.94,180.16,313.94,180.16z"/>
		</g>
		<path style="fill:#A77860;" d="M270.38,220.92c0,0,11.49,13.41,29.72,0c0,0-5.11,10.17-15.83,10.41
			C273.55,231.57,270.38,220.92,270.38,220.92z"/>
	</g>
	<g>
		
			<rect x="136.45" y="187.14" transform="matrix(0.9999 -0.0124 0.0124 0.9999 -2.5095 1.7167)" style="fill:#292929;" width="1.28" height="31.92"/>
	</g>
	<path style="fill:#292929;" d="M137.3,218.06L137.3,218.06c-0.01-0.01-0.01,0-0.02,0c-0.01,0-0.01,0-0.02,0l0,0.01
		c-3.02,0.18-2.48,15.75-2.48,15.75l2.68-0.03l0.04,0l2.68-0.03C140.18,233.74,140.33,218.16,137.3,218.06z"/>
	<polygon style="fill:#272A45;" points="209.43,169.53 237.38,149.86 174.56,138.01 110.47,192.56 147.56,197.24 	"/>
	<path style="fill:#51578F;" d="M210.7,176.85c0,0-28.65,4.22-58.51,27.35l-7.31-11.69c0,0,34.39-22.93,64.38-26.21L210.7,176.85z"
		/>
</g>
</svg>
