<?xml version="1.0" encoding="utf-8"?>
<!-- Generator: Adobe Illustrator 17.0.0, SVG Export Plug-In . SVG Version: 6.00 Build 0)  -->
<!DOCTYPE svg PUBLIC "-//W3C//DTD SVG 1.1//EN" "http://www.w3.org/Graphics/SVG/1.1/DTD/svg11.dtd">
<svg version="1.1" id="Calque_1" xmlns="http://www.w3.org/2000/svg" xmlns:xlink="http://www.w3.org/1999/xlink" x="0px" y="0px"
	 width="750px" height="750px" viewBox="0 0 750 750" style="enable-background:new 0 0 750 750;" xml:space="preserve">
<path style="fill:#F7CC7F;" d="M620.43,443.11l-0.82,182.45l112.52,0.5L620.43,443.11z M676.37,555.19l-46.4-0.21l0.35-77.57
	L676.37,555.19z M629.94,561.08l50.05,0.22l31.58,53.33l-81.86-0.37L629.94,561.08z"/>
<g>
	<path style="fill:#213854;" d="M190.72,284.18h411.84c10.09,0,18.27,8.18,18.27,18.27v212.41v34.04c0,7.08-4.68,12.82-10.45,12.82
		H433.62v50.58h104.72c7.82,0,14.16,6.34,14.16,14.16H433.62H398.9h-2.26h-34.73H243.03c0-7.82,6.34-14.16,14.16-14.16h104.72
		v-50.58H182.9c-5.77,0-10.45-5.74-10.45-12.82v-34.04V302.45C172.44,292.36,180.63,284.18,190.72,284.18z"/>
	<path style="fill:#001333;" d="M247.43,612.29h104.72v-59.81h34.73h2.26h34.73v59.81h104.72c7.82,0,14.16,6.34,14.16,14.16H423.87
		h-34.73h-2.26h-34.73H233.27C233.27,618.63,239.61,612.29,247.43,612.29z"/>
	<path style="fill:#001333;" d="M162.69,514.86V302.45c0-10.09,8.18-18.27,18.27-18.27H592.8c10.09,0,18.27,8.18,18.27,18.27v212.41
		H162.69z"/>
	<path style="fill:#001333;" d="M611.07,514.86v34.04c0,7.08-4.68,12.82-10.45,12.82H173.14c-5.77,0-10.45-5.74-10.45-12.82v-34.04
		H611.07z"/>
	<path style="fill:#EAFCFC;" d="M173.18,505.63V303.02c0-5.31,4.46-9.62,9.96-9.62h407.47c5.5,0,9.96,4.31,9.96,9.62v202.62H173.18z
		"/>
</g>
<g>
	<path style="fill:#B75742;" d="M463.17,392.26c0,0-6.43,2.8-9.96,25.19c0,0,5.33,3.57,5.44,1.3S463.17,392.26,463.17,392.26z"/>
	<circle style="fill:#F8C48B;" cx="486.72" cy="343.57" r="9.73"/>
	<path style="opacity:0.3;fill:#B75742;" d="M491.28,352.16c-2.41,1.28-5.34,1.54-8.08,0.47c-5.01-1.95-7.49-7.59-5.54-12.59
		c0.19-0.49,0.42-0.96,0.68-1.4c0.3,0.09,0.61,0.18,0.92,0.28C485.76,341.1,489.99,346.31,491.28,352.16z"/>
	<path style="fill:#F8C48B;" d="M453.33,359.28c1.82,8.73,10.05,14.65,18.61,14.24c8.56-0.41,15.92-7.07,16.52-15.92
		c0.69-10.26-7.74-19.42-18.93-18.88C458.33,339.25,451.23,349.16,453.33,359.28z"/>
	<path style="fill:#355389;" d="M503.49,505.62c-0.12-2.68-0.33-4.98-0.68-6.75c-2.41-12.16-12.54-26.84-12.54-26.84l-36.16-4.56
		l1.36,7.7l-2.15,0.39c0,0-3.7,17.07-2.61,30.07H503.49z"/>
	<path style="fill:#F38B80;" d="M421.05,426.32c0,0,22.34,7,28.69,7.94c0.55-2.2,5.43-14.29,5.9-16.36
		c3.81,2.16,8.67-0.44,12.57,1.48c-1.96,6.92-6.37,29.73-8.13,30.75c-5.36,3.13-39.49-15.67-39.86-15.84
		C421.63,430.59,421.05,426.32,421.05,426.32z"/>
	<path style="fill:#B75742;" d="M452.78,425.23c0,0-3.24,7.43-2.87,7.37c0.38-0.06,3.3,0,3.3,0v-6.17L452.78,425.23z"/>
	<path style="fill:#F47458;" d="M481.42,388.16c0,0,8.67,0.98,13.85,6.62c5.18,5.64-8.38,50.97-9.32,58.15
		c-0.94,7.18,9.01,27.04,9.01,27.04s-33.85,6.73-42.65,0.92c0,0-0.77-55.48,0.17-60.61c0.94-5.13,8.8-25.98,10.68-28.03
		C465.06,390.21,481.42,388.16,481.42,388.16z"/>
	<path style="fill:#F7A491;" d="M477.06,370.68c0,0,0.07,0.39,0.19,1.04c0.58,3.14,2.83,13.58,4.35,16.44
		c1.84,3.47-6.29,14.52-14.11,13.17c-2.33-0.4,1.97-10.16,1.76-11.19c-0.4-1.98-0.93-4.68-1.48-7.44c-0.31-1.56-0.62-3.14-0.92-4.63
		c-0.84-4.23-1.52-7.68-1.52-7.68L477.06,370.68z"/>
	<path style="fill:#F47458;" d="M477.25,371.72c-0.12-0.66-0.19-1.04-0.19-1.04l-11.72-0.29c0,0,0.68,3.46,1.52,7.68
		c0.29,1.48,0.6,3.05,0.91,4.6c1.81-0.27,3.7-1.14,5.6-2.8c2.07-1.81,3.42-3.98,4.24-6.29
		C477.46,372.85,477.34,372.21,477.25,371.72z"/>
	<path style="fill:#F7A491;" d="M470.01,342.83c0,0,4.78,0.66,8.24,5.13c3.46,4.47,7.19,18.29-1.41,25.81
		c-8.6,7.51-17.1-0.99-18.36-10.01C457.22,354.74,457.48,342.5,470.01,342.83z"/>
	<path style="fill:#F7A491;" d="M455.98,361.53c0.54,2.17,1.97,3.64,3.18,3.28c1.21-0.36,1.76-2.42,1.22-4.59
		c-0.54-2.17-1.97-3.64-3.18-3.28C455.98,357.3,455.43,359.35,455.98,361.53z"/>
	<path style="fill:#F8C48B;" d="M464.7,342.87c0,0,11.23,12.89,16.51,13.5c5.28,0.61,5.97,7.59,5.97,7.59s-1.89-16.09-7.11-19.2
		C474.84,341.66,464.7,342.87,464.7,342.87z"/>
	<path style="fill:#F7A491;" d="M479.49,359.5c-0.43,2.33,0.43,4.47,1.93,4.78c1.49,0.31,3.05-1.34,3.48-3.67
		c0.43-2.33-0.43-4.47-1.93-4.78C481.48,355.52,479.92,357.17,479.49,359.5z"/>
	<g>
		<polygon style="fill:#BED9EA;" points="475.2,427.1 441.08,433.32 449.18,477.72 449.18,477.72 483.3,471.5 483.3,471.5 
			475.2,427.1 		"/>
		<polygon style="fill:#D3E5F4;" points="477.43,428.58 443.11,433.59 449.63,478.25 449.63,478.25 483.95,473.24 483.95,473.24 
			477.43,428.58 		"/>
		<polygon style="fill:#F4F4F4;" points="480.36,430.25 445.95,434.6 451.61,479.38 451.61,479.38 486.02,475.03 486.02,475.03 
			480.36,430.25 		"/>
	</g>
	<path style="fill:#FFFFFF;" d="M463.78,368.46l8.15-0.51c0,0,0.01,3.11-3.57,3.44C463.99,371.78,463.78,368.46,463.78,368.46z"/>
	<path style="fill:#F7A491;" d="M504.22,435.99l-15.44,1.5c0,0,3.39,12.35,3.17,13.63c0,0-22.49,6.23-31.89,7.93
		c0,0-4.28-2.43-6.01-3.2c-1.73-0.77-6.39-1.61-7.41-1.75c-1.03-0.13-0.68,0.99,0.21,1.39c0.88,0.39,3.17,1.47,3.82,2.79
		c0,0-1.86,0.2-2.84-0.23c-0.98-0.44-2.34-1.36-2.36-1.84c-0.02-0.48-0.24-1.64-0.57-1.58c-0.08,0.02-0.19,0.4-0.3,0.79
		c-0.1,0.38-0.22,0.77-0.31,1.15c-0.17,0.68-0.36,1.68-0.43,2.13c-0.17,1.03,0.46,3.85,0.55,4.86c0.16,1.83,0.68,2.65,1.65,3.12
		c1.56,0.54,3.21,0.89,5.65,1.14c4.47,0.46,8.59-0.83,10.38-1.03c1.79-0.2,30.43-3.04,30.43-3.04s11.38-1.64,12.14-3.6
		C505.41,458.19,504.22,435.99,504.22,435.99z"/>
	<path style="fill:#F47458;" d="M493.69,393.14c0,0,4.15,1.97,7.8,10.47c3.47,8.08,3.65,48.25,3.65,48.25l-13.56-2.26l-6.35-18.69
		c-4.98-11.25-3.7-24.35,3.56-34.28C490.72,393.98,492.51,392.38,493.69,393.14z"/>
	<path style="fill:#F48C7F;" d="M423.09,427.21v8.03c-1.68-0.44-10.57-3.67-12.9-4.18l3.21-9.09l0,0c0.34-0.57,0.35-1.28,0.03-1.86
		c-0.22-0.41-0.46-0.79-0.59-0.94c-0.41-0.44-0.84-0.98-1.24-1.42c-0.41-0.44,0.39-2,0.96-2.46c0.57-0.46,1.85,1.94,2.44,2.56
		c1.8,1.87,5.43,7.55,6.06,8.48L423.09,427.21z"/>
	<polygon style="fill:#D3E5F4;" points="414.7,440.98 417.47,440.55 403.84,358.38 403.18,358.49 402.55,358.59 	"/>
	<g>
		<path style="fill:#F7A491;" d="M407.71,428.64c-0.12-0.54-0.18-1.11-0.19-1.71c0-0.64,0.1-1.45,0.28-1.76
			c0.11-0.19,0.06-0.64,0.05-1.1c0-0.15,0.01-0.3,0.04-0.45c0,0,0-0.01,0-0.01c0.1-0.42,0.28-0.82,0.51-1.19
			c0.22-0.35,0.36-0.76,0.5-1.4c0.1-0.5,0.32-0.97,0.65-1.36c0.33-0.38,0.64-0.52,0.9-0.33c1.19,0.89,6.22,3.19,5.61,5.6
			c-0.52,2.02-1.36,4.25-1.36,5.1c-0.01,1.17-1.55,1.74-2.6,1.78C410.12,431.9,408.33,431.4,407.71,428.64z"/>
	</g>
	<path style="fill:#D3E5F4;" d="M467.49,401.34c-2.31-0.4,1.9-10,1.76-11.16l12.08-2.16l0.27,0.15
		C483.44,391.63,475.31,402.68,467.49,401.34z"/>
	<path style="fill:#F4F4F4;" d="M481.6,388.17c-0.11-0.42-1.32-4.72-1.32-4.72l-8.69,5.31l-3.4-2.56l1.66,8.03l1.62-2.39l2.13,2.69
		L481.6,388.17z"/>
	<path style="fill:#D3E5F4;" d="M505.14,452.41l-14.01-2.34c0,0-1.19-3.49-1-3.55l15.27,1.42L505.14,452.41z"/>
</g>
<g>
	<path style="fill:#F7CC7F;" d="M510.33,219.78h118.79c4.1,0,7.43,3.34,7.43,7.46v84.71c0,4.12-3.33,7.46-7.43,7.46H535.6
		c-3.79,5.3-10.65,14.79-11.25,14.79c-0.57,0,0.52-8.96,1.29-14.79h-15.31c-4.1,0-7.43-3.34-7.43-7.46v-84.71
		C502.9,223.12,506.22,219.78,510.33,219.78z"/>
	<g>
		<g>
			<polygon style="fill:#162E55;" points="544.69,283.93 543.15,283.35 555.92,249.67 593.85,261.76 612.28,234.66 613.64,235.59 
				594.53,263.7 556.9,251.72 			"/>
		</g>
		<circle style="fill:#F47458;" cx="540.09" cy="288.87" r="14.59"/>
		<circle style="fill:#F47458;" cx="594.57" cy="263.97" r="9.44"/>
		<circle style="fill:#F47458;" cx="612.96" cy="235.13" r="3.25"/>
		<circle style="fill:#F47458;" cx="556.41" cy="250.69" r="7.81"/>
	</g>
	<rect x="564.64" y="282.3" style="opacity:0.8;fill:#FFFFFF;" width="61.57" height="2.96"/>
	<rect x="564.64" y="290.66" style="opacity:0.8;fill:#FFFFFF;" width="44.59" height="2.96"/>
	<rect x="511.74" y="230.51" style="opacity:0.8;fill:#FFFFFF;" width="44.59" height="2.96"/>
	<rect x="511.74" y="238.82" style="opacity:0.8;fill:#FFFFFF;" width="32.47" height="2.96"/>
	<rect x="564.64" y="299.02" style="opacity:0.8;fill:#FFFFFF;" width="61.57" height="2.96"/>
</g>
<g>
	<path style="fill:#50BFA5;" d="M447.48,264.97h-90.42c-3.12,0-5.66,2.54-5.66,5.67v64.48c0,3.13,2.53,5.67,5.66,5.67h71.19
		c2.88,4.03,8.11,11.26,8.57,11.26c0.43,0-0.4-6.82-0.99-11.26h11.65c3.12,0,5.66-2.54,5.66-5.67v-64.48
		C453.14,267.51,450.61,264.97,447.48,264.97z"/>
	<path style="opacity:0.8;fill:#FFFFFF;" d="M426.1,294.52c-1.29-0.49-2.67-0.94-4.12-1.33c0.39-1.46,0.7-2.87,0.91-4.23
		c1-6.32-0.06-10.73-2.99-12.41c-2.92-1.69-7.27-0.4-12.24,3.62c-1.07,0.87-2.14,1.84-3.21,2.9c-1.07-1.06-2.14-2.04-3.21-2.9
		c-4.97-4.02-9.32-5.31-12.24-3.62c-2.92,1.69-3.98,6.09-2.99,12.41c0.21,1.36,0.52,2.78,0.91,4.23c-1.46,0.39-2.84,0.84-4.12,1.33
		c-5.97,2.3-9.26,5.42-9.26,8.79c0,3.37,3.29,6.5,9.26,8.79c1.29,0.49,2.67,0.94,4.12,1.33c-0.39,1.46-0.7,2.87-0.91,4.23
		c-1,6.32,0.06,10.73,2.99,12.41c0.84,0.48,1.79,0.72,2.85,0.72c2.62,0,5.85-1.48,9.39-4.34c1.07-0.87,2.15-1.84,3.21-2.9
		c1.07,1.06,2.14,2.04,3.21,2.9c3.55,2.87,6.77,4.34,9.39,4.34c1.05,0,2.01-0.24,2.85-0.72c2.92-1.69,3.98-6.09,2.99-12.41
		c-0.21-1.36-0.52-2.78-0.91-4.23c1.46-0.39,2.84-0.84,4.12-1.33c5.97-2.3,9.26-5.42,9.26-8.79
		C435.36,299.94,432.07,296.81,426.1,294.52z M408.39,281.06c3.31-2.67,6.33-4.08,8.67-4.08c0.85,0,1.61,0.18,2.26,0.56
		c2.44,1.41,3.32,5.5,2.42,11.22c-0.21,1.32-0.51,2.7-0.89,4.12c-2.93-0.72-6.13-1.23-9.51-1.53c-1.95-2.78-4-5.3-6.08-7.47
		C406.3,282.85,407.35,281.9,408.39,281.06z M414.05,308.85c-1.06,1.84-2.18,3.61-3.34,5.29c-2.03,0.16-4.13,0.25-6.26,0.25
		c-2.13,0-4.22-0.09-6.26-0.25c-1.16-1.68-2.28-3.45-3.34-5.29c-1.06-1.84-2.04-3.7-2.91-5.54c0.87-1.84,1.85-3.7,2.91-5.54
		c1.06-1.84,2.18-3.61,3.34-5.29c2.03-0.16,4.13-0.25,6.26-0.25c2.13,0,4.22,0.09,6.26,0.25c1.16,1.68,2.28,3.45,3.34,5.29
		c1.06,1.84,2.04,3.7,2.91,5.54C416.08,305.15,415.11,307.01,414.05,308.85z M417.59,304.67c1.22,2.71,2.21,5.38,2.95,7.93
		c-2.58,0.63-5.39,1.1-8.34,1.4c0.98-1.47,1.94-2.99,2.85-4.58C415.96,307.85,416.81,306.26,417.59,304.67z M409.83,315.38
		c-1.74,2.41-3.55,4.6-5.39,6.52c-1.84-1.92-3.65-4.12-5.39-6.52c1.76,0.12,3.56,0.18,5.39,0.18
		C406.27,315.56,408.07,315.5,409.83,315.38z M396.69,314.01c-2.95-0.3-5.76-0.77-8.34-1.4c0.74-2.55,1.74-5.22,2.95-7.93
		c0.78,1.59,1.62,3.18,2.53,4.76C394.75,311.01,395.7,312.54,396.69,314.01z M391.3,301.94c-1.22-2.71-2.21-5.38-2.95-7.93
		c2.58-0.63,5.39-1.1,8.34-1.4c-0.98,1.47-1.94,2.99-2.85,4.58C392.92,298.77,392.08,300.36,391.3,301.94z M399.06,291.24
		c1.74-2.41,3.55-4.6,5.39-6.52c1.84,1.92,3.65,4.12,5.39,6.52c-1.76-0.12-3.56-0.18-5.39-0.18
		C402.62,291.06,400.82,291.12,399.06,291.24z M415.05,297.19c-0.91-1.58-1.87-3.11-2.85-4.58c2.95,0.3,5.76,0.77,8.34,1.4
		c-0.74,2.55-1.74,5.22-2.95,7.93C416.81,300.36,415.96,298.77,415.05,297.19z M387.15,288.77c-0.9-5.72-0.02-9.82,2.42-11.22
		c0.65-0.38,1.41-0.56,2.26-0.56c2.34,0,5.37,1.4,8.67,4.08c1.04,0.84,2.09,1.79,3.13,2.83c-2.09,2.18-4.14,4.7-6.09,7.47
		c-3.38,0.3-6.58,0.82-9.51,1.53C387.66,291.47,387.36,290.09,387.15,288.77z M383.21,311.02c-5.41-2.08-8.51-4.89-8.51-7.71
		c0-2.82,3.1-5.63,8.51-7.71c1.25-0.48,2.6-0.92,4.02-1.3c0.84,2.89,2,5.93,3.43,9.01c-1.43,3.07-2.59,6.11-3.43,9.01
		C385.8,311.93,384.46,311.5,383.21,311.02z M400.5,325.56c-4.51,3.64-8.49,4.93-10.93,3.52c-2.44-1.41-3.32-5.5-2.42-11.22
		c0.21-1.32,0.51-2.7,0.89-4.12c2.93,0.72,6.13,1.23,9.51,1.53c1.95,2.78,4,5.3,6.09,7.47C402.59,323.77,401.54,324.71,400.5,325.56
		z M421.74,317.85c0.9,5.72,0.02,9.82-2.42,11.22c-2.44,1.41-6.42,0.13-10.93-3.52c-1.04-0.84-2.09-1.79-3.13-2.83
		c2.09-2.18,4.14-4.7,6.08-7.47c3.38-0.3,6.58-0.82,9.51-1.53C421.23,315.14,421.53,316.53,421.74,317.85z M425.68,311.02
		c-1.25,0.48-2.6,0.92-4.02,1.3c-0.84-2.89-2-5.93-3.43-9.01c1.43-3.07,2.59-6.11,3.43-9.01c1.42,0.38,2.77,0.82,4.02,1.3
		c5.41,2.08,8.51,4.89,8.51,7.71C434.19,306.13,431.09,308.94,425.68,311.02z"/>
	<circle style="fill:#355389;" cx="404.44" cy="303.31" r="5.49"/>
	<circle style="fill:#F47458;" cx="382.36" cy="295.65" r="3"/>
	<rect x="357.01" y="270.6" style="opacity:0.8;fill:#FFFFFF;" width="37.24" height="1.92"/>
	<rect x="357.01" y="276.02" style="opacity:0.8;fill:#FFFFFF;" width="24.98" height="1.92"/>
	<rect x="357.01" y="281.45" style="opacity:0.8;fill:#FFFFFF;" width="15.31" height="1.92"/>
	<rect x="358.35" y="325.12" style="opacity:0.8;fill:#FFFFFF;" width="24.98" height="1.92"/>
	<rect x="358.35" y="330.54" style="opacity:0.8;fill:#FFFFFF;" width="15.31" height="1.92"/>
</g>
<g>
	<g>
		<path style="fill:#F7CC7F;" d="M338.49,186.88c-18.6,9.22-17.48,37.84,1.79,45c3.46,1.29,6.31,3.93,8.1,7.31l6.16,11.62
			c1.7,3.2,5.46,4.45,8.64,2.88l7.05-3.49c3.18-1.58,4.72-5.45,3.53-8.91c-4.34-12.6-6.81-16.9-4.3-23.86
			C376.79,197.07,357.09,177.66,338.49,186.88z"/>
		<g>
			<path style="fill:#FAE0B2;" d="M365.97,234.5l-2.42,1.08c-0.15-0.4-4.52-11.49-8.99-24.89c-2.51,2.22-5.29,4.01-8.3,5.33
				c4.69,10.39,10.25,24.87,10.27,24.92l-2.43,1.07c-0.02-0.04-5.6-14.62-10.32-25.03c-4.88,1.54-7.04-0.51-7.76-1.5
				c-1.2-1.65-1.26-4.01-0.14-5.59c1.75-2.47,6.08-2.04,9.17,3.64c3.15-1.36,6.03-3.28,8.57-5.69c-0.76-2.26-1.56-4.4-1.26-6.52
				c0.33-2.36,2.06-4.04,3.94-4.1c2.93-0.1,5.91,4.09,2.39,9.06c-0.61,0.86-1.34,1.67-2.01,2.37
				C361.41,222.97,365.66,233.68,365.97,234.5z M355.68,205.67c3.16-3.64,1.73-5.53,0.86-5.68
				C354.48,201.35,354.65,202.55,355.68,205.67z M337.79,213.03c0.42,2.02,2.84,1.96,4.73,1.43
				C340.18,210.45,337.25,210.44,337.79,213.03z"/>
		</g>
		<path style="fill:#96D9C9;" d="M348.21,238.9c0.05,0.1,0.11,0.19,0.17,0.28l6.16,11.62c1.7,3.2,5.46,4.45,8.64,2.88l7.05-3.49
			c3.18-1.58,4.72-5.45,3.53-8.91c-1.93-5.61-3.49-9.57-4.4-12.85L348.21,238.9z"/>
	</g>
	<g>
		<path style="fill:#FAE0B2;" d="M382.12,180.13c-1.92,1.74-3.85,3.48-5.77,5.22c-1.51,1.36-3.49,3.85-5.67,3.84
			c-0.54,0-1.15-0.5-1.08-1.09c0.24-2.25,2.74-3.85,4.32-5.26c1.93-1.73,3.87-3.46,5.8-5.19
			C381.36,176.17,383.78,178.63,382.12,180.13L382.12,180.13z"/>
	</g>
	<g>
		<path style="fill:#FAE0B2;" d="M360.51,164.96c-3.47,13.83-3.23,13.5-4.2,14.55c-0.75,0.82-2.2,0.35-2.45-0.69
			c-0.32-1.31-0.26-0.95,3.35-14.75C357.77,161.95,361.04,162.84,360.51,164.96L360.51,164.96z"/>
	</g>
	<g>
		<path style="fill:#FAE0B2;" d="M331.41,180.72c-1.46-2.17-2.93-4.35-4.39-6.52c-1.3-1.93-3.23-4-3.51-6.37
			c-0.12-1.04,1.19-1.56,1.97-1.13c2.05,1.12,3.29,3.92,4.54,5.81c1.45,2.18,2.91,4.36,4.36,6.54
			C335.62,180.89,332.64,182.54,331.41,180.72L331.41,180.72z"/>
	</g>
	<g>
		<path style="fill:#FAE0B2;" d="M317.28,216.3c-3.67,1.47-7.39,3-11.2,4.07c-2.05,0.58-2.76-2.46-0.82-3.15
			c3.74-1.34,7.51-2.59,11.21-4.04C318.41,212.41,319.18,215.54,317.28,216.3L317.28,216.3z"/>
	</g>
	<g>
		<path style="fill:#FAE0B2;" d="M317.68,198.02c-2.37-0.28-4.73-0.63-7.09-1.01c-2.15-0.34-4.95-0.34-6.69-1.72
			c-0.92-0.73-0.25-2.15,0.68-2.44c1.17-0.36,1.51-0.08,6.62,0.76c2.31,0.38,4.62,0.71,6.92,1.12
			C319.97,195.05,319.57,198.24,317.68,198.02L317.68,198.02z"/>
	</g>
</g>
<g>
	<path style="fill:#F7CC7F;" d="M324.26,410.4l15.05-35.94l-24.23-32.21l-38.97,4.53l-15.33,36.03l-38.51,4.48l-15.79,37.1
		l23.82,31.66l38.67-4.72l23.34,31.02l40.02-4.89l15.15-36.19L324.26,410.4z M277.09,348.08l37.35-4.34l23.26,30.92l-14.42,34.43
		l-0.03-0.04l-38.82,4.51l-22.48-29.88L277.09,348.08z M208.1,424.18l15.15-35.6l37.35-4.34l23.09,30.7l-14.88,34.97l-37.88,4.62
		L208.1,424.18z M331.34,476.15l-38.4,4.69l-22.52-29.93l14.87-35.51l37.51-4.58l23.06,30.65L331.34,476.15z"/>
	<circle style="fill:#F47458;" cx="315.02" cy="343.74" r="4.72"/>
	<circle style="fill:#F47458;" cx="223" cy="388.52" r="4.72"/>
	<circle style="fill:#F47458;" cx="337.7" cy="374.99" r="4.72"/>
	<circle style="fill:#F47458;" cx="345.87" cy="441.12" r="4.72"/>
	<circle style="fill:#F47458;" cx="292.69" cy="480.84" r="4.72"/>
	<circle style="fill:#F47458;" cx="284.41" cy="414.28" r="4.72"/>
	<circle style="fill:#50BFA5;" cx="327.63" cy="359.85" r="2.9"/>
	<circle style="fill:#50BFA5;" cx="261.32" cy="383.79" r="2.9"/>
	<circle style="fill:#50BFA5;" cx="323.24" cy="410.47" r="2.73"/>
	<circle style="fill:#50BFA5;" cx="206.48" cy="424.27" r="3.98"/>
	<g>
		<path style="fill:#50BFA5;" d="M311.11,331.64v-17.83h1.94v7.62h8.96v-7.62h1.95v17.83h-1.95v-8.49h-8.96v8.49H311.11z"/>
	</g>
	<g>
		<path style="fill:#50BFA5;" d="M355.25,450.27v-17.83h1.94v7.62h8.96v-7.62h1.95v17.83h-1.95v-8.49h-8.96v8.49H355.25z"/>
	</g>
	<g>
		<path style="fill:#50BFA5;" d="M326.64,338.36v-1.24c0.29-0.66,0.68-1.29,1.15-1.9c0.47-0.61,1.06-1.22,1.77-1.84
			c0.32-0.28,0.82-0.67,1.52-1.18c0.7-0.5,1.18-0.9,1.45-1.19c0.42-0.45,0.73-0.87,0.93-1.27c0.2-0.4,0.3-0.8,0.3-1.21
			c0-0.76-0.23-1.37-0.68-1.81c-0.45-0.44-1.07-0.66-1.86-0.66c-0.81,0-1.48,0.24-2.02,0.73c-0.54,0.49-0.91,1.19-1.1,2.1
			l-1.28-0.27c0.26-1.22,0.77-2.15,1.52-2.78c0.75-0.63,1.72-0.94,2.91-0.94c1.21,0,2.16,0.32,2.86,0.96
			c0.7,0.64,1.05,1.51,1.05,2.61c0,0.47-0.06,0.89-0.17,1.27c-0.11,0.38-0.29,0.73-0.53,1.06c-0.46,0.65-1.4,1.5-2.83,2.56
			c-0.32,0.23-0.55,0.4-0.71,0.52c-0.75,0.57-1.37,1.12-1.86,1.66c-0.49,0.54-0.85,1.07-1.07,1.59h7.17v1.23H326.64z"/>
	</g>
</g>
<path style="fill:#F47458;" d="M451.11,198.98l-10.2-4.1l-29.35,34.78c-2.54,3-1.44,7.62,2.16,9.07l0,0
	c2.26,0.91,4.86,0.24,6.44-1.67l6.83-8.24l10.7,4.3l-0.61,10.79c-0.14,2.46,1.28,4.72,3.53,5.63l0.19,0.08
	c3.6,1.45,7.56-1.14,7.78-5.08L451.11,198.98z M433.72,220.32l5.39-6.4l-0.47,8.37L433.72,220.32z"/>
<g>
	<rect x="261.88" y="588.38" style="fill:#F4F4F4;" width="106.68" height="37.36"/>
	<rect x="261.88" y="595.22" style="fill:#D3E5F4;" width="106.68" height="0.63"/>
	<rect x="261.88" y="601.38" style="fill:#D3E5F4;" width="106.68" height="0.63"/>
	<rect x="261.88" y="607.55" style="fill:#D3E5F4;" width="106.68" height="0.63"/>
	<rect x="261.88" y="613.71" style="fill:#D3E5F4;" width="106.68" height="0.63"/>
	<path style="fill:#D3E5F4;" d="M315.97,602.01c0,0-50.2,4.31-56.49,9.72c0,0,0.31-6.42,2.39-10.35l15.73,0.6L315.97,602.01z"/>
	<polygon style="fill:#F47458;" points="342.82,602 337.35,610.68 331.22,602 	"/>
	<polygon style="fill:#466EB6;" points="317.28,608.17 311.81,616.85 305.68,608.17 	"/>
	<rect x="261.88" y="619.84" style="fill:#D3E5F4;" width="106.68" height="0.63"/>
	<polygon style="fill:#50BFA5;" points="288.93,614.36 283.45,623.03 277.32,614.36 	"/>
	<polygon style="fill:#D3E5F4;" points="343.17,588.38 343.17,606.91 343.17,607.2 343.17,625.74 368.56,625.74 368.56,607.2 
		368.56,606.91 368.56,588.38 	"/>
</g>
<g>
	<path style="fill:#F7CC7F;" d="M88.51,503.14c-0.19,5.98,4.7,10.87,10.68,10.68c5.42-0.17,9.83-4.59,10-10
		c0.19-5.98-4.7-10.87-10.68-10.68C93.1,493.31,88.69,497.72,88.51,503.14z"/>
	<g>
		<path style="fill:#B75742;" d="M70.39,622.5h2.07c0.48,0,0.87-0.39,0.87-0.87v-10.49c0-0.48-0.39-0.87-0.87-0.87h-2.07
			c-0.48,0-0.87,0.39-0.87,0.87v10.49C69.52,622.11,69.91,622.5,70.39,622.5z"/>
		<g>
			<path style="fill:#50BFA5;" d="M51.4,479.41c3.19-4.18,6.76-6.48,10.63-6.86c5.96-0.58,10.71,3.57,10.75,3.61l2.37-2.68
				c-0.24-0.21-5.98-5.22-13.47-4.5c-4.89,0.47-9.31,3.25-13.13,8.25L51.4,479.41z"/>
		</g>
		<path style="fill:#B75742;" d="M79.3,470.94l14.67,14.67c1.2,1.2,1.2,3.15,0,4.35l-5.16,5.16c-1.2,1.2-3.15,1.2-4.35,0
			l-14.67-14.67c-1.2-1.2-1.2-3.15,0-4.35l5.16-5.16C76.15,469.74,78.1,469.74,79.3,470.94z"/>
		<path style="fill:#F47458;" d="M114.92,484.76l-34.78,34.78c-9.61-9.61-9.61-25.18,0-34.78
			C89.74,475.16,105.31,475.16,114.92,484.76z"/>
		<g>
			<path style="fill:#B75742;" d="M9.89,545.67l34.88-71.05l10.89,5.34l-34.88,71.05L9.89,545.67z M46.48,479.62l-31.59,64.35
				l4.18,2.05l31.59-64.35L46.48,479.62z"/>
		</g>
		<g>
			<path style="fill:#B75742;" d="M7.48,550.19l11.48-3.92l25.58,74.91l-11.48,3.92L7.48,550.19z M16.63,551.01l-4.41,1.51
				l23.17,67.84l4.41-1.51L16.63,551.01z"/>
		</g>
		<path style="fill:#96D9C9;" d="M79.16,523.04l0.14,0.14c0.69,0.69,1.82,0.69,2.51,0l36.74-36.74c0.69-0.69,0.69-1.82,0-2.51
			l-0.14-0.14c-0.69-0.69-1.82-0.69-2.51,0l-36.74,36.74C78.46,521.22,78.46,522.35,79.16,523.04z"/>
		<path style="fill:#F47458;" d="M5.89,549.14c-0.27,5.25,4.04,9.56,9.29,9.29c4.49-0.23,8.14-3.88,8.37-8.37
			c0.27-5.25-4.04-9.56-9.29-9.29C9.77,541,6.12,544.65,5.89,549.14z"/>
		<path style="fill:#50BFA5;" d="M85.94,613.96H27.93c-6.69,0-12.11,5.42-12.11,12.11l0,0h82.24l0,0
			C98.05,619.38,92.63,613.96,85.94,613.96z"/>
	</g>
</g>
<g>
	<g>
		<path style="fill:#466EB6;" d="M512.75,590.13h-5.93c0.97-0.73,2.18-1.17,3.5-1.17h148.47c7.77,0,14.06,6.17,14.06,13.79v8.76
			c0,7.62-6.3,13.79-14.06,13.79l-146.81-0.05L512.75,590.13z"/>
		<path style="fill:#7792B2;" d="M597.04,588.99c7.43,0,13.45,5.9,13.45,13.19v9.9c0,7.28-6.02,13.19-13.45,13.19h-92.43v-2.21h0.38
			l23.5-2.18l4.75-18.27c0,0-9.17-10.09-9.76-10.35c-0.6-0.26-18.48-1.05-18.48-1.05l-0.38,0v-2.2H597.04z"/>
		<path style="fill:#F4F4F4;" d="M510.61,607.06c0-10.68-5.63-15.86-5.63-15.86h90.17c6.82,0,12.35,5.42,12.35,12.11v7.62
			c0,6.69-5.53,12.11-12.35,12.11h-90.17C504.98,623.05,510.61,620.51,510.61,607.06z"/>
		<path style="fill:#DAEEF7;" d="M607.5,603.32v7.62c0,1-0.13,1.97-0.36,2.9c-3.04-7.29-8.87-14.32-19.97-16.58
			c-25.9-5.27-82.2-6.06-82.2-6.06h90.17C601.97,591.2,607.5,596.63,607.5,603.32z"/>
	</g>
	<path style="fill:#50BFA5;" d="M679.1,561.09h5.93c-0.97-0.58-2.18-0.93-3.5-0.93H532.99c-7.77,0-14.07,4.9-14.07,10.94v6.95
		c0,6.04,6.3,10.94,14.07,10.94l146.87-0.04L679.1,561.09z"/>
	<path style="fill:#3C8F7C;" d="M594.77,560.19c-7.43,0-13.46,4.68-13.46,10.46v7.85c0,5.78,6.02,10.46,13.46,10.46h92.46v-1.76
		h-0.38l-23.51-1.73l-4.75-14.49c0,0,9.17-8.01,9.77-8.22c0.6-0.21,18.49-0.83,18.49-0.83l0.38,0v-1.75H594.77z"/>
	<path style="fill:#F4F4F4;" d="M681.24,574.52c0-8.47,5.63-12.58,5.63-12.58h-90.2c-6.83,0-12.36,4.3-12.36,9.61v6.05
		c0,5.31,5.53,9.61,12.36,9.61h90.2C686.87,587.21,681.24,585.19,681.24,574.52z"/>
	<path style="fill:#DAEEF7;" d="M584.31,571.55v6.05c0,0.79,0.13,1.57,0.36,2.3c3.04-5.79,8.87-11.36,19.97-13.16
		c25.91-4.18,82.23-4.81,82.23-4.81h-90.2C589.84,561.94,584.31,566.25,584.31,571.55z"/>
	<g>
		<polygon style="fill:#F47458;" points="668.03,574.38 662.32,583.43 655.93,574.38 		"/>
		<path style="fill:#DAEEF7;" d="M584.39,574.38h96.86c0,0,0-0.62,0-0.72c0-0.1-96.94,0-96.94,0L584.39,574.38z"/>
	</g>
	<g>
		<polygon style="fill:#50BFA5;" points="523.87,607.89 529.58,616.94 535.97,607.89 		"/>
		<path style="fill:#DAEEF7;" d="M607.51,607.89h-96.86c0,0,0-0.62,0-0.72c0-0.1,96.94,0,96.94,0L607.51,607.89z"/>
	</g>
	<g>
		<g>
			<path style="fill:#F47458;" d="M536.35,532.41h-4.68c0.77-0.58,1.72-0.93,2.77-0.93h117.29c6.14,0,11.11,4.88,11.11,10.89v6.92
				c0,6.02-4.97,10.89-11.11,10.89l-115.98-0.04L536.35,532.41z"/>
			<path style="fill:#B75742;" d="M602.94,531.51c5.87,0,10.63,4.66,10.63,10.42v7.82c0,5.75-4.76,10.42-10.63,10.42h-73.02v-1.75
				h0.3l18.56-1.72l3.75-14.43c0,0-7.24-7.97-7.71-8.18c-0.47-0.21-14.6-0.83-14.6-0.83l-0.3,0v-1.74H602.94z"/>
			<path style="fill:#F4F4F4;" d="M534.65,545.78c0-8.44-4.45-12.53-4.45-12.53h71.23c5.39,0,9.76,4.28,9.76,9.57v6.02
				c0,5.28-4.37,9.57-9.76,9.57h-71.23C530.21,558.41,534.65,556.4,534.65,545.78z"/>
			<path style="fill:#DAEEF7;" d="M611.2,542.82v6.02c0,0.79-0.1,1.56-0.28,2.29c-2.4-5.76-7.01-11.31-15.77-13.1
				c-20.47-4.17-64.94-4.78-64.94-4.78h71.23C606.83,533.25,611.2,537.54,611.2,542.82z"/>
		</g>
		<g>
			<polygon style="fill:#13375B;" points="584.98,545.19 590.01,554.13 594.54,545.19 			"/>
			<path style="fill:#DAEEF7;" d="M611.2,545.19h-76.58c0,0,0-0.62,0-0.72c0-0.1,76.58,0,76.58,0V545.19z"/>
		</g>
	</g>
</g>
<g>
	<path style="fill:#0E2E35;" d="M642.3,384.91c1.26-0.9,2.46-1.84,3.59-2.82l16.25,22.92c1,1.41,0.14,3.73-1.91,5.19
		c-2.05,1.46-4.53,1.5-5.53,0.09l-16.25-22.92C639.75,386.63,641.04,385.81,642.3,384.91z"/>
	
		<ellipse transform="matrix(-0.8157 0.5784 -0.5784 -0.8157 1310.4198 268.2419)" style="opacity:0.6;fill:#C5DDF9;" cx="612.48" cy="342.86" rx="50.7" ry="51.01"/>
	<path style="fill:#FFFFFF;" d="M642.14,383.95c-9.8,7.23-22.06,10.88-34.59,9.75l-44.07-64.85c0.03-0.1,0.06-0.2,0.09-0.31
		c3.64-12.31,11.48-22.22,21.48-28.62L642.14,383.95z"/>
	<path style="fill:#FFFFFF;" d="M621.19,292.69l40.75,59.98c-0.3,1.53-0.68,3.07-1.13,4.6c-2.06,6.97-5.47,13.16-9.85,18.39
		l-55.04-81C603.86,291.93,612.52,291.14,621.19,292.69z"/>
	<path style="fill:#184655;" d="M565.73,376.01c18.42,25.98,54.29,32.2,80.11,13.89c25.82-18.31,31.82-54.22,13.39-80.2
		c-18.42-25.98-54.29-32.2-80.11-13.89C553.3,314.12,547.31,350.03,565.73,376.01z M571.13,372.18
		c-16.3-22.98-10.99-54.74,11.85-70.94c22.84-16.2,54.57-10.7,70.86,12.29c16.3,22.98,10.99,54.74-11.85,70.94
		C619.15,400.66,587.42,395.16,571.13,372.18z"/>
	<path style="opacity:0.5;fill:#50BFA5;" d="M568.57,374c17.31,24.4,51,30.25,75.25,13.05c24.25-17.2,29.89-50.93,12.58-75.33
		c-17.31-24.4-51-30.25-75.25-13.05C556.89,315.87,551.26,349.59,568.57,374z M571.13,372.18c-16.3-22.98-10.99-54.74,11.85-70.94
		c22.84-16.2,54.57-10.7,70.86,12.29c16.3,22.98,10.99,54.74-11.85,70.94C619.15,400.66,587.42,395.16,571.13,372.18z"/>
	<path style="fill:#184655;" d="M711.02,485.01l3.65-2.63c3.65-2.63,4.48-7.71,1.86-11.37l-46.99-65.76
		c-2.63-3.65-7.71-4.48-11.37-1.86l-3.65,2.63c-3.65,2.63-4.48,7.71-1.86,11.37l46.99,65.76
		C702.27,486.8,707.36,487.63,711.02,485.01z"/>
</g>
<g>
	<g>
		<path style="fill:#F8C48B;" d="M168.75,471.16c0,0-15.04-2.77-21.81,13.14c-6.76,15.91-2.04,13.72-5.3,21.65
			c-3.26,7.93-15.15,8.39-13.29,19.55c1.86,11.16,7.36,12.02,7.36,12.02s-3.26,9.46,3.44,17.52c6.69,8.06,20.95,13.57,31.6,10.52
			c0,0,17.8,6.22,33.45-0.74c15.65-6.96,9.95-6.01,16.64-7.12c6.69-1.12,23.24-13.31,18.03-26.2c0,0,8.83-14.94-3.65-23.86
			c-12.48-8.91-16.32-19.45-24.92-32.79C201.71,461.51,175.6,466.45,168.75,471.16z"/>
	</g>
	<path style="fill:#D3D9F4;" d="M162.66,557.4c0,0-10.36-1.47-26.48,14.06c-16.12,15.53-37.86,34.5-28.46,49.64l39.59-0.95
		c0,0,23.94-28.17,24.28-29.64C171.94,589.04,162.66,557.4,162.66,557.4z"/>
	<path style="fill:#D3D9F4;" d="M208.86,557.38c0,0,13.93-1.45,30.05,14.08c16.12,15.53,37.86,34.5,28.46,49.64l-39.59-0.95
		c0,0-23.94-28.17-24.28-29.64C203.16,589.04,208.86,557.38,208.86,557.38z"/>
	<path style="fill:#355389;" d="M234.05,627.33l-3.69-30.13c-4.39-36.55-16.12-40.32-19.38-40.65c-0.28-0.01-0.56-0.01-0.85-0.02
		c0,0-0.01,0-0.01,0l0,0c-6.39-0.17-14.74-0.63-22.86-1.15v-0.09c-0.23,0.02-0.47,0.03-0.71,0.05c-0.23-0.02-0.47-0.03-0.71-0.05
		v0.09c-8.12,0.52-16.47,0.98-22.86,1.15l0,0c0,0,0,0-0.01,0c-0.29,0.01-0.57,0.01-0.85,0.02c-3.25,0.33-14.99,4.1-19.38,40.65
		l-3.69,30.59L234.05,627.33z"/>
	<path style="fill:#C2CCF2;" d="M268.39,621.1c0,0,4.66-3.62,1.26-12.78c-3.4-9.16-27.75-15.3-33.08-2.63L268.39,621.1z"/>
	<path style="fill:#C2CCF2;" d="M106.71,621.1c0,0-4.66-3.62-1.26-12.78s27.75-15.3,33.08-2.63L106.71,621.1z"/>
	<g>
		<g>
			<path style="fill:#ED9485;" d="M206.71,621.98c0.51-0.78-0.77-2.11-1.72-3.11c-1.06-1.1-7.48-3.88-8.57-4.21
				c-1.09-0.33-10.44,0.98-14.02,2.16c-3.58,1.17-5.94,0.69-5.94,0.69c-0.94-0.19-2.35-0.45-3.44-0.68l-2.24,8.46
				c8.4-0.11,17.19,0.41,17.98,0.39c2.52-0.06,7.15-2.71,8.22-3.09c1.07-0.39,3.25-0.08,4.71,0.6c1.46,0.69,5.71,2.31,6.43,1.93
				C208.82,624.74,206.71,621.98,206.71,621.98z"/>
		</g>
		<path style="fill:#ED9485;" d="M176.95,617.57c0,0-47.22-17.22-57.84-14.04c-10.62,3.18-14.86,13.18-11.67,19.55
			c3.18,6.37,65.8,2.08,65.8,2.08L176.95,617.57z"/>
	</g>
	<path style="fill:#F7A491;" d="M196.75,542.35c-0.03,0.31,1.37,11.57,2.12,17.53c0.28,2.22-1.05,4.32-3.17,5.04
		c-5.67,1.9-16.68,4.24-23.34-3.2c-0.61-0.68-0.87-1.59-0.75-2.5l3.66-26.14L196.75,542.35z"/>
	<path style="fill:#F47458;" d="M195.69,548.03c0.61-0.2,1.14-0.53,1.59-0.93c-0.32-2.67-0.55-4.63-0.54-4.76l-21.49-9.28
		l-1.8,12.86C180.18,552.01,190.32,549.83,195.69,548.03z"/>
	<g>
		
			<ellipse transform="matrix(0.9516 -0.3074 0.3074 0.9516 -151.2384 72.8222)" style="fill:#F7A491;" cx="155.52" cy="516.45" rx="5.64" ry="8.34"/>
		
			<ellipse transform="matrix(-0.9862 -0.1658 0.1658 -0.9862 341.1083 1052.7517)" style="fill:#F7A491;" cx="214.5" cy="512.14" rx="5.64" ry="8.34"/>
		
			<ellipse transform="matrix(0.9973 -0.0729 0.0729 0.9973 -36.7628 14.8641)" style="fill:#F7A491;" cx="185.31" cy="511.22" rx="27.98" ry="35.61"/>
	</g>
	<path style="fill:#F4F4F4;" d="M172.03,556.13c0,0,4.49,8.24,13.84,10.68c0,0-7.11,2.66-11.18,0.9
		C170.63,565.96,167.53,562.57,172.03,556.13z"/>
	<path style="fill:#F4F4F4;" d="M198.41,556.13c0,0-4.44,8.24-13.69,10.68c0,0,7.03,2.66,11.05,0.9
		C199.79,565.96,202.85,562.57,198.41,556.13z"/>
	<path style="fill:#F7A491;" d="M198.15,617.57c0,0,47.22-17.22,57.84-14.04c10.62,3.18,14.61,13.63,11.43,20
		c-3.18,6.37-68.62,2.8-68.62,2.8L198.15,617.57z"/>
	<path style="fill:#FFFFFF;" d="M179.51,528.14l15.34-1.85c0,0,0.37,6.1-6.35,7.12C180.3,534.64,179.51,528.14,179.51,528.14z"/>
	<g>
		<polygon style="fill:#F2E9DA;" points="191.29,619.11 186.2,624.97 186.69,617.22 189.14,615.52 		"/>
		<polygon style="fill:#E0D5C3;" points="189.14,615.52 189.69,616.44 186.2,624.97 186.69,617.22 		"/>
		<polygon style="fill:#E8BA70;" points="186.69,617.22 186.56,619.23 187.98,617.76 199.19,590.43 197.56,590.73 		"/>
		<polygon style="fill:#F7CC7F;" points="187.98,617.76 188.27,619.93 189.99,618.58 201.2,591.26 199.19,590.43 		"/>
		<polygon style="fill:#FAE0B2;" points="189.99,618.58 189.97,620.63 191.29,619.11 202.16,592.61 201.2,591.26 		"/>
		
			<rect x="198.7" y="590.77" transform="matrix(-0.3795 0.9252 -0.9252 -0.3795 823.175 631.6509)" style="fill:#466EB6;" width="2.17" height="2.17"/>
		<polygon style="fill:#88B5E2;" points="200.38,593.27 201.2,591.26 202.16,592.61 201.67,593.8 		"/>
		<polygon style="fill:#2C4B70;" points="197.07,591.91 197.56,590.73 199.19,590.43 198.37,592.44 		"/>
		
			<rect x="199.84" y="593.44" transform="matrix(-0.9251 -0.3797 0.3797 -0.9251 160.2691 1221.0453)" style="fill:#FEF8F8;" width="1.4" height="2.56"/>
		
			<rect x="196.53" y="592.08" transform="matrix(-0.9252 -0.3795 0.3795 -0.9252 154.5585 1217.1906)" style="fill:#EDDFCA;" width="1.4" height="2.56"/>
		
			<rect x="197.8" y="592.76" transform="matrix(-0.9252 -0.3796 0.3796 -0.9252 157.4191 1219.1179)" style="fill:#F2E9DA;" width="2.17" height="2.56"/>
		<path style="fill:#DB3F2A;" d="M187.92,622.98c-0.02,0.02-1.73,1.99-1.73,1.99l0.17-2.63l0.61,0.75L187.92,622.98z"/>
	</g>
	<path style="fill:#F7A491;" d="M179.19,623.04c0.15,0.62,0.84,1.55,1.69,1.44c0,0,0.42,0.04,0.49,0.18
		c0.06,0.12-0.08,0.85,0.09,1.53h24.79c0.07-0.02,0.14-0.04,0.21-0.06v-11.18c-1.87,0.25-3.27,0.39-3.46,0.3
		c-0.77-0.37-3.47-1.91-5.17-2.11c-1.7-0.2-4.57-1.31-5.4-1.16c-0.83,0.15-4.94,2.29-5.53,2.39c-0.59,0.1-1.19,0.67-1.55,0.93
		c-0.36,0.26-4.42,0.94-5.18,1.52c-0.75,0.59-0.68,3-0.12,3.6c0,0,0.06,0.22-0.29,0.54S179.04,622.43,179.19,623.04z"/>
</g>
<g>
	<path style="fill:#A34B3D;" d="M232.15,217.95c0.47,0.02,1.77,0.45,3.67,4.04c2.42,4.58,5.96,18.4,5.96,18.4l-10.56,3.93
		l-1.36-2.89l-2.24-22.21C227.62,219.23,232.02,217.95,232.15,217.95z"/>
	<path style="fill:#B75742;" d="M218.19,215.96c3.02,0,10.5,0.89,13.96,1.99c0,0,2.55,21.9-2.29,38.55
		c-1.08,3.73,0.9,15.45,0.9,15.45l-31.3-0.41c0,0,3.71-28.33,2.31-32.91s-1.43-20.53-1.43-20.53s0.21-0.03,7.03-1.21
		C210.55,216.34,214.96,215.96,218.19,215.96z"/>
	<path style="fill:#F7A491;" d="M214.54,312.61c0,0,0.69,7.99,1.97,10.21c1.27,2.21-0.07,5.98-0.13,6.49s-2.68,1.25-6.84,0.81
		c-4.15-0.44-4.09-1.4-3.75-2.95c0.33-1.55,2.55-3.54,2.68-5.02c0.13-1.48-1.27-6.79-1.27-6.79L214.54,312.61z"/>
	<path style="fill:#E0973F;" d="M227.22,265.35c0,0,21.61-1.2,26.43,1.72c4.83,2.92-3.43,17.26-3.43,17.26s-15.04-0.69-44.49,1.01
		c-6.97,0.4-7.58-18.18-6.27-19.72C200.77,264.09,227.22,265.35,227.22,265.35z"/>
	<path style="fill:#DD513A;" d="M209.02,330.74c-4.28-0.46-3.75-2.56-3.4-4.15c0.22-1,1.44-2.18,2.18-3.29
		c0.38,0.3,1,0.84,2.86,1.39c1.93,0.57,4.57-0.56,6.26-1.26c0.6,2.24,0.63,5.09,0.57,5.52C217.41,329.47,213.3,331.19,209.02,330.74
		z"/>
	<path style="fill:#F7CC7F;" d="M211.38,280.81c0.86,6.53,5.14,39.05,5.14,39.05l-9.92,1.23c0,0-12.2-42.45-11.57-48.94
		c0.63-6.49,5.19-7.04,5.19-7.04S209.09,263.52,211.38,280.81z"/>
	<path style="fill:#F7A491;" d="M199.99,220.54c2.93-1.1,4.36,25.27,4.75,36.13c5.18,0.5,14.22,0,16.47-0.17
		c1.06-0.08,3.5-0.97,4.55-1.11c1.08-0.14,2.06-0.21,2.59-0.12c0.19,0.03,5.6,2.24,6.06,2.73c0.57,0.6,2.12,2.12,1.86,2.77
		c-0.26,0.66-2.98-1.83-2.98-1.83l-1.33-0.75c1.65,1.62,4.81,3.74,4.35,4.52c-0.44,0.76-3.29-1.4-5.32-2.88
		c1.74,1.57,3.9,4.38,3.4,4.82c-0.45,0.39-2.91-2.86-5.53-3.8c-0.97-0.35-1.94,0.61-2.71,0.73c-0.56,0.09-1.43,0.27-1.98,0.11
		l-2.84-0.81c-0.97,0.09-0.99,0.66-1.97,0.87c-1.14,0.24-3,0.5-4.45,0.85c-8.33,2.04-11.11,2.98-13.66,2.98
		C193.52,265.59,193.07,223.13,199.99,220.54z"/>
	<path style="fill:#A34B3D;" d="M194.44,245.3c-0.55-11.12-0.47-24.82,5.76-27.16c2.46-0.92,6.79,4.62,6.01,27.39
		C202.89,245.8,198,246.02,194.44,245.3z"/>
	<path style="fill:#F7A491;" d="M244.58,320.36c0,0-1.43,2.53-0.31,4.65c1.13,2.12,7.04,5.24,7.66,6.39
		c0.62,1.15,0.37,1.96,0.37,1.96l-17.56-4.3l1.35-5.29l1.64-3.66L244.58,320.36z"/>
	<path style="fill:#DD513A;" d="M245.18,326.14c0,0-4.94,0.85-6.89-0.71c-1.96-1.56-1.83-1.85-2.55-1.58
		c-0.46,0.17-1.17,2.28-1.62,3.76c-0.24,0.79,0.24,1.62,1.04,1.81l18.28,4.52c1.39,0.27,2.31-0.6,1.37-1.71
		c-0.64-0.76-1.44-1.36-1.89-1.76C251.57,329.25,245.18,326.14,245.18,326.14z"/>
	<path style="fill:#F7CC7F;" d="M242.86,270.47c1.4-2.94,4.57-6.77,10.16-4.46c5.33,2.2,6.76,7.6,5.08,13.13
		c-1.68,5.53-12.76,38.06-13.14,42.53l-8.84,0.06c0,0,1.61-25.75,2-31.98C238.5,283.77,240.44,275.56,242.86,270.47z"/>
	<path style="fill:#184655;" d="M257.21,240.52h-29.55c-0.78,0-1.49,0.47-1.78,1.2l-9.1,22.27h-16.29c-0.46,0-0.83,0.37-0.83,0.83
		l0,0c0,0.46,0.37,0.83,0.83,0.83h46.37c1.27,0,2.43-0.75,2.95-1.92l9.16-20.48C259.54,241.96,258.61,240.52,257.21,240.52z"/>
	
		<ellipse transform="matrix(0.9805 0.1967 -0.1967 0.9805 54.4794 -42.205)" style="fill:#FFFFFF;" cx="239.72" cy="253.17" rx="1.61" ry="1.85"/>
	<g>
		<path style="fill:#0E2E35;" d="M225.21,189.21c-0.89-0.3-1.77-0.64-2.61-1.05c-0.96-0.46-2.2-1-2.98-1.12
			c-1.65-0.25-4.48-0.08-6.05,1.61c-1.95,2.11-5.41,0.38-4.72,11.46c0.79,12.54,7.76,11.16,7.93,10.95
			c0.17-0.21,6.22-8.02,6.22-8.02s2.11,4.63,2.11,4.46C225.11,207.33,235.91,192.81,225.21,189.21z"/>
		<path style="fill:#F7A491;" d="M219.92,211.98l0.6,4.48c0,0,1.35,6.45-0.39,7.7c-1.73,1.24-7.38-7.88-7.38-7.88l0.6-11.35
			L219.92,211.98z"/>
		<path style="fill:#F47458;" d="M213.16,208.61c1.43,3.87,4.84,6.25,7.27,7.17l-0.51-3.8l-6.56-7.06L213.16,208.61z"/>
		<path style="fill:#F7A491;" d="M219.56,192.58c3.67-0.59,6.97,2.36,6.88,6.04c-0.04,1.6-0.17,3.6-0.5,5.75
			c-0.8,5.17-4.33,9.72-6.66,9.32c-2.33-0.41-8.2-4.87-7.17-12.23C212.75,196.91,215.71,193.2,219.56,192.58z"/>
		
			<ellipse transform="matrix(0.9852 0.1717 -0.1717 0.9852 37.8366 -33.4066)" style="fill:#F7A491;" cx="212.05" cy="202.04" rx="1.7" ry="2.09"/>
		<path style="fill:#0E2E35;" d="M212.41,199.98c0,0,2.82,0.7,3.87-1.11c1.05-1.81,4.79-5.73,9.55-4.11
			c4.76,1.62-4.19-3.95-4.57-3.95c-0.38,0-4.95-0.03-4.95-0.03s-3.52,2.9-3.65,3.21c-0.13,0.32-1.14,3.79-1.14,3.79L212.41,199.98z"
			/>
	</g>
	<path style="fill:#FFFFFF;" d="M217.57,207.55l5.13,0.98c0,0-0.49,1.93-2.76,1.57C217.17,209.65,217.57,207.55,217.57,207.55z"/>
</g>
<rect x="4.29" y="625.29" style="fill:#B75742;" width="741.71" height="2.58"/>
<path style="fill:#F7CC7F;" d="M148.86,394.04H63.45c-3.78,0-6.84,3.06-6.84,6.84v45.16c0,3.78,3.06,6.84,6.84,6.84h62.14
	c3.49,4.87,9.81,13.58,10.37,13.58c0.52,0-0.48-8.23-1.19-13.58h14.1c3.78,0,6.84-3.06,6.84-6.84v-45.16
	C155.71,397.11,152.64,394.04,148.86,394.04z"/>
<g>
	<path style="fill:#F7CC7F;" d="M579.99,459.33c1.57-3.77,3.16-7.55,7.23-9.47c3.29-1.55,6.73-0.96,9.66,1.24
		c8.29,6.23,1.07,13.1,10.5,24.92c2.93,3.67,6.48,6.64,8.24,10.94c2.46,6.02-1.83,14.84-6.52,17.73
		c-22.46,13.81-32.88-20.47-32.45-26.95C576.96,472.92,578.98,461.76,579.99,459.33z"/>
	<path style="fill:#F7A491;" d="M556.68,532.8c0.95-0.15,3.25-1.8,4.06-1.95c0.63-0.12,1.99-0.32,2.57-0.41
		c0.71-2.65,4.32-17.11,4.72-21.35c0.44-4.59,3.69-24.46,3.69-24.46l8.41,1.53c0,0-3.49,15.28-4.46,22.69
		c-0.83,6.37-7.81,20.68-8.7,22.19c0,0.04,0,0.07,0,0.11c-0.14,2.25-1.22,1.5-1.22,1.5l-1.76,0.45c0,0-6.22,0.6-6.63,0.75
		C556.95,534,555.74,532.95,556.68,532.8z"/>
	<path style="fill:#3C8F7C;" d="M579.05,473.02c-5.94,2.02-9.32,18.18-9.32,18.18s9.33,2.6,11.72,1.24c0,0,2.71-12.02,3.68-11.6
		L579.05,473.02z"/>
	<path style="fill:#F7A491;" d="M533.07,560.72c-1.82,4.8-2.76,9.42-2.85,9.98c-0.04,0.27,0.34,1.57,0.3,1.85
		c-3.65,4.98-8.9,6.07-13.4,6.39c2.29-2.24,5.66-4.36,5.82-5.07c0.26-1.13,1.64-6.15,2.32-13.11
		C528.07,562.05,529.96,561.03,533.07,560.72z"/>
	<path style="fill:#355389;" d="M584.8,507.06l8.03,22.63c0,0-12.91,2.43-17.74,3.32c-4.83,0.89-31.79,2.06-32.48,2.54
		c-0.51,0.36-6.08,18.37-8.57,28.31c-2.82,0.62-7.66-0.13-10.23-1.01c1.39-14.21,6.41-36.73,8.01-39.19
		C534.46,519.66,584.8,507.06,584.8,507.06z"/>
	<path style="fill:#F7A491;" d="M553.42,570.64c-0.89,5.05-0.95,9.77-0.93,10.33c0.01,0.27,0.63,1.48,0.64,1.76
		c-2.65,5.58-7.6,7.63-11.96,8.78c1.83-2.63,4.74-5.34,4.77-6.07c0.04-1.16,0.46-6.35-0.18-13.32
		C548.76,572.89,550.43,571.52,553.42,570.64z"/>
	<path style="fill:#86B1F2;" d="M594.18,508.23l3.12,5.32c4.74,8.1,1.11,18.53-7.65,21.92c-0.05,0.02-0.09,0.04-0.14,0.05
		c-4.57,1.77-30.84,7.98-31.42,8.58c-0.43,0.44-2.53,19.19-3.11,29.41c-2.66,1.14-7.54,1.31-10.23,0.92
		c-1.3-14.22-0.59-37.28,0.53-39.99C547.09,530.04,594.18,508.23,594.18,508.23z"/>
	<path style="fill:#13375B;" d="M552.09,581.13c0.7-0.77,3.27,3.48,3.91,4.39c0.72,1.02,0.52,1.79,0.43,1.95
		c-0.23,0.42-13.77,8.39-17.07,8.95c-0.31,0.05-0.85-0.14-0.99-0.26c-1.29-1.14,4.65-9.58,7.32-10.69
		C547.41,584.76,548.94,584.61,552.09,581.13z"/>
	<path style="fill:#13375B;" d="M529.79,570.85c0.83-0.63,2.56,4.03,3.02,5.04c0.52,1.14,0.17,1.85,0.06,1.99
		c-0.3,0.37-15.1,5.66-18.45,5.6c-0.32-0.01-0.81-0.3-0.92-0.44c-1.05-1.36,6.36-8.54,9.19-9.13
		C524.51,573.54,526.04,573.68,529.79,570.85z"/>
	<path style="fill:#50BFA5;" d="M584.69,472.97L584.69,472.97L584.69,472.97c-0.15,0-0.37-0.05-0.6-0.12
		c-1.1-0.2-3.52-0.49-5.4,0.31c-2.28,0.96-5.82,9.97-5.61,19.21c0.08,1.41,0.17,2.68,0.24,3.56c0.58,6.98,2.58,20.08,2.69,20.15
		c2.72,1.75,19.17-5.05,20.3-6.54c1.13-1.49,1.8-19.64,2.35-20.55l1.08-15.78C597.82,472.64,587.61,472.95,584.69,472.97z"/>
	<path style="fill:#F7A491;" d="M591.35,467.16c0,0-1.06,5.48-0.85,7.64c0.21,2.16-0.81,9.12-5.38,9.14
		c-4.57,0.02-0.87-8.85-0.44-10.97c0.43-2.12,0.53-8.67,0.53-8.67L591.35,467.16z"/>
	<path style="fill:#F47458;" d="M585.13,467.59c0.07-1.79,0.09-3.29,0.09-3.29l6.13,2.86c0,0-0.22,1.12-0.43,2.55
		C588.23,470.25,586.29,469.25,585.13,467.59z"/>
	<path style="fill:#F7A491;" d="M593.59,452.05c0,0,2.36,1.31,3.23,4.15c0.86,2.84-0.12,10.17-6.22,11.94
		c-6.1,1.77-8.75-4.04-7.49-8.57C584.36,455.03,587.1,449.28,593.59,452.05z"/>
	
		<ellipse transform="matrix(-0.9952 0.0976 -0.0976 -0.9952 1209.1499 856.2049)" style="fill:#F7A491;" cx="583.63" cy="457.68" rx="1.29" ry="2.22"/>
	<path style="fill:#F7CC7F;" d="M592.88,451.68c0,0,1.11,8.18,3.75,9.65c2.64,1.48,1.54,5.1,1.54,5.1s2.4-8.42,0.31-11.13
		C596.38,452.6,592.88,451.68,592.88,451.68z"/>
	
		<ellipse transform="matrix(-0.8297 -0.5583 0.5583 -0.8297 832.4507 1180.7648)" style="fill:#F7A491;" cx="596.36" cy="463.38" rx="1.57" ry="2.32"/>
	<path style="fill:#FFFFFF;" d="M586.17,462.96l4.3,1.08c0,0-0.52,1.63-2.42,1.21C585.72,464.74,586.17,462.96,586.17,462.96z"/>
	<path style="fill:#F7A491;" d="M626.48,531.17c-0.08-0.2-0.25-0.2-0.42-0.21c-1.7-0.05-3.4-0.13-5.09-0.38
		c-0.28-0.04-0.56-0.11-0.82-0.21c-0.47-0.19-0.93-0.18-1.41-0.05c-0.26,0.07-0.52,0.08-0.78,0.08c-0.86,0-3.3-0.83-4.55-1.05
		c-0.29-0.05-0.51-0.27-0.59-0.55c-1.23-4.88-3.88-15.83-4.22-19.43c-0.44-4.6-3.62-25.36-3.62-25.36l-8.51,2.37
		c0,0,3.5,15.32,4.47,22.75c0.75,5.74,6.48,17.91,8.28,21.41c0.88,2.6,2.85,2.68,3.31,2.73c0.26,0.03,0.5,0.16,0.67,0.36
		c0.31,0.36,0.67,0.68,1.07,0.93c0.3,0.19,0.53,0.44,0.73,0.73c0.36,0.53,0.68,1.08,1,1.63c0.21,0.37,0.43,0.48,0.75,0.4
		c0.34-0.09,0.5-0.34,0.49-0.75c-0.01-0.61-0.2-1.16-0.51-1.68c-0.29-0.49-0.26-0.77,0.07-1.21c0.19-0.26,0.39-0.51,0.64-0.71
		c0.26-0.21,0.52-0.37,0.87-0.32c0.61,0.15,1.23,0.28,1.85,0.35l0.51,0.1c0.02,0,0.28,0.06,0.28,0.06c0.04,0.01,0.95,0.11,1.26,0.11
		c0.25,0,0.65,0.02,0.99,0.03c0.31,0.02,0.97-0.15,0.99-0.15c0.3-0.01,0.57-0.12,0.79-0.32c0.09-0.08,0.18-0.18,0.13-0.32
		c-0.04-0.13-0.14-0.18-0.28-0.21c-0.2-0.04-1.26-0.17-1.25-0.21c0.31,0,1.3-0.02,1.61-0.03c0.42-0.01,0.79-0.16,1.08-0.48
		C626.43,531.49,626.56,531.37,626.48,531.17z"/>
	<path style="fill:#50BFA5;" d="M599.83,473.18c4.2-0.76,7.66,18.02,7.66,18.02s-9.33,2.6-11.72,1.24c0,0-2.71-12.02-3.68-11.6
		L599.83,473.18z"/>
</g>
<path style="fill:#F47458;" d="M535.62,499.28h23.46c0.62,0,1.18,0.38,1.42,0.95l7.22,17.68h12.94c0.36,0,0.65,0.29,0.65,0.66l0,0
	c0,0.36-0.29,0.66-0.65,0.66h-36.82c-1.01,0-1.93-0.6-2.34-1.52l-7.27-16.26C533.77,500.42,534.51,499.28,535.62,499.28z"/>
<ellipse transform="matrix(-0.9805 0.1967 -0.1967 -0.9805 1188.4645 900.61)" style="fill:#FFFFFF;" cx="549.51" cy="509.32" rx="1.28" ry="1.47"/>
<rect x="64.45" y="407.44" style="opacity:0.8;fill:#FFFFFF;" width="86.46" height="4.63"/>
<rect x="76" y="420.24" style="opacity:0.8;fill:#FFFFFF;" width="63.36" height="4.63"/>
<rect x="71.5" y="433.13" style="opacity:0.8;fill:#FFFFFF;" width="72.36" height="4.63"/>
</svg>
