<?xml version="1.0" encoding="utf-8"?>
<!-- Generator: Adobe Illustrator 17.0.0, SVG Export Plug-In . SVG Version: 6.00 Build 0)  -->
<!DOCTYPE svg PUBLIC "-//W3C//DTD SVG 1.1//EN" "http://www.w3.org/Graphics/SVG/1.1/DTD/svg11.dtd">
<svg version="1.1" id="Calque_1" xmlns="http://www.w3.org/2000/svg" xmlns:xlink="http://www.w3.org/1999/xlink" x="0px" y="0px"
	 width="960px" height="560px" viewBox="0 0 960 560" style="enable-background:new 0 0 960 560;" xml:space="preserve">
<g id="XMLID_213_">
	<g id="XMLID_1771_">
		<rect id="XMLID_1769_" x="496.39" y="203.85" style="fill:#FFC253;" width="386.07" height="261.12"/>
		<path id="XMLID_1073_" style="fill:#E09736;" d="M496.39,203.85L677.6,369.18c6.7,6.11,16.95,6.11,23.65,0l181.21-165.33H496.39z"
			/>
		<polygon id="XMLID_1800_" style="fill:#E09736;" points="882.46,464.97 689.43,263.5 882.46,447.81 		"/>
		<polygon id="XMLID_1806_" style="fill:#E09736;" points="496.39,464.97 689.43,263.5 496.39,447.81 		"/>
		<path id="XMLID_1773_" style="fill:#FFC854;" d="M496.39,203.85l178.43,150.75c8.43,7.12,20.78,7.12,29.21,0l178.43-150.75H496.39
			z"/>
	</g>
	<g id="XMLID_1766_">
		<path id="XMLID_1762_" style="fill:#40C7A7;" d="M851.61,464.97c0,0-12.22-5.52-11.32-18.63c0.89-13.11,9.83-15.79,17.58-20.56
			c7.75-4.77,8.34-12.81,8.64-22.65c0.3-9.83,6.85-19.67,19.96-19.07c13.11,0.6,17.95,3.28,27.45-8.05s22.31-11.03,27.68-4.77
			c5.36,6.26,5.71,17.02-2.43,24.45c-9.9,9.03-12.46,11.3-15.32,21.24c-3.88,13.48,1.72,26.62-3.27,32.88
			c-6.66,8.37-13.85,6.31-20.7,9.03c-6.85,2.72-7.1,6.12-7.1,6.12H851.61z"/>
		<path id="XMLID_1767_" style="fill:none;stroke:#3B55CE;stroke-width:1.05;stroke-linecap:round;stroke-miterlimit:10;" d="
			M929.78,379.97c-20.05,11.69-54.94,47.25-60.86,85"/>
	</g>
	<g id="XMLID_1760_">
		<circle id="XMLID_1808_" style="fill:#3B55CE;" cx="631.11" cy="79.04" r="6.01"/>
		<g id="XMLID_2219_">
			<path id="XMLID_2266_" style="fill:#AAEEED;" d="M566.07,274.24c-0.81,0.92-0.9,3.15,2.91,5.93c3.81,2.78,11.64,3.88,14.83,4.02
				c3.18,0.14,5.25-0.3,9.53,1.73c4.28,2.03,11.75,3.4,14.44,2.05c0.99-0.71,0.92-2.69,0.92-2.69L566.07,274.24z"/>
			<g id="XMLID_2230_">
				<defs>
					<path id="SVGID_1_" d="M609.62,270.8c-0.13,3.24,0.64,11.12-0.94,14.48c-3.81,1.91-10.63,0.46-15.4-2.04
						c-4.77-2.51-8.97-0.76-15.44-1.93c-6.34-1.14-11.14-4.14-11.78-7.07c-0.7-3.19,10.76-2.77,18.75-3.26
						c8.95-0.55,14.24-3.62,14.24-3.62L609.62,270.8z"/>
				</defs>
				<use xlink:href="#SVGID_1_"  style="overflow:visible;fill:#1E4174;"/>
				<clipPath id="SVGID_2_">
					<use xlink:href="#SVGID_1_"  style="overflow:visible;"/>
				</clipPath>
				
					<path id="XMLID_2263_" style="clip-path:url(#SVGID_2_);fill:none;stroke:#AAEEED;stroke-width:0.5508;stroke-linecap:round;stroke-miterlimit:10;" d="
					M594.89,273.57c0,0-0.48-4.56-2.16-6.4"/>
				
					<path id="XMLID_2259_" style="clip-path:url(#SVGID_2_);fill:none;stroke:#AAEEED;stroke-width:0.5508;stroke-linecap:round;stroke-miterlimit:10;" d="
					M588.68,274.45c0,0-0.48-4.56-2.16-6.4"/>
				
					<path id="XMLID_2236_" style="clip-path:url(#SVGID_2_);fill:none;stroke:#AAEEED;stroke-width:0.5508;stroke-linecap:round;stroke-miterlimit:10;" d="
					M582.47,275.33c0,0-0.48-4.56-2.16-6.4"/>
			</g>
			<path id="XMLID_2220_" style="fill:#FF9A8D;" d="M612.99,259.51l-3.37,11.3c0,0-1.54,0.13-2.31,0.69
				c-0.76,0.56-2.14,2.68-3.15,2.48c-4.02-0.8-5.1-6.61-5.1-6.61l2.85-11.81L612.99,259.51z"/>
		</g>
		<path id="XMLID_1867_" style="fill:#1E4174;" d="M671.08,159.48l-1.53,11.91l-41.54-0.85c0,0-9.78-0.19-12.68,9.75
			c-2.9,9.94-13.75,76.65-13.75,76.65s5.84,4.3,11.77,3.37c0,0,19.59-40.51,22.39-51.64c2.8-11.13,1.39-20.51,1.39-20.51l50.08-4.35
			L671.08,159.48z"/>
		<g id="XMLID_2150_">
			<path id="XMLID_2215_" style="fill:#AAEEED;" d="M610.62,301.11c0.06,1.23,1.56,2.88,6.23,2.21c4.67-0.67,11.04-5.37,13.41-7.5
				c2.37-2.13,3.54-3.89,8.02-5.43c4.48-1.54,10.78-5.79,11.76-8.64c0.21-1.2-1.22-2.56-1.22-2.56L610.62,301.11z"/>
			<g id="XMLID_2158_">
				<defs>
					<path id="SVGID_3_" d="M639.35,268.19c2.17,2.4,8.23,7.5,9.45,11c-1.39,4.03-7.27,7.76-12.44,9.31
						c-5.16,1.54-6.95,5.73-12.38,9.42c-5.33,3.62-10.86,4.83-13.37,3.19c-2.74-1.79,5.75-9.5,11.12-15.44
						c6.01-6.65,7.65-12.55,7.65-12.55L639.35,268.19z"/>
				</defs>
				<use xlink:href="#SVGID_3_"  style="overflow:visible;fill:#1E4174;"/>
				<clipPath id="SVGID_4_">
					<use xlink:href="#SVGID_3_"  style="overflow:visible;"/>
				</clipPath>
				
					<path id="XMLID_2207_" style="clip-path:url(#SVGID_4_);fill:none;stroke:#AAEEED;stroke-width:0.5508;stroke-linecap:round;stroke-miterlimit:10;" d="
					M630.76,280.47c0,0-3.54-2.92-6.02-3.07"/>
				
					<path id="XMLID_2175_" style="clip-path:url(#SVGID_4_);fill:none;stroke:#AAEEED;stroke-width:0.5508;stroke-linecap:round;stroke-miterlimit:10;" d="
					M626.93,285.44c0,0-3.54-2.92-6.02-3.07"/>
				
					<path id="XMLID_2167_" style="clip-path:url(#SVGID_4_);fill:none;stroke:#AAEEED;stroke-width:0.5508;stroke-linecap:round;stroke-miterlimit:10;" d="
					M623.11,290.42c0,0-3.54-2.92-6.02-3.07"/>
			</g>
			<path id="XMLID_2151_" style="fill:#FF9A8D;" d="M637.52,258.28l1.82,9.91c0,0-1.01,1.17-1.17,2.1s0.35,3.42-0.52,3.98
				c-3.43,2.24-8.27-1.16-8.27-1.16l-4-12.26L637.52,258.28z"/>
		</g>
		<path id="XMLID_1889_" style="fill:#85B8ED;" d="M702.33,154.52c1.52,3.9,4.91,8.55,7.05,12.18c2.14,3.63,8.72,13.31,4.91,23.5
			c-4.09,10.93-13.17,13.65-22.57,13.65s-15.46,0-21.87,0c-6.41,0-45.82-9.69-45.82-9.69s4.55,2.61,6.78,9.69
			c2.23,7.07,6.71,54.44,6.71,54.44c-2.9,2.93-6.97,4.13-12.13,3.72c0,0-11.8-36.73-16.71-50.32c-5.12-14.2-10.84-28.03-9.74-34.16
			c1.55-8.59,16.45-8.85,28.75-8.42c12.3,0.43,40.61,1.49,46.37,0.68l-2.98-10.29L702.33,154.52z"/>
		<path id="XMLID_1606_" style="fill:#4E7EAC;" d="M714.3,190.19c3.81-10.19-2.78-19.87-4.91-23.5c-2.14-3.63-5.53-8.28-7.05-12.18
			l-31.25,4.97l1.91,6.58c0,0,17.33,2.38,24.89-6.58c0,0,5.52,8.4,7.13,13.44c2.21,6.95,1.6,18.23-12,20.93
			c-13.61,2.71-63.84-4.68-70.49-5.42c-6.65-0.74-4.43,3.1-0.74,10.91c3.69,7.81,5.24,21.82,8.56,38.59
			c2.12,10.71,4.52,22.38,4.52,22.38c0.98-0.56,1.88-1.22,2.67-2.03c0,0-4.48-47.36-6.71-54.44c-2.23-7.07-6.78-9.69-6.78-9.69
			s39.41,9.69,45.82,9.69c6.41,0,12.47,0,21.87,0C701.13,203.85,710.21,201.13,714.3,190.19z"/>
		<g id="XMLID_1037_">
			<defs>
				<path id="SVGID_5_" d="M702.33,154.52c1.52,3.9,4.91,8.55,7.05,12.18c2.14,3.63,8.72,13.31,4.91,23.5
					c-4.09,10.93-13.17,13.65-22.57,13.65s-15.46,0-21.87,0c-6.41,0-45.82-9.69-45.82-9.69s4.55,2.61,6.78,9.69
					c2.23,7.07,6.71,54.44,6.71,54.44c-2.9,2.93-6.97,4.13-12.13,3.72c0,0-11.93-36.69-16.71-50.32
					c-4.94-14.09-10.84-28.03-9.74-34.16c1.55-8.59,16.45-8.85,28.75-8.42c12.3,0.43,40.61,1.49,46.37,0.68l-2.98-10.29
					L702.33,154.52z"/>
			</defs>
			<clipPath id="SVGID_6_">
				<use xlink:href="#SVGID_5_"  style="overflow:visible;"/>
			</clipPath>
			
				<path id="XMLID_1590_" style="clip-path:url(#SVGID_6_);fill:none;stroke:#274D79;stroke-width:0.5508;stroke-miterlimit:10;" d="
				M690.6,154.55c1.53,9.29,5.42,13.89,5.04,22.38c-0.38,8.49-7.25,12.81-27.24,11.03c-19.99-1.79-50.72-6.27-53.4-5.52
				c-2.69,0.75-1.79,4.84,1.78,16.95c3.58,12.11,15.8,65.99,15.8,65.99"/>
			
				<path id="XMLID_1038_" style="clip-path:url(#SVGID_6_);fill:none;stroke:#274D79;stroke-width:0.5508;stroke-miterlimit:10;" d="
				M695.38,179.05c0,0-4.41,1.01-7.97-2.12c-3.56-3.13-4.58-17.41-4.58-17.41"/>
			
				<path id="XMLID_1374_" style="clip-path:url(#SVGID_6_);fill:none;stroke:#274D79;stroke-width:0.5508;stroke-miterlimit:10;" d="
				M622.6,257.6c0,0,8.87,1.97,15.69-4.77"/>
		</g>
		<path id="XMLID_2377_" style="fill:#001C45;" d="M689.04,41.02c0,0-6.26-5.3-17.96-4.19c-9.31,0.88-16.12,6.29-18.26,13.1
			c-2.14,6.81-1.5,19.27,9.79,26.24c0,0-3.5,1.91,0.39,5.6c0,0-6.03,1.47-7.98,4.82c-1.95,3.35,0,6.49,1.17,10.27
			c1.17,3.78,1.56,4.37-3.5,9.42c-5.06,5.06-9.41,14.01-2.27,25.49c7.14,11.48,19.54,21.1,36.78,20.19
			c17.44-0.92,37.13-6.74,42.07-33.6c4.94-26.86-11.99-32.98-16.65-31.77c0,0,5.15-11.47,3.59-26.25
			c-1.56-14.79-8.77-21.43-14.85-21.91C692.43,37.73,689.04,41.02,689.04,41.02z"/>
		<path id="XMLID_1683_" style="fill:#FF9A8D;" d="M685.39,94c-2.31,0.7-6.16,1.27-8.2,2.86c-2.04,1.59-22.19,32.97-22.19,32.97
			s-18.56-29.05-21.32-32.51c-2.89-3.63-17.04-8.16-19.61-7.65c-3.18,0.64-1.46,4.61-0.81,7.19c0.37,1.48,0.95,5.57,3.57,7.38
			c2.62,1.81,11.94,3.22,11.94,3.22s16.7,35.15,20.16,40.42c2.23,3.41,4.69,3.45,8.84-1.11c4.01-4.41,20.02-25.4,20.02-25.4
			L685.39,94z"/>
		<path id="XMLID_2049_" style="fill:#03AA99;" d="M685.39,94c-3.68,1.33-7.07,1.25-8.93,3.62s-3.47,13.21-3.47,13.21
			s9.23-1.84,11.69-6.68c2.46-4.84,2.53-9.22,2.53-9.22L685.39,94z"/>
		<path id="XMLID_2309_" style="fill:#3ED9C7;" d="M698.25,87.96c0,0,1.59,1.12,3.12,1.12c2.06,0.3,8.77,1.76,10.13,4.28
			c3.26,4.5-0.08,19.25-1.98,29.6c-1.16,6.31-12.35,20.48-4.71,34.94c0,0-17.22,10.16-34.6,1.58c-1.82-8.6,0.32-14.6,0.38-24.28
			c-2.46-2.67-4.9-7.57-5.12-10.74c-0.82-11.81,10.99-15.41,20.19-28.57c2.57-3.67,4.51-3.49,8.01-6.17
			C695.96,87.96,698.25,87.96,698.25,87.96z"/>
		<path id="XMLID_1633_" style="fill:#FF9A8D;" d="M703.58,93.09c5.2-3.28,9.42,0.76,11.88,6.68c2.46,5.91,15.47,42.65,16.61,47.22
			c1.14,4.56-3.88,49.74-5.25,52.37c-1.37,2.63-2.8,4.5-8.02,4.5c-5.22,0-23.97,0-23.97,0s1.19-2.45,5.29-3.47
			c4.11-1.02,15.75-1.36,18.03-5.02c2.28-3.65,1.31-45.79,1.31-45.79s-14.44-30.85-17.64-38.51
			C698.63,103.39,699.89,95.41,703.58,93.09z"/>
		<path id="XMLID_1757_" style="fill:#03AA99;" d="M706.01,91.09c-3.08,0-10.14,7-4.18,19.96c0,0,7.72-10.96,14.8-8.3
			C716.63,102.76,713.53,89.33,706.01,91.09z"/>
		<g id="XMLID_1895_">
			<path id="XMLID_2064_" style="fill:#FF9A8D;" d="M692,76.11l5.44,4.83l2.4,8.14c0,0-3.41,2.28-4.73,4.26
				c-1.6,2.41-5.19,8.21-9.5,8.7c0,0,0.43-5.23-0.22-8.05c-0.65-2.82-2.62-8.4-2.62-8.4L692,76.11z"/>
			<path id="XMLID_2050_" style="fill:#BA5964;" d="M692,76.11c0,0,1.17,4.55,0.97,6.86c-0.2,2.31-2.24,7.11-7.58,11.03
				c-0.65-2.82-2.62-8.4-2.62-8.4L692,76.11z"/>
			<path id="XMLID_2046_" style="fill:#BA5964;" d="M669.13,65.87c-1.02,3.66-5.21,8.78-4.29,9.7c0.76,0.76,4.33,0.59,4.33,0.59
				s2.62-2.53,1.74-6.08C670.01,66.53,669.13,65.87,669.13,65.87z"/>
			<path id="XMLID_1993_" style="fill:#FF9A8D;" d="M678.23,43.01c-5.06,0.46-10.13,7.47-10.04,13.85c0.1,6.38,1.57,9.85,1.16,14.35
				c-0.41,4.51-0.38,8.85,1.51,13.57c1.26,3.14,4.54,3.85,8.9,2.8c4-0.97,9.46-4.81,10.72-6.03c1.26-1.21,1.5-5.45,1.5-5.45
				s5.97-0.88,8.7-6.34C703.44,64.31,702.95,40.76,678.23,43.01z"/>
			<path id="XMLID_1981_" style="fill:#001C45;" d="M692,76.11c0,0,5.45-2.13,4.96-8.19c-0.5-6.21-8.87-6.44-8.53-0.97
				c0,0-5.85-1.16-9.42-5.34c-6.7-7.86-7.45-14.26-7.45-14.26c1.42-9.79,17.47-6.33,17.47-6.33s8.13-3.51,15.05,1.1
				c4.95,3.3,7.48,15.15,3.46,25.02c-4.01,9.85-10.11,13.8-10.11,13.8L692,76.11z"/>
			<g id="XMLID_1897_">
				<g id="XMLID_1920_">
					<circle id="XMLID_1935_" style="fill:#001C45;" cx="674.99" cy="67.54" r="1.47"/>
					<path id="XMLID_1921_" style="fill:#001C45;" d="M672.32,63.62l6.7,2.12c0,0-0.15-2.29-2.45-2.99
						C673.76,61.89,672.32,63.62,672.32,63.62z"/>
				</g>
				<path id="XMLID_1913_" style="fill:#BA5964;" d="M693.52,66.62c-0.91-0.33-2.27-0.28-3.04,0.34c-0.28,0.23,0.2,0.7,0.48,0.6
					c1.54-0.57,3.43-0.65,4.19,1.15c0.04,0.1,0.11,0,0.1-0.07C695.04,67.65,694.49,66.97,693.52,66.62z"/>
				<path id="XMLID_1898_" style="fill:#BA5964;" d="M692.8,66.76c-0.17-0.08-0.56,0.35-0.52,0.46c0.25,0.12,0.65,0.4,0.84,0.74
					c0.33,0.58,0.42,1.08,0.37,1.74c-0.13,1.54-0.99,2.64-2.49,2.99c-0.03,0.01-0.07,0.08-0.03,0.09c1.31,0.33,2.78-1.02,3.08-2.19
					C694.38,69.31,694.29,67.47,692.8,66.76z"/>
			</g>
		</g>
		<path id="XMLID_1796_" style="fill:#FF9A8D;" d="M685.66,95.89c0.09,1.75-3.22,5.6-2.4,8.27c0.81,2.66,6.34,3.03,9.32,0
			c2.98-3.03,4.72-12.5,8.79-15.08c0,0-1.38,0-2.01-1.64L685.66,95.89z"/>
		<path id="XMLID_1653_" style="fill:#1E4174;" d="M626.15,86.75c0,0-1.63,14.36,3.92,25.85c0.55,1.14,0.08,2.5-1.03,3.11
			l-6.76,3.76c-1.45,0.8-3.25-0.03-3.56-1.66c-1.06-5.63-2.52-17.98,1.32-31.76L626.15,86.75z"/>
		<path id="XMLID_1791_" style="fill:#FF9A8D;" d="M619.08,90.47c1.71,0.48,4.19,1.54,4.26,3.17c0.07,1.63-2.62,1.7-2.62,1.7
			s1.91,0.85,2.05,2.05c0.14,1.2-1.06,2.4-2.83,2.4c0,0,1.83,0.62,1.27,2.26c-0.56,1.63-3.25,0.29-3.78,1.49
			c0,0-1.59-1.55-1.73-5.02C615.55,95.05,619.08,90.47,619.08,90.47z"/>
		<path id="XMLID_1799_" style="fill:#FF9A8D;" d="M633.68,97.33c-1.63-3.13-3.23-5.41-6.93-6.86c-3.15-1.24-4.64-3.66-5.46-2.43
			c-0.82,1.24,1.41,5.14,4.85,6.31L633.68,97.33z"/>
		<path id="XMLID_1797_" style="fill:#1E4174;" d="M615.68,86.26l13.96,1.76c3.58,0.43,5.8-17.99,2.22-18.42l-13.71-2.31
			L615.68,86.26z"/>
		<path id="XMLID_1809_" style="fill:#3B55CE;" d="M618.15,67.29c-5.1-0.58-22.62-8.77-26.43-23.51
			c-14.37-1.82-21.11,51.26-6.74,53.08c3.95-9.17,23.64-11.49,30.69-10.6C618.4,86.62,620.88,67.65,618.15,67.29z"/>
		<path id="XMLID_1671_" style="fill:none;stroke:#001C45;stroke-width:0.7875;stroke-linecap:round;stroke-miterlimit:10;" d="
			M676.46,29.12c4.45,1.05,11.01,6.33,12.58,11.91"/>
	</g>
	<g id="XMLID_2144_">
		<path id="XMLID_1764_" style="fill:#DD7A79;" d="M245.53,200.26c11.52,10.5,24.05,17.63,38.56,14.86
			c20.45-3.89,36.41-24.73,36.41-24.73s5.27,6.87,5.27,7.56c0,0.69-13.51,27.48-38.02,32.98c-24.5,5.5-46.54-12.06-46.54-12.06
			L245.53,200.26z"/>
		<path id="XMLID_2131_" style="fill:#3B55CE;" d="M455.49,344.98c9.68,13.66,27.86,18.27,42.88,10.86l27.28-13.45
			c5.18-2.55,11.45-0.8,14.55,4.07l49.31,77.48c3.48,5.47,1.68,12.73-3.96,15.92c-15.94,9.02-48.88,24.29-85.15,21.33
			c-50.9-4.15-84.04-51.48-140.1-139.56c-56.06-88.08-84.9-138.15-67.11-186.02c12.68-34.11,40.46-57.48,55.38-68.11
			c5.28-3.76,12.62-2.31,16.1,3.15l49.31,77.48c3.1,4.87,2.04,11.29-2.47,14.91l-23.73,19.02c-13.07,10.47-16.59,28.89-8.32,43.45
			L455.49,344.98z"/>
		<path id="XMLID_3344_" style="fill:#2339A0;" d="M391.53,179.07l19.98-16.01c4.51-3.61,5.57-10.03,2.47-14.91l-26.07-40.96
			l-23.55-36.91c-3.58-5.12-10.65-6.43-15.79-2.77c-5.06,3.6-11.61,8.71-18.54,15.17L391.53,179.07z"/>
		<path id="XMLID_3349_" style="fill:#2339A0;" d="M563.97,450.24c8.78-3.54,16.17-7.31,21.58-10.37c5.47-3.1,7.28-10.01,4.21-15.41
			l-50.67-79.41c-3.33-3.75-8.81-4.93-13.44-2.65l-23.19,11.43L563.97,450.24z"/>
		<path id="XMLID_1763_" style="fill:#E09736;" d="M246.27,200.85l9.33,6.99c0,0,4.21,12.91-2.9,19.62l-12.36-7.49L246.27,200.85z"
			/>
	</g>
	<g id="XMLID_2117_">
		<path id="XMLID_1795_" style="fill:#91DBAC;" d="M85.19,464.97c0,0,9.22-6.89,15.12-19.22c6.11-12.78,0.67-23.94-7.89-22.31
			c-9.12,1.73-10.39-5.73-12.9-15.17c-3.01-11.32-17.65-27.45-29.61-25.83c-15.42,2.09-5.67,18.58-4.09,24.57
			c1.57,5.98,5.47,12.88-4.1,13.82c-8.71,0.86-12.52,8.76-5.74,16.86c6.45,7.7,13.48,7.58,13.79,15.39
			c0.31,7.81,5.18,10.02,9.27,11.9H85.19z"/>
		<path id="XMLID_2111_" style="fill:none;stroke:#3B55CE;stroke-width:1.05;stroke-linecap:round;stroke-miterlimit:10;" d="
			M56.35,396.1c0,0,21,27.42,15.7,68.87"/>
	</g>
	<g id="XMLID_2114_">
		<path id="XMLID_2113_" style="fill:#40C7A7;" d="M272.85,464.97c0,0,5.95-8.01,2.37-19.54c-4.63-14.9-18.46-21.78-13.47-31.53
			c4.15-8.11,16.54-4.01,23.11,6.93c6.31,10.5,6.8,32.64-3.17,44.15H272.85z"/>
		<path id="XMLID_2115_" style="fill:none;stroke:#3B55CE;stroke-width:1.05;stroke-linecap:round;stroke-miterlimit:10;" d="
			M271.49,418.15c0,0,19.04,20.59,6.57,46.82"/>
	</g>
	<g id="XMLID_2116_">
		<path id="XMLID_2110_" style="fill:#22A482;" d="M286.95,464.97c0,0,14.38-8.78,22.25-26.92s8.21-39.36,0-46.89
			c-7.67-7.03-16.77-2.74-19.17,9.58c-2.4,12.32,3.08,43.57-13.01,64.23H286.95z"/>
		<path id="XMLID_2112_" style="fill:none;stroke:#3B55CE;stroke-width:1.05;stroke-linecap:round;stroke-miterlimit:10;" d="
			M302.01,394.58c0,0,2.4,18.58-3.08,38.38c-5.48,19.81-15.75,32.01-15.75,32.01"/>
	</g>
	<g id="XMLID_1587_">
		<path id="XMLID_1526_" style="fill:#91DBAC;" d="M489.35,464.97c0,0,0.32-25.36-19.8-48.99c-20.12-23.63-43.13-32.09-63.01-24.92
			c-14.8,5.34-11,22.47,1.1,29.77c14.33,8.64,67.98,12.14,69.89,44.15H489.35z"/>
		<path id="XMLID_1552_" style="fill:none;stroke:#3B55CE;stroke-width:1.05;stroke-linecap:round;stroke-miterlimit:10;" d="
			M408.67,402.5c27.34-1.56,69.19,23.63,74.93,62.46"/>
	</g>
	<g id="XMLID_1535_">
		<path id="XMLID_1566_" style="fill:#3DC19A;" d="M495.6,464.97c0,0,13.24-14.11,10.68-41.3c-2.55-27.19-26.46-33.93-30.76-20.79
			c-3.38,10.34,19.9,34.42,11.6,62.09H495.6z"/>
		<path id="XMLID_1568_" style="fill:none;stroke:#3B55CE;stroke-width:1.05;stroke-linecap:round;stroke-miterlimit:10;" d="
			M487.11,404.8c5.13,6.64,14.99,33.81,4.93,60.17"/>
	</g>
	<path id="XMLID_2128_" style="fill:#638BE2;" d="M910.53,468.36H21.58c-1.87,0-3.39-1.52-3.39-3.39l0,0c0-1.87,1.52-3.39,3.39-3.39
		h888.96c1.87,0,3.39,1.52,3.39,3.39l0,0C913.93,466.84,912.41,468.36,910.53,468.36z"/>
	<path id="XMLID_2125_" style="fill:#E5F7FF;" d="M787.87,553.08H238.13c-37.66,0-68.19-30.53-68.19-68.19v-16.53h686.11v16.53
		C856.06,522.55,825.53,553.08,787.87,553.08z"/>
</g>
<g id="XMLID_2047_">
	<g id="XMLID_2203_">
		<g id="XMLID_2241_">
			<path id="XMLID_2258_" style="fill:#8FC9C6;" d="M265.89,457.96c0.55,1.03,0.13,3.12-4.02,4.85c-4.15,1.73-11.66,0.99-14.64,0.41
				s-4.8-1.45-9.21-0.53c-4.42,0.92-11.65,0.52-13.84-1.33c-0.76-0.88-0.25-2.7-0.25-2.7L265.89,457.96z"/>
			<g id="XMLID_2245_">
				<defs>
					<path id="SVGID_7_" d="M226.3,445.05c-0.6,3.03-3.07,10.16-2.37,13.62c3.1,2.63,9.74,2.8,14.72,1.55
						c4.98-1.26,8.48,1.3,14.73,1.66c6.13,0.36,11.25-1.35,12.5-3.91c1.36-2.8-9.35-4.97-16.65-7.21
						c-8.17-2.51-12.39-6.54-12.39-6.54L226.3,445.05z"/>
				</defs>
				<use xlink:href="#SVGID_7_"  style="overflow:visible;fill:#228C7E;"/>
				<clipPath id="SVGID_8_">
					<use xlink:href="#SVGID_7_"  style="overflow:visible;"/>
				</clipPath>
				
					<path id="XMLID_2255_" style="clip-path:url(#SVGID_8_);fill:none;stroke:#8FC9C6;stroke-width:0.525;stroke-linecap:round;stroke-miterlimit:10;" d="
					M239.33,450.9c0,0,1.47-4.12,3.43-5.45"/>
				
					<path id="XMLID_2252_" style="clip-path:url(#SVGID_8_);fill:none;stroke:#8FC9C6;stroke-width:0.525;stroke-linecap:round;stroke-miterlimit:10;" d="
					M244.89,453.1c0,0,1.47-4.12,3.43-5.45"/>
				
					<path id="XMLID_2249_" style="clip-path:url(#SVGID_8_);fill:none;stroke:#8FC9C6;stroke-width:0.525;stroke-linecap:round;stroke-miterlimit:10;" d="
					M250.45,455.31c0,0,1.47-4.12,3.43-5.45"/>
			</g>
			<path id="XMLID_2242_" style="fill:#FF9A8D;" d="M226.3,432.96v12.08c0,0,1.4,0.46,1.98,1.15c0.58,0.69,1.38,2.97,2.37,3.01
				c3.9,0.16,6.21-4.99,6.21-4.99l1.47-10.98L226.3,432.96z"/>
		</g>
		<g id="XMLID_2221_">
			<path id="XMLID_2238_" style="fill:#AAEEED;" d="M128.92,461.1c-0.85,0.8-2.98,0.95-5.74-2.59c-2.76-3.55-4.04-10.98-4.26-14.01
				c-0.22-3.03,0.13-5.01-1.93-9.02c-2.06-4.01-3.58-11.1-2.38-13.7c0.65-0.97,2.53-0.95,2.53-0.95L128.92,461.1z"/>
			<g id="XMLID_2225_">
				<defs>
					<path id="SVGID_9_" d="M130.91,419.5c-3.08,0.22-10.61-0.28-13.76,1.32c-1.71,3.69-0.13,10.14,2.4,14.61
						c2.53,4.47,0.99,8.53,2.29,14.65c1.28,6.01,4.27,10.49,7.08,11.02c3.06,0.58,2.32-10.33,2.55-17.96
						c0.26-8.54,3.03-13.68,3.03-13.68L130.91,419.5z"/>
				</defs>
				<use xlink:href="#SVGID_9_"  style="overflow:visible;fill:#03AA99;"/>
				<clipPath id="SVGID_10_">
					<use xlink:href="#SVGID_9_"  style="overflow:visible;"/>
				</clipPath>
				
					<path id="XMLID_2235_" style="clip-path:url(#SVGID_10_);fill:none;stroke:#AAEEED;stroke-width:0.525;stroke-linecap:round;stroke-miterlimit:10;" d="
					M128.71,433.62c0,0,4.36,0.33,6.16,1.87"/>
				
					<path id="XMLID_2232_" style="clip-path:url(#SVGID_10_);fill:none;stroke:#AAEEED;stroke-width:0.525;stroke-linecap:round;stroke-miterlimit:10;" d="
					M128.06,439.56c0,0,4.36,0.33,6.16,1.87"/>
				
					<path id="XMLID_2229_" style="clip-path:url(#SVGID_10_);fill:none;stroke:#AAEEED;stroke-width:0.525;stroke-linecap:round;stroke-miterlimit:10;" d="
					M127.4,445.5c0,0,4.36,0.33,6.16,1.87"/>
			</g>
			<path id="XMLID_2222_" style="fill:#FF9A8D;" d="M138.71,413.9l-7.8,5.61c0,0-0.08,1.47-0.59,2.22
				c-0.51,0.75-2.49,2.12-2.27,3.08c0.88,3.81,6.45,4.67,6.45,4.67l10.85-5.78L138.71,413.9z"/>
		</g>
		<path id="XMLID_2218_" style="fill:#1E4174;" d="M249.64,260.85c-13.53,0-23.6,1.02-23.6,1.02c-4.33,1.89-11.75,11.73-13.94,17.97
			c-2.19,6.26,1.06,14.97,2.2,20.34c6.35,29.92,12.85,50.71,15.32,62.58c1.51,7.26-3.87,8.41-3.92,19.91
			c-0.07,16.46,0.61,51.54,0.61,51.54s5.07,2.95,11.77,0.93c0,0,10.15-57.86,11.27-64.48c1.8-10.74,2.43-15.24,2.63-33.82
			C252.26,310.71,249.64,260.85,249.64,260.85z"/>
		<path id="XMLID_1899_" style="fill:#85B8ED;" d="M249.47,283.52c-2.26,10.59-17.45,23.33-17.45,23.33
			c-1.72,4.93-23.97,81.11-27.68,84.01c-3.71,2.87-59,32.82-59,32.82c-2.67-1.43-4.28-3.6-5.25-5.52c-0.75-1.52-1.11-2.87-1.27-3.62
			c-0.05-0.25-0.09-0.43-0.09-0.52c-0.02-0.07-0.02-0.11-0.02-0.11s28.31-29.94,34.99-33.13c7.29-3.49,11.38-4.44,11.38-4.44v-0.02
			c7.61-35.39,7.38-63.05,13.53-82.6c1.13-3.62,2.33-6.86,3.58-9.62c1.58-3.46,2.78-6.36,3.76-8.83c0.41-1.06,0.77-2.04,1.11-2.96
			c0.34-0.93,0.63-1.79,0.88-2.58c0.18-0.54,0.34-1.06,0.5-1.54c0.7-2.22,1.2-4.01,1.74-5.7c0.25-0.75,0.5-1.47,0.77-2.22
			c0.16-0.36,0.29-0.75,0.45-1.11c0.16-0.38,0.32-0.77,0.5-1.15h0.02v0.02l10.57,7.88l5.09,3.78L249.47,283.52z"/>
		<path id="XMLID_1849_" style="fill:#4E7EAC;" d="M227.59,269.66c-1.49,1.92-3.69,4.5-6.45,6.92c-7.85,6.83-12.6,17.47-16.78,39.5
			c-4.72,24.82-12.64,61.73-13.59,64.01c-0.93,2.29-7.92,1.43-20.69,10.75c-9.64,7.04-23.65,21.68-29.99,27.29
			c-0.75-1.52-1.11-2.87-1.27-3.62c-0.05-0.25-0.07-0.43-0.09-0.52c-0.02-0.07-0.02-0.11-0.02-0.11s28.31-29.94,34.99-33.13
			c7.29-3.49,11.38-4.44,11.38-4.44v-0.02c7.26-35.39,7.38-63.05,13.53-82.6c1.13-3.62,2.33-6.83,3.6-9.6
			c1.58-3.46,2.78-6.36,3.73-8.85c0.43-1.06,0.79-2.06,1.11-2.96c0.34-0.93,0.63-1.79,0.88-2.58c0.18-0.54,0.34-1.06,0.5-1.54
			c0.7-2.22,1.2-4.01,1.74-5.7c0.25-0.75,0.5-1.47,0.77-2.22c0.16-0.36,0.29-0.75,0.45-1.11c0.16-0.38,0.34-0.75,0.52-1.13v-0.02
			l10.57,7.9L227.59,269.66z"/>
		<path id="XMLID_2211_" style="fill:#4E7EAC;" d="M249.47,283.52c0,0-6.92,9.06-25.94,9.78c-13.15,0.49-21.51-4.78-21.51-4.78
			l5.13-8.05L249.47,283.52z"/>
		<g id="XMLID_2204_">
			<defs>
				<path id="SVGID_11_" d="M145.35,423.68c0,0,55.3-29.95,59.01-32.84c3.71-2.88,25.95-79.07,27.66-83.99
					c0,0,16.38-13.35,18.64-23.92l-37.87-24.79c-2.9,6.22-2.87,10.37-10.58,25.94c-7.36,14.86-10.03,56.74-17.11,92.23
					c0,0-4.1,0.97-11.38,4.44c-6.69,3.19-35,33.14-35,33.14S139.51,420.52,145.35,423.68z"/>
			</defs>
			<clipPath id="SVGID_12_">
				<use xlink:href="#SVGID_11_"  style="overflow:visible;"/>
			</clipPath>
			
				<path id="XMLID_2210_" style="clip-path:url(#SVGID_12_);fill:none;stroke:#274D79;stroke-width:0.525;stroke-miterlimit:10;" d="
				M241.5,262.68c-7.97,10.22-18.13,16.42-22.36,23.43c-4.22,7.01-6.58,22.17-12.05,49.87c-5.44,27.51-10.4,46.25-11.9,47.9
				c-1.51,1.66-10.84,3.3-25.42,13.08c-14.58,9.78-31.49,25.46-31.49,25.46"/>
			
				<path id="XMLID_2209_" style="clip-path:url(#SVGID_12_);fill:none;stroke:#274D79;stroke-width:0.525;stroke-miterlimit:10;" d="
				M232.67,286.89c0,0-3.16,17.42-18.66,14.5"/>
			
				<path id="XMLID_2208_" style="clip-path:url(#SVGID_12_);fill:none;stroke:#274D79;stroke-width:0.525;stroke-miterlimit:10;" d="
				M141.72,408.46c0.07,4.67,3.35,11.45,9.34,15.06"/>
		</g>
	</g>
	<g id="XMLID_2182_">
		<g id="XMLID_2192_">
			<polygon id="XMLID_2196_" style="fill:#FF9A8D;" points="230.24,183.06 243.34,194.29 250.85,176.46 235.25,167.46 			"/>
			<path id="XMLID_2193_" style="fill:#BA5964;" d="M248.63,181.74c0,0-15.45-4.33-13.38-14.28l15.61,9.01L248.63,181.74z"/>
		</g>
	</g>
	<path id="XMLID_2173_" style="fill:#FFC253;" d="M243.03,193.84c3.01,2.54,4.95,6.12,5.39,10.03c0.71,6.33,1.27,15.81,1.81,29.57
		c0.49,12.5,1.74,48.75,1.74,48.75s-9.57,6.27-25.64,4.98c-15.35-1.23-21.97-8.78-21.97-8.78s1.6-50.99,6.65-71.06
		c7.45-20.69,19.23-24.29,19.23-24.29L243.03,193.84z"/>
	<g id="XMLID_2155_">
		<path id="XMLID_2199_" style="fill:#BA5964;" d="M258.68,152.87c0.81,1.4,5.03,7.32,6.41,9.05c1.37,1.72-4.1,2.18-4.1,2.18
			L258.68,152.87z"/>
		<path id="XMLID_2189_" style="fill:#FF9A8D;" d="M235.25,167.46c0,0,0.88,2.04,1.8,3.56c0.92,1.52,13.77,6.74,17.17,7.15
			c3.39,0.41,7.9-0.28,7-11.6c-0.9-11.32-3.77-21.12-11.34-26.25c-7.57-5.13-18.17,0.47-22.75,7.73
			C222.55,155.31,227.43,169.55,235.25,167.46z"/>
		<path id="XMLID_2186_" style="fill:#001C45;" d="M235.25,167.46L235.25,167.46l-1.67,5.21c0,0-1.3,0.62-4.58-3.45
			c-3.59-4.46-10.13-12.06-9.49-16.9c0.84-6.34,8.11-8.63,8.11-8.63s3.7-11.72,18.19-17.94c14.49-6.22,20.89,4.25,9.75,11.98
			c0,0,7.75,3.87,2.86,6.8c-4.89,2.94-18.88,2.57-18.88,2.57s6.87,2.63,4.82,4.57c-2.04,1.94-10.9,1.14-10.9,1.14l1.11,4.46
			c0,0-3.61-1.11-5.56,1.23C226.68,161.31,230.27,168.93,235.25,167.46z"/>
		<path id="XMLID_2183_" style="fill:none;stroke:#001C45;stroke-width:0.7875;stroke-linecap:round;stroke-miterlimit:10;" d="
			M226.19,130.06c0,0-4.32,9.35,3.79,15.63c0,0-8.09-0.26-9.81-7.93"/>
		<g id="XMLID_2145_">
			<g id="XMLID_2152_">
				<circle id="XMLID_2154_" style="fill:#001C45;" cx="251.67" cy="155.57" r="1.4"/>
				<path id="XMLID_2153_" style="fill:#001C45;" d="M253.1,151.28l-5.6,3.68c0,0-0.46-2.14,1.48-3.38
					C251.34,150.06,253.1,151.28,253.1,151.28z"/>
			</g>
			<path id="XMLID_2149_" style="fill:#BA5964;" d="M230.78,159.9c0.75-0.53,2.01-0.84,2.88-0.47c0.32,0.14-0.01,0.69-0.28,0.67
				c-1.56-0.13-3.31,0.29-3.55,2.14c-0.01,0.1-0.1,0.02-0.11-0.04C229.64,161.24,229.98,160.47,230.78,159.9z"/>
			<path id="XMLID_2146_" style="fill:#BA5964;" d="M231.48,159.85c0.14-0.12,0.6,0.17,0.6,0.29c-0.2,0.17-0.49,0.54-0.58,0.9
				c-0.15,0.61-0.11,1.1,0.11,1.69c0.51,1.38,1.59,2.17,3.05,2.1c0.03,0,0.09,0.06,0.05,0.08c-1.11,0.64-2.82-0.22-3.39-1.22
				C230.68,162.59,230.29,160.88,231.48,159.85z"/>
		</g>
	</g>
	<path id="XMLID_1534_" style="fill:#E09736;" d="M224.56,194.4c-3.17,1.68-7.34,10.83-4.38,20.72c2.96,9.89,6.79,20.09,6.79,20.09
		s15.27-3.61,19.3-13.34c0,0-5.39-13.18-7.91-18.52S232.57,190.17,224.56,194.4z"/>
	<path id="XMLID_1578_" style="fill:#E09736;" d="M240.54,251.81c3.43,3.43,8.09,7.19,10.7,8.23c-0.2-5.76-0.42-10.63-0.62-15.97
		l-11.43-15.19l-7.51-2.03l-2.7,7.79C228.98,234.64,235.07,246.34,240.54,251.81z"/>
	<path id="XMLID_1480_" style="fill:#FF9A8D;" d="M228.16,194.29c-7.22,1.92-9.68,12.28-2.42,28.33
		c6.97,15.39,18.2,29.47,25.1,34.28c6.9,4.81,33.65,3.23,56.01-3.39c0,0,12.75-4.58,16.29-7.72c7.9-7,8.28-16.29,2.48-14.91
		c-5.8,1.38-14.95,7.67-14.95,7.67s-2.43-4.78-4.19-8.51c0,0-1.57,0.41-2.12,3.72c-0.55,3.31-0.5,7.93-1.47,8.6
		c-2.57,1.79-38.42,4.81-42.7,0.59c-4.85-4.78-11.87-17.46-16.86-29.17C237.83,200.85,235.55,192.33,228.16,194.29z"/>
	<path id="XMLID_1520_" style="fill:#FFC253;" d="M225.75,192.67c-3.17,1.68-7.34,10.83-4.38,20.72c2.96,9.89,6.79,20.09,6.79,20.09
		s14.34-2.17,20.43-10.4c0,0-6.53-16.12-9.04-21.46S233.76,188.44,225.75,192.67z"/>
</g>
</svg>
