<?xml version="1.0" encoding="utf-8"?>
<!-- Generator: Adobe Illustrator 17.0.0, SVG Export Plug-In . SVG Version: 6.00 Build 0)  -->
<!DOCTYPE svg PUBLIC "-//W3C//DTD SVG 1.1//EN" "http://www.w3.org/Graphics/SVG/1.1/DTD/svg11.dtd">
<svg version="1.1" id="Capa_1" xmlns="http://www.w3.org/2000/svg" xmlns:xlink="http://www.w3.org/1999/xlink" x="0px" y="0px"
	 width="960px" height="560px" viewBox="0 0 960 560" style="enable-background:new 0 0 960 560;" xml:space="preserve">
<g>
	<g>
		<circle style="fill:#FFFFFF;" cx="398.53" cy="47.09" r="46"/>
	</g>
</g>
<g>
	<g>
		<path style="fill:#FFFFFF;" d="M673.57,2.13c-1.65-2.29-4.84-2.82-7.13-1.17l-98.96,71.07c-10.44-3.47-22.09,1.26-26.98,11.45
			l-5.81,12.1l-14.35,10.31c-0.26,0.19-0.53,0.4-0.78,0.6c-5.98,5.07-5.82,14.48,0.64,19.27l-8.95,18.65l-26.98-24.56
			c-7.93-7.22-18.22-11.24-28.95-11.33c-45.74-0.37-72.38,0.17-116.51,0.17c-28.82,0-53.2,22.51-53.35,51.33v163.07
			c-0.06,12.26,9.83,22.25,22.08,22.31c0.04,0,0.08,0,0.11,0c12.21,0,22.13-9.86,22.19-22.08V160.23c0,0,0,0,0,0
			c0.02-2.66,2.18-4.8,4.83-4.79c2.66,0.01,4.8,2.16,4.8,4.82v373.11c0,14.71,11.93,26.64,26.64,26.64
			c14.71,0,26.64-11.93,26.64-26.64v-212.9h11.5v212.9c0,14.71,11.93,26.64,26.64,26.64c14.71,0,26.64-11.93,26.64-26.64
			c0-78.7,0-298.96,0-377.66l46.27,41.42c11.08,9.82,28.39,6.21,34.73-7.01l41.97-87.43c2.58-5.37,2.79-11.25,1.07-16.49
			l91.12-77.19C674.72,7.3,675.13,4.3,673.57,2.13z"/>
	</g>
</g>
</svg>
