<?xml version="1.0" encoding="utf-8"?>
<!-- Generator: Adobe Illustrator 17.0.0, SVG Export Plug-In . SVG Version: 6.00 Build 0)  -->
<!DOCTYPE svg PUBLIC "-//W3C//DTD SVG 1.1//EN" "http://www.w3.org/Graphics/SVG/1.1/DTD/svg11.dtd">
<svg version="1.1" id="Calque_1" xmlns="http://www.w3.org/2000/svg" xmlns:xlink="http://www.w3.org/1999/xlink" x="0px" y="0px"
	 width="750px" height="750px" viewBox="0 0 750 750" style="enable-background:new 0 0 750 750;" xml:space="preserve">
<linearGradient id="SVGID_1_" gradientUnits="userSpaceOnUse" x1="393.8224" y1="309.4011" x2="393.8224" y2="563.1513">
	<stop  offset="0" style="stop-color:#DBDBE6"/>
	<stop  offset="1" style="stop-color:#FFFFFF"/>
</linearGradient>
<polygon style="fill:url(#SVGID_1_);" points="235.04,490.78 235.04,438.02 255.6,438.02 255.6,402.74 279.58,402.74 279.58,432.2 
	298.08,432.2 298.08,390.06 294.31,390.06 294.31,383.21 336.79,383.21 336.79,390.41 332.67,390.41 332.67,430.83 342.61,430.83 
	342.61,440.42 360.76,440.42 360.76,366.43 378.92,348.27 385.09,354.44 391.12,354.44 391.12,457.2 411.81,457.2 411.81,448.98 
	427.57,433.23 440.24,433.23 440.24,457.2 453.26,457.2 453.26,395.54 474.15,395.54 474.15,440.08 491.28,440.08 491.28,473.65 
	513.89,473.65 513.89,436.65 552.6,436.65 552.6,490.78 "/>
<g>
	<linearGradient id="SVGID_2_" gradientUnits="userSpaceOnUse" x1="274.9527" y1="549.6973" x2="274.9527" y2="288.304">
		<stop  offset="0" style="stop-color:#FCFCFC"/>
		<stop  offset="1" style="stop-color:#FDFDFD"/>
	</linearGradient>
	<rect x="270.33" y="402.74" style="fill:url(#SVGID_2_);" width="9.25" height="88.04"/>
	<linearGradient id="SVGID_3_" gradientUnits="userSpaceOnUse" x1="308.1815" y1="635.1193" x2="308.1815" y2="332.1268">
		<stop  offset="0" style="stop-color:#FCFCFC"/>
		<stop  offset="1" style="stop-color:#FDFDFD"/>
	</linearGradient>
	<polygon style="fill:url(#SVGID_3_);" points="317.72,383.21 317.72,460.4 297.39,460.4 297.39,478.9 279.58,478.9 279.58,490.78 
		332.67,490.78 332.67,390.41 336.79,390.41 336.79,383.21 	"/>
	<linearGradient id="SVGID_4_" gradientUnits="userSpaceOnUse" x1="361.8971" y1="635.1183" x2="361.8971" y2="332.1264">
		<stop  offset="0" style="stop-color:#FCFCFC"/>
		<stop  offset="1" style="stop-color:#FDFDFD"/>
	</linearGradient>
	<polygon style="fill:url(#SVGID_4_);" points="378.92,348.27 378.92,469.88 361.11,469.88 361.11,440.42 351.17,440.42 
		351.17,466.45 332.67,466.45 332.67,490.78 391.12,490.78 391.12,354.44 385.09,354.44 	"/>
	<linearGradient id="SVGID_5_" gradientUnits="userSpaceOnUse" x1="415.6798" y1="635.1188" x2="415.6798" y2="332.127">
		<stop  offset="0" style="stop-color:#FCFCFC"/>
		<stop  offset="1" style="stop-color:#FDFDFD"/>
	</linearGradient>
	<polygon style="fill:url(#SVGID_5_);" points="427.57,433.23 427.57,465.77 416.17,477.16 407.35,477.16 407.35,483.07 
		391.12,483.07 391.12,490.78 440.24,490.78 440.24,433.23 	"/>
	<linearGradient id="SVGID_6_" gradientUnits="userSpaceOnUse" x1="469.7864" y1="635.1191" x2="469.7864" y2="332.1264">
		<stop  offset="0" style="stop-color:#FCFCFC"/>
		<stop  offset="1" style="stop-color:#FDFDFD"/>
	</linearGradient>
	<rect x="465.42" y="395.54" style="fill:url(#SVGID_6_);" width="8.74" height="95.23"/>
	<linearGradient id="SVGID_7_" gradientUnits="userSpaceOnUse" x1="513.3774" y1="635.1185" x2="513.3774" y2="332.127">
		<stop  offset="0" style="stop-color:#FCFCFC"/>
		<stop  offset="1" style="stop-color:#FDFDFD"/>
	</linearGradient>
	<polygon style="fill:url(#SVGID_7_);" points="552.6,436.65 531.04,436.65 531.04,477.07 524.85,477.07 524.85,485.07 
		474.15,485.07 474.15,490.78 552.6,490.78 	"/>
	<linearGradient id="SVGID_8_" gradientUnits="userSpaceOnUse" x1="483.2747" y1="635.12" x2="483.2747" y2="332.1263">
		<stop  offset="0" style="stop-color:#FCFCFC"/>
		<stop  offset="1" style="stop-color:#FDFDFD"/>
	</linearGradient>
	<polygon style="fill:url(#SVGID_8_);" points="491.28,440.08 484.6,440.08 484.6,478.27 475.27,487.61 491.28,487.61 	"/>
	<linearGradient id="SVGID_9_" gradientUnits="userSpaceOnUse" x1="250.8018" y1="549.6972" x2="250.8018" y2="288.3034">
		<stop  offset="0" style="stop-color:#FCFCFC"/>
		<stop  offset="1" style="stop-color:#FDFDFD"/>
	</linearGradient>
	<rect x="246.01" y="438.02" style="fill:url(#SVGID_9_);" width="9.59" height="52.76"/>
</g>
<path style="fill:#FAFAFA;" d="M325.56,487.69c0,0,27.18-12.36,32.74-8.65c5.56,3.71,30.89-4.48,48.81-0.69
	c17.92,3.78,28.42,12.57,45.72,4.16c17.3-8.41,37.69-5.18,40.78,0c3.09,5.18,7.41,2.85,27.18,0c19.77-2.85,18.53-1.61,44.48,5.18
	c25.95,6.8,43.01,6.8,43.01,6.8H325.56V487.69z"/>
<path style="fill:#FAFAFA;" d="M287.88,502.31c0,0,6.18-22.65,38.3-11.53c32.13,11.12,39.13,24.71,85.67,23.07
	c46.54-1.65,67.14,20.59,86.08,20.18c18.95-0.41,19.96,8.65,19.96,8.65H279.64L287.88,502.31z"/>
<circle style="fill:#DBDBDB;" cx="647.69" cy="261.49" r="2.16"/>
<circle style="fill:#DBDBDB;" cx="745.43" cy="383.21" r="2.16"/>
<circle style="fill:#DBDBDB;" cx="601.02" cy="209.13" r="2.16"/>
<circle style="fill:#DBDBDB;" cx="614.62" cy="314.99" r="4.07"/>
<circle style="fill:#DBDBDB;" cx="412.1" cy="145.07" r="3.37"/>
<circle style="fill:#DBDBDB;" cx="634.15" cy="184.01" r="1.55"/>
<circle style="fill:#DBDBDB;" cx="582.91" cy="245.94" r="3.3"/>
<circle style="fill:#DBDBDB;" cx="614.62" cy="145.07" r="2.16"/>
<circle style="fill:#DBDBDB;" cx="642.22" cy="110.32" r="1.55"/>
<circle style="fill:#DBDBDB;" cx="582.91" cy="360.61" r="1.55"/>
<circle style="fill:#DBDBDB;" cx="558.24" cy="110.32" r="3.3"/>
<circle style="fill:#DBDBDB;" cx="710.39" cy="323.14" r="4.07"/>
<circle style="fill:#DBDBDB;" cx="520.79" cy="169.76" r="4.07"/>
<circle style="fill:#DBDBDB;" cx="694.71" cy="108.4" r="4.07"/>
<circle style="fill:#DBDBDB;" cx="685.35" cy="206.98" r="1.55"/>
<circle style="fill:#DBDBDB;" cx="788.46" cy="360.61" r="1.55"/>
<circle style="fill:#FFFFFF;" cx="403.94" cy="293.54" r="1.55"/>
<circle style="fill:#DBDBDB;" cx="864.9" cy="352.11" r="1.55"/>
<circle style="fill:#FFFFFF;" cx="503.13" cy="306.47" r="4.07"/>
<circle style="fill:#DBDBDB;" cx="507.2" cy="230.09" r="1.55"/>
<g>
	<rect x="488.59" y="71.93" style="fill:#EBF3F7;" width="1.54" height="179.13"/>
	<path style="fill:#EBF3F7;" d="M433.12,267.49c0,0,27.48-22.86,56.23-22.86c28.75,0,56.23,22.86,56.23,22.86H433.12z"/>
</g>
<g>
	<rect x="302.12" y="71.93" style="fill:#EBF3F7;" width="1.54" height="179.13"/>
	<path style="fill:#EBF3F7;" d="M246.66,267.49c0,0,27.48-22.86,56.23-22.86c28.75,0,56.23,22.86,56.23,22.86H246.66z"/>
</g>
<g>
	
		<linearGradient id="SVGID_10_" gradientUnits="userSpaceOnUse" x1="2398.0793" y1="-922.8887" x2="2509.0562" y2="-922.8887" gradientTransform="matrix(0.9184 0.3957 -0.3957 0.9184 -2333.5813 190.083)">
		<stop  offset="0" style="stop-color:#FF9F55"/>
		<stop  offset="1" style="stop-color:#FFD255"/>
	</linearGradient>
	<path style="fill:url(#SVGID_10_);" d="M332.26,320.69c0.69-4.45,0.73-8.92,0.18-13.27l7.84-5.1l-3.75-9.44l-3.75-9.44l-9.2,1.67
		c-2.59-3.55-5.69-6.76-9.25-9.52l1.93-9.14l-9.33-4.02l-9.33-4.02l-5.32,7.68c-4.45-0.69-8.92-0.73-13.27-0.18l-5.1-7.84
		l-9.44,3.75l-9.44,3.75l1.67,9.2c-3.55,2.59-6.76,5.69-9.52,9.25l-9.14-1.93l-4.02,9.33l-4.02,9.33l7.68,5.32
		c-0.69,4.45-0.73,8.92-0.18,13.27l-7.84,5.1l3.75,9.44l3.75,9.44l9.2-1.67c2.59,3.55,5.69,6.76,9.25,9.52l-1.93,9.14l9.33,4.02
		l9.33,4.02l5.32-7.68c4.45,0.69,8.92,0.73,13.27,0.18l5.1,7.84l9.44-3.75l9.44-3.75l-1.67-9.2c3.55-2.59,6.76-5.69,9.52-9.25
		l9.14,1.93l4.02-9.33l4.02-9.33L332.26,320.69z M270.88,346.07c-18.06-7.78-26.39-28.72-18.61-46.78
		c7.78-18.06,28.72-26.39,46.78-18.61c18.06,7.78,26.38,28.72,18.6,46.78C309.87,345.52,288.93,353.85,270.88,346.07z"/>
</g>
<g>
	<polygon style="fill:#B8D6FF;" points="66.37,330.38 64.5,330.38 70.21,318.83 72.08,318.83 	"/>
	<rect x="6.15" y="329.32" style="fill:#B8D6FF;" width="90.62" height="1.44"/>
	<rect x="6.15" y="333.98" style="fill:#B8D6FF;" width="48.41" height="8.31"/>
	<rect x="64.5" y="314.26" style="fill:#B8D6FF;" width="25.22" height="4.57"/>
	<rect x="64.5" y="312.13" style="fill:#B8D6FF;" width="25.22" height="0.86"/>
</g>
<g style="opacity:0.44;">
	<rect x="518.35" y="368.92" style="fill:#B8D6FF;" width="28.27" height="2.11"/>
	<rect x="518.35" y="371.95" style="fill:#B8D6FF;" width="28.27" height="5.72"/>
	<polygon style="fill:#B8D6FF;" points="523.05,324.6 523.05,343.72 476.19,343.72 476.19,347.08 523.05,347.08 523.05,350.05 
		476.19,350.05 476.19,364.17 523.05,364.17 524.11,364.17 525.16,364.17 525.16,324.6 	"/>
</g>
<g>
	
		<linearGradient id="SVGID_11_" gradientUnits="userSpaceOnUse" x1="2467.0237" y1="-1011.5797" x2="2517.9004" y2="-1011.5797" gradientTransform="matrix(0.9184 0.3957 -0.3957 0.9184 -2333.5813 190.083)">
		<stop  offset="0" style="stop-color:#FF9F55"/>
		<stop  offset="1" style="stop-color:#FFD255"/>
	</linearGradient>
	<path style="fill:url(#SVGID_11_);" d="M377.46,250.67c0.32-2.04,0.34-4.09,0.08-6.09l3.59-2.34l-1.72-4.33l-1.72-4.33l-4.22,0.77
		c-1.19-1.63-2.61-3.1-4.24-4.37l0.89-4.19l-4.28-1.84l-4.28-1.84l-2.44,3.52c-2.04-0.32-4.09-0.34-6.09-0.08l-2.34-3.59l-4.33,1.72
		l-4.33,1.72l0.77,4.22c-1.63,1.19-3.1,2.61-4.37,4.24l-4.19-0.89l-1.84,4.28l-1.84,4.28l3.52,2.44c-0.32,2.04-0.34,4.09-0.08,6.09
		l-3.59,2.34l1.72,4.33l1.72,4.33l4.22-0.77c1.19,1.63,2.61,3.1,4.24,4.37l-0.89,4.19l4.28,1.84l4.28,1.84l2.44-3.52
		c2.04,0.32,4.09,0.34,6.09,0.08l2.34,3.59l4.33-1.72l4.33-1.72l-0.77-4.22c1.63-1.19,3.1-2.61,4.37-4.24l4.19,0.89l1.84-4.28
		l1.84-4.28L377.46,250.67z M349.32,262.3c-8.28-3.57-12.1-13.17-8.53-21.45c3.57-8.28,13.17-12.1,21.45-8.53
		c8.28,3.57,12.1,13.17,8.53,21.45C367.2,262.05,357.6,265.87,349.32,262.3z"/>
</g>
<g>
	<g>
		<path style="fill:#D0E5F5;" d="M232.97,230.3H189.9c-1.82,0-3.3-1.48-3.3-3.3v-6.65c0-1.82,1.48-3.3,3.3-3.3h43.08
			c1.82,0,3.3,1.48,3.3,3.3v6.65C236.27,228.83,234.79,230.3,232.97,230.3z"/>
	</g>
</g>
<g>
	<g>
		<path style="fill:#D0E5F5;" d="M232.97,255.1H189.9c-1.82,0-3.3-1.48-3.3-3.3v-6.65c0-1.82,1.48-3.3,3.3-3.3h43.08
			c1.82,0,3.3,1.48,3.3,3.3v6.65C236.27,253.63,234.79,255.1,232.97,255.1z"/>
	</g>
</g>
<g>
	<g>
		<path style="fill:#D0E5F5;" d="M232.97,279.9H189.9c-1.82,0-3.3-1.48-3.3-3.3v-6.65c0-1.82,1.48-3.3,3.3-3.3h43.08
			c1.82,0,3.3,1.48,3.3,3.3v6.65C236.27,278.42,234.79,279.9,232.97,279.9z"/>
	</g>
</g>
<g>
	<g>
		<g>
			<path style="fill:#D0E5F5;" d="M162.58,187.52c-11.05-30.89-40.57-49.87-71.69-48.93c-7.53,0.23-15.16,1.62-22.64,4.3
				c-22.67,8.11-38.92,26.16-45.6,47.49c-4.63,14.78-4.66,31.14,0.96,46.85c0.56,1.56,1.17,3.1,1.82,4.6
				c2.96,6.8,6.83,12.96,11.44,18.37c19.31,22.7,51.35,32.3,81.08,21.67C156.33,268.13,176.31,225.89,162.58,187.52z M111.73,264.46
				c-22.29,7.97-46.31,0.78-60.79-16.24c-3.45-4.06-6.36-8.67-8.57-13.77c-0.49-1.13-0.94-2.28-1.36-3.45
				c-4.21-11.78-4.19-24.04-0.72-35.12c5.01-15.99,17.19-29.53,34.18-35.61c5.61-2.01,11.33-3.05,16.98-3.22
				c23.33-0.7,45.47,13.52,53.75,36.69C155.49,222.51,140.5,254.17,111.73,264.46z"/>
		</g>
	</g>
	<g>
		<g>
			<path style="fill:#78B0DE;" d="M40.29,195.88l-17.63-5.51c6.68-21.33,22.93-39.38,45.6-47.49c7.48-2.68,15.11-4.07,22.64-4.3
				l0.55,18.46c-5.65,0.17-11.37,1.22-16.98,3.22C57.48,166.35,45.29,179.88,40.29,195.88z"/>
		</g>
	</g>
	<g>
		<g>
			<path style="fill:#98C3E6;" d="M42.37,234.45l-16.94,7.37c-0.65-1.5-1.26-3.04-1.82-4.6c-5.62-15.71-5.59-32.06-0.96-46.85
				l17.63,5.51c-3.47,11.08-3.49,23.34,0.72,35.12C41.43,232.17,41.88,233.32,42.37,234.45z"/>
		</g>
	</g>
	<g>
		<g>
			<path style="fill:#B5D2EB;" d="M36.87,260.19c-4.61-5.41-8.48-11.57-11.44-18.37l16.94-7.37c2.21,5.1,5.12,9.72,8.57,13.77
				L36.87,260.19z"/>
		</g>
	</g>
</g>
<g>
	<g>
		<g>
			<linearGradient id="SVGID_12_" gradientUnits="userSpaceOnUse" x1="388.2957" y1="361.118" x2="395.6434" y2="383.7586">
				<stop  offset="0" style="stop-color:#FF9F55"/>
				<stop  offset="1" style="stop-color:#FFD255"/>
			</linearGradient>
			<path style="fill:url(#SVGID_12_);" d="M387.52,386.39l-16.57-14.45c-1.36-1.18-1.5-3.25-0.32-4.61c1.18-1.36,3.25-1.5,4.61-0.32
				l11.72,10.22l16.71-18.64c1.2-1.34,3.27-1.45,4.61-0.25c1.34,1.2,1.46,3.27,0.25,4.61L387.52,386.39z"/>
		</g>
	</g>
</g>
<g>
	<g>
		<linearGradient id="SVGID_13_" gradientUnits="userSpaceOnUse" x1="427.4041" y1="283.4188" x2="441.2575" y2="326.1053">
			<stop  offset="0" style="stop-color:#FF9F55"/>
			<stop  offset="1" style="stop-color:#FFD255"/>
		</linearGradient>
		<path style="fill:url(#SVGID_13_);" d="M434.33,328.2c-1.64,0-2.96-1.33-2.96-2.96v-40.95c0-1.63,1.33-2.96,2.96-2.96
			c1.64,0,2.96,1.33,2.96,2.96v40.95C437.29,326.87,435.97,328.2,434.33,328.2z"/>
	</g>
	<g>
		<linearGradient id="SVGID_14_" gradientUnits="userSpaceOnUse" x1="431.465" y1="295.9325" x2="437.1962" y2="313.592">
			<stop  offset="0" style="stop-color:#FF9F55"/>
			<stop  offset="1" style="stop-color:#FFD255"/>
		</linearGradient>
		<path style="fill:url(#SVGID_14_);" d="M454.81,307.72h-40.95c-1.64,0-2.96-1.33-2.96-2.96c0-1.64,1.33-2.96,2.96-2.96h40.95
			c1.64,0,2.96,1.33,2.96,2.96C457.77,306.4,456.44,307.72,454.81,307.72z"/>
	</g>
</g>
<g>
	<linearGradient id="SVGID_15_" gradientUnits="userSpaceOnUse" x1="125.004" y1="654.0289" x2="125.004" y2="600.7355">
		<stop  offset="0" style="stop-color:#FF9F55"/>
		<stop  offset="1" style="stop-color:#FFD255"/>
	</linearGradient>
	<path style="fill:url(#SVGID_15_);" d="M225.84,658.44H37.89c-7.57,0-13.71-6.14-13.71-13.71v-22.26c0-7.57,6.14-13.71,13.71-13.71
		h187.95V658.44z"/>
	<path style="fill:#FF9F55;" d="M258.12,613.86v39.46h3.3v5.11H125.18c-7.57,0-13.71-6.14-13.71-13.71v-22.26
		c0-7.57,6.14-13.71,13.71-13.71h136.23v5.11H258.12z"/>
	<path style="fill:#EFF7FE;" d="M258.11,653.32H135.23c-7.57,0-13.71-6.14-13.71-13.71v-12.03c0-7.57,6.14-13.71,13.71-13.71h122.88
		V653.32z"/>
	<linearGradient id="SVGID_16_" gradientUnits="userSpaceOnUse" x1="123.1233" y1="533.8651" x2="123.1233" y2="607.6403">
		<stop  offset="0" style="stop-color:#40D5E6"/>
		<stop  offset="1" style="stop-color:#5577FF"/>
	</linearGradient>
	<path style="fill:url(#SVGID_16_);" d="M234.62,608.74H28.86c-9.52,0-17.23-7.72-17.23-17.23v-23.33c0-9.52,7.71-17.23,17.23-17.23
		h205.76V608.74z"/>
	<path style="fill:#5284FC;" d="M271.11,556.91v45.89h2.84v5.95H162.05c-9.52,0-17.23-7.72-17.23-17.23v-23.33
		c0-9.52,7.72-17.23,17.23-17.23h111.91v5.95H271.11z"/>
	<path style="fill:#EFF7FE;" d="M271.11,602.8h-100.4c-9.52,0-17.23-7.72-17.23-17.23v-11.43c0-9.52,7.71-17.23,17.23-17.23h100.4
		V602.8z"/>
	<linearGradient id="SVGID_17_" gradientUnits="userSpaceOnUse" x1="173.8956" y1="537.4047" x2="173.8956" y2="482.2487">
		<stop  offset="0" style="stop-color:#FF9F55"/>
		<stop  offset="1" style="stop-color:#FFD255"/>
	</linearGradient>
	<path style="fill:url(#SVGID_17_);" d="M86.38,550.94h156.38c10.3,0,18.65-8.35,18.65-18.65v-33.55c0-10.3-8.35-18.65-18.65-18.65
		H86.38V550.94z"/>
	<path style="fill:#FF9F55;" d="M58.36,487.39v56.27H55.5v7.29H167c10.3,0,18.65-8.35,18.65-18.65v-33.55
		c0-10.3-8.35-18.65-18.65-18.65H55.5v7.29H58.36z"/>
	<path style="fill:#EFF7FE;" d="M58.37,543.65h98.6c10.24,0,18.54-8.3,18.54-18.54v-19.19c0-10.24-8.3-18.54-18.54-18.54h-98.6
		V543.65z"/>
	<linearGradient id="SVGID_18_" gradientUnits="userSpaceOnUse" x1="110.7707" y1="389.1096" x2="110.7707" y2="451.0736">
		<stop  offset="0" style="stop-color:#40D5E6"/>
		<stop  offset="1" style="stop-color:#5577FF"/>
	</linearGradient>
	<path style="fill:url(#SVGID_18_);" d="M203.48,480.08H37.66c-10.83,0-19.61-8.78-19.61-19.6v-31.64c0-10.83,8.78-19.6,19.61-19.6
		h165.82V480.08z"/>
	<path style="fill:#5284FC;" d="M233.16,416.52v56.27h3.03v7.29H117.93c-10.83,0-19.6-8.78-19.6-19.6v-31.64
		c0-10.83,8.78-19.6,19.6-19.6H236.2v7.29H233.16z"/>
	<path style="fill:#EFF7FE;" d="M233.16,472.79H128.14c-10.78,0-19.52-8.74-19.52-19.52v-17.22c0-10.78,8.74-19.52,19.52-19.52
		h105.03V472.79z"/>
	<linearGradient id="SVGID_19_" gradientUnits="userSpaceOnUse" x1="157.5401" y1="358.5563" x2="157.5401" y2="408.1179">
		<stop  offset="0" style="stop-color:#40D5E6"/>
		<stop  offset="1" style="stop-color:#5577FF"/>
	</linearGradient>
	<path style="fill:url(#SVGID_19_);" d="M250.25,409.21H77c-6.72,0-12.17-5.45-12.17-12.17v-29.28c0-6.72,5.45-12.17,12.17-12.17
		h173.26V409.21z"/>
	<path style="fill:#5284FC;" d="M279.93,361.11v42.58h3.03v5.52h-125.7c-6.72,0-12.17-5.45-12.17-12.17v-29.28
		c0-6.72,5.45-12.17,12.17-12.17h125.7v5.52H279.93z"/>
	<path style="fill:#EFF7FE;" d="M279.93,403.69H166.51c-6.72,0-12.17-5.45-12.17-12.17v-18.24c0-6.72,5.45-12.17,12.17-12.17h113.42
		V403.69z"/>
</g>
<g>
	<g>
		<path style="fill:#8DBDE3;" d="M532.04,466.71l-174.53,0.9c-7.26,0.04-13.18-5.82-13.22-13.08l-0.59-114.88
			c-0.04-7.26,5.82-13.18,13.08-13.22l174.53-0.9c7.26-0.04,13.18,5.82,13.22,13.08l0.59,114.88
			C545.17,460.75,539.31,466.67,532.04,466.71z"/>
		
			<rect x="419.93" y="323.95" transform="matrix(1 -5.150412e-003 5.150412e-003 1 -1.6911 2.2933)" style="fill:#706865;" width="48.97" height="11.06"/>
		<g>
			<g>
				<path style="fill:#FFFFFF;" d="M395.49,353.85c0,0,0.05,32.09-3.43,44.95l-7.55,4.78l-26.69,0.14c5-13.52,4.93-49.7,4.93-49.7
					L395.49,353.85z"/>
				<polygon style="fill:#C9C9C9;" points="384.52,403.57 384.49,398.73 392.06,398.69 				"/>
			</g>
		</g>
		<g>
			<g>
				<path style="fill:#FFFFFF;" d="M427.76,345.94c0,0,0.04,22.2-2.37,31.1l-5.22,3.3l-18.46,0.09c3.46-9.35,3.41-34.38,3.41-34.38
					L427.76,345.94z"/>
				<polygon style="fill:#C9C9C9;" points="420.17,380.35 420.15,376.99 425.39,376.97 				"/>
			</g>
		</g>
		<g>
			<g>
				<path style="fill:#FFFFFF;" d="M473.05,351.62c0,0,0.05,30.41-3.25,42.6l-7.15,4.53l-25.29,0.13c4.74-12.81,4.67-47.1,4.67-47.1
					L473.05,351.62z"/>
				<polygon style="fill:#C9C9C9;" points="462.65,398.75 462.63,394.15 469.8,394.12 				"/>
			</g>
		</g>
		<g>
			<g>
				<path style="fill:#FFFFFF;" d="M505.31,390.34c0,0,0.04,20.54-2.2,28.77l-4.83,3.06l-17.08,0.09c3.2-8.65,3.16-31.81,3.16-31.81
					L505.31,390.34z"/>
				<polygon style="fill:#C9C9C9;" points="498.29,422.17 498.27,419.07 503.12,419.04 				"/>
			</g>
		</g>
		<g>
			<g>
				<path style="fill:#FFFFFF;" d="M505.31,348.21c0,0,0.04,20.54-2.2,28.77l-4.83,3.06l-17.08,0.09c3.2-8.65,3.16-31.81,3.16-31.81
					L505.31,348.21z"/>
				<polygon style="fill:#C9C9C9;" points="498.29,380.04 498.27,376.94 503.12,376.92 				"/>
			</g>
		</g>
		<g>
			<g>
				<path style="fill:#FFFFFF;" d="M531.85,368.5c0,0,0.03,15.77-1.69,22.09l-3.71,2.35l-13.12,0.07
					c2.46-6.64,2.42-24.42,2.42-24.42L531.85,368.5z"/>
				<polygon style="fill:#C9C9C9;" points="526.45,392.94 526.44,390.56 530.16,390.54 				"/>
			</g>
		</g>
		<g>
			<g>
				<path style="fill:#FFFFFF;" d="M426.6,394.25c0,0,0.02,16.37-2.01,22.93l-4.38,2.44l-15.5,0.08c2.91-6.9,2.88-25.35,2.88-25.35
					L426.6,394.25z"/>
				<polygon style="fill:#C9C9C9;" points="420.21,419.62 420.2,417.15 424.59,417.12 				"/>
			</g>
		</g>
		<g>
			<g>
				<rect x="359.08" y="432.29" style="fill:#FFFFFF;" width="46.69" height="2.43"/>
			</g>
			<g>
				<rect x="359.08" y="449.13" style="fill:#FFFFFF;" width="53.84" height="2.42"/>
			</g>
			<g>
				<rect x="359.08" y="440.71" style="fill:#FFFFFF;" width="33.16" height="2.43"/>
			</g>
		</g>
	</g>
	<g>
		<g>
			<rect x="318.93" y="503.88" style="fill:#FFAA55;" width="53.75" height="3.19"/>
		</g>
		<g>
			<rect x="326.13" y="515.38" style="fill:#706865;" width="4.71" height="145.09"/>
		</g>
		<g>
			<rect x="364.27" y="502.98" style="fill:#CCBDB7;" width="37.36" height="4.56"/>
		</g>
		<g>
			<rect x="375.87" y="464.11" style="fill:#FFAA55;" width="14.15" height="42.97"/>
		</g>
		<g>
			<rect x="299.65" y="507.13" style="fill:#B59074;" width="206.99" height="8.25"/>
		</g>
		<g>
			<path style="fill:#D44040;" d="M259.93,457.2c0,0-2.26,31.75,3.94,35.55c3.89,2.38,19.38,10.41,18.92,11.91
				c-0.46,1.51-8.75,13.4-8.75,13.4s-29.76-19.6-30.72-25.77c-0.94-6.03,1.46-46.48,5.56-48.35c3.06-1.4,4.68-0.24,8.54,2.62
				C262.83,450.58,259.93,457.2,259.93,457.2z"/>
		</g>
		<g>
			<g>
				<g>
					<path style="fill:#EAD8CF;" d="M314.17,466.26l2.62-0.97c0,0-3.27-7.68-4.7-7.49c-1.64,0.22-3.7,0.76-3.7,0.76L314.17,466.26z"
						/>
				</g>
			</g>
		</g>
		<g>
			<g>
				<g>
					<path style="fill:#DA9B5B;" d="M314.77,467.58c-0.34-0.25-5.58-10.3-5.58-10.3l-11.2,1.52l6.05,11.91L314.77,467.58z"/>
				</g>
			</g>
		</g>
		<g>
			<g>
				<g>
					<path style="fill:#424773;" d="M296.54,640.66c0,0-0.93,6.42-1.04,7.39c-0.12,0.96-10.3-0.57-10.3-0.57l-0.82-7.65
						C284.38,639.83,295.27,639.75,296.54,640.66z"/>
				</g>
			</g>
		</g>
		<g>
			<g>
				<g>
					<path style="fill:#292C47;" d="M295.61,647.23c0,0,3.22,3.87,6.34,5.56c3.12,1.69,8.02,2.36,9.87,4.1
						c1.33,1.26,4.85,6.69-8.11,6.58s-19.2,0.77-20.59-1.31c-1.39-2.08,2.01-15.36,2.01-15.36S288.2,647.9,295.61,647.23z"/>
				</g>
			</g>
		</g>
		<g>
			<g>
				<g>
					<path style="fill:#424773;" d="M361.76,640.72c0,0-0.93,6.42-1.04,7.39c-0.12,0.96-10.3-0.57-10.3-0.57l-0.82-7.65
						C349.6,639.89,360.49,639.82,361.76,640.72z"/>
				</g>
			</g>
		</g>
		<g>
			<g>
				<g>
					<path style="fill:#292C47;" d="M360.83,647.29c0,0,3.23,3.87,6.34,5.56c3.12,1.69,14.6,3.07,16.44,4.82
						c1.33,1.26,3.55,6.34-14.68,5.86c-12.95-0.34-19.2,0.77-20.59-1.31c-1.39-2.08,2.01-15.36,2.01-15.36
						S353.24,648.04,360.83,647.29z"/>
				</g>
			</g>
		</g>
		<g>
			<g>
				<g>
					<path style="fill:#292C47;" d="M263.71,529.7c0,0,37.01,6.26,45.37,7.57c8.36,1.31,53.68,12.59,59.35,16.03
						c4.51,2.74-2.37,68.43-3.97,93.5H346.6l-1.29-75.19c-21.42,0.54-36.71-5.01-52.31-2.64c-15.6,2.37-28.6,5.74-38.52-7.56
						C254.48,561.41,254.12,532.6,263.71,529.7z"/>
				</g>
			</g>
		</g>
		<g>
			<g>
				<g>
					<path style="fill:#292C47;" d="M300.19,646.86l-17.4-1.07l-1.7-74.17c-9.22,0.23-12.38-0.35-19.85-1.26L247.2,537.7
						c12.31,2.46,51.75,12.41,57.01,15.6C308.72,556.04,301.79,621.79,300.19,646.86z"/>
				</g>
			</g>
		</g>
		<g>
			<g>
				<g>
					<path style="fill:#EEA886;" d="M280.75,390.98c0,0,13.57-3.75,18.74,6.78c5.18,10.53,2.83,30.5-4.01,32.38
						c-6.84,1.88-16.67-0.28-19.51-6.84c-2.84-6.55-5.1-15.87-4.42-21.9C272.23,395.36,277.14,392.42,280.75,390.98z"/>
				</g>
			</g>
		</g>
		<g>
			<g>
				<g>
					<path style="fill:#EEA886;" d="M291.94,428.03c0,0-0.15,8.01,0.73,9.72c0.88,1.71-18.89,1.28-18.89,1.28s3.12-9.62,1.35-17.81
						C273.38,413.11,291.94,428.03,291.94,428.03z"/>
				</g>
			</g>
		</g>
		<g>
			<g>
				<g>
					<path style="fill:#3A3F47;" d="M274.06,418.18c0,0,1.06,2.15,6.18,1.8c5.12-0.35,11.87-6.52,14.04-7.07
						c2.17-0.55,2.3-1.79,2.3-1.79l1.15,2.04l2.23,0.34c0,0-0.45-5.11,1.78-8.37c0.98-1.43-1.48-19.73-18.17-15.5
						c0,0-12.74,2.33-12.91,9.45C270.49,406.2,271.59,414.42,274.06,418.18z"/>
				</g>
			</g>
		</g>
		<g>
			<g>
				<g>
					<path style="fill:#E2D2CA;" d="M293.71,437.55c0,0-0.06-3.26-1.53-3.58c-1.48-0.31-15.54-2.25-17.36-1.53l-0.78,4.31
						C274.04,436.74,277.54,438.9,293.71,437.55z"/>
				</g>
			</g>
		</g>
		<g>
			<g>
				<g>
					<path style="fill:#EEA886;" d="M297.78,409.67c-0.38-2.67-3.42-5.75-5.16-1.58c-1.74,4.17,1.18,10.23,3.13,9.91
						C297.7,417.67,298.29,413.29,297.78,409.67z"/>
				</g>
			</g>
		</g>
		<g>
			<g>
				<g>
					<path style="fill:#323657;" d="M352.62,476.09c-0.01,0-0.01,0-0.02,0C352.7,476.13,352.71,476.14,352.62,476.09z"/>
				</g>
			</g>
		</g>
		<g>
			<g>
				<g>
					<path style="fill:#3A3F47;" d="M276.79,392.89c0,0-16.54-0.78-2.89,25.04L276.79,392.89z"/>
				</g>
			</g>
		</g>
		<g>
			<g>
				<polygon style="fill:#918783;" points="239.93,655.66 241.16,659.12 293.16,643.01 290.66,636 				"/>
			</g>
		</g>
		<g>
			<g>
				<rect x="289.03" y="584.02" style="fill:#918783;" width="5.91" height="56.53"/>
			</g>
		</g>
		<g>
			<g>
				<rect x="274.56" y="581.01" style="fill:#5E5854;" width="34.85" height="3.33"/>
			</g>
		</g>
		<g>
			<g>
				<polygon style="fill:#918783;" points="344.49,655.66 343.26,659.12 291.27,643.01 293.56,635.56 				"/>
			</g>
		</g>
		<g>
			<g>
				<polygon style="fill:#918783;" points="307.86,658.75 307.86,662.77 291.27,643.01 293.56,635.56 				"/>
			</g>
		</g>
		<g>
			<g>
				<circle style="fill:#BFB2AC;" cx="344.49" cy="660.47" r="4.86"/>
			</g>
		</g>
		<g>
			<g>
				<circle style="fill:#BFB2AC;" cx="303.42" cy="660.47" r="4.86"/>
			</g>
		</g>
		<g>
			<g>
				<circle style="fill:#BFB2AC;" cx="239.93" cy="660.47" r="4.86"/>
			</g>
		</g>
		<g>
			<path style="fill:#254380;" d="M327.27,581.01h-70.11c-3.44,0-6.23-2.79-6.23-6.23v-0.16c0-3.44,2.79-6.23,6.23-6.23h70.11
				c3.44,0,6.23,2.79,6.23,6.23v0.16C333.5,578.22,330.71,581.01,327.27,581.01z"/>
		</g>
		<g>
			<rect x="475.45" y="515.38" style="fill:#706865;" width="4.71" height="145.09"/>
		</g>
		<g>
			
				<linearGradient id="SVGID_20_" gradientUnits="userSpaceOnUse" x1="-5373.4585" y1="441.7174" x2="-5251.3022" y2="441.7174" gradientTransform="matrix(-1 0 0 1 -4929.4355 0)">
				<stop  offset="0" style="stop-color:#FF9F55"/>
				<stop  offset="1" style="stop-color:#FFD255"/>
			</linearGradient>
			<path style="fill:url(#SVGID_20_);" d="M437.81,484.8H328.08c-3.43,0-6.21-2.78-6.21-6.21v-73.75c0-3.43,2.78-6.21,6.21-6.21
				h109.73c3.43,0,6.21,2.78,6.21,6.21v73.75C444.02,482.02,441.24,484.8,437.81,484.8z"/>
		</g>
		<g>
			<rect x="326.65" y="403.29" style="fill:#F5F7FF;" width="112.59" height="68.01"/>
		</g>
		<g>
			<path style="fill:#FFC655;" d="M408.23,507.24v-1.53c0,0-2.16-9.54-17.4-9.54c-15.25,0-14.94,11.07-14.94,11.07H408.23z"/>
		</g>
		<g>
			<g>
				<path style="fill:#EEA886;" d="M375.7,497.58c0,0,3.31-0.26,4.53-0.99c1.21-0.73,8.48-5.62,10.18-4.83
					c1.71,0.78,13.06,4.26,12.66,5.92c-0.39,1.66-1.44,1.5-2.24,1.21c-0.8-0.29-9.04-2.02-9.77-1.73c0,0,8.1,2.95,8.13,5.11
					c0.03,2.16-1.69,2.68-2.46,3.5c-0.77,0.81-1.69,2.84-3.78,2.99c-2.09,0.16-12.27-3.39-14.36-3.55c-2.1-0.16-5.97,0.13-6.24-0.21
					C372.08,504.65,375.7,497.58,375.7,497.58z"/>
			</g>
		</g>
		<g>
			<g>
				<g>
					<path style="fill:#D44040;" d="M315.39,442.07c-10.56-1.86-21.68-4.52-21.68-4.52l-19.67-0.8c0,0-18.05,3.97-25.16,7.19
						c-0.67,0.3-0.68,16.11-2.53,20.25l5.89,12.44c0,0,3.41,24.64,4.11,35.59c0.32,5.03-0.92,48.61-0.92,48.61s1.77,0.87,15.19,2.35
						c13.43,1.48,46.97-0.54,47.18-2.12c0.21-1.59-6.5-59.05-6.79-62.02c-0.46-4.57,1.32-25.67,1.32-25.67
						c2.53,3.4,8.98,18.74,15.7,26.04c3.95,4.3,23.53,6.93,27.22,7.05c8.03,0.27,22.69,1.87,23.12,1.09
						c0.34-0.47,1.28-13.01,0.36-13.31c-0.8-0.27-28.02-1.83-34.99-5.53c-2.55-1.35-10.17-17.98-10.17-17.98
						S321.22,444.69,315.39,442.07z"/>
				</g>
			</g>
		</g>
		<g>
			<path style="fill:#254380;" d="M276.62,559.56H243.6c-6.6,0-11.96-5.35-11.96-11.96v-54.95c0-6.6,5.35-11.96,11.96-11.96h33.03
				c6.6,0,11.96,5.35,11.96,11.96v54.95C288.58,554.21,283.23,559.56,276.62,559.56z"/>
		</g>
		<g>
			<path style="fill:#254380;" d="M278.49,577.87c-8.39,0-15.2-2.82-20.24-8.38c-11.38-12.57-9.34-34.66-9.25-35.59
				c0.17-1.74,1.73-3.01,3.47-2.84c1.74,0.17,3.01,1.72,2.84,3.46c-0.02,0.25-1.84,20.28,7.65,30.73c3.84,4.23,8.92,6.28,15.53,6.28
				c1.75,0,3.17,1.42,3.17,3.17S280.24,577.87,278.49,577.87z"/>
		</g>
		<g>
			<g>
				<g>
					<path style="fill:#DFE1E8;" d="M366.72,412.3h-31.2c-0.49,0-0.89-0.4-0.89-0.89v-1.81c0-0.49,0.4-0.89,0.89-0.89h31.2
						c0.49,0,0.89,0.4,0.89,0.89v1.81C367.61,411.9,367.21,412.3,366.72,412.3z"/>
				</g>
			</g>
		</g>
		<g>
			<g>
				<g>
					<path style="fill:#DFE1E8;" d="M366.72,420.01h-31.2c-0.49,0-0.89-0.4-0.89-0.89v-1.81c0-0.49,0.4-0.89,0.89-0.89h31.2
						c0.49,0,0.89,0.4,0.89,0.89v1.81C367.61,419.61,367.21,420.01,366.72,420.01z"/>
				</g>
			</g>
		</g>
		<g>
			<g>
				<g>
					<path style="fill:#DFE1E8;" d="M364.62,465.88h-26.99c-1.65,0-2.99-1.34-2.99-3v-34.64c0-1.65,1.34-3,2.99-3h26.99
						c1.65,0,2.99,1.34,2.99,3v34.64C367.61,464.54,366.27,465.88,364.62,465.88z"/>
				</g>
			</g>
		</g>
		<g>
			<g>
				<g>
					<path style="fill:#DFE1E8;" d="M428.26,465.88h-49.25c-2.62,0-4.74-2.12-4.74-4.74v-47.7c0-2.62,2.12-4.74,4.74-4.74h49.25
						c2.62,0,4.74,2.12,4.74,4.74v47.7C433,463.76,430.88,465.88,428.26,465.88z"/>
				</g>
			</g>
		</g>
	</g>
	<g>
		<path style="fill:#36572B;" d="M481.24,461.26c-7.36,0-13.33-5.97-13.33-13.33c0-1.99,0.43-3.87,1.22-5.56
			c2.11-4.58,6.74-7.76,12.11-7.76c7.36,0,13.33,5.97,13.33,13.33c0,2.53-0.7,4.89-1.93,6.9
			C490.3,458.68,486.07,461.26,481.24,461.26z"/>
		<path style="fill:#45613C;" d="M467.7,460.06c-5.15,0-9.33-4.18-9.33-9.33c0-0.3,0.01-0.59,0.04-0.88
			c0.44-4.74,4.43-8.44,9.28-8.44c5.15,0,9.33,4.18,9.33,9.33c0,3.27-1.68,6.14-4.22,7.8C471.34,459.5,469.59,460.06,467.7,460.06z"
			/>
		<path style="fill:#925E2E;" d="M481.45,448.63c0,0,0.74,6.19,0.99,14.61c0.25,8.42-6.44,8.42-6.44,8.42v30.83h-4.64
			c0,0,0.11-31.45-2.2-33.98c-2.31-2.53-2.31-14.53-2.31-14.53l1.32-0.77c0,0-1.98,14.2,7.04,16.29c9.02,2.09,5.61-20.25,5.61-20.25
			L481.45,448.63z"/>
		<path style="fill:#48753A;" d="M484.54,450.07c-7.65-1.43-12.69-4.74-15.41-7.71c2.11-4.58,6.74-7.76,12.11-7.76
			c7.36,0,13.33,5.97,13.33,13.33c0,2.53-0.7,4.89-1.93,6.9C492.27,453.02,490.29,451.15,484.54,450.07z"/>
		<path style="fill:#538742;" d="M464.98,453.29c-3.09-0.89-5.19-2.11-6.56-3.44c0.44-4.74,4.43-8.44,9.28-8.44
			c5.15,0,9.33,4.18,9.33,9.33c0,3.27-1.68,6.14-4.22,7.8C471.86,456.75,469.72,454.66,464.98,453.29z"/>
		<polygon style="fill:#877670;" points="459.73,488.15 491.09,488.15 489.47,493.97 461.67,493.97 		"/>
		<polygon style="fill:#876455;" points="463.65,493.97 486.92,493.97 483.69,507.14 465.91,507.14 		"/>
		<path style="fill:#538742;" d="M466.85,442.58l-0.8,0.25c0,0-1.27-3.44-1.35-3.91C464.62,438.45,466.85,442.58,466.85,442.58z"/>
		<path style="fill:#538742;" d="M459.26,442.83l3.99,1.21c0,0-0.03,0.36-0.55,0.36C462.17,444.4,459.26,442.83,459.26,442.83z"/>
		<path style="fill:#538742;" d="M460.63,451.19h1.02c0,0-0.19,1.51-1.02,2.48C459.81,454.63,460.63,451.19,460.63,451.19z"/>
		<path style="fill:#48753A;" d="M485.11,432.1c0.41,0.3-1.46,4.87-1.46,4.87h-0.94C482.72,436.97,484.7,431.8,485.11,432.1z"/>
		<path style="fill:#48753A;" d="M480.77,435.84c-0.16-1.24,0.8-3.33,0.8-3.33v3.14C481.57,435.65,480.93,437.08,480.77,435.84z"/>
		<path style="fill:#48753A;" d="M488.14,453.84c-0.58-0.47-0.61-4.63-0.61-4.63l0.91,0.33
			C488.44,449.54,488.72,454.31,488.14,453.84z"/>
		<path style="fill:#715346;" d="M471.36,493.97h15.56l-3.23,13.16h-5.1C481.47,496.55,471.36,493.97,471.36,493.97z"/>
	</g>
	<g>
		<path style="fill:#9E633A;" d="M482.87,507.14c-1.28-0.53-3.34-6.56-4.33-9.68c-0.35-1.11-0.57-1.85-0.57-1.85h11.68
			c-1.01,7.21-3.46,11.53-3.46,11.53H482.87z"/>
		<path style="fill:#97A43C;" d="M481.93,492.01c0-0.42-1.87-2.18-2.81-3.32c-0.94-1.15,0.36-3.32,0.36-3.32
			c4.18,1.73,3.46,6.65,3.46,6.65S481.93,492.43,481.93,492.01z"/>
		<path style="fill:#97A43C;" d="M484.31,492.2h-0.5c0,0-0.36-8.49,2.74-9.64c3.1-1.15,3.1-3.46,3.1-3.46s0.94,3.17-0.58,4.83
			c-1.51,1.66-3.24,3.6-2.96,5.19C486.4,490.7,484.31,492.2,484.31,492.2z"/>
		<path style="fill:#82522F;" d="M478.54,497.46c-0.35-1.11-0.57-1.85-0.57-1.85h11.68c-1.01,7.21-3.46,11.53-3.46,11.53h-0.76
			C485.57,500.39,481.12,498.17,478.54,497.46z"/>
		<polygon style="fill:#C67B47;" points="477.97,492.01 489.73,492.01 490.4,495.61 477.49,495.61 		"/>
	</g>
	<path style="fill:#254380;" d="M302.3,403.5c0,0-3.38,10.15-28.4,14.43l-2.47-3.37c0,0,22.11-2.42,30.29-15.05L302.3,403.5z"/>
	<g>
		<path style="fill:#254380;" d="M258.18,424.1c-2.45,1.38-2.14,7.96-2.14,7.96h2.14h2.14C260.33,432.06,260.63,425.47,258.18,424.1
			z"/>
		<g>
			<rect x="257.79" y="405.41" style="fill:#254380;" width="0.79" height="20.64"/>
		</g>
		<polygon style="fill:#1A2F59;" points="250.28,406.76 284.48,419.52 315.32,391.79 279.93,382.69 		"/>
	</g>
</g>
<g>
	
		<linearGradient id="SVGID_21_" gradientUnits="userSpaceOnUse" x1="-10081.9463" y1="581.9167" x2="-10165.1484" y2="581.9167" gradientTransform="matrix(-1 0 0 1 -9529.7979 0)">
		<stop  offset="0" style="stop-color:#FF9F55"/>
		<stop  offset="1" style="stop-color:#FFD255"/>
	</linearGradient>
	<path style="fill:url(#SVGID_21_);" d="M523.34,602.84H641.4c4.26,0,7.72-3.45,7.72-7.72v-26.41c0-4.26-3.45-7.72-7.72-7.72H523.34
		V602.84z"/>
	
		<linearGradient id="SVGID_22_" gradientUnits="userSpaceOnUse" x1="-10042.8623" y1="651.2059" x2="-10125.2578" y2="651.2059" gradientTransform="matrix(-1 0 0 1 -9529.7979 0)">
		<stop  offset="0" style="stop-color:#FF9F55"/>
		<stop  offset="1" style="stop-color:#FFD255"/>
	</linearGradient>
	<path style="fill:url(#SVGID_22_);" d="M486.09,665.52h143.88c3.06,0,5.54-2.48,5.54-5.54v-17.54c0-3.06-2.48-5.55-5.54-5.55
		H486.09V665.52z"/>
	<path style="fill:#F08533;" d="M470.76,640.02v22.37h-3.8v3.13h67.51c2.11,0,3.83-1.71,3.83-3.83v-20.97
		c0-2.12-1.72-3.83-3.83-3.83h-67.51v3.13H470.76z"/>
	<path style="fill:#FAE6DE;" d="M470.77,662.39h60.43c2.03,0,3.68-1.65,3.68-3.68V643.7c0-2.03-1.65-3.68-3.68-3.68h-60.43V662.39z"
		/>
	<path style="fill:#F08533;" d="M503.21,565.3v33.23h-2.06v4.31h85.55c4.4,0,7.98-3.57,7.98-7.97v-25.89c0-4.4-3.57-7.97-7.98-7.97
		h-85.55v4.31H503.21z"/>
	<path style="fill:#FAE6DE;" d="M503.21,598.53h79.11c4.4,0,7.97-3.57,7.97-7.97v-17.28c0-4.4-3.57-7.97-7.97-7.97h-79.11V598.53z"
		/>
	
		<linearGradient id="SVGID_23_" gradientUnits="userSpaceOnUse" x1="-10225.7041" y1="619.864" x2="-10068.5469" y2="619.864" gradientTransform="matrix(-1 0 0 1 -9529.7979 0)">
		<stop  offset="0" style="stop-color:#609FF0"/>
		<stop  offset="1" style="stop-color:#5A3F9E"/>
	</linearGradient>
	<path style="fill:url(#SVGID_23_);" d="M548.84,636.89h115.92c5.44,0,9.86-4.41,9.86-9.86V612.7c0-5.44-4.41-9.86-9.86-9.86H548.84
		V636.89z"/>
	<path style="fill:#495DA1;" d="M528.71,606.34v27.04h-2.06v3.51h83.66c5.44,0,9.86-4.41,9.86-9.86V612.7
		c0-5.44-4.41-9.86-9.86-9.86h-83.66v3.51H528.71z"/>
	<path style="fill:#FAE6DE;" d="M528.71,633.38h77.5c5.44,0,9.86-4.41,9.86-9.86v-7.32c0-5.44-4.41-9.86-9.86-9.86h-77.5V633.38z"/>
	<rect x="542.38" y="614.97" style="fill:#DECCC5;" width="33.2" height="0.85"/>
	<rect x="555.69" y="617.56" style="fill:#DECCC5;" width="35.45" height="0.85"/>
	<rect x="478.75" y="645.81" style="fill:#DECCC5;" width="33.2" height="0.85"/>
	<rect x="492.06" y="648.41" style="fill:#DECCC5;" width="35.45" height="0.85"/>
	<rect x="516.39" y="650.78" style="fill:#DECCC5;" width="14.67" height="0.85"/>
	<rect x="542.02" y="587.77" style="fill:#DECCC5;" width="35.45" height="0.86"/>
	<rect x="539.1" y="590.14" style="fill:#DECCC5;" width="14.67" height="0.85"/>
</g>
<g>
	<linearGradient id="SVGID_24_" gradientUnits="userSpaceOnUse" x1="581.0464" y1="559.6" x2="581.0464" y2="542.7073">
		<stop  offset="0" style="stop-color:#FF9F55"/>
		<stop  offset="1" style="stop-color:#FFD255"/>
	</linearGradient>
	<path style="fill:url(#SVGID_24_);" d="M613.01,561h-59.57c-2.4,0-4.35-1.95-4.35-4.35v-7.06c0-2.4,1.95-4.35,4.35-4.35h59.57V561z
		"/>
	<path style="fill:#FF9F55;" d="M623.24,546.87v12.51h1.05V561H581.1c-2.4,0-4.35-1.95-4.35-4.35v-7.06c0-2.4,1.95-4.35,4.35-4.35
		h43.18v1.62H623.24z"/>
	<path style="fill:#EFF7FE;" d="M623.24,559.38h-38.95c-2.4,0-4.35-1.95-4.35-4.35v-3.81c0-2.4,1.95-4.35,4.35-4.35h38.95V559.38z"
		/>
	<linearGradient id="SVGID_25_" gradientUnits="userSpaceOnUse" x1="580.4502" y1="521.5115" x2="580.4502" y2="544.8963">
		<stop  offset="0" style="stop-color:#40D5E6"/>
		<stop  offset="1" style="stop-color:#5577FF"/>
	</linearGradient>
	<path style="fill:url(#SVGID_25_);" d="M615.79,545.25h-65.22c-3.02,0-5.46-2.45-5.46-5.46v-7.39c0-3.02,2.45-5.46,5.46-5.46h65.22
		V545.25z"/>
	<path style="fill:#5284FC;" d="M627.36,528.81v14.55h0.9v1.89h-35.47c-3.02,0-5.46-2.45-5.46-5.46v-7.39
		c0-3.02,2.45-5.46,5.46-5.46h35.47v1.89H627.36z"/>
	<path style="fill:#EFF7FE;" d="M627.36,543.36h-31.83c-3.02,0-5.46-2.45-5.46-5.46v-3.62c0-3.02,2.45-5.46,5.46-5.46h31.83V543.36z
		"/>
	<linearGradient id="SVGID_26_" gradientUnits="userSpaceOnUse" x1="596.5436" y1="522.6334" x2="596.5436" y2="505.1504">
		<stop  offset="0" style="stop-color:#FF9F55"/>
		<stop  offset="1" style="stop-color:#FFD255"/>
	</linearGradient>
	<path style="fill:url(#SVGID_26_);" d="M568.8,526.92h49.57c3.26,0,5.91-2.65,5.91-5.91v-10.64c0-3.26-2.65-5.91-5.91-5.91H568.8
		V526.92z"/>
	<path style="fill:#FF9F55;" d="M559.92,506.78v17.83h-0.91v2.31h35.34c3.26,0,5.91-2.65,5.91-5.91v-10.64
		c0-3.26-2.65-5.91-5.91-5.91h-35.34v2.31H559.92z"/>
	<path style="fill:#EFF7FE;" d="M559.92,524.61h31.25c3.24,0,5.88-2.63,5.88-5.88v-6.08c0-3.25-2.63-5.88-5.88-5.88h-31.25V524.61z"
		/>
	<linearGradient id="SVGID_27_" gradientUnits="userSpaceOnUse" x1="576.5349" y1="475.6283" x2="576.5349" y2="495.2689">
		<stop  offset="0" style="stop-color:#40D5E6"/>
		<stop  offset="1" style="stop-color:#5577FF"/>
	</linearGradient>
	<path style="fill:url(#SVGID_27_);" d="M605.92,504.46h-52.56c-3.43,0-6.21-2.78-6.21-6.21v-10.03c0-3.43,2.78-6.21,6.21-6.21
		h52.56V504.46z"/>
	<path style="fill:#5284FC;" d="M615.33,484.32v17.83h0.96v2.31H578.8c-3.43,0-6.21-2.78-6.21-6.21v-10.03
		c0-3.43,2.78-6.21,6.21-6.21h37.49v2.31H615.33z"/>
	<path style="fill:#EFF7FE;" d="M615.33,502.15h-33.29c-3.42,0-6.19-2.77-6.19-6.19v-5.46c0-3.42,2.77-6.19,6.19-6.19h33.29V502.15z
		"/>
	<linearGradient id="SVGID_28_" gradientUnits="userSpaceOnUse" x1="591.3595" y1="465.9437" x2="591.3595" y2="481.653">
		<stop  offset="0" style="stop-color:#40D5E6"/>
		<stop  offset="1" style="stop-color:#5577FF"/>
	</linearGradient>
	<path style="fill:url(#SVGID_28_);" d="M620.75,482h-54.92c-2.13,0-3.86-1.73-3.86-3.86v-9.28c0-2.13,1.73-3.86,3.86-3.86h54.92
		V482z"/>
	<path style="fill:#5284FC;" d="M630.15,466.75v13.5h0.96V482h-39.84c-2.13,0-3.86-1.73-3.86-3.86v-9.28c0-2.13,1.73-3.86,3.86-3.86
		h39.84v1.75H630.15z"/>
	<path style="fill:#EFF7FE;" d="M630.15,480.25H594.2c-2.13,0-3.86-1.73-3.86-3.86v-5.78c0-2.13,1.73-3.86,3.86-3.86h35.95V480.25z"
		/>
</g>
</svg>
