<?xml version="1.0" encoding="utf-8"?>
<!-- Generator: Adobe Illustrator 17.0.0, SVG Export Plug-In . SVG Version: 6.00 Build 0)  -->
<!DOCTYPE svg PUBLIC "-//W3C//DTD SVG 1.1//EN" "http://www.w3.org/Graphics/SVG/1.1/DTD/svg11.dtd">
<svg version="1.1" id="Calque_1" xmlns="http://www.w3.org/2000/svg" xmlns:xlink="http://www.w3.org/1999/xlink" x="0px" y="0px"
	 width="960px" height="560px" viewBox="0 0 960 560" style="enable-background:new 0 0 960 560;" xml:space="preserve">
<path style="fill:#FFFFFF;" d="M766.06,262.56H235.61l107.3-106.84c6.67-6.64,6.69-17.43,0.05-24.1c-6.65-6.67-17.44-6.7-24.1-0.06
	L181.91,267.92c-3.21,3.2-5.02,7.55-5.02,12.08c0,4.53,1.81,8.88,5.02,12.08l136.95,136.35c3.33,3.31,7.68,4.97,12.03,4.97
	c4.37,0,8.75-1.68,12.08-5.02c6.64-6.67,6.62-17.46-0.05-24.1L234.82,296.65h531.24c9.41,0,17.04-7.63,17.04-17.04
	C783.1,270.19,775.47,262.56,766.06,262.56z"/>
</svg>
