<?xml version="1.0" encoding="utf-8"?>
<!-- Generator: Adobe Illustrator 17.0.0, SVG Export Plug-In . SVG Version: 6.00 Build 0)  -->
<!DOCTYPE svg PUBLIC "-//W3C//DTD SVG 1.1//EN" "http://www.w3.org/Graphics/SVG/1.1/DTD/svg11.dtd">
<svg version="1.1" id="Calque_1" xmlns="http://www.w3.org/2000/svg" xmlns:xlink="http://www.w3.org/1999/xlink" x="0px" y="0px"
	 width="750px" height="750px" viewBox="0 0 750 750" style="enable-background:new 0 0 750 750;" xml:space="preserve">
<g>
	<rect x="618.67" y="633.38" style="fill:#EBEBEB;" width="48.79" height="0.37"/>
	<rect x="479.83" y="637.38" style="fill:#EBEBEB;" width="12.81" height="0.37"/>
	<rect x="588.92" y="619.7" style="fill:#EBEBEB;" width="28.27" height="0.37"/>
	<rect x="82" y="622.18" style="fill:#EBEBEB;" width="63.63" height="0.37"/>
	<rect x="158.74" y="622.18" style="fill:#EBEBEB;" width="9.33" height="0.37"/>
	<rect x="198.39" y="628.39" style="fill:#EBEBEB;" width="137.99" height="0.37"/>
	<path style="fill:#EBEBEB;" d="M353.86,543.97H69.41c-4.64,0-8.41-3.77-8.41-8.41V135.73c0-4.64,3.77-8.41,8.41-8.41h284.45
		c4.64,0,8.41,3.77,8.41,8.41v399.84C362.27,540.2,358.49,543.97,353.86,543.97z M69.41,127.69c-4.43,0-8.04,3.61-8.04,8.04v399.84
		c0,4.43,3.61,8.04,8.04,8.04h284.45c4.43,0,8.04-3.61,8.04-8.04V135.73c0-4.43-3.61-8.04-8.04-8.04H69.41z"/>
	<path style="fill:#EBEBEB;" d="M672.48,543.97H388.03c-4.64,0-8.41-3.77-8.41-8.41V135.73c0-4.64,3.77-8.41,8.41-8.41h284.45
		c4.64,0,8.41,3.77,8.41,8.41v399.84C680.89,540.2,677.12,543.97,672.48,543.97z M388.03,127.69c-4.43,0-8.04,3.61-8.04,8.04v399.84
		c0,4.43,3.61,8.04,8.04,8.04h284.45c4.43,0,8.04-3.61,8.04-8.04V135.73c0-4.43-3.61-8.04-8.04-8.04H388.03z"/>
	<rect x="4.72" y="609.67" style="fill:#EBEBEB;" width="736.53" height="0.37"/>
</g>
<g>
	<path style="fill:#FAFAFA;" d="M561.29,363.32l85.86-0.01c11.87,0,19.82-12.19,15.08-23.07c-5.7-13.1-17.83-20.19-28.78-10.37
		c-16.49,14.8-15.71-13.89-35.43-9.87c-17.26,3.52-14.88,20.5-25.45,23.99C562,347.49,547.43,359.41,561.29,363.32z"/>
	<path style="fill:#FAFAFA;" d="M425.26,208.99l62.66-0.01c8.67,0,14.46-8.89,11-16.84c-4.16-9.56-13.02-14.74-21.01-7.57
		c-12.03,10.8-11.47-10.14-25.86-7.2c-12.59,2.57-10.86,14.97-18.57,17.51C425.78,197.44,415.14,206.14,425.26,208.99z"/>
	<g>
		<g>
			<g>
				<path style="fill:#F0F0F0;" d="M549.28,609.85h-10.31V280.1c0-18.46,15.02-33.48,33.48-33.48h9.11v10.31h-9.11
					c-12.77,0-23.17,10.39-23.17,23.17V609.85z"/>
			</g>
			<g>
				<rect x="581.55" y="193.68" style="fill:#EBEBEB;" width="39.1" height="110.45"/>
				<path style="fill:#E6E6E6;" d="M620.65,304.12h-39.1v0.2c0,4.21,3.41,7.62,7.61,7.62h23.87c4.21,0,7.61-3.41,7.61-7.62V304.12z"
					/>
				<g>
					<circle style="fill:#F0F0F0;" cx="601.1" cy="216.51" r="12.13"/>
					<circle style="fill:#FAFAFA;" cx="601.1" cy="213.56" r="12.13"/>
				</g>
				<g>
					<circle style="fill:#F0F0F0;" cx="601.1" cy="249.65" r="12.13"/>
					<circle style="fill:#FAFAFA;" cx="601.1" cy="246.71" r="12.13"/>
				</g>
				<g>
					<circle style="fill:#F0F0F0;" cx="601.1" cy="282.8" r="12.13"/>
					<circle style="fill:#FAFAFA;" cx="601.1" cy="279.85" r="12.13"/>
				</g>
			</g>
		</g>
		<g>
			<g>
				<rect x="580.28" y="513.41" style="fill:#EBEBEB;" width="68.04" height="29.7"/>
				<rect x="575.54" y="509.3" style="fill:#F5F5F5;" width="9.48" height="37.92"/>
				<rect x="643.58" y="509.3" style="fill:#F5F5F5;" width="9.48" height="37.92"/>
				<path style="fill:#F5F5F5;" d="M580.28,533h-6.42c-1.69,0-3.06-1.37-3.06-3.06v-3.36c0-1.69,1.37-3.06,3.06-3.06h6.42V533z"/>
				<path style="fill:#F5F5F5;" d="M648.32,523.52h6.42c1.69,0,3.06,1.37,3.06,3.06v3.36c0,1.69-1.37,3.06-3.06,3.06h-6.42V523.52z"
					/>
				<g>
					<path style="fill:#F5F5F5;" d="M632.58,597.23h-36.56V494.62c0-10.1,8.18-18.28,18.28-18.28l0,0c10.1,0,18.28,8.18,18.28,18.28
						V597.23z"/>
					<path style="fill:#EBEBEB;" d="M639.18,609.85h-49.76v-9.68c0-5,4.05-9.06,9.06-9.06h31.65c5,0,9.06,4.05,9.06,9.06V609.85z"/>
				</g>
				<circle style="fill:#FAFAFA;" cx="614.3" cy="528.2" r="15.64"/>
				<circle style="fill:#EBEBEB;" cx="614.3" cy="528.2" r="3.72"/>
				<path style="fill:#F0F0F0;" d="M589.42,499.82L589.42,499.82c0-2.62,2.12-4.74,4.74-4.74h40.28c2.62,0,4.74,2.12,4.74,4.74l0,0
					c0,2.62-2.12,4.74-4.74,4.74h-40.29C591.54,504.56,589.42,502.44,589.42,499.82z"/>
			</g>
			<g>
				<path style="fill:#EBEBEB;" d="M606.34,552.35L606.34,552.35c2.62,0,4.74,2.12,4.74,4.74v24.49c0,2.62-2.12,4.74-4.74,4.74l0,0
					c-2.62,0-4.74-2.12-4.74-4.74v-24.49C601.6,554.47,603.72,552.35,606.34,552.35z"/>
				<path style="fill:#EBEBEB;" d="M622.25,552.35L622.25,552.35c2.62,0,4.74,2.12,4.74,4.74v24.49c0,2.62-2.12,4.74-4.74,4.74l0,0
					c-2.62,0-4.74-2.12-4.74-4.74v-24.49C617.51,554.47,619.64,552.35,622.25,552.35z"/>
			</g>
		</g>
		<g>
			<path style="fill:#F0F0F0;" d="M110.85,610.07h-3.63c-1.06,0-1.91-0.89-1.86-1.95l3.91-89.02h9.32l-5.87,89.22
				C112.65,609.31,111.84,610.07,110.85,610.07z"/>
			<path style="fill:#F0F0F0;" d="M126.08,610.07h-3.63c-1.06,0-1.91-0.89-1.86-1.95l3.91-89.02h9.32l-5.87,89.22
				C127.87,609.31,127.06,610.07,126.08,610.07z"/>
			<path style="fill:#F0F0F0;" d="M168.35,610.07h3.63c1.06,0,1.91-0.89,1.86-1.95l-3.91-89.02h-9.32l5.87,89.22
				C166.55,609.31,167.37,610.07,168.35,610.07z"/>
			<path style="fill:#F0F0F0;" d="M183.35,610.07h3.63c1.06,0,1.91-0.89,1.86-1.95l-3.91-89.02h-9.32l5.87,89.22
				C181.55,609.31,182.37,610.07,183.35,610.07z"/>
			<rect x="126.31" y="466.74" style="fill:#F0F0F0;" width="7.9" height="41.71"/>
			<rect x="161.22" y="466.74" style="fill:#F0F0F0;" width="7.9" height="41.71"/>
			<path style="fill:#F5F5F5;" d="M195.86,517.35c0,9.23-21.33,8.36-47.65,8.36c-26.32,0-47.65,0.86-47.65-8.36
				c0-9.23,21.33-16.7,47.65-16.7C174.53,500.65,195.86,508.12,195.86,517.35z"/>
			<path style="fill:#F5F5F5;" d="M170.87,471.28h-45.33c-7.16,0-13.12-5.51-13.68-12.65l-1.42-18.1
				c-0.62-7.98,5.68-14.79,13.68-14.79h48.16c8,0,14.3,6.82,13.68,14.79l-1.42,18.1C183.99,465.77,178.04,471.28,170.87,471.28z"/>
		</g>
		<g>
			<rect x="105.67" y="299.92" style="fill:#F0F0F0;" width="53.51" height="42.19"/>
			<rect x="102.79" y="299.92" style="fill:#E0E0E0;" width="2.88" height="42.19"/>
			<rect x="111.13" y="304.22" style="fill:#FAFAFA;" width="42.6" height="33.59"/>
			<rect x="114.64" y="306.99" style="fill:#EBEBEB;" width="35.59" height="28.06"/>
		</g>
		<g>
			<g>
				<rect x="170.22" y="231.45" style="fill:#EBEBEB;" width="58.91" height="74.7"/>
				<rect x="167.41" y="231.45" style="fill:#E0E0E0;" width="2.81" height="74.7"/>
				<rect x="176.23" y="239.07" style="fill:#F5F5F5;" width="46.9" height="59.47"/>
				<rect x="180.09" y="243.96" style="fill:#FAFAFA;" width="39.17" height="49.68"/>
			</g>
			<path style="fill:#EBEBEB;" d="M191.93,261.5c0,0,6.92,9.79,10.48,9.64c3.26-0.14,8.79-9.64,8.79-9.64s-6.92-9.79-10.48-9.64
				C197.46,252,191.93,261.5,191.93,261.5z"/>
			<path style="fill:#F0F0F0;" d="M210.04,283.18c2.05-3.95-8.66-12.24-13.1-12.05c-4.07,0.18-12.57,8.29-10.99,12.05
				C188.29,288.73,207.27,288.53,210.04,283.18z"/>
		</g>
		<g>
			<g>
				<ellipse style="fill:#E0E0E0;" cx="122.05" cy="240.58" rx="26.59" ry="37.07"/>
				<ellipse style="fill:#EBEBEB;" cx="125.21" cy="240.58" rx="26.59" ry="37.07"/>
				<ellipse style="fill:#E6E6E6;" cx="125.21" cy="240.58" rx="22.65" ry="31.58"/>
				<ellipse style="fill:#FAFAFA;" cx="125.22" cy="240.58" rx="20.25" ry="28.23"/>
			</g>
			<path style="fill:#EBEBEB;" d="M131.57,255.92c0,0,6.98-6.14,6.24-15.71c0,0-8.35-0.98-8.1,13.01c0,0-9.41-9.76-6.63-15.96
				c4.34-9.66,4.34-9.66,1.28-15.71c0,0-8.21,3.31-4.47,14.49c0,0,0.15,5.4,1.3,8.59c0,0-8.26-7.91-10.92-2.73
				c0,0,4.4,8.38,10.92,4.9C121.19,246.79,128.52,259.63,131.57,255.92z"/>
		</g>
	</g>
</g>
<g>
	<path style="fill:#FFC3BD;" d="M478.72,334.51c-3.96-4.12-6.78-11.83-8.15-16.71l-6.2,14.94c2.03,2.41,2.98,5.82,2.29,8.57
		c-0.03,0.13-0.22,2.64-4.34,5.2c0,0,0.75,15.12,9.75,12.97c9-2.15,13.89-20.07,13.89-20.07l0.64-5.09
		C486.62,334.33,482.39,337.77,478.72,334.51z"/>
	<path style="opacity:0.1;" d="M465.9,329.08l-1.52,3.66c1.19,1.4,1.99,3.15,2.33,4.91c4.12-4.87,4.59-12.73,4.59-12.73
		L465.9,329.08z"/>
	<path style="fill:#FFC3BD;" d="M400.55,401.77c0,0,24.29,1,35.08-1.96c10.79-2.96,19.95-21.81,19.95-21.81l-12.3-6.8l-12.23,18.2
		l-30.47,4.88l-8.75-6.23c0,0-17.69-3.77-17.69-1.48s9.11,4.16,9.11,4.16s0.54,10.87,4.29,11.2
		C391.29,402.26,400.55,401.77,400.55,401.77z"/>
	<path style="fill:#407BFF;" d="M460,349.8c0,0-10.52,1.47-17.39,14.22c-6.88,12.75-1.01,13.25,4.81,16.85
		c5.82,3.61,8.74,4.37,11.42-3.45C461.52,369.6,466.81,349.02,460,349.8z"/>
	<path style="opacity:0.1;" d="M459.97,373.85l-3.89-7.95l-6.56-0.5c0,0-0.58,9.14,0.34,16.87c4.26,2.23,6.71,1.79,8.98-4.85
		C459.18,376.42,459.57,375.2,459.97,373.85z"/>
	<g>
		<path style="fill:#263238;" d="M439.03,299.06c0,0-7.66,2.71-2.6,10.51s-5.14,13.08,12.01,15.24c17.16,2.16,0.61-28.88,0.61-28.88
			L439.03,299.06z"/>
		<path style="opacity:0.3;" d="M439.03,299.06c0,0-7.66,2.71-2.6,10.51s-5.14,13.08,12.01,15.24c17.16,2.16,0.61-28.88,0.61-28.88
			L439.03,299.06z"/>
	</g>
	<path style="fill:#407BFF;" d="M505.01,347.97c-2.56-16.68-12.28-16.39-21.74-12.66c0.66,6.29,0.68,14.3-8.4,19.29
		c-8.18,4.49-11.37-2.88-11.55-9.17c-8.56,4.88-15.73,11.14-13.39,23.51c1.34,7.08,7.58,14.84,13.98,24.7
		c7.64,11.78,15.51,25.16,15.51,25.16l43.7-22.25C523.13,396.55,507.79,366.05,505.01,347.97z"/>
	<path style="opacity:0.2;" d="M505.01,347.96c-0.38-2.46-0.92-4.54-1.58-6.31l-6.62-1.12l-3.45,5.49c0,0,7.29,12.84,16.98,20.96
		C507.92,360.3,505.87,353.54,505.01,347.96z"/>
	<path style="fill:#FFC3BD;" d="M516.69,342.67c0,0,14.99,10.26,19.57,14.21c6.82,5.88,25.2,25.74,25.2,25.74l11.26,6.17v7.12
		l-5.32,3.68c-1.64,1.14-3.9,0.71-5.01-0.95l-6.83-10.2c0,0-16.86-15.4-23.05-19.79c-5.24-3.71-22.25-12.83-22.25-12.83
		L516.69,342.67z"/>
	<path style="fill:#407BFF;" d="M489.01,333.76c0,0,9.65-4.35,17.89,0c8.24,4.35,11.87,6.74,11.06,11.99
		c-0.8,5.23-3.82,16.08-9.25,14.27C503.29,358.21,486,341.07,489.01,333.76z"/>
	<path style="fill:#FFC3BD;" d="M472.87,305.37c1.11,11.29,1.83,16.04-2.88,22.69c-7.1,10-21.2,8.91-25.67-1.82
		c-4.02-9.65-5.18-26.48,5.04-32.7c7.28-4.48,16.81-2.21,21.28,5.07C471.89,300.65,472.66,302.97,472.87,305.37z"/>
	<g>
		<path style="fill:#ED893E;" d="M449.13,314c-0.47,2.21-1.25,4.34-2.3,6.34c1.04,0.52,2.27,0.56,3.34,0.1L449.13,314z"/>
		<path style="fill:#263238;" d="M456.67,306.46c0.07-0.04,0.12-0.1,0.17-0.16c0.12-0.22,0.05-0.49-0.17-0.61c0,0-0.01,0-0.01,0
			c-1.47-0.88-3.27-1-4.84-0.31c-0.21,0.12-0.3,0.39-0.19,0.61c0.11,0.22,0.38,0.3,0.6,0.2c1.3-0.55,2.79-0.44,4,0.29
			C456.37,306.54,456.53,306.54,456.67,306.46z"/>
		<path style="fill:#263238;" d="M439.8,309.31c0.07-0.03,0.14-0.08,0.19-0.14c0.88-1.09,2.24-1.7,3.64-1.63
			c0.25,0.03,0.47-0.14,0.51-0.38c0,0,0,0,0-0.01c0.03-0.25-0.15-0.47-0.4-0.5c-1.71-0.11-3.37,0.61-4.45,1.94
			c-0.17,0.18-0.16,0.47,0.03,0.64C439.46,309.34,439.64,309.37,439.8,309.31L439.8,309.31z"/>
		<g>
			<path style="fill:#263238;" d="M455.31,311.46c0.15,0.9-0.22,1.72-0.82,1.82c-0.6,0.1-1.19-0.56-1.33-1.48
				c-0.14-0.92,0.22-1.72,0.81-1.82C454.56,309.89,455.16,310.55,455.31,311.46z"/>
			<path style="fill:#263238;" d="M445.02,313.12c0.15,0.9-0.22,1.72-0.81,1.82c-0.59,0.1-1.19-0.56-1.34-1.47
				c-0.15-0.92,0.22-1.72,0.81-1.82C444.27,311.55,444.88,312.2,445.02,313.12z"/>
			<path style="fill:#263238;" d="M443.95,311.66l-2.28-0.27C441.67,311.38,443.07,312.9,443.95,311.66z"/>
			<path style="fill:#263238;" d="M454.24,310l-2.28-0.27C451.95,309.72,453.35,311.24,454.24,310z"/>
		</g>
		<path style="fill:#263238;" d="M457.51,324.62c0.56-0.28,1.1-0.61,1.6-0.98c0.15-0.11,0.18-0.31,0.07-0.46c0,0,0-0.01-0.01-0.01
			c-0.11-0.14-0.31-0.18-0.45-0.07c-2.23,1.72-5.13,2.28-7.84,1.52c-0.17-0.07-0.36,0.02-0.43,0.19c-0.07,0.17,0.02,0.36,0.19,0.43
			C452.93,325.93,455.39,325.71,457.51,324.62z"/>
	</g>
	<path style="fill:#263238;" d="M448.5,299.18c-4.38,0.52-16.21,3.89-14.33-7.1c1.88-10.99,22.92-16.49,32.7-9.38
		c9.78,7.1,17.29,6.57,25.06,0.8s11.53-3.48,21.45,1.88c0,0-5.36,9.25-2.81,14.88c0,0-5.9-5.9-16.89,0.4c0,0,12.73-3.38,17.56,5.41
		c0,0-1.34,9.71,3.35,15.49c4.69,5.78-0.13,12.61-18.09,5.64c-17.96-6.97-19.88-0.57-24.01-3.65c-4.14-3.08-7.25-11.41-7.89-17.47
		C464.14,301.72,462.19,297.55,448.5,299.18z"/>
	<path style="fill:#FFC3BD;" d="M474.41,313.13c-0.29,2.18-1.42,4.15-3.16,5.48c-2.32,1.75-4.54-0.07-4.78-2.81
		c-0.22-2.46,0.73-6.35,3.48-7.03c2.02-0.43,4.01,0.86,4.44,2.89C474.49,312.15,474.5,312.65,474.41,313.13z"/>
	<path style="fill:#FFC3BD;" d="M533.58,625.28c0.4,9.42,0.67,16.88,0.67,16.88l-10.45,1.19c0,0-1-6.37-2.51-16.13L533.58,625.28z"
		/>
	<g>
		<path style="fill:#407BFF;" d="M519.16,641.1c-1.3,0.08-2.66-0.07-3.12-0.6c-0.24-0.31-0.26-0.74-0.05-1.08
			c0.16-0.3,0.42-0.52,0.74-0.63c1.71-0.59,5.49,1.26,5.66,1.34c0.09,0.05,0.15,0.15,0.14,0.25c-0.01,0.1-0.09,0.19-0.19,0.22
			C521.3,640.86,520.24,641.02,519.16,641.1z M517.37,639.17c-0.16,0.01-0.32,0.04-0.47,0.09c-0.2,0.05-0.37,0.19-0.46,0.38
			c-0.16,0.32-0.09,0.46-0.01,0.54c0.53,0.65,3.16,0.5,5.09,0.13C520.22,639.68,518.81,639.29,517.37,639.17z"/>
		<path style="fill:#407BFF;" d="M522.3,640.6c-0.03,0.01-0.07,0.01-0.1,0c-1.28-0.47-3.94-2.58-3.79-3.77
			c0.01-0.29,0.2-0.64,0.88-0.76c0.49-0.08,1,0.04,1.41,0.34c1.4,1.01,1.86,3.81,1.88,3.94c0.01,0.09-0.02,0.18-0.1,0.23
			C522.42,640.6,522.36,640.61,522.3,640.6z M519.48,636.53l-0.14,0c-0.44,0.07-0.46,0.25-0.47,0.31c-0.02,0.71,1.74,2.38,3.09,3.06
			c-0.2-1.18-0.76-2.26-1.59-3.12C520.1,636.59,519.79,636.5,519.48,636.53L519.48,636.53z"/>
		<path style="fill:#263238;" d="M523.32,639.07l11.41-0.73c0.43-0.03,0.82,0.25,0.94,0.66l2.65,9.15c0.24,0.81-0.22,1.66-1.03,1.9
			c-0.1,0.03-0.21,0.05-0.32,0.06c-4.12,0.19-7.79,0.2-12.91,0.53c-6.04,0.39-4.46,1.01-11.56,1.57c-4.28,0.33-5.37-4.48-3.57-4.84
			c8.24-1.58,8.94-4.14,11.95-7.32C521.55,639.44,522.41,639.09,523.32,639.07z"/>
	</g>
	<path style="fill:#263238;" d="M527.22,403.12l-1.99-7.14c-0.24-0.87-1.22-1.31-2.03-0.9l-44.57,22.48
		c-0.78,0.39-1.03,1.38-0.54,2.1l4.52,6.56c0,0,11.06,75.37,15.65,100.42c4.68,25.54,21.45,101.93,21.45,101.93
		c0.11,0.57,0.65,0.94,1.22,0.85l12.98-2.11c0.51-0.08,0.88-0.51,0.9-1.02c0.15-6.51,0.05-47.67-4.1-76.79
		c-1.48-10.4-4.98-18.74-6.17-24.47c-1.31-6.32,0.72-10.56,1.52-25.79C527.57,470.58,529.37,425.39,527.22,403.12z"/>
	<path style="opacity:0.5;" d="M526.06,499.25c0.5-9.59,1.04-21.02,1.45-32.83l-12.92-21.81l-5.77-12.87l-5.45,7.41
		c0,0,9.63,40.53,22.28,65.99C525.8,503.37,525.95,501.43,526.06,499.25z"/>
	<path style="fill:#FFC3BD;" d="M624.14,589.25c5.43,7.71,8.95,12.77,8.95,12.77l-8.15,6.66c0,0-4.29-4.81-10.84-12.2L624.14,589.25
		z"/>
	<g>
		<path style="fill:#407BFF;" d="M619.23,609.2c-1.05,0.77-2.27,1.38-2.95,1.19c-0.37-0.13-0.62-0.48-0.63-0.88
			c-0.03-0.34,0.07-0.67,0.28-0.93c1.12-1.43,5.3-1.91,5.48-1.94c0.1-0.01,0.2,0.04,0.25,0.14c0.04,0.09,0.03,0.21-0.04,0.28
			C620.89,607.84,620.09,608.56,619.23,609.2z M616.68,608.55c-0.13,0.09-0.25,0.2-0.35,0.33c-0.15,0.15-0.21,0.36-0.19,0.57
			c0.04,0.36,0.18,0.44,0.28,0.47c0.8,0.26,2.93-1.29,4.36-2.65C619.35,607.43,617.95,607.87,616.68,608.55z"/>
		<path style="fill:#407BFF;" d="M621.59,607.08c-0.02,0.03-0.05,0.05-0.09,0.05c-1.34,0.3-4.71-0.04-5.23-1.12
			c-0.15-0.24-0.18-0.65,0.33-1.11c0.37-0.34,0.86-0.51,1.36-0.48c1.72,0.09,3.63,2.2,3.72,2.29c0.06,0.07,0.08,0.16,0.04,0.25
			C621.7,607.02,621.65,607.06,621.59,607.08z M617.02,605.19l-0.12,0.07c-0.34,0.3-0.25,0.46-0.23,0.52
			c0.37,0.61,2.75,1.06,4.25,0.91c-0.8-0.88-1.86-1.5-3.02-1.76C617.58,604.91,617.27,605,617.02,605.19L617.02,605.19z"/>
		<path style="fill:#263238;" d="M621.62,605.25l9.2-6.79c0.35-0.26,0.82-0.24,1.15,0.04l7.18,6.26c0.64,0.55,0.72,1.52,0.16,2.16
			c-0.07,0.08-0.15,0.16-0.24,0.22c-3.36,2.39-6.44,4.38-10.56,7.43c-4.87,3.6-3.2,3.27-8.87,7.57c-3.42,2.59-6.94-0.86-5.62-2.14
			c6.08-5.78,5.28-8.32,6.09-12.62C620.34,606.51,620.87,605.75,621.62,605.25z"/>
	</g>
	<path style="fill:#263238;" d="M494.58,421.29c0,0,34.14,78.69,50.26,102.14c14.32,20.82,68.74,74.12,68.74,74.12
		c0.84,0.9,2.23,0.98,3.17,0.19l7.55-6.42c0.86-0.73,1.06-1.98,0.47-2.95c-4.63-7.56-24.18-38.97-41.31-59.41
		c-6.83-8.16-13.41-14.13-16.65-18.62c-4.26-5.93-3.26-10.7-6.64-27.18c-6.27-30.65-18.49-75.72-37.06-82.93L494.58,421.29z"/>
</g>
<g>
	<g>
		<g>
			<path style="opacity:0.3;fill:#407BFF;" d="M428.69,643.6H289.65c-9.62,0-16.74-7.8-15.9-17.42L304.3,277
				c0.84-9.62,9.32-17.42,18.95-17.42h139.04c9.62,0,16.74,7.8,15.9,17.42l-30.55,349.18C446.79,635.8,438.31,643.6,428.69,643.6z"
				/>
			<g>
				<path style="fill:#407BFF;" d="M462.29,259.58H323.24c-9.62,0-18.1,7.8-18.95,17.42l-30.55,349.18
					c-0.84,9.62,6.28,17.42,15.9,17.42h139.04c9.62,0,18.1-7.8,18.95-17.42L478.18,277C479.03,267.38,471.91,259.58,462.29,259.58z
					 M439.9,626.18c-0.47,5.34-5.19,9.69-10.54,9.69H290.32c-5.34,0-9.31-4.35-8.84-9.69L312.03,277c0.47-5.34,5.19-9.69,10.54-9.69
					h139.04c5.34,0,9.31,4.35,8.84,9.69L439.9,626.18z"/>
				<path style="opacity:0.6;fill:#FFFFFF;" d="M462.29,259.58H323.24c-9.62,0-18.1,7.8-18.95,17.42l-30.55,349.18
					c-0.84,9.62,6.28,17.42,15.9,17.42h139.04c9.62,0,18.1-7.8,18.95-17.42L478.18,277C479.03,267.38,471.91,259.58,462.29,259.58z
					 M439.9,626.18c-0.47,5.34-5.19,9.69-10.54,9.69H290.32c-5.34,0-9.31-4.35-8.84-9.69L312.03,277c0.47-5.34,5.19-9.69,10.54-9.69
					h139.04c5.34,0,9.31,4.35,8.84,9.69L439.9,626.18z"/>
			</g>
			<path style="fill:#FFFFFF;" d="M380.04,622.03c-0.83,0-37.42,0-38.24,0c-1.18,0-2.23,0.96-2.33,2.15
				c-0.1,1.18,0.77,2.15,1.96,2.15c0.84,0,37.4,0,38.24,0c1.18,0,2.23-0.96,2.33-2.15C382.1,622.99,381.23,622.03,380.04,622.03z"/>
		</g>
		<g>
			<g>
				<path style="opacity:0.1;" d="M379.11,421.98h-40.55c-5.62,0-9.77-4.55-9.28-10.17l3.55-40.55c0.49-5.62,5.44-10.17,11.06-10.17
					h40.55c5.62,0,9.77,4.55,9.28,10.17l-3.55,40.55C389.67,417.42,384.72,421.98,379.11,421.98z"/>
				<path style="fill:#407BFF;" d="M374.69,417.56h-40.55c-5.62,0-9.77-4.55-9.28-10.17l3.55-40.55
					c0.49-5.62,5.44-10.17,11.06-10.17h40.55c5.62,0,9.77,4.55,9.28,10.17l-3.55,40.55C385.26,413,380.3,417.56,374.69,417.56z"/>
				<path style="fill:#FFFFFF;" d="M363.89,383.43c0.69-7.86-5.97-14.22-14.88-14.22s-16.68,6.37-17.36,14.22
					c-0.54,6.21,3.51,11.48,9.63,13.42c-1.01,1.81-2.42,3.17-3.86,3.82c0.3,0.17,0.6,0.33,0.93,0.46c3.25,1.18,7-0.39,8.81-3.49
					C355.79,397.33,363.22,391.1,363.89,383.43z"/>
				<path style="fill:#FFFFFF;" d="M382.55,390.25c0.57-6.48-4.93-11.74-12.28-11.74c-1.32,0-2.6,0.17-3.83,0.49
					c0.3,1.42,0.42,2.9,0.28,4.44c-0.49,5.62-3.92,10.59-8.85,13.69c2.01,2.72,5.38,4.57,9.4,4.82c0.9,2.44,3.57,3.68,6.22,2.78
					c0.27-0.09,0.52-0.22,0.76-0.34c-0.99-0.48-1.85-1.51-2.37-2.85C377.6,400.13,382.08,395.62,382.55,390.25z"/>
			</g>
			<g>
				<path style="opacity:0.1;" d="M360.52,547.51h-30.16c-4.18,0-7.27-3.39-6.9-7.56l2.64-30.16c0.37-4.18,4.05-7.56,8.23-7.56
					h30.16c4.18,0,7.27,3.39,6.9,7.56l-2.64,30.16C368.38,544.13,364.69,547.51,360.52,547.51z"/>
				<path style="opacity:0.1;" d="M404.76,488.82h-37.7c-5.22,0-9.08-4.23-8.63-9.46l3.3-37.7c0.46-5.22,5.06-9.46,10.28-9.46h37.7
					c5.22,0,9.08,4.23,8.63,9.46l-3.3,37.7C414.58,484.59,409.98,488.82,404.76,488.82z"/>
				<path style="fill:#407BFF;" d="M400.34,484.4h-37.7c-5.22,0-9.08-4.23-8.63-9.46l3.3-37.7c0.46-5.22,5.06-9.46,10.28-9.46h37.7
					c5.22,0,9.08,4.23,8.63,9.46l-3.3,37.7C410.16,480.17,405.56,484.4,400.34,484.4z"/>
				<path style="fill:#407BFF;" d="M356.1,543.09h-30.16c-4.18,0-7.27-3.39-6.9-7.56l2.64-30.16c0.37-4.18,4.05-7.56,8.23-7.56
					h30.16c4.18,0,7.27,3.39,6.9,7.56l-2.64,30.16C363.96,539.71,360.28,543.09,356.1,543.09z"/>
				<path style="fill:#FFFFFF;" d="M402.81,440.55h-34.98c-2.21,0-4.17,1.8-4.36,4.01l-2.02,23.07c-0.19,2.21,1.45,4.01,3.66,4.01
					h34.98c2.21,0,4.17-1.8,4.36-4.01l2.02-23.07C406.66,442.35,405.02,440.55,402.81,440.55z M376.02,456.08l-11.71,10.77
					l1.88-21.54L376.02,456.08z M368.34,443.34h33.49l-16.93,15.57c-0.7,0.65-1.76,0.65-2.35,0L368.34,443.34z M377.82,458.04
					l2.58,2.83c0.79,0.87,1.89,1.3,3.03,1.3c1.14,0,2.31-0.43,3.26-1.3l3.08-2.83l9.87,10.81h-33.58L377.82,458.04z M391.91,456.08
					l11.71-10.77l-1.88,21.54L391.91,456.08z"/>
				<g>
					<g>
						<polygon style="fill:#FFFFFF;" points="329.17,512.33 338,515.93 347.72,509.26 340.42,517.91 345.79,525.49 354.28,504.39 
													"/>
						<polygon style="fill:#FFFFFF;" points="337.39,517.93 341.38,522.79 337.14,522.79 						"/>
					</g>
					<g>
						<g>
							<path style="fill:#FFFFFF;" d="M333.88,524.28l-0.93-0.6c0.48-0.75,0.89-1.23,0.91-1.25l0.84,0.72
								C334.69,523.16,334.31,523.6,333.88,524.28z"/>
						</g>
						<g>
							<path style="fill:#FFFFFF;" d="M333.44,531.54c-0.99-0.59-1.63-1.39-1.9-2.36l1.06-0.3c0.2,0.7,0.66,1.26,1.41,1.71
								L333.44,531.54z M332.51,527.75l-1.1-0.09c0.07-0.84,0.35-1.77,0.84-2.75l0.99,0.49
								C332.81,526.25,332.57,527.04,332.51,527.75z"/>
						</g>
						<g>
							<path style="fill:#FFFFFF;" d="M355.71,535.39l-1.09-0.19c0.05-0.29,0.08-0.56,0.08-0.8c0-0.56-0.13-0.99-0.4-1.32l0.85-0.7
								c0.43,0.52,0.65,1.2,0.65,2.02C355.8,534.71,355.77,535.03,355.71,535.39z M340.05,532.85c-0.39,0-0.77-0.01-1.15-0.02
								l0.05-1.1c0.86,0.04,1.75,0.03,2.64-0.01l0.05,1.1C341.1,532.83,340.57,532.85,340.05,532.85z M342.99,532.73l-0.08-1.1
								c0.9-0.06,1.79-0.15,2.66-0.23l0.11,1.1C344.8,532.58,343.9,532.67,342.99,532.73z M337.52,532.72
								c-0.15-0.02-0.31-0.04-0.46-0.06c-0.85-0.12-1.62-0.29-2.29-0.52l0.36-1.04c0.6,0.2,1.3,0.36,2.08,0.47l0.43,0.05
								L337.52,532.72z M353.43,532.5c-0.59-0.23-1.39-0.35-2.45-0.36l0.02-1.1c1.19,0.02,2.12,0.16,2.84,0.44L353.43,532.5z
								 M347.02,532.37l-0.11-1.1c0.95-0.09,1.86-0.17,2.71-0.21l0.05,1.1C348.84,532.2,347.95,532.28,347.02,532.37z"/>
						</g>
						<g>
							<path style="fill:#FFFFFF;" d="M354.79,538.23l-1.01-0.44c0.21-0.48,0.38-0.92,0.52-1.33l1.05,0.35
								C355.2,537.24,355.01,537.72,354.79,538.23z"/>
						</g>
					</g>
				</g>
			</g>
		</g>
		<g>
			<path style="opacity:0.1;" d="M395.68,352.87h-33.93c-4.7,0-8.18-3.81-7.76-8.51l2.97-33.93c0.41-4.7,4.55-8.51,9.25-8.51h33.93
				c4.7,0,8.18,3.81,7.76,8.51l-2.97,33.93C404.52,349.06,400.37,352.87,395.68,352.87z"/>
			<path style="fill:#407BFF;" d="M391.26,348.45h-33.93c-4.7,0-8.18-3.81-7.76-8.51l2.97-33.93c0.41-4.7,4.55-8.51,9.25-8.51h33.93
				c4.7,0,8.18,3.81,7.76,8.51l-2.97,33.93C400.1,344.64,395.96,348.45,391.26,348.45z"/>
			<path style="fill:#FFFFFF;" d="M393.07,329.89c-0.62-12.48-9.63-22.36-21.96-24.07c-3.3-1.78-7.69-0.85-10.33,2.39
				c-2.91,3.57-0.34,5.85,3.01,8.45c3.35,2.6,6.2,4.53,9.11,0.96c1.14-1.4,1.76-3.01,1.92-4.62c5.53,2.27,9.69,6.83,11.45,12.55
				c-1.61,0.02-3.26,0.5-4.75,1.51c-3.8,2.6-2.13,5.62,0.15,9.2c2.29,3.58,4.32,6.35,8.12,3.75
				C393.24,337.65,394.55,333.34,393.07,329.89z"/>
		</g>
	</g>
	<g>
		<g>
			<path style="fill:#407BFF;" d="M378.92,253.72c7.7,0,15.4,0,23.1,0c1.14,0,1.29-1.77,0.15-1.77c-7.7,0-15.4,0-23.1,0
				C377.93,251.95,377.78,253.72,378.92,253.72L378.92,253.72z"/>
		</g>
		<g>
			<path style="fill:#407BFF;" d="M410.48,253.72c2.21,0,4.42,0,6.64,0c1.14,0,1.29-1.77,0.15-1.77c-2.21,0-4.42,0-6.64,0
				C409.49,251.95,409.34,253.72,410.48,253.72L410.48,253.72z"/>
		</g>
		<g style="opacity:0.3;">
			<path style="fill:#FFFFFF;" d="M378.92,253.72c7.7,0,15.4,0,23.1,0c1.14,0,1.29-1.77,0.15-1.77c-7.7,0-15.4,0-23.1,0
				C377.93,251.95,377.78,253.72,378.92,253.72L378.92,253.72z"/>
		</g>
		<g style="opacity:0.3;">
			<path style="fill:#FFFFFF;" d="M410.48,253.72c2.21,0,4.42,0,6.64,0c1.14,0,1.29-1.77,0.15-1.77c-2.21,0-4.42,0-6.64,0
				C409.49,251.95,409.34,253.72,410.48,253.72L410.48,253.72z"/>
		</g>
	</g>
	<g>
		<g>
			<path style="fill:#407BFF;" d="M455.03,432.41c-0.67,7.7-1.35,15.4-2.02,23.1c-0.1,1.14,1.65,1.29,1.75,0.15
				c0.67-7.7,1.35-15.4,2.02-23.1C456.89,431.43,455.13,431.27,455.03,432.41L455.03,432.41z"/>
		</g>
		<g>
			<path style="fill:#407BFF;" d="M452.27,463.98c-0.19,2.21-0.39,4.42-0.58,6.64c-0.1,1.14,1.65,1.29,1.75,0.15
				c0.19-2.21,0.39-4.42,0.58-6.64C454.13,462.99,452.37,462.84,452.27,463.98L452.27,463.98z"/>
		</g>
		<g style="opacity:0.3;">
			<path style="fill:#FFFFFF;" d="M455.03,432.41c-0.67,7.7-1.35,15.4-2.02,23.1c-0.1,1.14,1.65,1.29,1.75,0.15
				c0.67-7.7,1.35-15.4,2.02-23.1C456.89,431.43,455.13,431.27,455.03,432.41L455.03,432.41z"/>
		</g>
		<g style="opacity:0.3;">
			<path style="fill:#FFFFFF;" d="M452.27,463.98c-0.19,2.21-0.39,4.42-0.58,6.64c-0.1,1.14,1.65,1.29,1.75,0.15
				c0.19-2.21,0.39-4.42,0.58-6.64C454.13,462.99,452.37,462.84,452.27,463.98L452.27,463.98z"/>
		</g>
	</g>
</g>
<g>
	<path style="fill:#263238;" d="M250.51,329.63c0,0-8.55-1.17-7.52,3.27C243.75,336.16,246.62,329.77,250.51,329.63z"/>
	<g>
		<path style="fill:#FF8B7B;" d="M243.08,339.73c0,0,7.04-0.07,8.13-12.9c0,0,6.71-2.34,10.53,1.84c3.82,4.18-4.95,12.29-0.11,16.5
			C261.63,345.17,256.79,347.8,243.08,339.73z"/>
		<path style="fill:#263238;" d="M269.14,294.41c0,0,9.07-1.95,11.43,4.73c2.36,6.67-13.43,3.74-13.43,3.74L269.14,294.41z"/>
		<path style="opacity:0.3;" d="M269.14,294.41c0,0,9.07-1.95,11.43,4.73c2.36,6.67-13.43,3.74-13.43,3.74L269.14,294.41z"/>
		
			<ellipse transform="matrix(-0.986 -0.167 0.167 -0.986 499.2691 664.4006)" style="fill:#263238;" cx="277.57" cy="311.21" rx="1.02" ry="1.57"/>
		<path style="fill:#FF5652;" d="M277,312.65l3.97,6.41c0,0-2.13,1.53-5.07,0.44L277,312.65z"/>
		<path style="fill:#FF8B7B;" d="M247,306.92c-0.49,10.91-0.94,15.53,3.94,21.68c7.76,6.56,20.87,7.48,24.62-3.07
			c3.37-9.5,3.61-25.71-6.54-31.22c-7.24-3.93-16.29-1.24-20.22,6C247.69,302.34,247.07,304.6,247,306.92z"/>
		<path style="fill:#263238;" d="M275.19,308.35c0.16,0.06,0.34,0.04,0.48-0.06c1.02-0.78,2.36-1.03,3.6-0.65
			c0.26,0.1,0.55-0.03,0.65-0.29c0.1-0.26-0.03-0.55-0.29-0.66c-1.55-0.5-3.25-0.21-4.55,0.77c-0.23,0.15-0.3,0.45-0.15,0.68
			c0,0.01,0.01,0.01,0.01,0.02C275,308.25,275.09,308.32,275.19,308.35z"/>
		<g>
			<path style="fill:#263238;" d="M238.12,341.94c0,0,3.04-8.38,15.6-3.04c12.56,5.34,13.75,12.71,13.75,12.71L238.12,341.94z"/>
			<path style="opacity:0.4;" d="M238.12,341.94c0,0,3.04-8.38,15.6-3.04c12.56,5.34,13.75,12.71,13.75,12.71L238.12,341.94z"/>
		</g>
		<path style="fill:#FF8B7B;" d="M243.77,500.8c0,0-1.79,15.27-2.64,20.32c-0.76,4.48-25.02,120.36-25.02,120.36l-11.07-1.83
			c0,0-1.22-58.73,7.29-97.6c1.74-7.96,5.27-14.62,6.55-20.7c1.03-4.88-0.52-19.96-0.52-19.96L243.77,500.8z"/>
		<path style="fill:#FF8B7B;" d="M197.7,498.31c0,0-5.14,13.99-7.54,18.32c-2.61,4.71-12.51,17.54-12.51,17.54l-52.74,73.98
			l-10.09-6.38c0,0,15.22-40.74,38.13-73.91c5.46-7.91,13.33-13.93,17.6-21.78c2.46-4.52,4.56-20.07,4.56-20.07L197.7,498.31z"/>
		<path style="fill:#FF8B7B;" d="M211.84,356.66c0,0-12.62,16.1-11.55,22.87c1.07,6.77,20.86,15,20.86,15l5.02-7.14l-13-9.49
			l12.37-14.18L211.84,356.66z"/>
		<path style="fill:#263238;" d="M232.71,340.54c-1.59-0.74-8.57-3.55-23.68,16.08c0,0,5.5,6.85,17.27,10.93
			C226.31,367.54,239.56,343.74,232.71,340.54z"/>
		<path style="opacity:0.4;" d="M226.31,367.54c0,0,2.2-3.95,4.34-8.85c-0.36-8.41-1.39-18.86-4.34-15.1
			c-3.91,4.98-9.34,15.01-11.11,18.37C217.94,363.86,221.62,365.92,226.31,367.54z"/>
		<path style="fill:#407BFF;" d="M214.42,405.74c0,0,20.28,12,46.98,13.52l-17.02,94.88c0,0-49.11-0.15-74.79-24.55
			C169.59,489.59,179.82,437.89,214.42,405.74z"/>
		<path style="fill:#263238;" d="M212.33,406c0,0,19.67,14.5,50.99,13.5c0,0,17.99-49.76,6.71-66.59
			c-6.97-10.4-33.71-15.11-40.92-12.15C220.44,344.34,225.46,375.54,212.33,406z"/>
		<path style="opacity:0.1;" d="M217.05,457.12l-21.87,47.82c8.92,3.51,18.3,5.31,23.57,6.47
			C218.74,511.42,219.48,466.74,217.05,457.12z"/>
		<path style="opacity:0.4;" d="M261.79,361.06l-3.48,2.56c0,0,3,12.58,12.97,27.1c1.42-7.04,2.45-14.44,2.46-21.12l-7.75-6.57
			L261.79,361.06z"/>
		<path style="fill:#FF8B7B;" d="M281.5,368.26l11.79,16.42l29.61,1.95l5.44-4.52c0.37-0.3,0.82-0.49,1.29-0.53l15.81-1.25
			c0.49-0.04,0.89,0.36,0.86,0.85l-0.09,1.35c-0.03,0.4-0.34,0.71-0.73,0.74l-7.49,0.59l-1.52,7.68c-0.17,0.88-0.84,1.58-1.7,1.8
			l-5.87,1.51c-0.38,0.1-0.77,0.1-1.15,0l-4.15-1.05c0,0-23.08,4.66-33.68,2.79c-10.6-1.87-21.04-19.11-21.04-19.11L281.5,368.26z"
			/>
		<path style="fill:#263238;" d="M267.86,380.72c0,0-18.98-25.37-7.27-31.27c11.71-5.9,24.02,20.18,24.02,20.18
			S279.8,377,267.86,380.72z"/>
		<g>
			<path style="fill:#407BFF;" d="M218.51,640.82c-0.12-0.03-0.21-0.13-0.22-0.25c-0.02-0.12,0.04-0.24,0.15-0.3
				c0.19-0.1,4.54-2.37,6.55-1.74c0.38,0.11,0.69,0.37,0.88,0.71c0.26,0.38,0.25,0.89-0.02,1.26c-0.53,0.63-2.1,0.85-3.62,0.8
				C220.98,641.25,219.73,641.09,218.51,640.82z M219.46,640.46c2.26,0.37,5.34,0.46,5.93-0.31c0.09-0.1,0.17-0.27-0.03-0.63
				c-0.11-0.22-0.31-0.38-0.55-0.43c-0.18-0.06-0.36-0.09-0.55-0.09C222.58,639.18,220.95,639.68,219.46,640.46z"/>
			<path style="fill:#407BFF;" d="M218.36,640.79c-0.09-0.06-0.13-0.16-0.12-0.27c0.02-0.15,0.47-3.43,2.07-4.65
				c0.46-0.36,1.05-0.52,1.63-0.43c0.79,0.11,1.03,0.52,1.04,0.85c0.21,1.38-2.82,3.92-4.3,4.51c-0.04,0.02-0.08,0.02-0.12,0.01
				C218.49,640.83,218.42,640.82,218.36,640.79z M221.72,635.98c-0.37-0.02-0.73,0.1-1.01,0.33c-0.95,1.02-1.56,2.3-1.76,3.68
				c1.55-0.84,3.54-2.84,3.5-3.67c-0.02-0.07-0.05-0.29-0.56-0.35L221.72,635.98L221.72,635.98z"/>
			<path style="fill:#263238;" d="M217.33,639.06l-13.32-0.5c-0.5-0.02-0.95,0.31-1.08,0.8l-2.81,10.74
				c-0.26,0.95,0.31,1.93,1.26,2.19c0.12,0.03,0.25,0.05,0.37,0.06c4.8,0.1,9.08-0.01,15.06,0.22c7.05,0.27,5.23,1.04,13.52,1.47
				c4.99,0.25,6.12-5.39,4.01-5.75c-9.65-1.58-10.55-4.55-14.16-8.16C219.4,639.44,218.38,639.06,217.33,639.06z"/>
		</g>
		<g>
			<path style="fill:#407BFF;" d="M126.57,608.89c-0.09-0.08-0.13-0.21-0.09-0.32c0.04-0.12,0.15-0.19,0.27-0.2
				c0.22,0,5.12-0.07,6.63,1.41c0.28,0.27,0.45,0.64,0.47,1.03c0.06,0.46-0.18,0.9-0.59,1.11c-0.76,0.33-2.26-0.19-3.59-0.92
				C128.57,610.39,127.54,609.68,126.57,608.89z M127.57,609.01c1.85,1.35,4.56,2.82,5.44,2.4c0.12-0.05,0.27-0.16,0.26-0.58
				c0-0.24-0.11-0.48-0.3-0.63c-0.13-0.13-0.28-0.24-0.45-0.33C130.94,609.27,129.26,608.98,127.57,609.01z"/>
			<path style="fill:#407BFF;" d="M126.44,608.8c-0.05-0.09-0.04-0.2,0.01-0.29c0.09-0.13,1.97-2.85,3.95-3.22
				c0.57-0.11,1.17,0.01,1.65,0.35c0.66,0.46,0.68,0.93,0.55,1.23c-0.44,1.33-4.28,2.22-5.88,2.08c-0.04,0-0.08-0.02-0.11-0.05
				C126.54,608.9,126.48,608.86,126.44,608.8z M131.61,606.03c-0.32-0.18-0.69-0.24-1.05-0.17c-1.31,0.48-2.43,1.35-3.23,2.49
				c1.76-0.05,4.44-0.93,4.78-1.69c0.02-0.08,0.09-0.28-0.35-0.57L131.61,606.03L131.61,606.03z"/>
			<path style="fill:#263238;" d="M126.3,606.79l-11.66-6.45c-0.44-0.24-0.99-0.15-1.32,0.23l-7.35,8.32
				c-0.66,0.73-0.6,1.86,0.14,2.52c0.09,0.08,0.2,0.16,0.31,0.22c4.24,2.25,8.11,4.09,13.34,6.99c6.17,3.42,4.2,3.29,11.4,7.41
				c4.34,2.48,7.89-2.05,6.17-3.32c-7.9-5.76-7.36-8.81-8.96-13.66C127.98,608.06,127.24,607.26,126.3,606.79z"/>
		</g>
		<path style="fill:#263238;" d="M265.39,316.3c0,0,4.48-1.4,2.79-7.89c0,0,2.61-4.37,2.19-6.76c0,0,13.23-7.64,5.69-16.03
			c-7.53-8.39-21.32-2.77-27.4,7.94c0,0-32.34,10.51-9.83,30.28C260.81,343.14,265.39,316.3,265.39,316.3z"/>
		<path style="fill:#263238;" d="M252.1,298.04c0,0-5.04-11.1,2.53-19.47C262.21,270.2,249.61,290.38,252.1,298.04z"/>
		<path style="fill:#407BFF;" d="M265.39,316.3c0,0,0.14-0.05,0.36-0.15c-0.06-8.3-3.2-18.26-15.45-25.07
			c-0.58,0.79-1.14,1.61-1.63,2.48c0,0-0.93,0.31-2.35,0.9c4.24,4.51,15.88,19.43,2.79,35.74
			C262.31,334.31,265.39,316.3,265.39,316.3z"/>
		<path style="fill:#FF8B7B;" d="M265.97,312.41c1.51,1.65,2.3,3.82,2.2,6.05c-0.16,2.96-3.04,3.51-5.35,1.92
			c-2.09-1.44-4.49-4.71-3.2-7.31C260.91,310.47,264.1,310.42,265.97,312.41z"/>
		<path style="fill:#263238;" d="M277.62,309.69l2.4-0.12C280.02,309.56,278.45,311.05,277.62,309.69z"/>
		<path style="opacity:0.2;" d="M255.78,331.66c0.61,1.26,2.18,3.89,5.31,5.84c0.48-1.38,1.02-2.77,1.34-4.08
			C260.2,333.24,257.93,332.64,255.78,331.66z"/>
	</g>
</g>
</svg>
