<?xml version="1.0" encoding="utf-8"?>
<!-- Generator: Adobe Illustrator 17.0.0, SVG Export Plug-In . SVG Version: 6.00 Build 0)  -->
<!DOCTYPE svg PUBLIC "-//W3C//DTD SVG 1.1//EN" "http://www.w3.org/Graphics/SVG/1.1/DTD/svg11.dtd">
<svg version="1.1" id="Layer_5" xmlns="http://www.w3.org/2000/svg" xmlns:xlink="http://www.w3.org/1999/xlink" x="0px" y="0px"
	 width="512px" height="512px" viewBox="0 0 512 512" style="enable-background:new 0 0 512 512;" xml:space="preserve">
<path style="fill:#FFFFFF;" d="M312,216c48.52,0,88-39.48,88-88s-39.48-88-88-88s-88,39.48-88,88S263.48,216,312,216z M312,56
	c39.7,0,72,32.3,72,72s-32.3,72-72,72s-72-32.3-72-72S272.3,56,312,56z"/>
<path style="fill:#FFFFFF;" d="M272,83.06v89.89L361.89,128L272,83.06z M288,108.94L326.11,128L288,147.06V108.94z"/>
<path style="fill:#FFFFFF;" d="M464,8H160c-22.06,0-40,17.94-40,40v156.07L32.66,251.7c-7.81,4.01-10.91,13.62-6.92,21.45l3.88,7.62
	C26.1,284.99,24,290.29,24,296v42.28C14.18,343.63,8,357.82,8,368c0,13.23,10.77,24,24,24s24-10.77,24-24
	c0-10.18-6.18-24.37-16-29.72V296c0-0.57,0.1-1.12,0.21-1.66c0.66,0.32,1.33,0.66,2.05,0.89c1.59,0.52,3.23,0.78,4.86,0.78
	c2.52,0,5.06-0.62,7.46-1.85l4.62-2.52l14.75,29.62l6.18-1.48c0.18-0.04,0.89-0.22,2.01-0.5c3.59,12.74,11.51,23.5,22.02,30.77
	C71.35,362.84,48,394.71,48,432v72h152v-42.66l0.8,1.06c12.02,16.03,31.17,25.6,51.2,25.6s39.18-9.57,51.2-25.6l26.84-35.79
	c3.84-5.12,5.96-11.47,5.96-17.87v-2.94c0-11.42-6.54-21.25-16-26.25V344h144c22.06,0,40-17.94,40-40V48C504,25.94,486.06,8,464,8z
	 M136,48c0-13.23,10.77-24,24-24h304c13.23,0,24,10.77,24,24v184H170.66l-0.45-0.9l5.13-2.79c7.81-4.01,10.91-13.62,6.92-21.45
	l-7.22-14.16c-1.94-3.81-5.24-6.62-9.3-7.93c-4.06-1.3-8.37-0.94-12.33,1.08l-17.42,9.5V48z M32,376c-4.41,0-8-3.58-8-8
	c0-6.56,5.44-15.65,7.98-16c2.58,0.35,8.02,9.44,8.02,16C40,372.42,36.41,376,32,376z M47.22,280.03l-7.06-14.19l120.64-65.86
	l7.21,14.15L47.22,280.03z M73.26,283.97l82.9-45.2l9.92,19.91c-7.87,6.66-24.52,20.1-39.08,27.74
	c-14.4,7.57-34.47,13.51-44.44,16.22L73.26,283.97z M97.58,314.96c11.04-3.37,25.32-8.32,36.84-14.38
	c11.33-5.95,23.38-14.75,32.46-21.91c5.82,7.1,9.12,16.02,9.12,25.33c0,22.06-17.94,40-40,40C117.84,344,102.38,331.89,97.58,314.96
	z M320,408.74c0,2.96-0.98,5.9-2.76,8.28l-26.84,35.79C281.38,464.82,267.02,472,252,472s-29.38-7.18-38.4-19.19l-31.2-41.6
	l-12.8,9.59L184,440v48H64v-56c0-39.7,32.3-72,72-72h9.43c26.55,0,51.5,12.98,66.71,34.74L243.83,440h15.91l35.86-43.03
	c2.63-3.15,6.5-4.97,10.6-4.97c7.61,0,13.79,6.18,13.79,13.79L320,408.74z M304,376.24c-8.02,0.6-15.49,4.24-20.68,10.48L252.26,424
	l-27-38.44c-0.39-0.56-0.86-1.04-1.26-1.58V280h80V376.24z M464,328H320v-32h152v-16H320v-16H208v102.88
	c-10.77-9.02-23.35-15.6-36.9-19.31C183.83,337.3,192,321.59,192,304c0-13.06-4.62-25.55-12.79-35.5c1.19-1.04,1.98-1.73,2.14-1.87
	l4.54-4.06L178.62,248H488v56C488,317.23,477.23,328,464,328z"/>
<path style="fill:#FFFFFF;" d="M240,328h48v16h-48V328z"/>
<path style="fill:#FFFFFF;" d="M240,360h32v16h-32V360z"/>
<path style="fill:#FFFFFF;" d="M240,296h48v16h-48V296z"/>
<path style="fill:#FFFFFF;" d="M152,104h16v16h-16V104z"/>
<path style="fill:#FFFFFF;" d="M456,200h16v16h-16V200z"/>
<path style="fill:#FFFFFF;" d="M456,168h16v16h-16V168z"/>
<path style="fill:#FFFFFF;" d="M456,136h16v16h-16V136z"/>
<path style="fill:#FFFFFF;" d="M168,56h64V40h-64c-8.82,0-16,7.18-16,16v32h16V56z"/>
</svg>
