<?xml version="1.0" encoding="utf-8"?>
<!-- Generator: Adobe Illustrator 17.0.0, SVG Export Plug-In . SVG Version: 6.00 Build 0)  -->
<!DOCTYPE svg PUBLIC "-//W3C//DTD SVG 1.1//EN" "http://www.w3.org/Graphics/SVG/1.1/DTD/svg11.dtd">
<svg version="1.1" id="Calque_1" xmlns="http://www.w3.org/2000/svg" xmlns:xlink="http://www.w3.org/1999/xlink" x="0px" y="0px"
	 width="750px" height="750px" viewBox="0 0 750 750" style="enable-background:new 0 0 750 750;" xml:space="preserve">
<g>
	<g>
		<g>
			<g>
				<path style="fill:#FFC1B7;" d="M338.99,185.71c0,0,42.07-1.67,70.51,20.01s-50.64,13.34-50.64,13.34L338.99,185.71z"/>
				<polygon style="fill:#FFC1B7;" points="364.11,164.87 358.08,192.79 378.33,198.21 385.65,172.37 				"/>
				<path style="opacity:0.3;fill:#DE7356;" d="M380.94,188.84l4.71-16.47l-21.71-7.5l-4.63,21.25
					C366.49,187.25,373.71,188.08,380.94,188.84z"/>
			</g>
			<g>
				<g>
					<path style="fill:#FFC1B7;" d="M365.42,129.86c0,0,13.63-19.59,33.03-13.75c19.41,5.84,18.99,60.44-3.72,68.77
						C365.18,195.72,344.77,152.78,365.42,129.86z"/>
					<path style="fill:#FFC1B7;" d="M362.73,146.02c0,0-1.73-7.84-8.91-5.22c-7.19,2.61,1.44,16.83,6.9,18.29
						C366.18,160.54,362.73,146.02,362.73,146.02z"/>
				</g>
				<g>
					<path style="fill:#7A8DB5;" d="M388.32,126.58c0,0-3.16,19.16-20.13,19.74c0,0-2.28,9.62-4.87,13.98l-1.46-16.88
						c0,0-6.14-5.04-6.9,2.03c-1.2,11.17,5.75,13.64,5.75,13.64s-0.86,8.71,2.01,13.93c0,0-15.24-14.8-10.64-35.7
						s21.85-29.9,31.63-25.25C393.5,116.71,388.32,126.58,388.32,126.58z"/>
					<path style="fill:#7A8DB5;" d="M379.98,113.81c0,0,2.88,22.64,22.72,30.19l-1.44-4.06c0,0,18.98,9.58,5.75,39.47
						c0,0,18.98-14.22,14.95-35.99S402.99,104.81,379.98,113.81z"/>
					<path style="fill:#7A8DB5;" d="M367.04,114.39c0,0-2.01-9.87-15.53-7.84c-13.51,2.03-23,20.03-16.39,37.73
						c6.61,17.71-10.06,18-10.06,18s15.81,11.9,20.7-5.8c4.89-17.71,4.6-49.92,19.55-40.34"/>
				</g>
			</g>
			<g>
				<g style="opacity:0.7;">
					<path style="fill:#DE7356;" d="M395.94,156.13c0.03,0.59,0.02,1.17,0.02,1.76c0.01,0.59,0,1.17-0.02,1.76
						c-0.03,1.17-0.09,2.34-0.17,3.5c-0.08,1.16-0.17,2.33-0.29,3.49c-0.11,1.16-0.24,2.32-0.39,3.48l-0.04,0.34l-0.3,0.05
						c-0.95,0.17-1.89,0.33-2.85,0.47c-0.47,0.08-0.96,0.12-1.43,0.19c-0.48,0.06-0.96,0.12-1.44,0.16
						c0.45-0.17,0.91-0.32,1.37-0.46c0.46-0.14,0.92-0.31,1.38-0.44c0.92-0.28,1.85-0.53,2.78-0.78l-0.34,0.39
						c0.07-1.17,0.15-2.33,0.25-3.49c0.1-1.16,0.22-2.32,0.36-3.48c0.14-1.16,0.29-2.32,0.47-3.47c0.09-0.58,0.19-1.15,0.3-1.73
						C395.7,157.28,395.8,156.7,395.94,156.13z"/>
				</g>
				<g>
					<path style="fill:#2F3F5C;" d="M388.73,155.39c0,0-0.05,0.21-0.15,0.57c-0.06,0.18-0.08,0.4-0.22,0.64
						c-0.13,0.23-0.25,0.53-0.45,0.8c-0.23,0.24-0.42,0.58-0.75,0.8c-0.16,0.12-0.32,0.24-0.49,0.37c-0.18,0.1-0.39,0.18-0.59,0.28
						c-0.2,0.11-0.42,0.14-0.65,0.19c-0.22,0.05-0.45,0.1-0.69,0.08c-0.47,0.03-0.94-0.08-1.4-0.2l-0.65-0.29
						c-0.2-0.12-0.39-0.26-0.58-0.4c-0.2-0.12-0.34-0.31-0.5-0.47c-0.16-0.16-0.3-0.33-0.41-0.53c-0.11-0.19-0.24-0.36-0.32-0.55
						c-0.07-0.2-0.14-0.39-0.2-0.57c-0.14-0.37-0.14-0.75-0.19-1.07c-0.02-0.33,0.03-0.64,0.05-0.9c0-0.27,0.11-0.49,0.15-0.67
						c0.11-0.36,0.18-0.56,0.18-0.56s0.01,0.21,0.03,0.59c0.02,0.18-0.02,0.4,0.04,0.65c0.05,0.25,0.08,0.52,0.15,0.81
						c0.11,0.28,0.16,0.6,0.33,0.89c0.08,0.15,0.15,0.3,0.23,0.45c0.09,0.14,0.21,0.28,0.31,0.42c0.09,0.15,0.22,0.28,0.36,0.39
						c0.14,0.11,0.25,0.26,0.41,0.35c0.15,0.09,0.3,0.21,0.46,0.29l0.5,0.21c0.35,0.1,0.7,0.2,1.06,0.18c0.18,0.02,0.35,0,0.53-0.03
						c0.17-0.02,0.35-0.03,0.51-0.1c0.16-0.06,0.33-0.11,0.49-0.17c0.15-0.08,0.29-0.16,0.44-0.24c0.3-0.15,0.5-0.4,0.75-0.57
						c0.21-0.21,0.37-0.42,0.55-0.6c0.18-0.18,0.27-0.4,0.38-0.54C388.61,155.56,388.73,155.39,388.73,155.39z"/>
				</g>
				<g>
					<path style="fill:#2F3F5C;" d="M406.82,161.13c0,0-0.05,0.23-0.13,0.64c-0.06,0.2-0.08,0.45-0.2,0.72
						c-0.12,0.27-0.26,0.58-0.43,0.92c-0.23,0.29-0.44,0.65-0.77,0.94c-0.17,0.14-0.35,0.28-0.53,0.43
						c-0.18,0.14-0.42,0.22-0.64,0.33c-0.22,0.12-0.47,0.17-0.72,0.22c-0.25,0.06-0.51,0.11-0.77,0.07
						c-0.53,0.01-1.05-0.14-1.54-0.33c-0.23-0.13-0.47-0.24-0.69-0.39l-0.6-0.5c-0.34-0.38-0.66-0.78-0.85-1.22
						c-0.25-0.42-0.33-0.88-0.44-1.3c-0.08-0.42-0.06-0.83-0.09-1.2c0.04-0.37,0.1-0.7,0.15-0.99c0.04-0.29,0.17-0.52,0.23-0.72
						c0.15-0.39,0.24-0.61,0.24-0.61s-0.01,0.24-0.04,0.65c0,0.2-0.06,0.44-0.04,0.72c0.02,0.27,0.03,0.58,0.05,0.92
						c0.09,0.33,0.13,0.68,0.24,1.04c0.15,0.34,0.26,0.72,0.49,1.04c0.17,0.36,0.48,0.63,0.75,0.94l0.48,0.38
						c0.17,0.11,0.36,0.18,0.54,0.28c0.37,0.15,0.76,0.28,1.15,0.28c0.2,0.03,0.39,0.01,0.58-0.02c0.19-0.02,0.39-0.04,0.56-0.12
						c0.17-0.07,0.36-0.12,0.53-0.21c0.16-0.1,0.32-0.2,0.47-0.29c0.3-0.2,0.53-0.48,0.79-0.69c0.19-0.26,0.38-0.5,0.55-0.72
						c0.17-0.22,0.26-0.46,0.37-0.64C406.7,161.33,406.82,161.13,406.82,161.13z"/>
				</g>
				<g>
					<path style="fill:#2F3F5C;" d="M393.28,147.6c0,0-0.76-0.7-1.96-1.44c-0.29-0.2-0.64-0.35-0.97-0.55
						c-0.36-0.15-0.72-0.34-1.12-0.47c-0.38-0.17-0.81-0.24-1.22-0.36c-0.42-0.11-0.86-0.15-1.29-0.21
						c-0.44-0.01-0.88-0.09-1.32-0.05c-0.44,0.06-0.88-0.01-1.31,0.07c-0.42,0.07-0.85,0.1-1.25,0.15
						c-0.39,0.09-0.77,0.16-1.13,0.22c-0.72,0.1-1.3,0.31-1.74,0.37c-0.43,0.08-0.69,0.12-0.69,0.12s0.18-0.17,0.53-0.46
						c0.17-0.14,0.38-0.31,0.64-0.49c0.25-0.19,0.54-0.39,0.89-0.56c0.34-0.18,0.71-0.38,1.12-0.56c0.42-0.16,0.87-0.3,1.34-0.43
						c0.47-0.14,0.99-0.19,1.51-0.25c0.52-0.06,1.06,0,1.6,0c0.53,0.1,1.07,0.17,1.58,0.33c0.51,0.16,1,0.36,1.44,0.61
						c0.46,0.21,0.83,0.54,1.2,0.8c0.34,0.31,0.66,0.59,0.91,0.91c0.27,0.29,0.46,0.6,0.63,0.86c0.17,0.27,0.29,0.52,0.38,0.72
						C393.23,147.35,393.28,147.6,393.28,147.6z"/>
				</g>
				<g>
					<path style="fill:#2F3F5C;" d="M410.25,153.89c0,0-0.17-0.17-0.44-0.48c-0.13-0.15-0.29-0.36-0.48-0.54
						c-0.2-0.18-0.37-0.39-0.61-0.6c-0.24-0.2-0.47-0.43-0.76-0.61c-0.26-0.21-0.57-0.37-0.87-0.54c-0.32-0.14-0.63-0.31-0.98-0.39
						c-0.34-0.12-0.7-0.18-1.06-0.24c-0.37-0.04-0.74-0.08-1.12-0.07c-0.38-0.01-0.76,0.02-1.13,0.05
						c-0.74,0.07-1.46,0.21-2.09,0.35c-0.32,0.06-0.6,0.15-0.87,0.21c-0.26,0.06-0.5,0.12-0.69,0.18c-0.39,0.1-0.63,0.15-0.63,0.15
						s0.13-0.2,0.4-0.52c0.13-0.16,0.3-0.36,0.52-0.54c0.21-0.19,0.45-0.43,0.75-0.62c0.58-0.43,1.33-0.83,2.22-1.1
						c0.22-0.09,0.46-0.11,0.69-0.17c0.24-0.05,0.48-0.1,0.73-0.11c0.5-0.06,1.01-0.02,1.53,0.03c0.51,0.1,1.03,0.2,1.5,0.43
						c0.24,0.09,0.47,0.2,0.69,0.35c0.21,0.14,0.44,0.25,0.62,0.42c0.38,0.31,0.72,0.64,0.97,1c0.29,0.33,0.45,0.72,0.62,1.04
						c0.18,0.32,0.25,0.68,0.34,0.95c0.1,0.28,0.1,0.53,0.13,0.73C410.25,153.65,410.25,153.89,410.25,153.89z"/>
				</g>
				<g style="opacity:0.7;">
					<path style="fill:#DE7356;" d="M375.15,167.64c0,0,0.23,0.2,0.66,0.51c0.21,0.16,0.45,0.37,0.75,0.57
						c0.3,0.21,0.64,0.44,1,0.71c0.35,0.27,0.78,0.5,1.2,0.8c0.43,0.27,0.86,0.6,1.35,0.86c0.48,0.28,0.99,0.56,1.48,0.86
						c0.49,0.32,1.03,0.55,1.57,0.82c0.53,0.27,1.06,0.54,1.58,0.8c0.53,0.25,1.07,0.45,1.58,0.66c0.51,0.22,1.01,0.43,1.48,0.63
						c0.46,0.23,0.93,0.34,1.36,0.49c0.85,0.27,1.55,0.55,2.05,0.72c0.5,0.18,0.78,0.3,0.78,0.3s-0.3-0.03-0.82-0.1
						c-0.52-0.08-1.28-0.18-2.17-0.34c-0.45-0.09-0.95-0.14-1.44-0.33c-0.5-0.16-1.02-0.33-1.56-0.51c-0.54-0.2-1.11-0.35-1.66-0.6
						c-0.54-0.26-1.09-0.53-1.64-0.79c-0.54-0.28-1.1-0.53-1.6-0.88c-0.51-0.32-1-0.65-1.48-0.96c-0.49-0.29-0.9-0.68-1.31-1
						c-0.4-0.33-0.8-0.63-1.12-0.96c-0.33-0.32-0.62-0.62-0.88-0.88c-0.26-0.26-0.46-0.52-0.64-0.72
						C375.32,167.89,375.15,167.64,375.15,167.64z"/>
				</g>
			</g>
		</g>
		<g>
			<path style="fill:#88D2D0;" d="M415.53,209.48c-2.16-3.23-4.78-6.07-7.73-8.56c-12.21,6.83-26.41,6.86-39.81,2.6
				c-9.32-2.97-22.46-7.91-26.45-18.3c-3.89,0.34-7.31,0.84-10.03,1.45c-26.15,5.81-29.28,84.32-29.28,84.32
				s98.36,55.68,109.46-2.34C415.95,246.43,423.65,221.61,415.53,209.48z"/>
			<path style="opacity:0.1;fill:#2F3F5C;" d="M395.33,250.96c-9.74-1.63-19.34-3.56-28.65-7.06c-8.62-3.23-17.76-6.91-25.17-12.65
				c-4.53-3.51-8.75-7.42-13.31-10.82c-1.66,1.72-4.52,2.07-5.77-0.74c-2.1-4.73-5.3-8.42-9.01-11.59
				c-9.66,25.08-11.18,62.89-11.18,62.89s98.36,55.68,109.46-2.34c1.08-5.63,2.38-11.43,3.59-17.15
				C408.7,252.56,401.95,252.06,395.33,250.96z"/>
		</g>
	</g>
	<g>
		<g>
			<path style="fill:#FFFFFF;" d="M571.59,559.63c0,8.78-7.05,15.9-15.76,15.9H198.73c-8.7,0-15.75-7.12-15.75-15.9V280.79
				c0-8.78,7.05-15.9,15.75-15.9h357.11c8.7,0,15.76,7.12,15.76,15.9V559.63z"/>
			<path style="fill:#DE7356;" d="M571.59,318.95v-38.17c0-8.78-7.05-15.9-15.76-15.9H198.73c-8.7,0-15.75,7.12-15.75,15.9v38.17
				H571.59z"/>
			<ellipse style="fill:#2F3F5C;" cx="230.76" cy="288.74" rx="11.03" ry="11.13"/>
			<path style="fill:#7A8DB5;" d="M236.54,289.27c0,3.51-2.82,6.36-6.3,6.36l0,0c-3.48,0-6.3-2.85-6.3-6.36v-30.73
				c0-3.51,2.82-6.36,6.3-6.36l0,0c3.48,0,6.3,2.85,6.3,6.36V289.27z"/>
			<ellipse style="fill:#2F3F5C;" cx="325.29" cy="288.74" rx="11.03" ry="11.13"/>
			<ellipse style="fill:#2F3F5C;" cx="419.82" cy="288.74" rx="11.03" ry="11.13"/>
			<ellipse style="fill:#2F3F5C;" cx="514.35" cy="288.74" rx="11.03" ry="11.13"/>
			<path style="fill:#7A8DB5;" d="M331.07,289.27c0,3.51-2.82,6.36-6.3,6.36l0,0c-3.48,0-6.3-2.85-6.3-6.36v-30.73
				c0-3.51,2.82-6.36,6.3-6.36l0,0c3.48,0,6.3,2.85,6.3,6.36V289.27z"/>
			<path style="fill:#7A8DB5;" d="M425.6,289.27c0,3.51-2.82,6.36-6.3,6.36l0,0c-3.48,0-6.3-2.85-6.3-6.36v-30.73
				c0-3.51,2.82-6.36,6.3-6.36l0,0c3.48,0,6.3,2.85,6.3,6.36V289.27z"/>
			<path style="fill:#7A8DB5;" d="M520.13,289.27c0,3.51-2.82,6.36-6.3,6.36l0,0c-3.48,0-6.3-2.85-6.3-6.36v-30.73
				c0-3.51,2.82-6.36,6.3-6.36l0,0c3.48,0,6.3,2.85,6.3,6.36V289.27z"/>
		</g>
		<g style="opacity:0.3;">
			
				<rect x="197.68" y="332.74" style="fill:none;stroke:#7A8DB5;stroke-width:2.7396;stroke-linecap:round;stroke-linejoin:round;stroke-miterlimit:10;" width="358.16" height="221.59"/>
			
				<line style="fill:none;stroke:#7A8DB5;stroke-width:2.7396;stroke-linecap:round;stroke-linejoin:round;stroke-miterlimit:10;" x1="247.94" y1="332.74" x2="247.94" y2="552.2"/>
			
				<line style="fill:none;stroke:#7A8DB5;stroke-width:2.7396;stroke-linecap:round;stroke-linejoin:round;stroke-miterlimit:10;" x1="299.26" y1="332.74" x2="299.26" y2="552.2"/>
			
				<line style="fill:none;stroke:#7A8DB5;stroke-width:2.7396;stroke-linecap:round;stroke-linejoin:round;stroke-miterlimit:10;" x1="350.57" y1="332.74" x2="350.57" y2="552.2"/>
			
				<line style="fill:none;stroke:#7A8DB5;stroke-width:2.7396;stroke-linecap:round;stroke-linejoin:round;stroke-miterlimit:10;" x1="401.89" y1="332.74" x2="401.89" y2="552.2"/>
			
				<line style="fill:none;stroke:#7A8DB5;stroke-width:2.7396;stroke-linecap:round;stroke-linejoin:round;stroke-miterlimit:10;" x1="453.21" y1="332.74" x2="453.21" y2="552.2"/>
			
				<line style="fill:none;stroke:#7A8DB5;stroke-width:2.7396;stroke-linecap:round;stroke-linejoin:round;stroke-miterlimit:10;" x1="504.52" y1="332.74" x2="504.52" y2="552.2"/>
			
				<line style="fill:none;stroke:#7A8DB5;stroke-width:2.7396;stroke-linecap:round;stroke-linejoin:round;stroke-miterlimit:10;" x1="197.68" y1="373.02" x2="554.79" y2="373.02"/>
			
				<line style="fill:none;stroke:#7A8DB5;stroke-width:2.7396;stroke-linecap:round;stroke-linejoin:round;stroke-miterlimit:10;" x1="197.68" y1="419.32" x2="554.79" y2="419.32"/>
			
				<line style="fill:none;stroke:#7A8DB5;stroke-width:2.7396;stroke-linecap:round;stroke-linejoin:round;stroke-miterlimit:10;" x1="197.68" y1="465.62" x2="554.79" y2="465.62"/>
			
				<line style="fill:none;stroke:#7A8DB5;stroke-width:2.7396;stroke-linecap:round;stroke-linejoin:round;stroke-miterlimit:10;" x1="197.68" y1="511.91" x2="554.79" y2="511.91"/>
		</g>
		<g>
			<polygon style="fill:#88D2D0;" points="213.96,359.24 262.27,359.24 266.47,402.71 213.96,405.89 			"/>
			<polygon style="fill:#FFC1B7;" points="342.62,378.33 295.27,378.33 291.16,421.8 342.62,424.98 			"/>
			<polygon style="fill:#FFC1B7;" points="242.84,468.45 195.49,468.45 191.37,511.91 242.84,515.1 			"/>
			<polygon style="fill:#FFDC8D;" points="357.33,519.34 309.98,519.34 305.86,562.81 357.33,565.99 			"/>
			<polygon style="fill:#FFDC8D;" points="440.3,411.19 392.95,411.19 388.84,454.66 440.3,457.84 			"/>
		</g>
		<g>
			<g>
				<g>
					<g>
						<path style="fill:#DE7356;" d="M363.02,344.48c10.32,4.3,19.62,10.52,28.86,16.73c2.45,1.65,4.73-2.31,2.3-3.94
							c-9.6-6.46-19.23-12.73-29.95-17.19C361.52,338.95,360.34,343.37,363.02,344.48L363.02,344.48z"/>
					</g>
				</g>
				<g>
					<g>
						<path style="fill:#DE7356;" d="M384.53,338.19c-7.63,5.56-14.79,11.7-21.47,18.38c-2.08,2.08,1.15,5.31,3.23,3.23
							c6.4-6.4,13.23-12.33,20.54-17.67C389.19,340.41,386.92,336.45,384.53,338.19L384.53,338.19z"/>
					</g>
				</g>
			</g>
			<g>
				<g>
					<g>
						<path style="fill:#DE7356;" d="M211.77,434.6c10.32,4.3,19.62,10.52,28.86,16.73c2.45,1.65,4.73-2.31,2.3-3.94
							c-9.6-6.46-19.23-12.73-29.95-17.19C210.27,429.06,209.1,433.48,211.77,434.6L211.77,434.6z"/>
					</g>
				</g>
				<g>
					<g>
						<path style="fill:#DE7356;" d="M233.29,428.31c-7.63,5.56-14.79,11.7-21.47,18.38c-2.08,2.08,1.15,5.31,3.23,3.23
							c6.4-6.4,13.23-12.33,20.54-17.67C237.94,430.53,235.67,426.57,233.29,428.31L233.29,428.31z"/>
					</g>
				</g>
			</g>
			<g>
				<g>
					<g>
						<path style="fill:#DE7356;" d="M255.89,436.72c10.32,4.3,19.62,10.52,28.86,16.73c2.45,1.65,4.73-2.31,2.3-3.94
							c-9.6-6.46-19.23-12.73-29.95-17.19C254.38,431.19,253.21,435.6,255.89,436.72L255.89,436.72z"/>
					</g>
				</g>
				<g>
					<g>
						<path style="fill:#DE7356;" d="M277.4,430.43c-7.63,5.56-14.79,11.7-21.47,18.38c-2.08,2.08,1.15,5.31,3.23,3.23
							c6.4-6.4,13.23-12.33,20.54-17.67C282.06,432.65,279.78,428.69,277.4,430.43L277.4,430.43z"/>
					</g>
				</g>
			</g>
			<g>
				<g>
					<path style="fill:#DE7356;" d="M397.11,503.53c7.57-11.24,4.86-23.89-6.74-30.91c-10.44-6.32-25.74-5.82-33.6,4.28
						c-7.61,9.79-6.93,22.24,5.26,27.22c10.64,4.35,23.55,4.25,34.77,2.58c2.9-0.43,1.67-4.83-1.21-4.4
						c-8.74,1.3-18.13,1.17-26.75-0.79c-3.99-0.9-8.57-2.46-11.16-5.83c-3.11-4.06-1.09-9.37,1.02-13.35
						c5.25-9.9,17.53-11.15,27.01-6.99c11.17,4.91,14.22,15.86,7.47,25.89C391.52,503.67,395.48,505.95,397.11,503.53L397.11,503.53
						z"/>
				</g>
			</g>
		</g>
	</g>
	<g>
		<g>
			<path style="fill:#FFC1B7;" d="M307.72,225.56l23.77,2.58l-2.93,19.19c0,0,57.16,4.66,60.82,11.31
				c3.66,6.64-2.56,31.37-1.83,6.27c0,0-5.85,30.26-3.29,0c0,0-7.68,28.42-4.02,0.37c0,0-6.95,23.25-4.02-0.74
				c0,0-72.51,7.15-73.98,0.5C300.77,258.4,307.72,225.56,307.72,225.56z"/>
			<path style="opacity:0.3;fill:#DE7356;" d="M330.46,234.84l1.02-6.7l-23.77-2.58c0,0-0.67,3.17-1.55,7.74
				C314.29,233.44,322.39,234.02,330.46,234.84z"/>
			<path style="fill:#88D2D0;" d="M334.04,232.2l-29.62-4.06c0,0,7.68-41.7,34.73-43.92L334.04,232.2z"/>
		</g>
		<g>
			<path style="fill:#FFC1B7;" d="M393.59,238.52l24.7,3.23c0,0-8.46,42.9-9.9,46.36c-1.44,3.46-24.47,51.44-30.69,49.96
				c-6.22-1.48-6.22-1.48-6.22-1.48s-10.6,23.99-1.83-4.43c8.77-28.42,20.11-49.09,20.11-49.09L393.59,238.52z"/>
			<path style="opacity:0.3;fill:#DE7356;" d="M416.62,250.11c1-4.97,1.67-8.37,1.67-8.37l-24.7-3.23l-0.4,4.7
				C400.94,245.72,408.76,247.99,416.62,250.11z"/>
			<path style="fill:#88D2D0;" d="M396.71,217.31l-4.92,22.02l27.75,6.6c0,0,2.74-19.45-4.29-34.61
				C409.01,213.09,402.81,215.04,396.71,217.31z"/>
		</g>
	</g>
</g>
<g>
	<g>
		<ellipse style="opacity:0.15;fill:#2F3F5C;" cx="585.25" cy="623.24" rx="161.75" ry="12.72"/>
	</g>
	<g>
		<g>
			<g>
				<path style="fill:#FFC1B7;" d="M642.94,309.3l20.81,13.92c0,0-68.59,72.66-78.34,82.23c-9.74,9.57-1.99-2.56-1.99-2.56
					s-14.89,17.55-3.3-1.38c0,0-15.09,16.78-1.31-2.42c0,0-14,11.24,2.88-7.35c0,0-10.78-1.45,3.5-3.26L642.94,309.3z"/>
				<g>
					<path style="opacity:0.3;fill:#DE7356;" d="M642.94,309.3l20.81,13.92c0,0-68.59,72.66-78.34,82.23
						c-9.74,9.57-1.99-2.56-1.99-2.56s-14.89,17.55-3.3-1.38c0,0-15.09,16.78-1.31-2.42c0,0-14,11.24,2.88-7.35
						c0,0-10.78-1.45,3.5-3.26L642.94,309.3z"/>
					<path style="opacity:0.3;fill:#DE7356;" d="M648.32,339.54c9.09-9.61,15.44-16.33,15.44-16.33l-20.81-13.92l-13.05,17.9
						C636.44,330.62,642.4,335.03,648.32,339.54z"/>
				</g>
			</g>
			<path style="fill:#FFFFFF;" d="M642.67,329.56l-10.5-6.71c0,0,10.5-17.67,21.71-23.68L642.67,329.56z"/>
		</g>
		<g>
			<path style="fill:#88D2D0;" d="M660.53,234.39c0,0-9.09-14.59-27.26-10.52c-18.17,4.07-11.56,20.33-21.48,25.83
				c-9.91,5.5-17.9,17.7-6.06,27.98c11.84,10.28-7.67,19.79,20.65,28.46c28.91,8.85,36.62-22.72,36.62-22.72L660.53,234.39z"/>
			<path style="opacity:0.1;fill:#2F3F5C;" d="M660.53,234.39c0,0-9.09-14.59-27.26-10.52c-18.17,4.07-11.56,20.33-21.48,25.83
				c-9.91,5.5-17.9,17.7-6.06,27.98c11.84,10.28-7.67,19.79,20.65,28.46c28.91,8.85,36.62-22.72,36.62-22.72L660.53,234.39z"/>
		</g>
	</g>
	<g>
		<g>
			<g>
				<polygon style="fill:#60B2AE;" points="517.58,375.36 481.16,380.11 480.22,372.79 516.64,368.04 				"/>
				<path style="fill:#88D2D0;" d="M528.26,365.12c0.22,1.74-1,3.34-2.72,3.56l-54.17,7.06c-1.73,0.22-3.31-1.01-3.53-2.75
					l-2.78-21.73c-0.22-1.74,1-3.34,2.72-3.56l54.17-7.06c1.73-0.22,3.31,1.01,3.53,2.75L528.26,365.12z"/>
				<polygon style="fill:#60B2AE;" points="472.84,375.65 471.38,375.84 467.79,347.7 469.24,347.51 				"/>
				<polygon style="fill:#60B2AE;" points="476.14,375.22 474.69,375.41 471.09,347.27 472.54,347.08 				"/>
				<polygon style="fill:#60B2AE;" points="479.44,374.79 477.99,374.98 474.39,346.84 475.84,346.65 				"/>
				<polygon style="fill:#60B2AE;" points="482.74,374.36 481.29,374.55 477.69,346.41 479.14,346.22 				"/>
				<polygon style="fill:#60B2AE;" points="486.04,373.93 484.59,374.12 480.99,345.98 482.44,345.79 				"/>
				<polygon style="fill:#60B2AE;" points="489.34,373.5 487.89,373.69 484.29,345.55 485.75,345.36 				"/>
				<polygon style="fill:#60B2AE;" points="492.64,373.07 491.19,373.26 487.59,345.12 489.05,344.93 				"/>
				<polygon style="fill:#60B2AE;" points="495.95,372.64 494.49,372.83 490.89,344.69 492.35,344.5 				"/>
				<polygon style="fill:#60B2AE;" points="499.25,372.21 497.79,372.4 494.19,344.26 495.65,344.07 				"/>
				<polygon style="fill:#60B2AE;" points="502.55,371.78 501.09,371.97 497.49,343.83 498.95,343.64 				"/>
				<polygon style="fill:#60B2AE;" points="505.85,371.35 504.39,371.54 500.79,343.4 502.25,343.21 				"/>
				<polygon style="fill:#60B2AE;" points="509.15,370.92 507.69,371.11 504.09,342.97 505.55,342.78 				"/>
				<polygon style="fill:#60B2AE;" points="512.45,370.49 510.99,370.68 507.4,342.54 508.85,342.35 				"/>
				<polygon style="fill:#60B2AE;" points="515.75,370.06 514.3,370.25 510.7,342.11 512.15,341.92 				"/>
				<polygon style="fill:#60B2AE;" points="519.05,369.63 517.6,369.82 514,341.68 515.45,341.49 				"/>
				<polygon style="fill:#60B2AE;" points="522.35,369.2 520.9,369.39 517.3,341.25 518.75,341.06 				"/>
				<polygon style="fill:#60B2AE;" points="525.65,368.77 524.2,368.96 520.6,340.82 522.05,340.63 				"/>
			</g>
			<g>
				<path style="fill:#88D2D0;" d="M446.76,390.84c0.51,0.68,0.39,1.65-0.29,2.17l-13.57,10.46c-0.67,0.52-1.64,0.39-2.15-0.29
					l-6.41-8.48c-0.51-0.68-0.39-1.65,0.29-2.17l13.57-10.46c0.67-0.52,1.64-0.39,2.15,0.29L446.76,390.84z"/>
				<polygon style="fill:#60B2AE;" points="433.96,402.55 432.85,403.41 424.62,392.54 425.73,391.68 				"/>
				<polygon style="fill:#60B2AE;" points="436.45,400.63 435.34,401.49 427.11,390.62 428.22,389.76 				"/>
				<polygon style="fill:#60B2AE;" points="438.94,398.71 437.83,399.57 429.61,388.7 430.72,387.84 				"/>
				<polygon style="fill:#60B2AE;" points="441.43,396.79 440.32,397.65 432.1,386.78 433.21,385.92 				"/>
				<polygon style="fill:#60B2AE;" points="443.93,394.87 442.82,395.72 434.59,384.85 435.7,384 				"/>
				<polygon style="fill:#60B2AE;" points="446.42,392.95 445.31,393.8 437.09,382.93 438.2,382.08 				"/>
			</g>
		</g>
		<g>
			<path style="fill:#2F3F5C;" d="M503.97,373.94c-67.23,8.76-114.86,71.1-106.19,138.96c8.68,67.86,70.43,115.95,137.66,107.19
				c67.23-8.76,114.86-71.1,106.19-138.96C632.96,413.26,571.2,365.18,503.97,373.94z"/>
			<g>
				<path style="fill:#FFFFFF;" d="M394.71,513.3c8.24,64.46,66.69,109.97,130.55,101.65c63.86-8.32,108.95-67.32,100.7-131.78
					S559.27,373.2,495.41,381.52S386.46,448.84,394.71,513.3z"/>
				<path style="fill:#5D77A6;" d="M526.07,621.31c-67.23,8.76-128.98-39.32-137.66-107.19c-8.68-67.86,38.96-130.2,106.19-138.96
					c67.23-8.76,128.98,39.32,137.66,107.19C640.94,550.21,593.3,612.55,526.07,621.31z M496.22,387.87
					c-60.29,7.86-103,63.75-95.22,124.61c7.78,60.85,63.16,103.97,123.44,96.12c60.29-7.86,103-63.75,95.22-124.61
					C611.88,423.13,556.51,380.02,496.22,387.87z"/>
			</g>
		</g>
		<g>
			<g>
				<path style="fill:#88D2D0;" d="M525.87,495.5c0.74,5.81-3.32,11.12-9.07,11.87c-5.75,0.75-11.02-3.35-11.76-9.16
					c-0.74-5.81,3.32-11.12,9.07-11.87C519.86,485.59,525.13,489.69,525.87,495.5z"/>
				<path style="fill:#88D2D0;" d="M518.52,493.25c0.22,1.74-1,3.34-2.72,3.56l-1.39,0.18c-1.73,0.22-3.31-1.01-3.53-2.75
					l-9.77-76.41c-0.22-1.74,1-3.34,2.72-3.56l1.39-0.18c1.73-0.22,3.31,1.01,3.53,2.75L518.52,493.25z"/>
				<path style="fill:#88D2D0;" d="M515.25,500.8c-1.73,0.22-3.31-1.01-3.53-2.75l-0.18-1.4c-0.22-1.74,1-3.34,2.72-3.56l44.45-5.79
					c1.73-0.22,3.31,1.01,3.53,2.75l0.18,1.4c0.22,1.74-1,3.34-2.72,3.56L515.25,500.8z"/>
			</g>
			<g>
				<g>
					<path style="fill:#4B6590;" d="M506.32,406.11c0.2,1.55-0.89,2.97-2.42,3.17l0,0c-1.53,0.2-2.94-0.89-3.14-2.44l-1.03-8.06
						c-0.2-1.55,0.89-2.97,2.42-3.17l0,0c1.53-0.2,2.94,0.89,3.14,2.44L506.32,406.11z"/>
					<path style="fill:#4B6590;" d="M606.22,487.52c-1.53,0.2-2.94-0.89-3.14-2.44l0,0c-0.2-1.55,0.88-2.97,2.42-3.17l7.99-1.04
						c1.53-0.2,2.94,0.89,3.14,2.44l0,0c0.2,1.55-0.89,2.97-2.42,3.17L606.22,487.52z"/>
					<path style="fill:#4B6590;" d="M552.02,413.87c-0.75,1.37-2.45,1.86-3.81,1.11l0,0c-1.35-0.75-1.85-2.47-1.1-3.84l3.89-7.12
						c0.75-1.37,2.45-1.86,3.81-1.11l0,0c1.35,0.75,1.85,2.47,1.1,3.84L552.02,413.87z"/>
					<path style="fill:#4B6590;" d="M589.16,444.15c-1.17,1.03-2.93,0.9-3.95-0.27l0,0c-1.02-1.18-0.9-2.96,0.27-3.99l6.07-5.34
						c1.17-1.03,2.93-0.9,3.95,0.27l0,0c1.02,1.18,0.9,2.96-0.27,3.99L589.16,444.15z"/>
				</g>
				<g>
					<path style="fill:#4B6590;" d="M525.47,588.29c-0.2-1.55,0.89-2.97,2.42-3.17l0,0c1.53-0.2,2.94,0.89,3.14,2.44l1.03,8.06
						c0.2,1.55-0.89,2.97-2.42,3.17l0,0c-1.53,0.2-2.94-0.89-3.14-2.44L525.47,588.29z"/>
					<path style="fill:#4B6590;" d="M598.43,533.58c-1.35-0.75-1.85-2.47-1.1-3.84l0,0c0.75-1.37,2.45-1.86,3.81-1.11l7.05,3.93
						c1.35,0.75,1.85,2.47,1.1,3.84l0,0c-0.75,1.37-2.45,1.86-3.81,1.11L598.43,533.58z"/>
					<path style="fill:#4B6590;" d="M568.44,571.06c-1.02-1.18-0.9-2.96,0.27-3.99l0,0c1.17-1.03,2.93-0.9,3.95,0.27l5.29,6.13
						c1.02,1.18,0.9,2.96-0.27,3.99l0,0c-1.17,1.03-2.93,0.9-3.95-0.27L568.44,571.06z"/>
				</g>
				<g>
					<path style="fill:#4B6590;" d="M425.66,506.86c1.53-0.2,2.94,0.89,3.14,2.44l0,0c0.2,1.55-0.89,2.97-2.42,3.17l-7.99,1.04
						c-1.53,0.2-2.94-0.89-3.14-2.44l0,0c-0.2-1.55,0.89-2.97,2.42-3.17L425.66,506.86z"/>
					<path style="fill:#4B6590;" d="M479.85,580.51c0.75-1.37,2.45-1.86,3.81-1.11l0,0c1.35,0.75,1.85,2.47,1.1,3.84l-3.89,7.12
						c-0.75,1.37-2.45,1.86-3.81,1.11l0,0c-1.35-0.75-1.85-2.47-1.1-3.84L479.85,580.51z"/>
					<path style="fill:#4B6590;" d="M442.72,550.24c1.17-1.03,2.93-0.9,3.95,0.27l0,0c1.02,1.18,0.9,2.96-0.27,3.99l-6.07,5.34
						c-1.17,1.03-2.93,0.9-3.95-0.27l0,0c-1.02-1.18-0.9-2.96,0.27-3.99L442.72,550.24z"/>
				</g>
				<g>
					<path style="fill:#4B6590;" d="M433.45,460.8c1.35,0.75,1.85,2.47,1.1,3.84l0,0c-0.75,1.37-2.45,1.86-3.81,1.11l-7.05-3.93
						c-1.35-0.75-1.85-2.47-1.1-3.84l0,0c0.75-1.37,2.45-1.86,3.81-1.11L433.45,460.8z"/>
					<path style="fill:#4B6590;" d="M463.44,423.32c1.02,1.18,0.9,2.96-0.27,3.99l0,0c-1.17,1.03-2.93,0.9-3.95-0.27l-5.29-6.13
						c-1.02-1.18-0.9-2.96,0.27-3.99l0,0c1.17-1.03,2.93-0.9,3.95,0.27L463.44,423.32z"/>
				</g>
			</g>
		</g>
	</g>
	<g>
		<g>
			<g>
				<g>
					<path style="fill:#FFC1B7;" d="M695.48,562.88c0,0,3.78,53.91,6.98,58.37c3.2,4.46,28.39,10.58,7.64-3.37l11.33-56.55
						L695.48,562.88z"/>
					<path style="opacity:0.2;fill:#2F3F5C;" d="M718.05,578.19l3.38-16.86l-25.95,1.54c0,0,0.71,10.19,1.78,22.07
						C704.06,582.24,710.96,579.83,718.05,578.19z"/>
					<path style="fill:#FFFFFF;" d="M701.37,618.81c0,0-0.06,2.43,1.37,3.58c1.43,1.15,30.49,12.44,9.49-3.05
						C712.23,619.34,717.5,625.51,701.37,618.81z"/>
				</g>
				<g>
					<path style="fill:#FFC1B7;" d="M644.85,562.12c0,0-23.64,51.97-25.63,53.11c-3.8,2.18-32.84,5.28-5.79-5.63l10.5-64.15
						L644.85,562.12z"/>
					<path style="opacity:0.2;fill:#2F3F5C;" d="M638.54,575.88c3.63-7.86,6.31-13.76,6.31-13.76l-20.92-16.67l-3.47,21.19
						C626.39,569.92,632.41,573.03,638.54,575.88z"/>
					<path style="fill:#FFFFFF;" d="M620.56,613.19c0,0-0.59,2.36-2.27,3.08c-1.68,0.72-32.68,3.72-8.33-5.51
						C609.96,610.76,603.24,615.28,620.56,613.19z"/>
				</g>
			</g>
			<g>
				<path style="fill:#FFC330;" d="M662.75,376.68l65.42-18.08c0,0,15.05,15.87,16.64,50.04c1.59,34.17-16.87,161.85-16.87,161.85
					s-16.5,9.88-43.35,2.59l11.79-145.56l-46.47,140.78c0,0-20.27-2.79-39.88-14.16L662.75,376.68z"/>
				<g>
					<path style="opacity:0.1;fill:#2F3F5C;" d="M730.27,361.24c-1.28-1.76-2.1-2.64-2.1-2.64l-65.42,18.08l-2.06,6.93
						C689.31,380.17,718.94,366.79,730.27,361.24z"/>
					<path style="opacity:0.1;fill:#2F3F5C;" d="M655.44,401.28l-45.41,152.86c19.61,11.38,39.88,14.16,39.88,14.16l46.47-140.78
						C677.27,421.36,660.65,406.33,655.44,401.28z"/>
				</g>
			</g>
		</g>
		<g>
			<path style="fill:#FFFFFF;" d="M660.52,379.03c0,0,50.61-10.03,71.52-20.56c0,0-29.5-64.25-48.41-68.49
				c-18.91-4.24-41.66,17.67-42.71,22.62c-4.73,22.28-5.6,41,14.7,39.58L660.52,379.03z"/>
			<polygon style="fill:#FFFFFF;" points="651.42,301.28 647.22,294.92 671.03,284.32 675.93,297.04 			"/>
			<path style="opacity:0.1;fill:#2F3F5C;" d="M638.3,337.63c0.93,9.44,5.58,15.36,17.32,14.55l4.9,26.86
				c0,0,50.61-10.03,71.52-20.56c0,0-4.54-9.89-11.2-22.16C667.54,352.65,646.49,344.96,638.3,337.63z"/>
		</g>
		<g>
			<path style="fill:#FFC1B7;" d="M668.23,321.07l23.11,9.54c0,0-56.37,90.47-64.07,101.78c-7.7,11.31-2.45-2.12-2.45-2.12
				s-11.2,20.14-3.5-0.71c0,0-11.55,19.44-1.75-2.12c0,0-11.55,13.78,1.4-7.77c0,0-10.85,0.71,2.8-3.89L668.23,321.07z"/>
			<path style="opacity:0.3;fill:#DE7356;" d="M688.07,335.85c2.06-3.31,3.26-5.23,3.26-5.23l-23.11-9.54l-1.56,3.32
				C674.48,326.73,681.4,331.12,688.07,335.85z"/>
		</g>
		<g>
			<g>
				<g>
					<path style="fill:#FFC1B7;" d="M658.68,237.62c0,0-31.39-13.11-37.89,17.21c-6.49,30.32,10.01,45.07,26.79,39.61
						c16.78-5.46,24.08-17.76,25.98-33.33C675.46,245.54,671.94,237.89,658.68,237.62z"/>
				</g>
				<g>
					<path style="fill:#88D2D0;" d="M702.83,257.76c-6.96-11.39-25.97,2.91-23.56-14.3c2.41-17.21-15.53-25.95-33.19-21.98
						c-13.55,3.05-14.19,17.74-14.19,17.74s-1.61,6.62,5.89,8.74c7.5,2.12,15.79,1.32,13.12,10.86
						c-3.58,10.44-6.16,11.92-0.54,18.27c5.62,6.36-4.28,13.77,3.48,20.13c7.76,6.36,20.08-12.18,34-5.3
						c13.92,6.89,17.4-10.86,10.71-16.95C691.85,268.88,709.79,269.14,702.83,257.76z"/>
					<g>
						<path style="fill:#88D2D0;" d="M704.26,287.03c0,0,0.07-0.44,0.19-1.27c0.11-0.83,0.14-2.05-0.05-3.58
							c-0.25-1.51-0.71-3.36-1.88-5.13c-0.33-0.4-0.61-0.88-1.01-1.26c-0.43-0.38-0.77-0.75-1.29-1.16c-0.47-0.38-1-0.92-1.31-1.59
							c-0.35-0.68-0.3-1.66,0.11-2.32c0.8-1.34,1.98-2.15,3.03-3.11c1.06-0.94,2.11-1.95,2.73-3.18c1.34-2.48-0.19-5.61-2.29-7.91
							c-1.02-1.06-2.41-1.9-3.93-2.32c-1.54-0.42-3.21-0.53-4.91-0.5c-1.71,0.04-3.45,0.22-5.26,0.33c-1.8,0.09-3.69,0.2-5.65-0.47
							c-0.97-0.33-1.92-0.98-2.55-1.84c-0.62-0.86-1.04-1.83-1.21-2.79c-0.21-0.96-0.26-1.9-0.27-2.83
							c-0.02-0.47,0.03-0.92,0.05-1.38l0.06-1.3c0.06-0.9,0.02-1.67-0.03-2.51c-0.04-0.41-0.07-0.83-0.12-1.24l-0.21-1.22
							c-0.34-1.6-0.91-3.14-1.67-4.53c-1.53-2.79-3.8-5.04-6.31-6.63c-2.51-1.6-5.21-2.6-7.76-3.21c-5.14-1.19-9.64-1.01-12.71-0.62
							c-1.54,0.21-2.75,0.42-3.56,0.6c-0.82,0.18-1.25,0.28-1.25,0.28s0.43-0.13,1.23-0.38c0.8-0.24,1.99-0.57,3.53-0.86
							c1.54-0.28,3.44-0.54,5.63-0.61c2.19-0.07,4.69,0.03,7.36,0.58c2.66,0.54,5.51,1.47,8.24,3.08c2.72,1.59,5.3,3.92,7.03,6.99
							c1.75,3.04,2.57,6.72,2.39,10.36l-0.06,1.33c-0.01,0.42-0.06,0.85-0.04,1.27c0.01,0.84,0.07,1.67,0.25,2.45
							c0.33,1.58,1.16,2.83,2.62,3.29c1.43,0.51,3.19,0.48,4.92,0.39c1.74-0.1,3.52-0.27,5.33-0.3c1.8-0.03,3.65,0.11,5.42,0.63
							c1.78,0.54,3.4,1.52,4.67,2.9c0.36,0.34,0.54,0.66,0.81,0.99c0.31,0.39,0.49,0.74,0.74,1.11c0.23,0.36,0.42,0.76,0.62,1.14
							c0.17,0.41,0.35,0.8,0.47,1.22c0.28,0.83,0.39,1.73,0.34,2.62c-0.04,0.89-0.33,1.75-0.73,2.5c-1.67,2.98-4.73,4.21-6.04,6.18
							c-0.64,0.94,0.02,1.97,0.88,2.75c0.41,0.37,0.87,0.88,1.28,1.3c0.41,0.44,0.68,0.97,1.01,1.42c1.13,1.95,1.49,3.89,1.65,5.45
							c0.02,0.79,0.09,1.49,0,2.1c-0.07,0.61-0.08,1.13-0.2,1.53C704.36,286.59,704.26,287.03,704.26,287.03z"/>
					</g>
				</g>
			</g>
			<g>
				<g style="opacity:0.7;">
					<path style="fill:#DE7356;" d="M632.11,263.14c-0.02,0.59-0.07,1.17-0.12,1.76c-0.04,0.59-0.1,1.17-0.16,1.75
						c-0.13,1.16-0.28,2.32-0.45,3.47c-0.17,1.15-0.36,2.31-0.56,3.45c-0.2,1.15-0.43,2.29-0.67,3.44l-0.23-0.47
						c0.83,0.49,1.66,0.98,2.48,1.49c0.41,0.25,0.81,0.53,1.22,0.79c0.4,0.26,0.81,0.53,1.2,0.81c-0.46-0.17-0.9-0.35-1.35-0.54
						c-0.44-0.19-0.9-0.36-1.33-0.56c-0.88-0.39-1.75-0.8-2.62-1.21l-0.28-0.13l0.05-0.34c0.16-1.16,0.33-2.31,0.53-3.46
						c0.19-1.15,0.4-2.3,0.63-3.44c0.23-1.14,0.48-2.29,0.75-3.42c0.14-0.57,0.28-1.14,0.44-1.7
						C631.79,264.27,631.93,263.7,632.11,263.14z"/>
				</g>
				<path style="fill:#FFFFFF;" d="M629.11,283.83l20.09-2.7C649.21,281.13,639.61,291.02,629.11,283.83z"/>
				<g>
					<path style="fill:#2F3F5C;" d="M637.82,261.88c0,0,0,0.3,0.02,0.81c0.01,0.51,0.08,1.24,0.23,2.07
						c0.09,0.42,0.2,0.86,0.36,1.31c0.17,0.44,0.38,0.89,0.68,1.27l0.23,0.29c0.09,0.08,0.18,0.16,0.27,0.24
						c0.17,0.18,0.4,0.27,0.61,0.4c0.2,0.14,0.47,0.16,0.7,0.26c0.25,0.06,0.51,0.06,0.77,0.1c0.01,0,0.11,0.01,0.05,0.01l0.11-0.01
						l0.22-0.01l0.44-0.02c0.28-0.03,0.46-0.12,0.7-0.16c0.21-0.11,0.45-0.19,0.65-0.33c0.18-0.15,0.4-0.27,0.54-0.47l0.24-0.27
						l0.19-0.3c0.14-0.19,0.23-0.42,0.34-0.63c0.19-0.43,0.32-0.87,0.43-1.28c0.19-0.83,0.29-1.55,0.32-2.06
						c0.04-0.51,0.05-0.8,0.05-0.8s0.08,0.28,0.15,0.8c0.06,0.51,0.15,1.26,0.06,2.16c-0.05,0.45-0.12,0.95-0.29,1.45
						c-0.09,0.25-0.17,0.52-0.32,0.77c-0.12,0.27-0.28,0.51-0.49,0.75c-0.37,0.49-0.92,0.88-1.53,1.14
						c-0.32,0.08-0.69,0.21-0.99,0.24l-0.44,0.03l-0.22,0.01l-0.11,0.01c-0.14,0-0.11-0.01-0.17-0.01
						c-0.32-0.05-0.65-0.06-0.96-0.15c-0.31-0.12-0.64-0.18-0.92-0.36c-0.28-0.17-0.57-0.33-0.79-0.58
						c-0.11-0.11-0.23-0.22-0.33-0.34l-0.26-0.38c-0.35-0.5-0.53-1.06-0.67-1.57c-0.13-0.52-0.18-1.01-0.21-1.46
						c-0.04-0.91,0.08-1.65,0.16-2.16C637.73,262.16,637.82,261.88,637.82,261.88z"/>
				</g>
				<g>
					<path style="fill:#2F3F5C;" d="M621.63,262.78c0,0,0,0.3,0.02,0.81c0.01,0.51,0.08,1.24,0.23,2.07
						c0.09,0.42,0.2,0.86,0.36,1.31c0.17,0.44,0.38,0.89,0.68,1.27l0.22,0.29c0.09,0.08,0.18,0.16,0.27,0.24
						c0.17,0.18,0.4,0.27,0.61,0.4c0.2,0.14,0.47,0.16,0.7,0.26c0.25,0.06,0.51,0.06,0.77,0.1c0.01,0,0.11,0.01,0.05,0.01l0.11-0.01
						l0.22-0.01l0.44-0.02c0.28-0.03,0.46-0.12,0.7-0.16c0.21-0.11,0.45-0.19,0.65-0.33c0.18-0.15,0.4-0.27,0.54-0.47l0.24-0.27
						l0.19-0.3c0.14-0.19,0.23-0.42,0.34-0.63c0.19-0.43,0.32-0.87,0.43-1.28c0.19-0.83,0.29-1.55,0.32-2.06
						c0.04-0.51,0.05-0.8,0.05-0.8s0.08,0.28,0.15,0.8c0.06,0.51,0.15,1.26,0.06,2.16c-0.05,0.45-0.12,0.95-0.29,1.45
						c-0.09,0.25-0.17,0.52-0.32,0.77c-0.12,0.27-0.28,0.51-0.49,0.75c-0.37,0.49-0.92,0.88-1.53,1.14
						c-0.32,0.08-0.69,0.21-0.99,0.24l-0.44,0.03l-0.22,0.01l-0.11,0.01c-0.14,0-0.11-0.01-0.17-0.01
						c-0.32-0.05-0.65-0.06-0.96-0.15c-0.31-0.12-0.64-0.18-0.92-0.36c-0.28-0.17-0.57-0.33-0.79-0.58
						c-0.11-0.11-0.23-0.22-0.33-0.34l-0.26-0.38c-0.35-0.5-0.53-1.06-0.67-1.57c-0.13-0.52-0.18-1.01-0.21-1.46
						c-0.04-0.91,0.08-1.65,0.16-2.16C621.54,263.06,621.63,262.78,621.63,262.78z"/>
				</g>
				<g>
					<path style="fill:#2F3F5C;" d="M635.41,255.92c0,0,0.12-0.23,0.4-0.58c0.14-0.17,0.33-0.38,0.56-0.6
						c0.23-0.21,0.5-0.46,0.84-0.66c0.32-0.24,0.7-0.43,1.11-0.63c0.43-0.16,0.87-0.38,1.37-0.46c0.49-0.13,1.01-0.19,1.55-0.21
						c0.53-0.02,1.08,0.05,1.61,0.1c0.52,0.14,1.06,0.23,1.54,0.43c0.48,0.2,0.97,0.38,1.39,0.65c0.42,0.25,0.82,0.51,1.18,0.77
						c0.34,0.28,0.65,0.57,0.93,0.83c0.29,0.25,0.52,0.52,0.71,0.77c0.2,0.24,0.35,0.46,0.49,0.64c0.26,0.36,0.39,0.58,0.39,0.58
						s-0.24-0.1-0.64-0.3c-0.41-0.18-0.91-0.53-1.58-0.82c-0.33-0.15-0.68-0.32-1.03-0.51c-0.37-0.16-0.77-0.29-1.16-0.48
						c-0.39-0.2-0.83-0.25-1.24-0.42c-0.42-0.16-0.86-0.19-1.29-0.3c-0.43-0.06-0.87-0.14-1.3-0.14c-0.43,0.01-0.86-0.04-1.27,0.02
						c-0.42,0.02-0.82,0.1-1.21,0.15c-0.37,0.11-0.75,0.16-1.08,0.27C636.33,255.44,635.41,255.92,635.41,255.92z"/>
				</g>
				<g>
					<path style="fill:#2F3F5C;" d="M619.17,257.01c0,0,0.07-0.23,0.21-0.62c0.08-0.19,0.14-0.43,0.31-0.67
						c0.16-0.24,0.32-0.57,0.58-0.83c0.25-0.27,0.51-0.6,0.87-0.84c0.34-0.28,0.75-0.5,1.2-0.71c0.22-0.11,0.47-0.16,0.71-0.24
						c0.24-0.08,0.5-0.13,0.75-0.15c0.52-0.09,1.04-0.05,1.56-0.01c0.51,0.09,1.02,0.19,1.48,0.38c0.47,0.16,0.9,0.4,1.3,0.64
						c0.79,0.5,1.4,1.09,1.85,1.65c0.24,0.26,0.4,0.56,0.56,0.8c0.16,0.23,0.27,0.47,0.35,0.66c0.17,0.38,0.25,0.6,0.25,0.6
						s-0.22-0.11-0.57-0.31c-0.17-0.1-0.38-0.22-0.62-0.35c-0.24-0.13-0.49-0.29-0.78-0.43c-0.58-0.3-1.23-0.62-1.93-0.89
						c-0.35-0.13-0.71-0.26-1.07-0.35c-0.36-0.1-0.73-0.17-1.1-0.23c-0.36-0.03-0.73-0.08-1.09-0.05c-0.36-0.01-0.7,0.07-1.05,0.12
						c-0.34,0.08-0.68,0.16-0.98,0.29c-0.33,0.09-0.61,0.26-0.9,0.38c-0.29,0.13-0.51,0.29-0.75,0.41c-0.23,0.12-0.43,0.28-0.6,0.39
						C619.38,256.89,619.17,257.01,619.17,257.01z"/>
				</g>
			</g>
		</g>
	</g>
</g>
<g>
	<g>
		<ellipse style="opacity:0.15;fill:#2F3F5C;" cx="111.62" cy="623.24" rx="107.62" ry="12.72"/>
	</g>
	<g>
		<g>
			<g>
				<g>
					<path style="fill:#2F3F5C;" d="M73.74,594.16c0,0,3.4,20.57,0,21.94c-3.4,1.37-73.36,39.08-18.34-10.29v-15.08L73.74,594.16z"
						/>
					<g>
						<path style="fill:#FFFFFF;" d="M34.59,628.42c-3.46,10.23,36.6-11.28,39.15-12.31c0.88-0.36,1.3-2.01,1.45-4.26
							C69.19,614.79,43.42,628.2,34.59,628.42z"/>
					</g>
				</g>
				<g>
					<path style="fill:#2F3F5C;" d="M135.24,592.62c0,0,2.43,20.71,6.07,21.07c3.64,0.36,81.25,16.85,14.77-15.04l-4.17-14.48
						L135.24,592.62z"/>
					<g>
						<path style="fill:#FFFFFF;" d="M182.31,614.48c6.16,8.85-38.27-0.52-41-0.79c-0.95-0.09-1.81-1.56-2.57-3.68
							C145.32,611.15,173.77,616.76,182.31,614.48z"/>
					</g>
				</g>
			</g>
			<g>
				<path style="fill:#DE7356;" d="M30.95,389.15c0,0-6.11,72.68,20.38,207.07c0,0,6.79,6.17,27.85,1.37
					c0,0-6.79-148.11-4.08-167.99l8.15,2.06c0,0,43.47,154.28,48.23,165.93c0,0,14.26,0,25.81-10.97c0,0-31.93-160.45-38.72-175.53
					C111.78,396,30.95,389.15,30.95,389.15z"/>
				<path style="opacity:0.2;fill:#2F3F5C;" d="M91.06,412.97c9.36,1.16,19.11,1.96,28.84,1.83c-0.51-1.64-0.95-2.89-1.33-3.71
					c-6.79-15.08-87.63-21.94-87.63-21.94s-0.25,3.02-0.43,8.96C50.03,405.26,70.51,410.43,91.06,412.97z"/>
				<path style="opacity:0.2;fill:#2F3F5C;" d="M125.11,434.75L75.1,429.6l8.15,2.06c0,0,43.47,154.28,48.23,165.93
					c0,0,14.26,0,25.81-10.97C157.29,586.62,136.75,483.39,125.11,434.75z"/>
			</g>
		</g>
		<g>
			<g>
				<path style="fill:#FFA398;" d="M99.13,233.67c0,0,2.04-10.8-4.84-11.83c-6.88-1.03-6.37,22.11,2.55,23.4
					c8.92,1.29,3.82-11.83,3.82-11.83"/>
				<path style="fill:#FFA398;" d="M88.72,285.41c0,0,9.65-62.8,21.37-83.11c10.17-17.63,43.3,0.51,44.32,10.8
					s-3.31,61.71-19.61,63.77c-16.3,2.06-17.58-6.17-17.58-6.17l4.59-2.06l-3.06,20.57L88.72,285.41z"/>
				<path style="fill:#2F3F5C;" d="M149.82,254.76c-1.45,6.66-4.04,30.44-14.77,30.08c-15.54-0.51-41.01-4.37-39.48-26.48
					c1.53-22.11,3.31-24.94,3.82-28.8c0.51-3.86-2.04-5.66-2.04-5.66s-2.55-26.23,15.28-34.46c17.83-8.23,31.4,6.11,47.7,3.54
					l-7.45,5.72c0,0,8.66,0.51,15.79-3.6c0,0,2.04,19.54-16.3,21.6c-18.34,2.06-33.11-7.71-33.11-7.71s2.29,15.17-10.44,17.74
					c0,0-11.21,30.08-2.55,32.66c8.66,2.57,2.04-9.51,10.7-10.54c8.66-1.03,27.51,0.51,25.47,8.74c-2.04,8.23-0.68,12.38,3.65,7.24
					C146.08,264.82,150.1,253.46,149.82,254.76z"/>
			</g>
			<g>
				<path style="fill:#FFFFFF;" d="M114.67,255.27l24.71,3.86C139.37,259.13,129.44,270.18,114.67,255.27z"/>
				<g>
					<path style="fill:#2F3F5C;" d="M129.47,235.42c0,0,0.02-0.29,0.04-0.78c0.03-0.49,0.02-1.2-0.07-2.02
						c-0.05-0.41-0.13-0.85-0.24-1.29c-0.13-0.44-0.3-0.89-0.56-1.28l-0.2-0.3c-0.08-0.09-0.16-0.17-0.25-0.25
						c-0.15-0.19-0.36-0.3-0.55-0.44c-0.19-0.15-0.44-0.2-0.66-0.3c-0.23-0.08-0.49-0.1-0.74-0.16c-0.01,0-0.11-0.02-0.05-0.02
						l-0.11,0l-0.21-0.01l-0.42-0.01c-0.27,0-0.46,0.08-0.69,0.1c-0.44,0.15-0.88,0.34-1.21,0.68l-0.25,0.24l-0.21,0.28
						c-0.15,0.17-0.26,0.39-0.37,0.58c-0.21,0.4-0.38,0.81-0.51,1.2c-0.25,0.79-0.4,1.48-0.47,1.97c-0.08,0.49-0.11,0.77-0.11,0.77
						s-0.06-0.28-0.09-0.78c-0.02-0.5-0.05-1.23,0.1-2.1c0.08-0.43,0.19-0.91,0.39-1.38c0.11-0.24,0.2-0.49,0.36-0.72
						c0.13-0.25,0.31-0.47,0.53-0.69c0.4-0.45,0.96-0.78,1.57-0.98c0.32-0.06,0.68-0.15,0.97-0.15l0.42,0.01l0.21,0l0.11,0
						c0.13,0.01,0.1,0.02,0.16,0.03c0.31,0.07,0.62,0.11,0.92,0.22c0.29,0.14,0.6,0.22,0.86,0.42c0.26,0.19,0.53,0.36,0.72,0.62
						c0.1,0.12,0.21,0.23,0.3,0.35l0.23,0.39c0.3,0.51,0.43,1.06,0.53,1.57c0.08,0.51,0.1,0.99,0.09,1.43
						c-0.03,0.88-0.2,1.59-0.31,2.07C129.58,235.16,129.47,235.42,129.47,235.42z"/>
				</g>
				<g>
					<path style="fill:#2F3F5C;" d="M150.23,239.44c0,0,0.05-0.28,0.1-0.78c0.06-0.49,0.1-1.2,0.08-2.02
						c-0.02-0.41-0.07-0.85-0.15-1.31c-0.1-0.45-0.24-0.91-0.46-1.32l-0.17-0.31c-0.07-0.09-0.15-0.18-0.23-0.27
						c-0.14-0.2-0.34-0.32-0.52-0.48c-0.18-0.16-0.43-0.23-0.63-0.35c-0.23-0.1-0.48-0.14-0.72-0.21l-0.09-0.03
						c0.06,0.01-0.04,0-0.06-0.01l-0.21-0.02l-0.42-0.05c-0.27-0.02-0.46,0.04-0.7,0.05c-0.22,0.07-0.46,0.12-0.67,0.21
						c-0.2,0.12-0.42,0.2-0.59,0.37l-0.27,0.22l-0.23,0.26c-0.17,0.16-0.28,0.37-0.41,0.55c-0.24,0.38-0.44,0.78-0.6,1.16
						c-0.31,0.76-0.51,1.44-0.61,1.93c-0.11,0.48-0.16,0.76-0.16,0.76s-0.04-0.29-0.03-0.79c0.02-0.5,0.04-1.23,0.26-2.08
						c0.11-0.43,0.26-0.89,0.49-1.35c0.13-0.23,0.24-0.47,0.42-0.69c0.15-0.24,0.35-0.45,0.58-0.65c0.43-0.42,1.02-0.71,1.64-0.86
						c0.32-0.03,0.69-0.1,0.98-0.08l0.42,0.04l0.21,0.02l0.15,0.02l0.11,0.03c0.3,0.1,0.61,0.16,0.9,0.29
						c0.28,0.16,0.58,0.27,0.82,0.48c0.25,0.21,0.5,0.4,0.67,0.67c0.09,0.13,0.19,0.25,0.27,0.38l0.2,0.4
						c0.26,0.53,0.35,1.09,0.41,1.6c0.05,0.51,0.03,1-0.02,1.43c-0.09,0.88-0.32,1.57-0.47,2.05
						C150.36,239.19,150.23,239.44,150.23,239.44z"/>
				</g>
				<g>
					<path style="fill:#2F3F5C;" d="M120.88,223.35c0,0,0.14-0.3,0.49-0.73c0.17-0.22,0.39-0.47,0.67-0.74
						c0.28-0.25,0.61-0.56,1-0.82c0.39-0.27,0.84-0.54,1.35-0.77c0.5-0.26,1.07-0.41,1.66-0.59c0.3-0.07,0.62-0.11,0.94-0.16
						l0.48-0.07l0.5,0c0.33,0.01,0.67,0,1.01,0.02l1.01,0.18c0.68,0.1,1.31,0.41,1.93,0.66c0.6,0.28,1.13,0.68,1.65,1.03
						c0.47,0.41,0.88,0.84,1.26,1.25c0.37,0.42,0.62,0.88,0.87,1.28c0.25,0.4,0.44,0.79,0.56,1.16c0.14,0.36,0.23,0.68,0.3,0.95
						c0.15,0.53,0.19,0.84,0.19,0.84s-0.3-0.15-0.76-0.43c-0.23-0.14-0.5-0.3-0.78-0.51c-0.28-0.21-0.63-0.4-0.99-0.6
						c-0.37-0.2-0.71-0.47-1.11-0.67c-0.41-0.19-0.81-0.41-1.22-0.63c-0.44-0.15-0.86-0.36-1.29-0.51
						c-0.46-0.09-0.87-0.33-1.34-0.36l-0.68-0.15c-0.23-0.01-0.46-0.05-0.7-0.07c-0.46-0.09-0.93-0.04-1.4-0.09
						c-0.46,0.04-0.93-0.01-1.38,0.05c-0.45,0.02-0.88,0.06-1.3,0.1c-0.82,0.08-1.55,0.18-2.07,0.26
						C121.19,223.31,120.88,223.35,120.88,223.35z"/>
				</g>
				<g>
					<path style="fill:#2F3F5C;" d="M142.95,226.91c0,0,0.41-0.99,1.64-1.93c0.31-0.24,0.67-0.46,1.08-0.66
						c0.4-0.22,0.87-0.35,1.36-0.49c0.5-0.09,1.03-0.2,1.59-0.16c0.56-0.02,1.11,0.11,1.66,0.23c0.54,0.16,1.05,0.4,1.53,0.65
						c0.44,0.31,0.89,0.6,1.25,0.95c0.34,0.36,0.65,0.73,0.93,1.07c0.23,0.38,0.43,0.75,0.6,1.08c0.08,0.17,0.17,0.33,0.23,0.49
						c0.05,0.17,0.1,0.33,0.14,0.47c0.09,0.29,0.14,0.56,0.19,0.77c0.09,0.43,0.11,0.68,0.11,0.68s-0.24-0.13-0.59-0.37
						c-0.18-0.12-0.39-0.26-0.61-0.44c-0.22-0.18-0.48-0.36-0.77-0.54c-0.28-0.19-0.57-0.39-0.85-0.61
						c-0.32-0.17-0.64-0.36-0.95-0.56c-0.32-0.19-0.67-0.31-0.98-0.5c-0.35-0.1-0.67-0.27-1.02-0.35c-0.35-0.08-0.69-0.19-1.04-0.22
						c-0.35-0.08-0.71-0.06-1.07-0.1c-0.36,0.02-0.72-0.01-1.07,0.03c-0.35,0.02-0.7,0.06-1.02,0.1c-0.65,0.08-1.23,0.18-1.64,0.26
						C143.19,226.86,142.95,226.91,142.95,226.91z"/>
				</g>
				<g>
					<path style="fill:#CC6762;" d="M131.14,248.93c1.27-0.38,2.56-0.67,3.85-0.97c1.29-0.28,2.58-0.54,3.87-0.78l-0.62,0.65
						c0.03-0.89,0.1-1.78,0.15-2.67c0.05-0.89,0.14-1.77,0.21-2.66c0.07-0.89,0.15-1.77,0.25-2.66c0.1-0.88,0.18-1.77,0.3-2.65
						c0.22-1.77,0.47-3.53,0.77-5.29c0.3-1.76,0.64-3.51,1.08-5.26c0.1,1.8,0.1,3.58,0.06,5.37c-0.04,1.78-0.13,3.56-0.25,5.34
						c-0.05,0.89-0.14,1.77-0.21,2.66c-0.07,0.89-0.16,1.77-0.26,2.66c-0.1,0.88-0.18,1.77-0.3,2.65c-0.12,0.88-0.22,1.77-0.36,2.65
						l-0.09,0.6l-0.53,0.04c-1.31,0.11-2.62,0.19-3.94,0.25C133.79,248.92,132.47,248.96,131.14,248.93z"/>
				</g>
			</g>
		</g>
		<g>
			<g>
				<path style="fill:#FFA398;" d="M209.98,380.92c0,0,22.62,11.73,21.36,13.63c-1.26,1.9-10.68-2.85-10.68-2.85
					s0.94,4.12-1.26,4.44c0,0,0,3.17-2.51,2.54c0,0-1.57,2.54-5.03,1.27c-3.46-1.27-9.74-4.76-9.74-4.76L209.98,380.92z"/>
				<g>
					<path style="fill:#7A8DB5;" d="M90.72,272.75c0,0-25.47-8.74-35.66,10.29c-10.19,19.03-25.98,93.59-28.02,106.45
						c0,0,29.55,19.03,86.61,18l18.85-73.02c0,0,18.85,36.51,22.93,41.65c4.08,5.14,49.93,24.68,49.93,24.68l8.66-19.03
						l-41.27-28.28c0,0-15.28-51.94-25.47-58.63c-10.19-6.69-28.53-11.31-28.53-11.31s-1.53,4.11-13.76,3.09
						C92.76,285.61,90.72,272.75,90.72,272.75z"/>
					<path style="opacity:0.2;fill:#2F3F5C;" d="M135.22,315.98c-31.17,2.51-62.3,5.48-93.49,7.71
						c-7.09,27.15-13.45,57.96-14.69,65.8c0,0,29.55,19.03,86.61,18l16.81-65.12C131.82,333.53,133.15,324.68,135.22,315.98z"/>
				</g>
			</g>
			<g>
				<g>
					<polygon style="fill:#4B6590;" points="86.72,323.15 76.77,417.77 142.58,416.82 152.05,327.93 					"/>
					
						<line style="fill:none;stroke:#FFFFFF;stroke-width:0.9447;stroke-linecap:round;stroke-miterlimit:10;" x1="79" y1="388.46" x2="107.02" y2="418.29"/>
					
						<line style="fill:none;stroke:#FFFFFF;stroke-width:0.9447;stroke-linecap:round;stroke-miterlimit:10;" x1="113.65" y1="324.18" x2="82.16" y2="353.25"/>
				</g>
				<g>
					<path style="fill:#FFA398;" d="M136.72,367.49l-2.25,14.81c0,0,16.24,2.55,14.38-1.45c0,0,5.51-2.86,0.72-4.79
						c0,0,4.59-1.85-1.15-3.24C148.42,372.81,158.74,370.5,136.72,367.49z"/>
					<path style="fill:#7A8DB5;" d="M48.87,306.3c0,0,4.93,77.73,7.98,77.96c3.05,0.23,80.84-1.59,80.84-1.59l0.68-15.94
						l-57.38-11.58l0.96-60.78L48.87,306.3z"/>
				</g>
			</g>
		</g>
	</g>
</g>
</svg>
