<?xml version="1.0" encoding="utf-8"?>
<!-- Generator: Adobe Illustrator 17.0.0, SVG Export Plug-In . SVG Version: 6.00 Build 0)  -->
<!DOCTYPE svg PUBLIC "-//W3C//DTD SVG 1.1//EN" "http://www.w3.org/Graphics/SVG/1.1/DTD/svg11.dtd">
<svg version="1.1" id="Calque_1" xmlns="http://www.w3.org/2000/svg" xmlns:xlink="http://www.w3.org/1999/xlink" x="0px" y="0px"
	 width="750px" height="750px" viewBox="0 0 750 750" style="enable-background:new 0 0 750 750;" xml:space="preserve">
<g>
	<rect x="4.27" y="589.87" style="fill:#EBEBEB;" width="741.41" height="0.37"/>
	<rect x="592.7" y="613.74" style="fill:#EBEBEB;" width="78.69" height="0.37"/>
	<rect x="408.42" y="609.09" style="fill:#EBEBEB;" width="86.99" height="0.37"/>
	<rect x="568.03" y="606.95" style="fill:#EBEBEB;" width="28.46" height="0.37"/>
	<rect x="153.25" y="602.46" style="fill:#EBEBEB;" width="64.05" height="0.37"/>
	<rect x="122.09" y="602.46" style="fill:#EBEBEB;" width="22.9" height="0.37"/>
	<rect x="199.22" y="608.72" style="fill:#EBEBEB;" width="80.36" height="0.37"/>
	<path style="fill:#EBEBEB;" d="M355.72,523.74H69.39c-4.67,0-8.46-3.8-8.46-8.46V112.79c0-4.67,3.8-8.46,8.46-8.46h286.33
		c4.67,0,8.46,3.8,8.46,8.46v402.48C364.18,519.94,360.39,523.74,355.72,523.74z M69.39,104.7c-4.46,0-8.09,3.63-8.09,8.09v402.48
		c0,4.46,3.63,8.09,8.09,8.09h286.33c4.46,0,8.09-3.63,8.09-8.09V112.79c0-4.46-3.63-8.09-8.09-8.09H69.39z"/>
	<path style="fill:#EBEBEB;" d="M676.45,523.74H390.12c-4.67,0-8.46-3.8-8.46-8.46V112.79c0-4.67,3.8-8.46,8.46-8.46h286.33
		c4.67,0,8.46,3.8,8.46,8.46v402.48C684.91,519.94,681.12,523.74,676.45,523.74z M390.12,104.7c-4.46,0-8.09,3.63-8.09,8.09v402.48
		c0,4.46,3.63,8.09,8.09,8.09h286.33c4.46,0,8.09-3.63,8.09-8.09V112.79c0-4.46-3.63-8.09-8.09-8.09H390.12z"/>
</g>
<g>
	<g>
		<rect x="399.76" y="391.93" style="fill:#F0F0F0;" width="15.58" height="185.4"/>
		<rect x="100.28" y="577.33" style="fill:#F0F0F0;" width="309.08" height="12.36"/>
		<rect x="94.29" y="391.93" style="fill:#F5F5F5;" width="305.46" height="185.4"/>
		<rect x="403.42" y="380.24" style="fill:#E0E0E0;" width="16.1" height="11.69"/>
		<rect x="90.1" y="380.24" style="fill:#EBEBEB;" width="313.32" height="11.69"/>
		<path style="fill:#FFFFFF;" d="M375.97,470.27H118.08c-6.37,0-11.53-5.16-11.53-11.53v-40.89c0-6.37,5.16-11.53,11.53-11.53
			h257.89c6.37,0,11.53,5.16,11.53,11.53v40.89C387.5,465.11,382.34,470.27,375.97,470.27z"/>
		<path style="fill:#FFFFFF;" d="M375.97,553.32H118.08c-6.37,0-11.53-5.16-11.53-11.53V500.9c0-6.37,5.16-11.53,11.53-11.53h257.89
			c6.37,0,11.53,5.16,11.53,11.53v40.89C387.5,548.16,382.34,553.32,375.97,553.32z"/>
		<path style="fill:#F5F5F5;" d="M180.62,413.15h132.81c1.44,0,2.62-1.18,2.62-2.62V407c0-1.44-1.18-2.62-2.62-2.62H180.62
			c-1.44,0-2.62,1.18-2.62,2.62v3.53C178,411.97,179.18,413.15,180.62,413.15z"/>
		<path style="fill:#F5F5F5;" d="M180.62,496.19h132.81c1.44,0,2.62-1.18,2.62-2.62v-3.53c0-1.44-1.18-2.62-2.62-2.62H180.62
			c-1.44,0-2.62,1.18-2.62,2.62v3.53C178,495.02,179.18,496.19,180.62,496.19z"/>
	</g>
	<g>
		<g>
			<g>
				<rect x="620.37" y="452.75" style="fill:#E6E6E6;" width="47" height="8.99"/>
				<rect x="584.35" y="282.34" style="fill:#E6E6E6;" width="8.68" height="307.53"/>
				<rect x="554.3" y="452.75" style="fill:#F5F5F5;" width="66.07" height="8.99"/>
				<rect x="620.37" y="535.49" style="fill:#E6E6E6;" width="47" height="8.99"/>
				<rect x="554.3" y="535.49" style="fill:#F5F5F5;" width="66.07" height="8.99"/>
				<rect x="620.37" y="287.25" style="fill:#E6E6E6;" width="47" height="8.99"/>
				<rect x="554.3" y="287.25" style="fill:#F5F5F5;" width="66.07" height="8.99"/>
				<rect x="620.37" y="370" style="fill:#E6E6E6;" width="47" height="8.99"/>
				<rect x="554.3" y="370" style="fill:#F5F5F5;" width="66.07" height="8.99"/>
			</g>
		</g>
		<rect x="650.42" y="282.34" style="fill:#E6E6E6;" width="8.68" height="307.53"/>
		<rect x="611.69" y="282.34" style="fill:#F5F5F5;" width="8.68" height="307.53"/>
		<rect x="554.3" y="282.34" style="fill:#F5F5F5;" width="8.68" height="307.53"/>
	</g>
	<g>
		<g>
			<rect x="134.58" y="146.46" style="fill:#E0E0E0;" width="391.76" height="208"/>
			<rect x="124.71" y="146.46" style="fill:#F5F5F5;" width="396.06" height="208"/>
			<rect x="138.9" y="162.85" style="fill:#FFFFFF;" width="367.67" height="175.21"/>
		</g>
	</g>
</g>
<ellipse id="_x3C_Path_x3E__261_" style="fill:#F5F5F5;" cx="374.98" cy="640.05" rx="287.5" ry="16.79"/>
<g>
	<g>
		<g>
			<g>
				<path style="fill:#407BFF;" d="M579.33,414.63H168.18c-2.72,0-4.94-2.22-4.94-4.94l0,0c0-2.72,2.22-4.94,4.94-4.94h411.15
					c2.72,0,4.94,2.22,4.94,4.94l0,0C584.27,412.41,582.05,414.63,579.33,414.63z"/>
				<path style="opacity:0.3;fill:#263238;" d="M579.33,414.63h-96.25c-2.72,0-4.94-2.22-4.94-4.94l0,0c0-2.72,2.22-4.94,4.94-4.94
					h96.25c2.72,0,4.94,2.22,4.94,4.94l0,0C584.27,412.41,582.05,414.63,579.33,414.63z"/>
			</g>
			<g>
				<g>
					<rect x="252.69" y="427.01" style="fill:#263238;" width="316.22" height="34.41"/>
					<rect x="252.69" y="427.01" style="opacity:0.1;fill:#FFFFFF;" width="316.22" height="34.41"/>
				</g>
				<g>
					<polygon style="fill:#263238;" points="564.29,633.2 573.76,633.2 573.37,414.63 560.27,414.63 					"/>
					<polygon style="opacity:0.1;fill:#FFFFFF;" points="564.29,633.2 573.76,633.2 573.37,414.63 560.27,414.63 					"/>
				</g>
				<g>
					<polygon style="fill:#263238;" points="477.11,633.2 467.64,633.2 489.05,414.63 502.15,414.63 					"/>
					<polygon style="opacity:0.2;fill:#FFFFFF;" points="477.11,633.2 467.64,633.2 489.05,414.63 502.15,414.63 					"/>
				</g>
				<g>
					<polygon style="fill:#263238;" points="249.39,633.2 258.86,633.2 258.47,414.63 245.36,414.63 					"/>
					<polygon style="opacity:0.1;fill:#FFFFFF;" points="249.39,633.2 258.86,633.2 258.47,414.63 245.36,414.63 					"/>
				</g>
				<g>
					<polygon style="fill:#263238;" points="162.21,633.2 152.73,633.2 174.14,414.63 187.25,414.63 					"/>
					<polygon style="opacity:0.2;fill:#FFFFFF;" points="162.21,633.2 152.73,633.2 174.14,414.63 187.25,414.63 					"/>
				</g>
			</g>
		</g>
	</g>
	<g>
		<polygon style="fill:#263238;" points="428.52,404.76 406.7,404.76 397.95,362.08 419.78,362.08 		"/>
		<path style="fill:#263238;" d="M457.49,395.96h-94.71c-3.14,0-5.55-2.57-5.36-5.71l3.62-59.95c0.19-3.14,2.91-5.71,6.05-5.71
			h94.71c3.14,0,5.55,2.57,5.36,5.71l-3.62,59.95C463.35,393.4,460.63,395.96,457.49,395.96z"/>
		<path style="fill:#407BFF;" d="M456,395.96H361.3c-3.14,0-5.55-2.57-5.36-5.71l3.62-59.95c0.19-3.14,2.91-5.71,6.05-5.71h94.71
			c3.14,0,5.55,2.57,5.36,5.71l-3.62,59.95C461.87,393.4,459.14,395.96,456,395.96z"/>
		<path style="fill:#FFFFFF;" d="M361.3,393c-0.69,0-1.32-0.26-1.77-0.74c-0.45-0.48-0.68-1.13-0.64-1.82l3.62-59.95
			c0.1-1.58,1.51-2.92,3.09-2.92h94.71c0.69,0,1.32,0.26,1.77,0.74c0.45,0.48,0.68,1.13,0.64,1.82l-3.62,59.95
			c-0.1,1.58-1.51,2.92-3.09,2.92H361.3z"/>
		<polygon style="opacity:0.2;" points="402.88,324.59 409.04,345.67 427.3,324.59 		"/>
	</g>
</g>
<g>
	<g>
		<path style="fill:#263238;" d="M255.69,273.47c0.14,1.14,0.86,2.01,1.61,1.94c0.75-0.07,1.24-1.04,1.1-2.18
			c-0.14-1.14-0.86-2.01-1.61-1.94C256.04,271.35,255.55,272.33,255.69,273.47z"/>
		<path style="fill:#A02724;" d="M256.94,275.14c0,0,2.53,5.57,5.13,8.23c-1.63,1.65-4.61,0.97-4.61,0.97L256.94,275.14z"/>
		<path style="fill:#263238;" d="M251.96,269.09c-0.11,0.01-0.22,0-0.33-0.04c-0.34-0.14-0.51-0.53-0.37-0.88
			c1.38-3.41,4.45-3.97,4.58-3.99c0.34-0.09,0.71,0.18,0.78,0.55c0.06,0.37-0.18,0.71-0.55,0.78c-0.13,0.02-2.48,0.49-3.56,3.17
			C252.41,268.91,252.2,269.06,251.96,269.09z"/>
		<path style="fill:#B55B52;" d="M222.08,291.33l8.92,6.82l12.14,9.3c-0.44,0.47-0.98,2.79-1.19,4.43
			c-0.42,3.41-0.85,6.01,6.72,8.03c1.62,0.43,2.99,1.7,3.24,3.36c0.3,2.01-0.94,4.51-7.93,5.66c-8.11,1.33-14.63-0.91-19.76-3.37
			c-2.97-1.42-3.04-3.25-1.73-6.27C226.21,310.74,224.39,299.83,222.08,291.33z"/>
		<path style="fill:#407BFF;" d="M211.88,322c2.97-5.81,4.2-10.26,4.2-10.26s22.55-1.24,30,0.99c7.45,2.22,12.06,11.86,12.06,11.86
			L211.88,322z"/>
		<g>
			<path style="fill:#B55B52;" d="M221.3,338.76c-0.56,1.66-1.17,3.69-1.74,5.57l-1.67,5.77c-1.05,3.86-2.04,7.73-2.84,11.59
				c-0.84,3.85-1.49,7.68-1.91,11.42c-0.44,3.72-0.61,7.39-0.33,10.63c0.1,1.64,0.37,3.09,0.69,4.38c0.09,0.3,0.17,0.63,0.26,0.91
				c0.11,0.26,0.2,0.52,0.3,0.8l0.02,0.05c0.01,0.02,0.02,0.06-0.03-0.05c-0.08-0.14-0.16-0.28-0.25-0.41
				c-0.21-0.29-0.31-0.43-0.48-0.63c-0.29-0.33-0.51-0.5-0.66-0.61c-0.3-0.2-0.34-0.17-0.28-0.1c0.17,0.15,0.72,0.49,1.39,0.78
				c0.67,0.3,1.46,0.6,2.3,0.88c1.68,0.55,3.54,1.08,5.44,1.58c7.66,1.94,16,3.43,24.14,5.16l-0.26,10.28
				c-4.42,0.6-8.71,0.94-13.11,1.08c-4.39,0.15-8.79,0.13-13.34-0.22c-2.28-0.16-4.59-0.41-7.02-0.85
				c-1.22-0.22-2.47-0.48-3.81-0.85c-1.34-0.37-2.77-0.81-4.46-1.65c-0.87-0.44-1.81-0.97-2.92-1.85c-0.55-0.45-1.16-0.99-1.79-1.72
				c-0.33-0.4-0.61-0.74-0.95-1.27c-0.16-0.25-0.31-0.5-0.46-0.75l-0.19-0.36l-1.03-2.09c-0.31-0.7-0.55-1.38-0.83-2.07
				c-0.98-2.74-1.64-5.44-2.01-8.01c-1.41-10.31-0.32-19.49,1.22-28.43c0.83-4.45,1.81-8.83,2.99-13.13
				c0.58-2.15,1.21-4.29,1.88-6.42c0.68-2.17,1.37-4.17,2.23-6.49L221.3,338.76z"/>
			<g>
				<path style="fill:#407BFF;" d="M207.58,320.16c14.02-3.7,22.33,7.77,17.59,26.74c-4.74,18.97-6.33,19.63-6.33,19.63l-28.91-4.82
					C193.49,343.05,193.22,323.94,207.58,320.16z"/>
			</g>
			<path style="fill:#B55B52;" d="M252.85,392.45l-2.18-0.2c-6.2,0-7.26,1.7-11.07,5.24l-1.42,7.8c10.01,5.13,15.38-0.49,15.38-0.49
				h9.27l-3.27-7.49C258.38,394.58,255.8,392.72,252.85,392.45z"/>
		</g>
		<path style="fill:#B55B52;" d="M218.26,276.58c2.52,13.51,3.31,21.56,11.04,27.58c11.63,9.06,27.65,0.45,29.21-13.61
			c1.41-12.66-2.95-32.62-16.93-36.16C227.8,250.89,215.74,263.07,218.26,276.58z"/>
		<path style="fill:#263238;" d="M245.02,281.3c9.64-0.78,6.82-10.93,3.84-13.06c4.52-1.71,7.64-8.87,3.28-13.82
			c2.55-6.65-4.73-14.67-17.53-13.48c-9.35,0.87-10.41,5.8-10.41,5.8s-11.21-1.18-15.85,8.07c-3.98,7.91,0.84,12.14,0.84,12.14
			s-8.36,2.43-6.06,13.39c2.47,11.77,11.52,9.04,11.52,9.04s-2.03,10.78,10.2,10.94c10.57,0.13,10.7-7.78,10.7-7.78
			S249.29,291.2,245.02,281.3z"/>
		<path style="fill:#B55B52;" d="M237.85,282.09c1.15,3.14,3.52,5.52,5.86,6.72c3.53,1.81,6.23-1.94,5.6-5.79
			c-0.56-3.46-3.57-7.9-7.29-8.1C238.37,274.71,236.53,278.5,237.85,282.09z"/>
		<g>
			<g>
				<g>
					<g>
						<g>
							<polygon style="fill:#B55B52;" points="381.6,616.22 394.78,610.87 385.48,579.2 372.3,584.55 							"/>
							<polygon style="opacity:0.2;" points="376.81,599.9 390.13,595.02 385.48,579.2 372.3,584.55 							"/>
							<path style="fill:#263238;" d="M393.64,605.51l-15.07,5.25c-0.55,0.19-0.83,0.72-0.68,1.26l3.42,12.18
								c0.35,1.26,1.92,2.03,3.18,1.57c5.22-1.92,7.31-2.97,13.76-5.74c3.96-1.71,13.43-5.84,18.56-8.87c5.02-2.96,2-8.02-0.45-7.2
								c-5.79,1.95-15.3,3.23-20.12,1.57C395.37,605.23,394.44,605.23,393.64,605.51z"/>
							<g>
								<path style="fill:#263238;" d="M275.73,433.51c0,0,99.63,8.97,102.19,37.64c5.19,58.32,13.14,114.55,13.14,114.55
									l-20.27,7.41c0,0-24.81-64.07-24.48-109.77c-28.73-8.11-104.29,3.8-116.65-18.37c-10.91-19.57-1.34-33.62-1.34-33.62
									L275.73,433.51z"/>
							</g>
							<polygon style="fill:#407BFF;" points="369.31,597.72 394.55,589.19 393.44,577.69 365,586.86 							"/>
							<path style="fill:#407BFF;" d="M399.21,606.19c-1.24,0.43-2.7,0.65-3.74,0.76c-0.13,0.01-0.26-0.05-0.32-0.16
								c-0.07-0.11-0.06-0.25,0.02-0.36c0.32-0.45,3.22-4.36,5.08-4.29c0.43,0.02,0.79,0.23,1.04,0.63c0.41,0.65,0.47,1.27,0.2,1.83
								C401.13,605.32,400.25,605.83,399.21,606.19z M396.17,606.2c2.57-0.36,4.31-1.05,4.72-1.89c0.17-0.35,0.12-0.74-0.17-1.19
								c-0.13-0.21-0.29-0.31-0.5-0.32C399.22,602.76,397.38,604.67,396.17,606.2z"/>
							<path style="fill:#407BFF;" d="M395.54,606.94c-0.05,0.02-0.1,0.02-0.16,0.02c-0.11-0.02-0.21-0.09-0.26-0.19
								c-0.07-0.16-1.71-3.91-0.81-5.69c0.24-0.48,0.64-0.78,1.17-0.9c0.64-0.14,1.16,0.06,1.46,0.55c0.82,1.36-0.21,4.85-1.27,6.11
								C395.65,606.89,395.6,606.92,395.54,606.94z M395.48,600.86c-0.26,0.09-0.45,0.26-0.58,0.51c-0.54,1.06,0.12,3.31,0.6,4.57
								c0.82-1.39,1.41-3.98,0.88-4.87c-0.1-0.17-0.28-0.35-0.75-0.25C395.58,600.83,395.53,600.85,395.48,600.86z"/>
						</g>
						<g>
							<polygon style="fill:#B55B52;" points="311.06,625.64 325.15,624.97 327.46,591.7 313.37,592.37 							"/>
							<path style="fill:#263238;" d="M325.47,622.56l-15.95-0.5c-0.58-0.02-1.03,0.37-1.08,0.94l-1.17,12.59
								c-0.12,1.31,1.07,2.58,2.41,2.6c5.56,0.08,8.22-0.16,15.23,0.06c4.32,0.14,12.8,0.78,18.72,0.03
								c5.79-0.73,5.01-6.58,2.44-6.79c-6.09-0.5-14.26-4.71-18.17-7.99C327.18,622.92,326.32,622.59,325.47,622.56z"/>
							<path style="fill:#407BFF;" d="M330.43,625.19c-1.31-0.04-2.75-0.36-3.77-0.63c-0.13-0.03-0.22-0.14-0.24-0.27
								c-0.02-0.13,0.04-0.26,0.15-0.33c0.46-0.3,4.57-2.92,6.28-2.19c0.4,0.17,0.65,0.5,0.74,0.96c0.14,0.76-0.01,1.36-0.47,1.78
								C332.53,625.07,331.53,625.23,330.43,625.19z M327.58,624.12c2.52,0.59,4.4,0.57,5.08-0.07c0.28-0.26,0.37-0.65,0.27-1.17
								c-0.05-0.24-0.16-0.39-0.35-0.48C331.66,622,329.26,623.12,327.58,624.12z"/>
							<path style="fill:#407BFF;" d="M326.73,624.58c-0.05,0-0.1-0.02-0.15-0.04c-0.1-0.06-0.16-0.16-0.17-0.27
								c-0.01-0.17-0.2-4.27,1.28-5.6c0.4-0.36,0.88-0.5,1.42-0.42c0.65,0.1,1.07,0.47,1.17,1.04c0.28,1.56-1.93,4.45-3.37,5.25
								C326.85,624.57,326.79,624.58,326.73,624.58z M328.86,618.88c-0.27-0.01-0.51,0.08-0.72,0.27c-0.88,0.8-1.07,3.13-1.07,4.48
								c1.27-1,2.75-3.21,2.56-4.23c-0.03-0.19-0.14-0.43-0.62-0.5C328.96,618.89,328.91,618.89,328.86,618.88z"/>
							<g>
								<polygon style="opacity:0.2;" points="313.36,592.38 327.46,591.71 326.13,610.74 312.08,610.71 								"/>
							</g>
							<path style="fill:#263238;" d="M242.64,432c0,0,107.35,16.4,105.65,41.12c-3.07,44.5-17.99,131.43-17.99,131.43l-21.14,0.3
								c0,0-5-89.18,2.92-121.67c-26.4,0-100.89-0.92-111.06-14.5c-11.23-14.99,0.32-38.55,0.32-38.55L242.64,432z"/>
							<polygon style="fill:#407BFF;" points="306.67,606.5 332.26,606.11 333.51,592.58 305.43,593.68 							"/>
						</g>
						<path style="fill:#407BFF;" d="M261.54,318.66c-8.64-1.68-47.63-1.2-47.63-1.2c-8.06-0.2-14.98,5.75-15.89,13.76
							c-1.37,12.03,6.26,38.89,6.53,52.6c0.33,16.83-2.89,23.65-3.21,46.3l74.38,3.38c0-45.56-1.98-83.29-3.78-101.38
							C271.32,325.84,270.18,320.34,261.54,318.66z"/>
						<path style="opacity:0.3;fill:#FFFFFF;" d="M261.54,318.66c-8.64-1.68-47.63-1.2-47.63-1.2c-8.06-0.2-14.98,5.75-15.89,13.76
							c-1.37,12.03,6.26,38.89,6.53,52.6c0.33,16.83-2.89,23.65-3.21,46.3l74.38,3.38c0-45.56-1.98-83.29-3.78-101.38
							C271.32,325.84,270.18,320.34,261.54,318.66z"/>
						<g>
							<path style="fill:#B55B52;" d="M271.73,333.02c2.33,8,4.67,16.23,7.09,24.27c2.42,8.06,4.89,16.12,7.68,23.76
								c0.68,1.94,1.42,3.75,2.13,5.62l1.14,2.62l0.14,0.33l0.07,0.16l0.04,0.08l0.02,0.04l-0.06-0.11
								c-0.34-0.6-0.71-1.01-0.94-1.25c-0.51-0.49-0.71-0.53-0.74-0.52c-0.01,0.06,0.49,0.4,1.12,0.69c0.63,0.31,1.41,0.61,2.24,0.9
								c1.67,0.58,3.55,1.1,5.47,1.61c7.75,1.98,16.22,3.49,24.47,5.25l-0.26,10.28c-4.48,0.61-8.84,0.94-13.3,1.08
								c-4.45,0.14-8.92,0.11-13.54-0.26c-2.32-0.17-4.67-0.45-7.16-0.92c-1.25-0.24-2.53-0.52-3.93-0.93
								c-1.4-0.42-2.89-0.91-4.74-1.96c-0.95-0.56-2.01-1.24-3.26-2.51c-0.61-0.62-1.29-1.47-1.9-2.54l-0.51-0.94l-1.68-3.17
								c-0.99-2.08-2.04-4.17-2.92-6.23c-1.84-4.16-3.43-8.28-5.03-12.41c-1.5-4.14-2.99-8.28-4.35-12.44
								c-2.74-8.34-5.21-16.61-7.37-25.18L271.73,333.02z"/>
							<g>
								<path style="fill:#407BFF;" d="M250.6,324.76c10.17-10.33,23.17-4.71,28.77,14.03c5.6,18.74,4.57,20.11,4.57,20.11
									l-27.32,10.6C250.17,351.63,240.18,335.34,250.6,324.76z"/>
							</g>
							<path style="fill:#B55B52;" d="M328.81,392.45l-2.18-0.2c-6.2,0-7.26,1.7-11.07,5.24l-1.42,7.8
								c10.01,5.13,15.38-0.49,15.38-0.49h9.27l-3.27-7.49C334.33,394.58,331.76,392.72,328.81,392.45z"/>
						</g>
					</g>
				</g>
			</g>
		</g>
	</g>
	<g>
		<path style="fill:#407BFF;" d="M204.6,488.58h95.02c2.08,0,3.78-1.7,3.78-3.78v-6.11c0-2.08-1.7-3.78-3.78-3.78H204.6
			c-2.08,0-3.78,1.7-3.78,3.78v6.11C200.82,486.88,202.52,488.58,204.6,488.58z"/>
		<g>
			<polygon style="fill:#407BFF;" points="205.03,640.81 200.82,640.81 205.67,488.58 211.49,488.58 			"/>
			<polygon style="opacity:0.4;fill:#FFFFFF;" points="205.03,640.81 200.82,640.81 205.67,488.58 211.49,488.58 			"/>
		</g>
		<g>
			<polygon style="fill:#407BFF;" points="243.77,640.81 247.97,640.81 243.13,488.58 237.31,488.58 			"/>
			<polygon style="opacity:0.4;fill:#FFFFFF;" points="243.77,640.81 247.97,640.81 243.13,488.58 237.31,488.58 			"/>
		</g>
		<g>
			<polygon style="fill:#407BFF;" points="260.46,640.81 256.25,640.81 261.09,488.58 266.92,488.58 			"/>
			<polygon style="opacity:0.4;fill:#FFFFFF;" points="260.46,640.81 256.25,640.81 261.09,488.58 266.92,488.58 			"/>
		</g>
		<g>
			<polygon style="fill:#407BFF;" points="299.19,640.81 303.4,640.81 298.56,488.58 292.74,488.58 			"/>
			<polygon style="opacity:0.4;fill:#FFFFFF;" points="299.19,640.81 303.4,640.81 298.56,488.58 292.74,488.58 			"/>
		</g>
		<g style="opacity:0.3;">
			<polygon style="fill:#407BFF;" points="205.66,488.58 211.49,488.58 211.22,495.05 205.46,495.05 			"/>
			<polygon style="fill:#407BFF;" points="243.34,495.05 237.58,495.05 237.31,488.58 243.13,488.58 			"/>
			<polygon style="fill:#407BFF;" points="266.91,488.58 266.64,495.05 260.89,495.05 261.1,488.58 			"/>
			<polygon style="fill:#407BFF;" points="298.77,495.05 293,495.05 292.73,488.58 298.56,488.58 			"/>
		</g>
	</g>
</g>
<g>
	<g>
		<path style="fill:#407BFF;" d="M581.02,302.52H343.58c-7.87,0-13.92-6.44-13.45-14.31l9.07-150.31
			c0.47-7.87,7.3-14.31,15.18-14.31h237.44c7.87,0,13.92,6.44,13.45,14.31L596.2,288.2C595.72,296.08,588.89,302.52,581.02,302.52z"
			/>
		<polygon style="fill:#407BFF;" points="375.36,270.73 397.27,345.67 462.24,270.73 		"/>
		<path style="opacity:0.1;fill:#FFFFFF;" d="M569.51,242.03h-133.1c-4.41,0-7.81-3.61-7.54-8.02l5.08-84.26
			c0.27-4.41,4.09-8.02,8.51-8.02h133.1c4.41,0,7.81,3.61,7.54,8.02l-5.08,84.26C577.75,238.42,573.92,242.03,569.51,242.03z"/>
		<path style="opacity:0.1;fill:#FFFFFF;" d="M498.29,278.37h-133.1c-4.41,0-7.81-3.61-7.54-8.02l5.08-84.26
			c0.27-4.41,4.09-8.02,8.51-8.02h133.1c4.41,0,7.81,3.61,7.54,8.02l-5.08,84.26C506.54,274.76,502.71,278.37,498.29,278.37z"/>
		<g style="opacity:0.5;">
			<path style="fill:#FFFFFF;" d="M363.43,136.66c-0.17,2.44-2.08,4.41-4.26,4.41c-2.18,0-3.8-1.97-3.62-4.41
				c0.17-2.44,2.08-4.41,4.26-4.41S363.6,134.22,363.43,136.66z"/>
			<path style="fill:#FFFFFF;" d="M378,136.66c-0.17,2.44-2.08,4.41-4.26,4.41c-2.18,0-3.8-1.97-3.62-4.41
				c0.17-2.44,2.08-4.41,4.26-4.41C376.55,132.25,378.17,134.22,378,136.66z"/>
			<path style="fill:#FFFFFF;" d="M392.57,136.66c-0.17,2.44-2.08,4.41-4.26,4.41c-2.18,0-3.8-1.97-3.62-4.41
				c0.17-2.44,2.08-4.41,4.26-4.41C391.12,132.25,392.74,134.22,392.57,136.66z"/>
		</g>
		<path style="opacity:0.3;fill:#263238;" d="M579.25,301.12H341.81c-3.91,0-7.5-1.53-10.12-4.31c-2.62-2.79-3.94-6.48-3.7-10.39
			l9.07-150.31c0.49-8.08,7.46-14.66,15.55-14.66h237.44c3.91,0,7.5,1.53,10.12,4.31c2.62,2.79,3.94,6.48,3.7,10.39l-9.07,150.31
			C594.31,294.54,587.34,301.12,579.25,301.12z M352.6,122.18c-7.7,0-14.34,6.26-14.81,13.96l-9.07,150.31
			c-0.22,3.71,1.02,7.2,3.5,9.84c2.48,2.63,5.88,4.08,9.58,4.08h237.44c7.7,0,14.34-6.26,14.81-13.96l9.07-150.31
			c0.22-3.71-1.02-7.2-3.5-9.84c-2.48-2.63-5.88-4.08-9.58-4.08H352.6z"/>
	</g>
	<g>
		<path style="fill:#263238;" d="M450.68,213.25c-1.01,2.14-1.93,3.96-2.96,5.89c-1,1.9-2.07,3.75-3.13,5.61
			c-2.18,3.69-4.43,7.34-6.89,10.88c-1.22,1.78-2.49,3.54-3.76,5.29c-1.35,1.72-2.63,3.46-4.06,5.15c-2.72,3.43-5.82,6.68-9.06,9.85
			c-0.82,0.79-1.71,1.55-2.57,2.32c-0.86,0.77-1.71,1.54-2.69,2.25l-2.85,2.15c0,0-0.51,0.37-0.87,0.6
			c-0.38,0.25-0.79,0.46-1.2,0.67c-0.82,0.4-1.68,0.7-2.56,0.9c-1.75,0.4-3.56,0.41-5.28,0.03c-1.72-0.37-3.38-1.13-4.81-2.23
			c-0.71-0.55-1.36-1.18-1.92-1.87l-0.4-0.53l-0.19-0.27l-0.07-0.12l-0.28-0.48l-1.07-1.93c-0.31-0.63-0.54-1.21-0.81-1.82
			c-1.04-2.42-1.69-4.66-2.29-6.9c-1.1-4.45-1.74-8.75-2.17-13.04c-0.41-4.31-0.64-8.48-0.56-12.86c0.05-2.82,2.38-5.07,5.2-5.01
			c2.3,0.04,4.22,1.6,4.82,3.71l0.05,0.17c2.15,7.57,4.39,15.47,7.28,22.2c0.74,1.63,1.48,3.26,2.29,4.5
			c0.2,0.3,0.39,0.65,0.59,0.92c0.2,0.23,0.38,0.45,0.56,0.68l0.13,0.17l0.03,0.04l-0.07-0.11c-0.05-0.08-0.11-0.15-0.17-0.22
			c-0.23-0.29-0.5-0.58-0.8-0.82c-0.6-0.49-1.3-0.83-2.02-1c-0.72-0.17-1.48-0.19-2.23-0.03c-0.38,0.07-0.76,0.2-1.12,0.37
			c-0.19,0.08-0.36,0.19-0.53,0.28c-0.15,0.08-0.44,0.31-0.25,0.14l1.86-1.8c0.63-0.57,1.23-1.24,1.84-1.9
			c0.61-0.67,1.23-1.29,1.82-1.98c4.75-5.59,9.12-11.94,13.22-18.54c2.04-3.31,4.03-6.68,5.97-10.09l2.86-5.13l2.71-5.02l0.14-0.26
			c2.68-4.97,8.89-6.82,13.86-4.14C451.07,202.49,452.95,208.38,450.68,213.25z"/>
		<path style="fill:#FFC3BD;" d="M389.62,222.17l-7.23-4.12l7.77-7.94c0,0,3.25,2.32,6.3,5.68c1.92,2.12,1.35,5.47-1.18,6.66l0,0
			C393.47,223.29,391.36,223.19,389.62,222.17z"/>
		<path style="fill:#FFC3BD;" d="M380.75,209.54l3.92-2.8c1.07-0.76,2.54-0.53,3.33,0.51l2.15,2.86l-7.77,7.94l-2.44-5.58
			C379.48,211.42,379.82,210.2,380.75,209.54z"/>
		<path style="fill:#FFFFFF;" d="M435.13,206.61c1.15-3.94,4.52-6.9,8.57-7.64c3.18-0.55,4.66-1.04,8.73-1.34
			c7.02-0.5,18.56-0.04,26.52,0.49c4.63,0.31,9.35,0.96,13.12,1.58l0.14,0.02c4.15,0.68,7,4.65,6.29,8.76
			c-1.85,10.71-7.3,29.33-7.89,46.9c-0.78,23.07-0.43,36.35-0.83,41.91l-59.39-1.14C426.25,239.74,431.4,219.37,435.13,206.61z"/>
		<path style="fill:#263238;" d="M493.79,198.83l-0.14-0.02c-3.97-0.66-8.95-1.34-13.83-1.67c-0.85-0.06-1.73-0.11-2.65-0.16
			c-2.6,10.74-18.06,28.79-22.75,56.18c-1.81-22.88-3.21-46.8-0.55-56.13c-1.61-0.03-9.33,0.51-12.54,1.06
			c-4.26,0.79-7.86,4.18-9.41,8.74c-3.65,10.74-10.61,34.79-6.32,93.92h65.99c0.44-5.88-1.11-18.39,1.27-37.55
			c2.31-18.58,5.6-43.83,7.55-55.13C501.17,203.73,498.17,199.55,493.79,198.83z"/>
		<path style="opacity:0.2;fill:#FFFFFF;" d="M452.97,297.69c-0.2,0-0.38-0.16-0.39-0.36c-1.4-16.68,1.21-40.63,1.24-40.87
			c0.02-0.22,0.22-0.38,0.44-0.35c0.22,0.02,0.37,0.22,0.35,0.44c-0.03,0.24-2.63,24.12-1.23,40.72c0.02,0.22-0.14,0.41-0.36,0.43
			C452.99,297.69,452.98,297.69,452.97,297.69z"/>
		<path style="opacity:0.3;" d="M491.47,222.3c-2.45,11.08-1.15,26.45,1.46,40.47c1.95-15.73,4.6-36.15,6.54-48.79
			C496.77,212.17,493.41,213.45,491.47,222.3z"/>
		<path style="fill:#FFC3BD;" d="M453.68,197.56c7.7-1.68,9.03-6.43,8.48-11.67c-0.12-1.28-0.35-2.6-0.64-3.91l9.62-7.85l7.07-5.75
			c-1.92,8.51-4.04,24.03,1.77,29.83c0,0-4.74,7.79-17.94,6.84C450.87,204.23,453.68,197.56,453.68,197.56z"/>
		<polygon style="fill:#E0E0E0;" points="465.38,203.07 463.25,205.1 470.06,207.66 469.18,205.07 		"/>
		<path style="fill:#F5F5F5;" d="M470.6,211.28c0,0-2.68-6.78-5.21-8.21c8.89-2.39,13.21-7.31,13.21-7.31l4.05,1.61
			C482.64,197.36,483.92,205.15,470.6,211.28z"/>
		<polygon style="fill:#E0E0E0;" points="461.64,202.55 463.25,205.1 456.07,205.72 457.51,203.45 		"/>
		<path style="fill:#F5F5F5;" d="M452.46,209.37c0,0,3.79-4.25,9.18-6.82c-3.9-1.16-4.13-6.53-4.13-6.53l-3.78,0.72
			C453.73,196.74,446.78,203.49,452.46,209.37z"/>
		<path style="opacity:0.2;" d="M461.52,181.97c0.29,1.31,0.52,2.64,0.64,3.91c3.6-0.66,8.39-4.41,8.88-8.08
			c0.18-1.38,0.2-2.72,0.1-3.68L461.52,181.97z"/>
		<path style="fill:#263238;" d="M449.85,143.15c-3.44,4.24-3.11,19.51,4.17,19.7C461.3,163.03,456.11,135.45,449.85,143.15z"/>
		<path style="fill:#FFC3BD;" d="M481.22,154.28c-0.73,11.58-0.57,18.38-6.41,24.37c-8.79,9.01-23.02,3.83-25.76-7.7
			c-2.46-10.38-0.85-27.56,10.46-32.27C470.65,134.06,481.95,142.7,481.22,154.28z"/>
		<path style="fill:#263238;" d="M475.53,144.63c-7.28,7.23,2.18,12.52-1.52,16.41c6.87,3.58,4.35,6.23,4.35,6.23
			s-1.15,2.78,0.07,6.11c7.73-2,22.1-27.7,6.43-31.65C475.41,145.93,475.53,144.63,475.53,144.63z"/>
		<path style="fill:#263238;" d="M478.5,149.82c-6.9,1.07-15.57-2.22-20.95-5s-6.17,2.47-4.19,4.08c-3.45,0.12-7.83-2.62-6.74-8.71
			c0.99-5.56,8.28-10.81,18.65-6.12c7.33,3.32,16.38-1.05,19.9,2.78C488.7,140.68,483.11,149.11,478.5,149.82z"/>
		<path style="fill:#263238;" d="M483.2,142.29c4.63-0.62,4.83-3.53,3.53-8.65c5,7.11,3,9.28-0.01,11
			C483.45,143.52,483.2,142.29,483.2,142.29z"/>
		<path style="fill:#FFC3BD;" d="M484.33,163.16c-1.13,2.5-3.14,4.32-5.05,5.18c-2.86,1.29-4.32-1.35-3.55-4.45
			c0.7-2.79,3.03-6.83,5.91-6.8C484.49,157.11,485.62,160.29,484.33,163.16z"/>
		<path style="fill:#263238;" d="M463.15,157.78c0,0.94-0.5,1.71-1.12,1.72c-0.61,0.01-1.11-0.75-1.11-1.7
			c0-0.94,0.5-1.71,1.12-1.72C462.65,156.07,463.15,156.83,463.15,157.78z"/>
		<path style="fill:#263238;" d="M452.52,157.87c0,0.94-0.5,1.71-1.12,1.72c-0.61,0.01-1.11-0.75-1.11-1.7
			c0-0.94,0.5-1.71,1.12-1.72C452.03,156.17,452.52,156.93,452.52,157.87z"/>
		<path style="fill:#ED847E;" d="M456.46,158.2c0,0-2.15,5.45-4.51,8.1c1.66,1.54,4.49,0.81,4.49,0.81L456.46,158.2z"/>
		<path style="fill:#263238;" d="M460.27,169.6c3.66-0.47,5.36-3.03,5.44-3.15c0.08-0.13,0.04-0.3-0.08-0.38
			c-0.13-0.09-0.3-0.05-0.38,0.07c-0.02,0.03-1.95,2.94-6.08,2.97c-0.15,0-0.27,0.13-0.27,0.28c0,0.15,0.13,0.28,0.29,0.27
			C459.56,169.67,459.93,169.65,460.27,169.6z"/>
		<path style="fill:#263238;" d="M468.29,154.03c0.09-0.01,0.18-0.05,0.25-0.1c0.24-0.18,0.29-0.53,0.1-0.77
			c-1.85-2.44-4.4-2.26-4.5-2.26c-0.29-0.01-0.52,0.29-0.49,0.59c0.03,0.3,0.3,0.53,0.6,0.51c0.11-0.01,2.07-0.11,3.52,1.81
			C467.9,153.98,468.1,154.06,468.29,154.03z"/>
		<path style="fill:#263238;" d="M448.23,154.48c0.17-0.02,0.33-0.13,0.42-0.3c1.09-2.24,3.11-2.54,3.13-2.54
			c0.3-0.04,0.51-0.32,0.46-0.62c-0.05-0.3-0.33-0.51-0.63-0.48c0,0,0,0,0,0c-0.11,0.01-2.62,0.38-3.95,3.14
			c-0.13,0.27-0.02,0.61,0.26,0.74C448.01,154.48,448.12,154.49,448.23,154.48z"/>
		<path style="fill:#263238;" d="M502.15,205.52c1.8,3.81,3.32,7.38,4.8,11.13c1.48,3.71,2.81,7.48,4.12,11.27
			c2.52,7.63,4.72,15.4,6.28,23.54c0.34,2.06,0.73,4.08,0.98,6.2l0.2,1.57l0.1,0.79l0.05,0.4l0.05,0.55c0.12,1.46,0.14,3-0.02,4.6
			c-0.32,3.19-1.47,6.6-3.37,9.39c-1.87,2.81-4.33,4.86-6.73,6.3c-2.41,1.45-4.81,2.38-7.15,3.02c-2.33,0.64-4.6,1.03-6.82,1.22
			c-2.22,0.21-4.39,0.25-6.54,0.16c-2.19-0.09-4.18-0.3-6.5-0.69c-2.78-0.47-4.65-3.1-4.19-5.88c0.35-2.11,1.96-3.7,3.93-4.14
			l0.54-0.12c1.54-0.34,3.42-0.75,5.08-1.2c1.7-0.45,3.36-0.97,4.93-1.53c3.11-1.13,5.94-2.63,7.49-4.16
			c0.77-0.76,1.14-1.46,1.29-1.96c0.13-0.52,0.09-0.92,0.01-1.58c-0.03-0.33-0.11-0.73-0.23-1.19l-0.53-2.41
			c-0.33-1.7-0.84-3.45-1.27-5.17c-0.93-3.48-1.97-6.97-3.15-10.46c-1.12-3.5-2.4-6.99-3.68-10.47c-1.29-3.49-2.66-6.97-4.04-10.44
			c-1.39-3.43-2.84-7-4.21-10.24l-0.07-0.15c-2.21-5.2,0.22-11.21,5.42-13.41C493.97,198.32,499.81,200.59,502.15,205.52z"/>
		<path style="fill:#FFC3BD;" d="M476.81,279.18l-6.53,3.11l11.3,4.01c0,0,7.53-2.4,3.87-6.58l-2.02-0.64
			C480.17,278.06,478.56,278.18,476.81,279.18z"/>
		<path style="fill:#FFC3BD;" d="M471.15,290.31l4.97,0.94c1.46,0.28,2.92-0.41,3.65-1.7l1.81-3.25l-11.3-4.01l-1.56,3.09
			C467.69,287.43,468.91,289.89,471.15,290.31z"/>
	</g>
</g>
</svg>
