<?xml version="1.0" encoding="utf-8"?>
<!-- Generator: Adobe Illustrator 17.0.0, SVG Export Plug-In . SVG Version: 6.00 Build 0)  -->
<!DOCTYPE svg PUBLIC "-//W3C//DTD SVG 1.1//EN" "http://www.w3.org/Graphics/SVG/1.1/DTD/svg11.dtd">
<svg version="1.1" id="Calque_1" xmlns="http://www.w3.org/2000/svg" xmlns:xlink="http://www.w3.org/1999/xlink" x="0px" y="0px"
	 width="960px" height="560px" viewBox="0 0 960 560" style="enable-background:new 0 0 960 560;" xml:space="preserve">
<path style="fill:#FFFFFF;" d="M445.45,355.65l-62.69-156.7l-22.43,67.29H232.8c34.18,53.07,93.46,103.75,168.29,167.52
	c21.4,18.24,44.17,37.63,68.09,58.56L480,501.8l10.82-9.47c23.92-20.93,46.68-40.33,68.08-58.56
	c74.83-63.76,134.11-114.45,168.29-167.52H490.16L445.45,355.65z"/>
<path style="fill:#FFFFFF;" d="M612.67,3.23C545.34,3.47,502.47,49.37,480,91.48C457.64,49.63,414.95,3.23,348.46,3.23
	c-0.39,0-0.75,0-1.12,0c-78.23,0.62-143.7,67.36-147.68,151.93c-1.33,28.13,3.91,53.71,14.42,78.21h122.57l43.33-129.97
	l68.82,172.06l21.04-42.09h276.08c10.52-24.5,15.75-50.08,14.42-78.21C756.37,70.59,690.89,3.86,612.67,3.23z"/>
</svg>
