<?xml version="1.0" encoding="utf-8"?>
<!-- Generator: Adobe Illustrator 17.0.0, SVG Export Plug-In . SVG Version: 6.00 Build 0)  -->
<!DOCTYPE svg PUBLIC "-//W3C//DTD SVG 1.1//EN" "http://www.w3.org/Graphics/SVG/1.1/DTD/svg11.dtd">
<svg version="1.1" id="Calque_1" xmlns="http://www.w3.org/2000/svg" xmlns:xlink="http://www.w3.org/1999/xlink" x="0px" y="0px"
	 width="750px" height="750px" viewBox="0 0 750 750" style="enable-background:new 0 0 750 750;" xml:space="preserve">
<g>
	<g>
		<path style="fill:#734E4F;" d="M656.67,280.04c-1.34,1.86-2.62,3.73-3.89,5.39C654.17,283.69,655.46,281.9,656.67,280.04z"/>
	</g>
	<g>
		<path style="fill:#FF9D2E;" d="M725.85,255.34c-3.04-10.36-9.38-23.31-6.9-34.31l-27.94-10.34c-4.6,0.11-9.01,10.88-10.83,14.64
			c-8.38,17.32-12.82,38.27-23.53,54.72c3.17-4.38,6.71-8.67,11.4-9.86c-0.02,3.14-2.16,6.36-2.87,9.5
			c-0.88,3.88-1.32,7.91-1.22,11.87c0.24,9.08,2.61,17.67,5.17,26.32c3.34,11.3,8.19,21.48,13.68,31.82
			c5.3,10,15.33,21.52,16.37,33.14c6.45-10.83,11.71-22.58,17.85-33.65c6.37-11.5,10.8-23.53,16.4-35.35
			c0.96,6.3,1.34,12.95,1.14,19.33c-0.01,0.17,0.22,0.19,0.25,0.02c1.48-8.98,4.29-18.11,4.39-27.23
			C739.42,288.14,730.73,271.93,725.85,255.34z"/>
	</g>
</g>
<path style="fill:#F5B0B5;" d="M668.08,253.51l-52.29,53.19c0,0,13.43,8,13.94,7.49c0.51-0.51,42.86-37.69,42.86-37.69
	L668.08,253.51z"/>
<path style="fill:#491F06;" d="M645.19,481.19c0.1-8.09,10.11-112.8,10.11-112.8l32.06-1.78L671.47,487.4
	c17.13,13.96,39.34,65.53,52.29,106.53l-7.52,6.09l-63.58-93.96C647.69,498.72,645.08,490.05,645.19,481.19z"/>
<path style="fill:#542C15;" d="M672.85,508.35c0.97-5.24,2.48-49.28,3.92-78.12l3.5-72.71l29.51,0.52c0,0,11.94,31.48,6.35,46.51
	c-3.48,9.36-6.51,26.03-6.51,26.03l-13.88,84.29c6.93,23.67-7.81,91.93-7.81,91.93l-10.48,0.55
	C681.51,572.89,671.41,516.11,672.85,508.35z"/>
<path style="fill:#FF9D2E;" d="M656.64,623.92c26.07-2.6,37.65-4.24,31.34-17c0-0.04-0.03-0.09-0.06-0.13c0,0-6.24,0.03-9.75,0.19
	l-22.12,11.16C650.07,620.7,652.99,624.26,656.64,623.92z"/>
<path style="fill:#FF9D2E;" d="M702.99,614.68l9.41-3.81l3.84-10.85c0,0,5.72-4.55,7.52-6.09c0,0,5.57,3.73,6.15,6.04
	c1.02,4.08-2.2,9.42-8.35,16.26c-0.77,0.86-1.8,1.45-2.92,1.71c-3.32,0.75-14.84,1.99-14.84,1.99l0,0
	C700.93,619.71,700.32,615.76,702.99,614.68z"/>
<path style="fill:#00D2BC;" d="M714.86,372.83l-60.82,4.13l5.63-38.54c0.78-5.31,0.87-10.69,0.28-16.02l-1.74-15.77l-4.06-5.33
	c-4.82-5.62-5.6-13.65-1.94-20.09l15.86-27.71c0,0,2.37-0.46,6.16-0.82c0.57-0.06,1.23-0.1,1.85-0.15l0-0.01l0.47-0.03
	c0.28-0.02,0.52-0.05,0.81-0.06c0.72-0.05,1.48-0.08,2.26-0.12l1.48-0.1l-0.07-1.27c-0.05-0.9,0.49-1.71,1.27-2.02
	c0.29-0.13,0.58-0.19,0.9-0.19l12.84,0.38c0.02,0,0.07,0,0.09,0.02c1.05,0.06,1.89,0.89,1.95,1.96l0.14,2.53l0.07,0.02
	c0.79,0.16,1.57,0.33,2.35,0.53c0.83,0.2,1.67,0.46,2.51,0.71c0.02,0.01,0.04,0.01,0.05,0.02c5.71,1.83,9.79,6.97,10.21,12.95
	c1.13,16.14-5.78,37.12-8.93,48.81c-1.54,5.72-1.59,11.7-0.14,17.45C706.97,344.47,711.34,361.36,714.86,372.83z"/>
<path style="fill:#F5B0B5;" d="M695.54,238.37l-13.77,0.77l0.55,9.81c0.29-0.13,0.58-0.19,0.9-0.19l12.84,0.38
	c0.02,0,0.07,0,0.09,0.02L695.54,238.37z"/>
<path style="fill:#F9CACC;" d="M708.01,237.7c2.46-2.82,3.86-7.54,1.3-9.2c-0.76-0.5-1.83-0.69-3-0.64
	c2.9-10.22,1.58-24.05-4.8-28.22c-8.35-5.45-18.25-5.2-31.74,16.77c-5.34,8.69-4.32,21.41,3.47,27.53
	c5.86,4.6,17.12,1.68,24.59-3.74C701.13,240.9,704.9,241.28,708.01,237.7z"/>
<g>
	<g>
		<g>
			<path style="fill:#491F06;" d="M675.28,226.89c-0.04,0-0.09-0.01-0.14-0.02c-1.11-0.36-2.58-0.96-2.54-2.07
				c0.06-1.53,3.28-2.48,4.66-2.81c0.29-0.07,0.59,0.11,0.66,0.4c0.07,0.29-0.11,0.59-0.4,0.66c-1.95,0.48-3.82,1.35-3.83,1.8
				c0,0,0.06,0.43,1.79,0.99c0.29,0.09,0.44,0.4,0.35,0.69C675.75,226.76,675.52,226.91,675.28,226.89z"/>
		</g>
	</g>
	<g>
		<g>
			<path style="fill:#491F06;" d="M675.48,232.6c-0.48-0.18-0.77-0.33-0.78-0.33c-0.25-0.13-0.35-0.45-0.22-0.7
				c0.14-0.25,0.43-0.36,0.7-0.22c0.23,0.12,5.77,2.95,9.3-2.15c0.16-0.23,0.48-0.3,0.72-0.13c0.23,0.16,0.29,0.49,0.13,0.72
				C682.11,234.45,677.34,233.29,675.48,232.6z"/>
		</g>
	</g>
	
		<ellipse transform="matrix(0.9196 0.3928 -0.3928 0.9196 142.9169 -252.0021)" style="fill:#491F06;" cx="687.29" cy="223.25" rx="1.81" ry="2"/>
	
		<ellipse transform="matrix(0.9197 0.3927 -0.3927 0.9197 140.1142 -247.9198)" style="fill:#491F06;" cx="676.06" cy="218.53" rx="1.81" ry="2"/>
	<g>
		<g>
			<path style="fill:#491F06;" d="M695.6,222.03c-0.22-0.08-0.38-0.29-0.4-0.53c-0.29-3.92-3.8-3.89-3.95-3.89
				c-0.34,0.01-0.62-0.26-0.63-0.6c-0.01-0.34,0.26-0.62,0.61-0.63c1.67-0.04,4.91,0.97,5.21,5.03c0.03,0.34-0.23,0.64-0.57,0.66
				C695.77,222.07,695.68,222.06,695.6,222.03z"/>
		</g>
	</g>
	<g>
		<g>
			<path style="fill:#491F06;" d="M681.77,212.98c-0.18,0.07-0.4,0.03-0.55-0.12c-2.34-2.33-4.55-0.38-4.64-0.3
				c-0.21,0.19-0.54,0.17-0.73-0.04c-0.19-0.21-0.18-0.54,0.04-0.73c1.04-0.94,3.65-2.08,6.07,0.33c0.2,0.2,0.2,0.53,0,0.74
				C681.9,212.91,681.84,212.95,681.77,212.98z"/>
		</g>
	</g>
</g>
<g>
	<path style="fill:#FF9D2E;" d="M711.26,198.47c-6.27-6.98-15.87-9.94-25.1-8.02c-3.86,0.81-7.59,2.79-9.89,6.01
		c-6.03,8.44-2.23,13.53-2.23,13.53c-0.29,0.28,4.03-4.02,6.74-6.7c-0.22,2.57,0.37,8.15,1.69,10.36c0.97-2.96,2.34-5.79,4.06-8.38
		c1.64,4.15,2.23,8.71,1.72,13.14c1.55-3.43,3.11-6.86,4.66-10.28c3.68,4.33,7.49,8.93,8.56,14.51c0.72,3.75,0.12,7.66-1.13,11.27
		c-1.25,3.61-4.43,11.55-6.33,14.86c10.07-3.11,14.7-10.43,19.45-15.77c3.98-4.48,5.39-10.79,5-16.77
		c-0.38-5.8-2.36-11.54-5.89-16.16C712.16,199.51,711.72,198.98,711.26,198.47z"/>
</g>
<path style="fill:#F5B0B5;" d="M669.26,231.63c-0.47-1.9-8.55,2.02-14.7,3.11c-3.12,0.55-6.14,1.65-8.73,3.48
	c-3.66,2.58-5.8,5.86-7.15,13.46l0,0l-22.88,55.03c-0.69,1.65-0.78,3.49-0.26,5.21l0,0c1.44,4.76,6.95,6.94,11.26,4.44h0
	c4.1-2.37,7.02-6.35,8.06-10.97l7.28-32.35l0,0l4.7-17.84c0.69,0.02,5.41,1.18,6.39-5.28c0,0,4.96,2.06,6.14-1.52
	c0,0,1.83-0.81,1.75-2.64c0,0,1.49-1.78,0.13-3.54l-4.76-3.95C656.48,238.26,669.71,235.88,669.26,231.63z"/>
<g>
	<path style="fill:#FFC285;" d="M590.57,255.38c0.58-9.88,2.69-17.67,6.33-23.39c3.64-5.72,8.62-11.32,14.95-16.81
		c5.68-4.62,9.85-8.58,12.52-11.88c2.67-3.3,4.16-7.56,4.47-12.8c0.26-4.49-1.13-8.29-4.18-11.4c-3.05-3.11-6.44-4.77-10.18-4.99
		c-5.84-0.34-10.59,1.26-14.25,4.8c-1.22,1.18-2.39,2.49-3.52,3.96c-4.39,5.66-12.19,7.38-18.49,3.96l0,0
		c-7.82-4.24-10.02-14.44-4.67-21.54c0.24-0.32,0.48-0.64,0.73-0.96c4.22-5.46,10.13-10.18,17.72-14.17
		c7.59-3.98,16.62-5.67,27.1-5.06c13.62,0.8,24.45,4.89,32.51,12.27c8.05,7.38,11.67,18.11,10.84,32.17
		c-0.57,9.73-2.55,17.27-5.94,22.63c-3.39,5.36-6.99,9.69-10.78,13c-3.8,3.31-6.25,5.46-7.36,6.44c-5.07,4.51-9.02,9.16-11.85,13.95
		c-2.84,4.79-4.48,11.08-4.93,18.86l-0.28,4.71l-31.43-1.84L590.57,255.38z M589.83,310.41c-3.27-3.12-4.77-7.07-4.49-11.86
		c0.27-4.64,2.26-8.43,5.96-11.36c3.7-2.94,8.17-4.25,13.41-3.95c5.24,0.31,9.45,2.13,12.63,5.47c3.18,3.34,4.64,7.33,4.37,11.97
		c-0.28,4.79-2.15,8.55-5.62,11.27c-3.46,2.73-7.89,3.93-13.28,3.62C597.43,315.25,593.1,313.53,589.83,310.41z"/>
</g>
<path style="fill:#F9CACC;" d="M702.62,255.86c-5.09-0.94-10.19,1.63-12.47,6.27l-20.31,41.32l-38.1-39.51l-0.1-0.1l-2.52-2.61
	c0,0,0.75-12.39-3.37-14.33c0,0-0.41,1.22-1.57,2.22c-0.02,0.01-0.03,0.02-0.06,0.04c-4.4,3.13-9.69-8.15-9.69-8.15
	c-2.84-5.79-4.26-4.7-4.26-4.7c-1.46,0.77,2.32,8.05,4.69,12.28c-0.27-0.15-0.54-0.31-0.82-0.48l-6.7-9.18
	c-1.42-2.84-2.51-0.56-2.51-0.56c-0.87,3.38,8.26,16.72,8.26,16.72l-4.86-6.19c-5.27-8.53-6.05-5.84-6.05-5.84
	c-0.76,2.56,8.94,15.66,8.94,15.66l-7.05-8.77c-2.72-1.2-0.71,4.1-0.71,4.1c2.4,8.8,19.57,18.76,19.57,18.76l0,0
	c0.28,0.22,0.55,0.44,0.83,0.67l18.25,25.9l0.24,0.35l17.72,25.16c5.85,8.3,18.38,7.56,23.22-1.36l27.5-50.8
	C714.43,265.83,710.34,257.29,702.62,255.86z"/>
<g>
	<path style="fill:#491F06;" d="M564.89,438.65c-1.41-1.89-3.2-3.35-5.19-4.19c-1.38-0.58-2.93-0.92-3.95-2.2
		c-3.29-4.16,4.83-7.16,6.84-8.2c2.13-1.1,4.3-3.22,4.23-6.02c-0.05-2.11-1.37-3.84-2.72-5.19c-3.32-3.31-7.37-5.56-11.61-6.46
		c-0.06-1.9-4.75-14.62-4.75-14.62l-35.66,0.83l-2.25,8.65c0,0-13.31,3.46-14.51,6.41c-0.69,1.71-0.44,3.8,0.32,5.47
		c0.75,1.67,1.94,2.98,3.15,4.19c-1.38,2.42-3.93,3.32-6.09,4.67c-2.16,1.35-4.28,4.06-3.56,6.87c0.92,3.56,5.39,3.82,6.92,7.07
		c-1.6,1.26-3.21,2.52-4.81,3.78c-0.5,0.39-1.02,0.81-1.32,1.43c-0.86,1.76,0.45,3.94,1.89,5.01c2.14,1.6,4.68,2.2,7.17,2.65
		c14.73,2.65,29.71,0.84,44.6,0.5c7.02-0.16,14.15,0,20.95-2.14c1.13-0.36,2.42-0.97,2.73-2.33c0.19-0.84-0.06-1.73-0.36-2.51
		C566.39,441,565.71,439.75,564.89,438.65z"/>
</g>
<g>
	<path style="fill:#F9CACC;" d="M554.47,453.57c-4.16-2.31-9.54,0.4-10.04,5.11c-0.64,6.1,2.64,17.75,19.62,39.66l10.9,14.3
		l14.74-8.44C589.68,504.21,569.5,461.94,554.47,453.57z"/>
</g>
<g>
	<path style="fill:#F9CACC;" d="M500.79,455.02c4.16-2.31,9.54,0.4,10.04,5.11c0.64,6.1-2.64,17.75-19.62,39.66l-13.99,18.69
		l-11.64-12.82C465.57,505.66,485.76,463.38,500.79,455.02z"/>
</g>
<path style="fill:#F5B0B5;" d="M543.16,453.07l1.16,2.42c6.1,12.77-2.67,27.74-16.88,28.58c-0.26,0.02-0.53,0.03-0.79,0.04
	c-14.16,0.76-24.56-13.04-20.04-26.39l1.24-3.67l7.22-0.33c3.56-0.8,5.23-2.14,6.02-5.65c0-0.02,0-0.02,0-0.02
	c0.48-3.35,0.17-6-0.93-8l15.67-3.69l0.78,8.48c0.14,1.53,0.21,3.07,0.21,4.6l0,0c0.02,1.65,1.26,3.02,2.92,3.18L543.16,453.07z"/>
<path style="fill:#F9CACC;" d="M557.51,421.87c-1.16,4.95-4.95,6.51-8.47,7.5c-1.23,2.49-2.82,4.95-4.68,7.18
	c-0.59,0.69-1.2,1.36-1.82,1.99c-2.76,3.2-6.3,5.58-10.35,6.55c-0.13,0.04-0.24,0.06-0.37,0.09c-0.24,0.04-0.46,0.13-0.7,0.17
	c-0.15,0.02-0.33,0.02-0.48,0.04c-0.13,0.02-0.28,0.02-0.42,0.04c-0.31,0.02-0.61,0.04-0.94,0.04c-0.31,0-0.63-0.02-0.94-0.04
	c-0.13-0.02-0.26-0.02-0.42-0.04c-0.15-0.02-0.33-0.02-0.48-0.04c-0.24-0.04-0.46-0.13-0.7-0.17c-0.11-0.02-0.24-0.04-0.35-0.09
	c-4.05-0.97-7.62-3.35-10.35-6.55c-2.63-2.68-4.93-5.9-6.52-9.16c-3.52-0.99-7.31-2.55-8.45-7.5c-0.92-3.91,0.15-9.08,3.46-9.36
	c0.98-0.09,2.1,0.28,3.2,0.91c1.45-6.53,4.95-13.49,9.24-18.26c1.8-2.38,3.87-3.93,6.13-4.86c1.2-0.58,2.45-0.97,3.68-1.08
	c0.85-0.09,1.69-0.11,2.52-0.09c0.83-0.02,1.66,0,2.52,0.09c1.23,0.11,2.47,0.5,3.68,1.08c2.28,0.93,4.33,2.49,6.15,4.86
	c1.07,1.19,2.08,2.51,3.02,3.93c2.87,4.28,5.1,9.42,6.19,14.33c1.09-0.63,2.21-0.99,3.2-0.91
	C557.33,412.8,558.4,417.96,557.51,421.87z"/>
<path style="fill:#00D2BC;" d="M596.45,550.08c0,0-45.8-7.85-46.81-9.54c-28.16,4.2-40.89,2.3-46.7,0.11l-45,3.92l22.5,35.91H575
	L596.45,550.08z"/>
<g>
	<path style="fill:#F5B0B5;" d="M576.02,603.57l-2.01,9.93c-0.02-0.02-0.08-0.05-0.09-0.07c-13.42-3.06-48.56-12.67-62.36-15.57
		c-34.02-7.19-56.4-13.94-69.31-30.44c-2.27-2.92-3.15-6.49-2.73-9.91c0.42-3.42,2.14-6.74,5.01-9.08
		c6.28-5.13,15.01-6.01,22.18-2.26l50.25,30.3L576.02,603.57z"/>
	<path style="fill:#491F06;" d="M609.45,612.18c-10.37-7.27-17.11-8.81-31.22-9.07c0,0-0.02,0.02-0.04,0
		c-0.93-0.01-1.9-0.02-2.9-0.02l-0.03,0.1l-0.08-0.05l-2.01,9.93c1.25,0.89,2.49,1.67,3.69,2.41c11.08,6.66,20.44,7.56,27.59,8.4
		C612.16,624.74,615.76,616.6,609.45,612.18z"/>
</g>
<g>
	<path style="fill:#F9CACC;" d="M605.11,573.94c-14.26,15.36-37.14,20.21-71.64,24.53c-14,1.73-49.83,8.37-63.46,10.29
		c-0.02,0.02-0.08,0.04-0.1,0.06l-1.34-10.13c0.02,0.02,0.06,0.02,0.1,0.02l0,0.08l61.25-22.09l52.64-25.99
		c7.46-3.14,16.08-1.53,21.91,4.1c2.68,2.59,4.09,6.02,4.22,9.47C608.8,567.74,607.62,571.22,605.11,573.94z"/>
	<path style="fill:#491F06;" d="M468.56,598.7c-1.82-0.14-3.53-0.25-5.11-0.35c-12.58-0.66-19.26,0.55-29.59,6.58
		c-6.69,3.86-0.14,12.28,7.61,12.06c6.88-0.19,12.06-0.35,22.89-5.3c1.78-0.81,3.65-1.77,5.55-2.86L468.56,598.7z"/>
</g>
<g>
	<g>
		<path style="fill:#491F06;" d="M531.66,433.79c2.45-0.76,5.13-2.54,6.26-6.59c0.09-0.33-0.1-0.68-0.44-0.77
			c-0.33-0.09-0.68,0.1-0.78,0.44c-2.02,7.22-9.5,6.2-9.82,6.15c-0.34-0.05-0.66,0.18-0.72,0.53c-0.05,0.34,0.19,0.66,0.53,0.71
			C526.74,434.26,529.08,434.59,531.66,433.79z"/>
	</g>
	<g>
		<circle style="fill:#491F06;" cx="536.33" cy="420.59" r="2.13"/>
	</g>
	<g>
		<circle style="fill:#491F06;" cx="520.36" cy="420.59" r="2.13"/>
	</g>
	<g>
		<path style="fill:#491F06;" d="M540.8,416.59c0.02-0.01,0.04-0.02,0.06-0.02c0.32-0.14,0.47-0.51,0.33-0.82
			c-1.66-3.78-5.1-3.65-6.7-3.06c-0.32,0.12-0.49,0.48-0.37,0.8c0.12,0.32,0.45,0.5,0.81,0.37c0.11-0.04,3.51-1.23,5.1,2.39
			C540.16,416.53,540.49,416.68,540.8,416.59z"/>
	</g>
	<g>
		<path style="fill:#491F06;" d="M523.4,414.71c0.01-0.02,0.02-0.04,0.03-0.06c0.16-0.31,0.04-0.68-0.27-0.84
			c-3.7-1.87-6.27,0.4-7.13,1.86c-0.17,0.3-0.07,0.68,0.23,0.85c0.3,0.18,0.66,0.1,0.86-0.22c0.06-0.1,1.92-3.17,5.47-1.37
			C522.87,415.08,523.22,414.98,523.4,414.71z"/>
	</g>
	<g>
		<path style="fill:#491F06;" d="M527.24,429.47c0.34,0,0.61-0.27,0.61-0.6c0-0.33-0.27-0.61-0.61-0.61c-0.01,0-1.18-0.03-1.47-0.65
			c-0.14-0.29-0.27-1.18,1.42-3.28c0.21-0.26,0.17-0.64-0.1-0.85c-0.26-0.21-0.65-0.17-0.86,0.09c-1.59,1.97-2.1,3.46-1.57,4.56
			C525.31,429.45,527.16,429.47,527.24,429.47L527.24,429.47z"/>
	</g>
</g>
<path style="fill:#F9CACC;" d="M564.37,437.47c0.54,1.81,1.48,3.24,2.73,4.41c1.27,1.19,2.85,2.1,4.64,2.8l0.09,19.83l-1.13,35.64
	c-0.02,0.55-0.01,1.1,0.02,1.64c0.26,4.5,2.18,8.76,5.42,11.94c1.76,1.74,4.06,2.51,6.29,2.38c2.6-0.15,5.12-1.51,6.62-3.97
	c0.4-0.65,0.7-1.36,0.98-2.22c0.99-3.08,1.18-6.37,0.72-9.56l-9.58-57.15c0.25-3.27,0.24-5.89-0.02-8.12c0.01-0.03,0-0.08-0.01-0.11
	c-0.02-0.15-0.04-0.29-0.07-0.44c-0.05-0.36-0.11-0.7-0.17-1.03c-0.01-0.03-0.01-0.06-0.02-0.1c-0.49-2.26-1.3-4.48-2.47-6.65
	c-0.08-0.15-0.16-0.3-0.24-0.44c-0.07-0.13-0.15-0.25-0.23-0.38c-0.12-0.21-0.25-0.43-0.39-0.64l-9.03-16.25
	c0,0-6.1-2.84,2.83,15.58c0.16,0.33,0.32,0.67,0.49,1c0,0-7.1,0.98-7.67,3.73C563.59,432.66,563.69,435.32,564.37,437.47z"/>
<path style="fill:#F9CACC;" d="M477.21,518.48L477.21,518.48c3.42-3.25,3.93-8.51,1.2-12.35l-38.9-54.84l-7,12.35l29.94,52.66
	C465.49,521.64,472.75,522.72,477.21,518.48z"/>
<g>
	<path style="fill:#606060;" d="M427.52,466.64c0.58-9.88,2.69-17.67,6.33-23.39c3.64-5.72,8.62-11.32,14.95-16.81
		c5.68-4.62,9.85-8.58,12.52-11.88c2.67-3.3,4.16-7.56,4.47-12.8c0.26-4.49-1.13-8.29-4.18-11.4c-3.05-3.11-6.44-4.77-10.18-4.99
		c-5.84-0.34-10.59,1.26-14.25,4.8c-1.22,1.18-2.39,2.49-3.52,3.96c-4.39,5.66-12.19,7.38-18.49,3.96l0,0
		c-7.82-4.24-10.02-14.44-4.67-21.54c0.24-0.32,0.48-0.64,0.73-0.96c4.22-5.46,10.13-10.18,17.72-14.17
		c7.59-3.98,16.62-5.67,27.1-5.06c13.62,0.8,24.45,4.89,32.51,12.27c8.05,7.38,11.67,18.11,10.84,32.17
		c-0.57,9.73-2.55,17.27-5.94,22.63c-3.39,5.36-6.99,9.69-10.78,13c-3.8,3.31-6.25,5.46-7.36,6.44c-5.07,4.51-9.02,9.16-11.85,13.95
		c-2.84,4.79-4.48,11.08-4.93,18.86l-0.28,4.71l-31.43-1.84L427.52,466.64z M426.77,521.67c-3.27-3.12-4.77-7.07-4.49-11.86
		c0.27-4.64,2.26-8.43,5.96-11.37c3.7-2.94,8.17-4.25,13.41-3.95c5.24,0.31,9.45,2.13,12.63,5.47c3.18,3.34,4.64,7.33,4.37,11.97
		c-0.28,4.79-2.15,8.55-5.62,11.27c-3.46,2.73-7.89,3.93-13.28,3.62C434.38,526.51,430.04,524.79,426.77,521.67z"/>
</g>
<path style="fill:#FF9D2E;" d="M558.03,478.43c-4.03-8.14-2.69-20.81-5.77-25.7l-11.36-1.28c-1.71-0.29-2.96-1.77-2.96-3.51v-1
	H519.4v2.28c0,1.18-0.65,2.26-1.7,2.8c0,0-13.05,1.79-15.65,2.61l0.98,9.79c0.49,5.1-0.13,10.25-1.82,15.12
	c-1.1,3.19-1.64,6.48-1.64,9.79c0,3.9,0.74,7.83,2.26,11.48l4.77,11.32l0.72,1.71c0.92,2.32,1.49,4.69,1.62,7.09
	c0.21,3.42-0.44,6.81-1.8,9.95l-4.18,9.82c5.8,3.55,18.53,6.61,46.7-0.18c-2.13-5.79-3.62-9.97-3.67-10.43
	c-0.08-0.89-0.1-1.79-0.1-2.68c0-1.86,0.18-3.65,0.72-5.1l3.77-7.29l4.54-8.85C559.29,497.66,562.17,486.75,558.03,478.43z"/>
<g>
	<path style="fill:#491F06;" d="M547.7,389.41c-2.29-4.09-10.46-8.35-14.81-8.74c-7.59-0.68-17.5,1.53-22.78,7.32
		c-10.63,11.67-3.5,26.33-3.23,26.33c0,0,1.89,4.64,5.12,4.39c3.01-0.23,2.79-6.03,2.83-8.28c3.67,6.71,10.99-3.58,11.4-8.09
		c-0.08,3.58,3.71,5.85,6.4,7.01c3.01,1.31,5.69-0.13,8.58,0.02c-1.16,2.87,0.25,8.14,2.29,10.26c2.95,3.06,5.91,0.56,6.46-2.99
		C551.05,409.79,555.1,402.64,547.7,389.41z"/>
</g>
<path style="fill:#F9CACC;" d="M423.78,453.01c-1.09-3.16,2.5-4.8,2.78-4.84c-0.17-0.12-1.6-1.14-1.09-3.05
	c0.5-1.88,2.2-1.47,2.42-1.41c-0.23-0.17-1.89-1.42-0.4-3.98c1.59-2.74,3.66-1.72,3.66-1.72s0.19-2.3,3.08-3.9
	c2.87-1.6,5.53,1.26,5.53,1.26l-2.93,3.59l7.13,1.81c0,0,2.6,0.72,1.62,2.53c-0.48,0.88-2.26,0.71-2.26,0.71l-5.82-0.77l6.07,2.32
	l0.01,0.01c0.85,0.6,1.85,1.56,1.56,2.69c-0.45,1.81-2.68,1.34-3.05,1.25c0.34,0.1,2.04,0.69,1.2,2.76
	c-0.88,2.21-4.51,0.8-4.87,0.66c0.21,0.12,1.9,1.12,0.79,2.99c-1.19,1.99-9.88-1.67-9.88-1.67l-0.77,3.57
	C428.54,457.84,424.9,456.33,423.78,453.01z"/>
<path style="fill:#004B45;" d="M151.89,296.38l-4.85,25.29l-0.97,5.05c-0.49,2.55-3.76,3.34-5.37,1.3l-22.69-28.89l-0.14-31.77
	L151.89,296.38z"/>
<path style="fill:#F5B0B5;" d="M173.07,317.56l-1.3,12.73c-0.43,4.3-5.45,6.44-8.86,3.72l-15.87-12.34l4.85-25.29l19.36,16.52
	C172.57,314.08,173.24,315.8,173.07,317.56z"/>
<path style="fill:#F5B0B5;" d="M101.31,271.04l3.94-30.89l14.92,11.96c-1.71,7.66,0.36,20.53,0.36,20.53L101.31,271.04z"/>
<g>
	<path style="fill:#F9CACC;" d="M109.64,255.12c3.54,3.57,8.53,7.01,13.83,6.31c8.42-1.12,15.17-8.34,17.67-16.78
		c0.08,0.03,0.16,0.06,0.25,0.04c1.04-0.12,2.43-0.38,2.59-1.35c0.1-0.58-0.21-1.33-0.36-1.88c-0.25-0.87-0.52-1.74-0.82-2.59
		c-0.69-1.96-0.64-4.14-0.75-6.16c-0.1-1.88-0.26-3.75-0.48-5.62c-0.61-5.14-1.66-10.45-4.15-15.04c-1.63-3-3.96-5.6-7.07-7.09
		c-2.77-1.32-5.88-1.67-8.92-1.53c-5.49,0.25-10.03,4.96-13.09,9.07c-3.39,4.53-6.07,9.63-7.45,15.04
		C98.25,237.79,102.46,247.88,109.64,255.12z"/>
	<g>
		
			<ellipse transform="matrix(-0.9954 -0.0955 0.0955 -0.9954 251.5362 485.4678)" style="fill:#491F06;" cx="137.38" cy="236.72" rx="1.85" ry="1.87"/>
	</g>
	<g>
		<path style="fill:#491F06;" d="M133.64,232.93c-0.02-0.01-0.03-0.02-0.05-0.03c-0.26-0.17-0.33-0.51-0.16-0.76
			c1.98-3.05,4.93-2.45,6.23-1.71c0.26,0.15,0.35,0.49,0.2,0.75c-0.15,0.27-0.46,0.37-0.75,0.21c-0.09-0.05-2.86-1.58-4.76,1.35
			C134.2,232.97,133.89,233.05,133.64,232.93z"/>
	</g>
	<g>
		<path style="fill:#491F06;" d="M137.09,248.21c0,0.02,0,0.04,0,0.06c-0.03,0.3-0.3,0.52-0.61,0.49c-3.62-0.38-4.42-3.29-4.35-4.78
			c0.02-0.3,0.27-0.54,0.58-0.52c0.3,0.01,0.54,0.24,0.53,0.58c-0.01,0.1-0.11,3.26,3.36,3.62
			C136.88,247.69,137.09,247.93,137.09,248.21z"/>
	</g>
</g>
<path style="fill:#491F06;" d="M190.34,599.97l-16.63-75.23l-28.64-101.55l-11.03-54.16h-46.1L63.88,496.54L20.7,595.35l8.2,5.53
	l41.93-64.34c5.31-8.15,8.75-13.05,12.79-22.21c0.01,0,0.01,0.01,0.02,0.01l0.14-0.36c1.83-4.17,3.79-9.22,6.11-15.84l0,0
	l19.1-49.56l34.49,60.19c7.82,13.65,14.37,28,19.55,42.86l17.52,50.27L190.34,599.97z"/>
<g>
	<path style="fill:#00D2BC;" d="M148.5,422.66c0,0-2.68,0.46-7.19,1.07c-15.15,2-41.56,4.93-63.35-1.81l0,0
		c5.77-37.54,7.24-75.59,4.79-113.49c-0.42-6.57-0.54-11.96-0.08-14.62c1.84-10.74,10.31-22.98,13.19-25.48
		c1.41-1.21,2.98-3,4.23-4.55c1.34-1.64,2.3-2.98,2.3-2.98s14.65,4.6,22.02,13.06c1.5,1.73,3.18,4.23,4.96,7.14
		c1.8,2.98,3.66,6.37,5.41,9.74c6.05,11.58,8.46,24.71,7.01,37.7l-0.25,2.27c-0.3,2.68-2.21,28.12-2.21,28.12L148.5,422.66z"/>
</g>
<path style="fill:#008DA2;" d="M44.59,613.45l-9.98-2.66l-5.28-10.56l-1.54-0.72c-2.51-1.64-4.86-3.18-6.89-4.53l-0.08,0.29
	c-9.77,5.83-6.08,11.71,6.15,22c1.93,1.63,11.91,2.71,17.53,1.64c0.04-0.01,0.07-0.01,0.11-0.02
	C47.42,618.29,47.37,614.19,44.59,613.45z"/>
<path style="fill:#008DA2;" d="M180.42,601.58c-1.7,14.66,10.05,12.17,36.17,5.51c3.62-0.96,5.19-5.42-1.47-5.78l-25.25-2.97
	C186.44,599.4,180.42,601.58,180.42,601.58z"/>
<g>
	<path style="fill:#FF9D2E;" d="M151.95,213.37c2.72-3.14-0.55-13.87-5.71-10.19c0.15-3.53-4.73-5.4-7.99-6.04
		c-3-0.58-3.54,0.64-5.65,2.02c0.81-4.16-6.62-5.03-9.8-5.18c-2.66-0.13-5.45,0.06-7.78,1.4c-1.05,0.6-3.04,2.17-2.16,3.47
		c-5.52,0.61-10.74,2.15-14.23,6.54c-2.61,3.29-4.17,7.58-0.9,10.69c-2.76,1.66-5.47,3.76-6.72,6.74c-1.59,3.79,0.54,5.81,3.5,7.98
		c-2.63,2.17-4,5.33-3.05,8.81c0.55,2.02,3.95,5.86,6.59,4.97c-1.71,2.05,0.85,5.91,2.68,7.18c0.97,0.68,2.39,0.92,3.58,0.9
		c1.01-0.02,2.34-0.87,3.06-0.78c0.16,0.02,0.9,0.81,1.46,0.93c0.84,0.18,1.16,0.02,1.95-0.3c1.27-0.5,2.15-1.58,2.79-2.69
		c1.06-1.84,1.44-4.12,1.77-6.12c-4.5,0.62-4.65-7.78-3.08-9.94c2.88-3.95,8.78-2.96,9.45,1.83c2.31-0.49,3.93-3.18,5.52-4.91
		c0.03-0.04,0.07-0.07,0.11-0.1c0.18-0.19,0.35-0.37,0.53-0.53l-0.11-0.04c0.65-1.02,0.95-2.31,1.3-3.55
		c3.85,0.99,8.3,0.28,9.05-4.02c-0.38,2.87,3.34,3.33,5.54,2.73c2.03-0.55,2.65-1.86,2.75-3.43c0.96,1.55,4.71,1.55,6.2,0.7
		C156.21,220.4,155.13,215.38,151.95,213.37z"/>
</g>
<path style="fill:#F5B0B5;" d="M125.51,254.76c0.46-1.85,8.35,1.97,14.36,3.04c3.05,0.54,5.99,1.61,8.52,3.39
	c3.58,2.52,5.66,5.73,6.98,13.14l0,0l22.34,53.72c0.67,1.61,0.76,3.41,0.25,5.08l0,0c-1.41,4.65-6.79,6.77-10.99,4.34h0
	c-4-2.32-6.85-6.2-7.87-10.71l-7.11-31.59l0,0l-4.59-17.42c-0.68,0.02-5.28,1.15-6.24-5.16c0,0-4.85,2.01-5.99-1.48
	c0,0-1.79-0.79-1.71-2.58c0,0-1.45-1.73-0.12-3.46l4.64-3.86C137.99,261.23,125.07,258.91,125.51,254.76z"/>
<g>
	<path style="fill:#FFFFFF;" d="M167.34,312.31c1.79-9.49,4.8-16.78,9.03-21.87c4.23-5.09,9.76-9.89,16.57-14.42
		c6.07-3.77,10.61-7.09,13.6-9.95c3-2.86,4.97-6.81,5.92-11.84c0.81-4.32-0.06-8.17-2.63-11.55c-2.57-3.39-5.65-5.42-9.24-6.1
		c-5.61-1.06-10.41-0.1-14.39,2.87c-1.32,0.99-2.63,2.12-3.91,3.39c-4.95,4.94-12.73,5.63-18.4,1.53l0,0
		c-7.04-5.08-7.91-15.22-1.84-21.44c0.27-0.28,0.55-0.56,0.83-0.84c4.77-4.76,11.08-8.6,18.93-11.52c7.84-2.91,16.8-3.43,26.87-1.53
		c13.09,2.46,23.07,7.77,29.96,15.92c6.88,8.15,9.05,18.98,6.5,32.5c-1.76,9.35-4.62,16.41-8.57,21.18
		c-3.95,4.77-7.97,8.52-12.06,11.25c-4.09,2.73-6.73,4.51-7.93,5.32c-5.47,3.74-9.88,7.75-13.21,12.03
		c-3.34,4.29-5.71,10.17-7.12,17.65l-0.85,4.53l-30.21-5.69L167.34,312.31z M159.78,365.51c-2.78-3.43-3.74-7.44-2.87-12.05
		c0.84-4.46,3.23-7.88,7.18-10.27c3.95-2.38,8.44-3.1,13.48-2.15c5.03,0.95,8.89,3.24,11.55,6.87c2.67,3.63,3.58,7.68,2.74,12.13
		c-0.87,4.61-3.15,8.01-6.84,10.22c-3.69,2.21-8.13,2.83-13.31,1.85C166.54,371.14,162.55,368.94,159.78,365.51z"/>
</g>
<path style="fill:#F9CACC;" d="M196.95,299.11c-0.54-0.34-2.14-0.19-6.92,3.01c-0.27,0.18-0.56,0.35-0.84,0.5l-6.11,3.22
	c1.11-0.7,8.23-5.17,11.72-8.63c1.08-1.05,1.8-2.01,1.93-2.74c0,0-0.06-2.44-2.42-0.5l-7.76,4.44h-0.01l-5.25,3
	c0.33-0.23,1.63-1.15,3.24-2.37c3.75-2.84,9.24-7.3,8.31-8.49c0,0-0.82-1.51-5.58,2.46c0,0-9.74,8-12.39,3.52
	c-0.46-0.79-1.09-2.42-1.09-2.46c-3.69,3.81-6.86,11.18-7.04,11.81c-0.01,0.01-0.01,0.03-0.01,0.03l-46.73,23.49l-4.88-40.77
	c-0.54-4.58-4.07-8.24-8.63-8.96c-6.92-1.09-12.89,4.9-11.78,11.81l8.11,50.87c1.43,8.95,11.76,13.27,19.14,8.01l45.69-32.56
	c0.29-0.1,0.59-0.2,0.88-0.31h0.01c4.25-0.59,18.62-2.92,23.33-8.67c0,0,1.65-2.2,1.73-3.29c0.04-0.42-0.17-1-0.74-0.6
	c-3.4,2.25-6.57,4.14-8.46,4.08c0.96-0.58,9.65-5.29,11.99-7.97c0-0.01,0-0.01,0-0.01c0.41-0.46,0.68-0.87,0.77-1.23
	c0.01-0.01,0.01-0.01,0.01-0.03c0.03-0.05,0.03-0.1,0.04-0.15C197.22,299.63,197.27,299.29,196.95,299.11z"/>
<g>
	<path style="fill:#004B45;" d="M113.39,279.97l13.67,40.16c0.82,2.41-0.69,4.99-3.2,5.45l-0.62,0.11l-25.06,4.58l-1.11,0.2
		c-2.14,0.39-4.2-0.94-4.78-3.04c-6.92-25.23-4.54-41.68-3.99-44.67c-0.01-0.02,0-0.05,0.02-0.09c0.39-4.55,4.96-10.53,8.2-11.93
		C104.2,267.38,110.79,269.41,113.39,279.97z"/>
</g>
<g>
	<path style="fill:#F9CACC;" d="M332.79,267.57c4.73,0.02,8.86,3.19,10.12,7.75l11.2,40.53l43.72-30.97c0,0,1.44-11.24,5.47-12.27
		c0,0,29.65,7.02-2.73,24.2l1.08-1.05l0,0l-42.32,41.02c-6.66,6.46-17.78,3.66-20.6-5.17l-16.04-50.27
		C320.5,274.51,325.62,267.54,332.79,267.57z"/>
	<path style="fill:#FFD01B;" d="M339.84,266.8l20.01,38.57c1.2,2.32,0.06,5.16-2.41,6.01l-0.61,0.21l-24.67,8.49l-1.09,0.37
		c-2.11,0.72-4.4-0.31-5.3-2.34c-10.88-24.48-11-41.51-10.9-44.62c-0.01-0.02,0-0.05,0-0.09c-0.3-4.67,3.4-11.42,6.47-13.34
		C328.59,255.47,335.58,256.51,339.84,266.8z"/>
</g>
<path style="fill:#00D2BC;" d="M336.24,352.14l-54.37-1.49l-13.53,38.86c-11.39,44.13,10.67,218.92,14.59,217.67l-1.62,1.33
	l0.08-0.02c3.35,0.13,9.3,0.6,9.3,0.6c0.14,0.34,0.25,0.67,0.34,0.99l15.01-193.42l5.51-0.01l22.27,191.14
	c0-0.05,0.02-0.09,0.04-0.14c0,0,5.92-0.74,9.27-1.02l-0.54-0.42c0,0,5.66-60.86,7.67-119.03
	C353.41,396.13,336.24,352.14,336.24,352.14z"/>
<path style="fill:#491F06;" d="M365.89,621.07c-25.7,0.63-37.18,0.41-32.59-13.28c0-0.05,0.02-0.09,0.04-0.14
	c0,0,6.08-0.75,9.51-1.03l22.9,8.53C371.9,617,369.48,620.97,365.89,621.07z"/>
<path style="fill:#491F06;" d="M259.59,623.94c-3.5,0.06-6.02-3.8-0.13-5.92l21.82-9.49l0.02-0.02l0.08-0.02
	c3.35,0.13,9.3,0.6,9.3,0.6c0.13,0.34,0.25,0.67,0.34,0.99C295.31,622.72,284.1,623.43,259.59,623.94z"/>
<path style="fill:#FF9D2E;" d="M349.03,406.69c0,0-3.92-27.09-7.51-46.13c-2.24-11.87-2.79-23.99-1.68-36.02
	c1.21-13.11,1.23-34.97,1.05-50.32c-0.12-10.04-7.6-18.46-17.55-19.76l-3.16-0.41c-1.22-0.26-2.44-0.45-3.67-0.6
	c-8.67-1.08-17.26,0.4-23.96,2.3c-7.67,2.19-12.88,4.92-12.88,4.92l-0.71,2.59c-3.98,14.5-4.97,29.65-2.96,44.55v0
	c3.05,22.26,1.35,44.92-5.05,66.46c-3.53,11.89-6.7,24.55-6.98,32.44H349.03z"/>
<path style="fill:#F5B0B5;" d="M293.84,236.85l2.45,18.02c0.24,1.75,1.73,3.05,3.5,3.05h8.56c2.25,0,3.93-2.08,3.45-4.28
	l-2.59-11.92L293.84,236.85z"/>
<path style="fill:#F9CACC;" d="M280.19,235.36c-2.21-3.31-3.05-8.48-0.13-9.89c0.87-0.42,2.03-0.48,3.26-0.27
	c-1.68-11.19,1.58-25.61,8.89-29.14c9.55-4.62,19.97-3.02,31.24,21.99c4.46,9.9,1.66,23.19-7.39,28.59
	c-6.8,4.06-18.3-0.54-25.46-7.28C287.02,239.68,283,239.56,280.19,235.36z"/>
<ellipse transform="matrix(-0.9531 0.3028 -0.3028 -0.9531 660.1071 342.3827)" style="fill:#491F06;" cx="303.51" cy="222.36" rx="1.93" ry="2.12"/>
<ellipse transform="matrix(-0.9531 0.3025 -0.3025 -0.9531 683.364 330.3058)" style="fill:#491F06;" cx="316.1" cy="218.07" rx="1.93" ry="2.12"/>
<g>
	<path style="fill:#491F06;" d="M295.97,220.54c0.24-0.06,0.44-0.26,0.48-0.53c0.71-4.12,4.43-3.73,4.58-3.71
		c0.36,0.04,0.68-0.21,0.73-0.58c0.04-0.36-0.22-0.69-0.58-0.73c-1.76-0.21-5.3,0.52-6.04,4.79c-0.06,0.36,0.18,0.7,0.54,0.76
		C295.78,220.57,295.88,220.56,295.97,220.54z"/>
</g>
<g>
	<path style="fill:#491F06;" d="M312.23,232.87c-0.17-0.18-0.43-0.27-0.69-0.19c-3.99,1.26-5.34-2.23-5.4-2.37
		c-0.13-0.34-0.5-0.51-0.85-0.39c-0.34,0.13-0.51,0.51-0.38,0.85c0.62,1.66,2.89,4.47,7.03,3.17c0.35-0.11,0.54-0.48,0.43-0.83
		C312.34,233.02,312.29,232.94,312.23,232.87z"/>
</g>
<g>
	<path style="fill:#491F06;" d="M311.97,212.12c0.19,0.09,0.42,0.07,0.59-0.07c2.72-2.23,4.86,0.06,4.95,0.16
		c0.21,0.22,0.55,0.24,0.78,0.04c0.22-0.21,0.24-0.56,0.03-0.78c-1-1.1-3.65-2.58-6.47-0.27c-0.24,0.19-0.27,0.54-0.08,0.78
		C311.84,212.03,311.9,212.08,311.97,212.12z"/>
</g>
<g>
	<path style="fill:#491F06;" d="M316.74,228.08c0.36-0.25,0.63-0.58,0.8-0.98c0.52-1.27-0.21-2.84-1.95-4.22l-5.23-4.98
		c-0.2-0.19-0.51-0.19-0.71,0.02c-0.19,0.2-0.18,0.52,0.02,0.71l5.27,5.01c1.65,1.3,1.94,2.44,1.68,3.07
		c-0.27,0.65-1.14,0.98-2.22,0.85c-0.27-0.03-0.56,0.16-0.6,0.43c-0.04,0.27,0.12,0.52,0.39,0.56
		C315.23,228.69,316.12,228.51,316.74,228.08z"/>
</g>
<path style="fill:#491F06;" d="M318.61,199.48c-11.62-17.15-29.39-7.31-29.39-7.31c-18.2,12.83-9.4,30.19-9.4,30.19
	c6.86,12.29,14.01,11.92,14.01,11.92c-8.51-7.11-0.59-23.1-0.59-23.1c1.04,4.1-0.75,10.72-0.75,10.72
	c7.76-2.18,11.01-12.58,11.01-12.58l1.95,4.92c5.39-3.58,6.44-6.46,6.34-8.28l0.92,2.46c1.46-1.62,2.27-3.02,2.66-4.19l7.39,12.4
	C324.72,207.83,318.61,199.48,318.61,199.48z"/>
<g>
	<path style="fill:#A6C8FF;" d="M372.05,295.15c1.83-9.72,4.91-17.19,9.25-22.4c4.33-5.21,9.99-10.13,16.97-14.77
		c6.22-3.86,10.86-7.26,13.93-10.19c3.07-2.93,5.09-6.97,6.06-12.13c0.83-4.42-0.07-8.36-2.69-11.83c-2.63-3.47-5.78-5.55-9.47-6.24
		c-5.75-1.08-10.66-0.1-14.74,2.94c-1.36,1.01-2.69,2.17-4,3.48c-5.07,5.06-13.03,5.76-18.84,1.57l0,0
		c-7.21-5.2-8.1-15.59-1.89-21.96c0.28-0.29,0.56-0.57,0.85-0.86c4.88-4.88,11.35-8.81,19.38-11.8c8.03-2.98,17.21-3.51,27.53-1.57
		c13.4,2.52,23.63,7.96,30.68,16.3c7.04,8.34,9.27,19.44,6.66,33.29c-1.8,9.58-4.73,16.81-8.78,21.69
		c-4.05,4.88-8.16,8.72-12.35,11.52c-4.19,2.8-6.9,4.61-8.12,5.45c-5.61,3.83-10.12,7.93-13.53,12.33
		c-3.42,4.39-5.85,10.42-7.29,18.08l-0.87,4.64l-30.94-5.83L372.05,295.15z M364.31,349.64c-2.85-3.51-3.83-7.62-2.94-12.34
		c0.86-4.57,3.31-8.07,7.36-10.51c4.04-2.44,8.64-3.18,13.8-2.21c5.16,0.97,9.1,3.32,11.83,7.03c2.73,3.72,3.67,7.86,2.81,12.43
		c-0.89,4.72-3.22,8.2-7,10.47c-3.78,2.26-8.33,2.89-13.63,1.9C371.23,355.41,367.15,353.15,364.31,349.64z"/>
</g>
<path style="fill:#F9CACC;" d="M430.3,278.51c-0.24,3.33-3.09,2.49-3.36,2.41c0.11,0.18,1.02,1.68-0.19,3.23
	c-1.2,1.53-2.6,0.48-2.78,0.34c0.15,0.24,1.18,2.05-1.2,3.81c-2.54,1.89-4.04,0.15-4.04,0.15s-1.08,2.04-4.36,2.38
	c-3.26,0.34-4.19-2.35-4.19-2.35l2.91-3.15l-5.04-4.46c0,0-1.44-1.37,0.1-2.75c0.42-0.39,1.77,0.02,1.77,0.02l5.05,3l-4.67-4.52
	v-0.02c-0.55-0.89-1.08-2.17-0.37-3.09c1.13-1.49,2.99-0.18,3.3,0.05c-0.27-0.23-1.6-1.44-0.02-3.01c1.68-1.68,4.46,1.03,4.73,1.31
	c-0.15-0.19-1.31-1.78,0.45-3.05c1.87-1.36,8.71,5.7,8.71,5.7l2.78-1.86C429.88,272.66,430.57,275.02,430.3,278.51z"/>
<path style="fill:#FFD01B;" d="M299.94,303.03l-17.89,17.84l-3.58,3.56c-1.81,1.8-4.9,0.64-5.07-1.91l-6.45-32.5
	c-1.92-9.68,1-19.69,7.83-26.82l0,0c6.07-6.33,16.76-3.19,18.44,5.42L299.94,303.03z"/>
<path style="fill:#F5B0B5;" d="M302.04,333.32l-1.75,2.8c-3.31,2.81-8.31,2.27-10.94-1.19l-9.43-12.41l17.89-17.84l5.31,23.85
	C303.55,330.22,303.14,331.99,302.04,333.32z"/>
<path style="fill:#F9CACC;" d="M305.68,240.84c-1.23-1.52-6.89,5.45-12.01,9.04c-2.59,1.82-4.86,4.09-6.44,6.84
	c-2.23,3.89-2.77,7.77-0.78,15.22l0,0l2.56,59.54c0.08,1.79,0.77,3.49,1.97,4.83l0,0c3.32,3.7,9.23,3.34,12.08-0.74h0
	c2.71-3.88,3.67-8.72,2.66-13.35l-7.09-32.4l0,0l-3.29-18.15c0.64-0.27,5.4-1.22,3.55-7.49c0,0,5.37-0.24,4.92-3.97
	c0,0,1.32-1.51,0.47-3.13c0,0,0.6-2.24-1.38-3.26l-5.98-1.57C296.9,252.25,307.89,244.5,305.68,240.84z"/>
</svg>
