<?xml version="1.0" encoding="utf-8"?>
<!-- Generator: Adobe Illustrator 17.0.0, SVG Export Plug-In . SVG Version: 6.00 Build 0)  -->
<!DOCTYPE svg PUBLIC "-//W3C//DTD SVG 1.1//EN" "http://www.w3.org/Graphics/SVG/1.1/DTD/svg11.dtd">
<svg version="1.1" id="Calque_1" xmlns="http://www.w3.org/2000/svg" xmlns:xlink="http://www.w3.org/1999/xlink" x="0px" y="0px"
	 width="750px" height="750px" viewBox="0 0 750 750" style="enable-background:new 0 0 750 750;" xml:space="preserve">
<g>
	<rect x="501.76" y="237.16" style="fill:#3797DB;" width="10.62" height="43.06"/>
	<rect x="562.66" y="271.25" style="fill:#62BDF3;" width="42.97" height="8.46"/>
	<rect x="568.37" y="262.77" style="fill:#3797DB;" width="42.97" height="8.46"/>
	<rect x="559.48" y="254.49" style="fill:#D1EAF2;" width="42.97" height="8.46"/>
	<rect x="513.8" y="219.81" style="fill:#D1EAF2;" width="10.86" height="59.77"/>
	<rect x="490.49" y="226.4" style="fill:#62BDF3;" width="10" height="53.18"/>
	<polygon style="fill:#62BDF3;" points="556.94,274.69 547.95,279.08 524.67,231.3 533.66,226.9 	"/>
	<rect x="482.55" y="279.28" style="fill:#3B77BE;" width="171.82" height="4.86"/>
	<g>
		<polygon style="fill:#7772D6;" points="675.12,499.04 680.97,582.58 678.05,582.58 668.79,499.95 		"/>
		<polygon style="fill:#7772D6;" points="613.73,499.04 607.88,582.58 610.81,582.58 620.06,499.95 		"/>
		<path style="fill:#7772D6;" d="M700.63,408.66c0,0-46.72-1.38-49.75-1.17c-3.02,0.22-5.82,9.94-5.82,9.94
			s-13.65,50.64-13.38,52.03c0.27,1.39-12.73,34.02-12.73,34.02s11.22-0.3,11.71,0c0.5,0.3,43.38-3.68,43.98-4.08
			c0.6-0.4,2.78-7.86,2.88-8.26c0.1-0.4,3.38-29.45,3.38-29.45l1.69-16.02c0,0,6.45-13.74,6.55-13.79
			c0.1-0.04,6.06-12.08,6.45-12.68c0.4-0.6,6.55-7.26,6.75-7.86C702.54,410.77,700.63,408.66,700.63,408.66z"/>
		<path style="opacity:0.3;fill:#7772D6;" d="M700.63,408.66c0,0-16.11-0.48-30.02-0.83c5.41,3.18,8.44,12.08,6.19,27.91
			c-1.91,13.45-4.04,28.05-12.51,45.56c-4.36,9.02-23.15,3.97-38.55,4.86c-3.32,8.61-6.79,17.32-6.79,17.32s11.22-0.3,11.71,0
			c0.5,0.3,43.38-3.68,43.98-4.08c0.6-0.4,2.78-7.86,2.88-8.26c0.1-0.4,3.38-29.45,3.38-29.45l1.69-16.02c0,0,6.45-13.74,6.55-13.79
			c0.1-0.04,6.06-12.08,6.45-12.68c0.4-0.6,6.55-7.26,6.75-7.86C702.54,410.77,700.63,408.66,700.63,408.66z"/>
		<g>
			<g>
				<path style="fill:#45258F;" d="M610.42,505.27L610.42,505.27c-0.1-1.6,1.1-2.98,2.7-3.09c4.99-0.34,15.79-1.11,26.9-2.16
					c21.29-2.02,28.98-3.67,31.74-4.54c0.95-0.3,1.68-1.07,1.92-2.04c0.75-2.98,1.19-9.15,1.55-14.32
					c1.39-19.61,3.68-51.93,23.83-69.68c1.26-1.11,3.19-0.91,4.21,0.42l0,0c0.93,1.21,0.77,2.94-0.38,3.95
					c-18.35,16.11-20.46,45.83-21.87,65.73c-0.81,11.34-1.3,16.91-3.78,19.5c-1.19,1.25-3.42,3.57-35.79,6.68
					c-11.48,1.1-22.79,1.91-27.95,2.26C611.9,508.1,610.52,506.88,610.42,505.27z M673.18,494.89L673.18,494.89L673.18,494.89z"/>
			</g>
		</g>
	</g>
	<g>
		<path style="fill:#3B77BE;" d="M385.04,450.14H111.02c-2.99,0-5.42-2.43-5.42-5.42V278.39c0-2.99,2.43-5.42,5.42-5.42h276.61
			c1.56,0,2.83,1.27,2.83,2.83v168.93C390.46,447.71,388.03,450.14,385.04,450.14z"/>
		<path style="fill:#62BDF3;" d="M384.21,443.33H111.7c-0.61,0-1.11-0.5-1.11-1.11V280.88c0-0.61,0.5-1.11,1.11-1.11h272.51
			c0.61,0,1.11,0.5,1.11,1.11v161.35C385.32,442.84,384.82,443.33,384.21,443.33z"/>
		<path style="opacity:0.5;fill:#3797DB;" d="M385.32,299.25v-17.58c0-1.04-0.7-1.89-1.57-1.89H112.17c-0.87,0-1.57,0.85-1.57,1.89
			v110.59L385.32,299.25z"/>
	</g>
	<g>
		<polygon style="fill:#EFAC7F;" points="110.95,356 110.98,358.24 111.24,363.81 100.27,362.37 99.08,360.74 98.98,356.51 
			98.62,352.55 105.91,352.55 		"/>
		<path style="fill:#EFAC7F;" d="M121.06,491.85c0,0,0.55,2.47,0,5.62c-0.55,3.15-14.77,78.11-14.77,78.11l7.51,1.1
			c0,0,24.49-69.61,25.86-74.27c1.37-4.66,2.87-11.24-1.78-16.31C133.23,481.02,121.06,491.85,121.06,491.85z"/>
		<path style="fill:#EFAC7F;" d="M125.01,577.74l-8.98-10.84l-8.98,3.73l2.25,3.11l9.78,4.92c0,0,4.18,0.84,4.4,0.78
			C123.7,579.39,125.01,577.74,125.01,577.74z"/>
		<path style="fill:#45258F;" d="M125.01,577.74l1.95,2.44c0.91,1.12-0.2,2.73-1.57,2.28l-18.84-6.27c-0.66-0.22-1.02-0.94-0.8-1.61
			l1.31-3.95C118.28,578.81,123.02,579.04,125.01,577.74z"/>
		<path style="fill:#282828;" d="M93.95,325.92c0,0-4.69-3.08-10.03,0c-5.34,3.08-5.34,13.45-3.23,15.93
			c2.1,2.48-0.11,5.84,4.1,9.08c4.2,3.24,10.9,4.43,14.72,0.64c3.82-3.79,1.02-12.23,1.02-12.23L93.95,325.92z"/>
		<path style="fill:#EFAC7F;" d="M112.34,578.26l-10.32-6.45l-8.96,5.37l3.11,2.24L107,581c0,0,4.23-0.52,4.42-0.65
			C111.61,580.23,112.34,578.26,112.34,578.26z"/>
		<path style="fill:#EFAC7F;" d="M87.45,484.74c0,0,1.48,35.72,1.61,41.89c0.14,6.17,3.28,51.94,4.65,55.91l7.66-0.55
			c0,0,5.22-88.62,3.58-97.25C103.31,476.11,87.45,484.74,87.45,484.74z"/>
		<path style="fill:#EFAC7F;" d="M71.04,455.57c-2.64-0.54-3.3,1.16-5.96,0.6l0.63,4.12c-0.36,0.8-1.16,2.94-1.16,2.94
			c-2.97,8.63-2.81,7.7-2.51,7.86c0.3,0.16,2.53-3.03,2.78-2.73c0.25,0.3-1.28,5.43-0.82,5.29c0.46-0.14,2.44-4.7,2.7-4.53
			c0.26,0.17-1.29,5.1-0.62,5.28c0.67,0.17,2.19-5.29,2.66-4.93s-1.22,5.91-0.58,5.97c0.54,0.05,2.58-6.12,3.22-8.08
			c0.08-0.25,0.41-0.31,0.58-0.1c2.56,3.2,2.95,3.3,3.23,2.94c0.2-0.26-1.11-3.75-2.16-7.08l-1.39-4.06L71.04,455.57z"/>
		<path style="fill:#45258F;" d="M112.34,578.26l2.61,1.7c1.21,0.77,0.66,2.65-0.77,2.65H94.33c-0.7,0-1.27-0.57-1.27-1.27v-4.16
			C106.28,581.4,110.85,580.11,112.34,578.26z"/>
		<path style="fill:#EFAC7F;" d="M175.91,360.41c0.05,0.25,0.36,0.34,0.54,0.16c1.39-1.39,5.79-5.73,6.23-5.45
			c0.51,0.33-3.33,4.3-3.07,4.81c0.25,0.51,3.9-3.46,4.39-3.02c0.49,0.44-2.95,3.94-2.81,4.2c0.14,0.26,3.81-2.75,4.25-2.67
			c0.44,0.08-3.07,3.77-2.99,4.13c0.09,0.36,3.36-1.37,3.54-1.11c0.18,0.26,0.35,0.41-5.91,6.43l-2.56,2.27l-3.09,0.72l-2.18-3.13
			c0,0,1.78-11.04,2.19-11.23C174.84,356.33,175.12,356.58,175.91,360.41z"/>
		<path style="fill:#45258F;" d="M92.52,484.74l6.35,23.56c14.67-0.02,36.56-1.38,47.43-8.64c0,0-14.21-66.2-23.65-82.78
			l-32.41-1.78c0,0-22.47,31.37-6.07,92.76c0,0,2.81,0.21,7.28,0.34L92.52,484.74z"/>
		<path style="fill:#D19369;" d="M120.19,338.37c-0.67,1.83-0.03,3.74,1.42,4.28c1.46,0.54,3.18-0.51,3.85-2.33
			c0.67-1.83,0.03-3.74-1.42-4.28C122.58,335.5,120.86,336.55,120.19,338.37z"/>
		<path style="fill:#D19369;" d="M98.5,351.54c0,0,0.29,2.25,0.48,4.97c2.45,1.99,5.62,3,8.92,2.58c1.09-0.14,2.12-0.43,3.08-0.84
			c-0.08-1.77-0.05-3.42,0.22-4.21C111.96,351.87,98.5,351.54,98.5,351.54z"/>
		<path style="fill:#E6FAFF;" d="M121.82,363l30.7,23.3l19.66-20.2c0,0,5.88,4.55,5.88,4.46c0-0.08-18.48,28.88-23.02,30.39
			c-4.54,1.51-33.81-18.93-33.81-18.93L121.82,363z"/>
		<path style="fill:#EFAC7F;" d="M120.04,348.92c0.42-0.79,0.77-1.63,1.04-2.5c0.78-2.35,1.13-4.82,1.26-6.97
			c0.03-0.46,0.08-0.92,0.15-1.38c0.26-1.85,0.18-3.8-0.32-5.79c-1.61-6.4-7.33-11.07-13.92-11.33c-8.87-0.35-15.94,6.9-15.65,15.55
			c-0.96-0.49-2.02-0.57-2.93-0.13c-1.75,0.86-2.31,3.34-1.24,5.53c1.07,2.2,3.36,3.28,5.11,2.42c0.24-0.12,0.46-0.27,0.66-0.45
			c1,7.34,7.22,12.81,14.43,12.44c3.53-0.18,6.68-1.73,9-4.13c0.16-0.14,0.32-0.3,0.49-0.49
			C118.9,350.87,119.52,349.92,120.04,348.92z"/>
		<circle style="fill:#333333;" cx="105.12" cy="338.64" r="1.41"/>
		<circle style="fill:#333333;" cx="116.7" cy="338.64" r="1.41"/>
		<g>
			<g>
				<path style="fill:#D19369;" d="M110.84,335.87c-0.01,0.46-0.01,0.91,0,1.37c0.01,0.45,0.04,0.91,0.08,1.36
					c0.05,0.45,0.11,0.9,0.22,1.33c0.11,0.43,0.25,0.86,0.51,1.2c0.03,0.04,0.06,0.09,0.1,0.12c0.04,0.04,0.07,0.07,0.11,0.12
					c0.04,0.04,0.09,0.08,0.13,0.13c0.04,0.05,0.08,0.09,0.11,0.14c0.14,0.2,0.25,0.43,0.28,0.68c0.08,0.5-0.13,0.99-0.44,1.34
					c-0.31,0.36-0.73,0.61-1.16,0.76c-0.44,0.15-0.9,0.22-1.35,0.22c0.23-0.03,0.45-0.07,0.67-0.12c0.22-0.05,0.43-0.13,0.64-0.22
					c0.41-0.18,0.78-0.43,1.06-0.77c0.27-0.33,0.43-0.77,0.36-1.18c-0.03-0.21-0.12-0.4-0.24-0.57c-0.03-0.04-0.06-0.08-0.1-0.12
					c-0.03-0.04-0.07-0.08-0.11-0.11l-0.13-0.13c-0.05-0.04-0.08-0.09-0.12-0.14c-0.15-0.2-0.25-0.41-0.34-0.63
					c-0.09-0.22-0.15-0.44-0.2-0.67c-0.1-0.45-0.15-0.91-0.18-1.37C110.68,337.69,110.72,336.77,110.84,335.87z"/>
			</g>
		</g>
		<path style="fill:#E6FAFF;" d="M125.9,393.44c0.11-0.11,4.82-5.15,3.9-14.59c-0.5-5.12-3.14-9.8-5.47-13.04
			c-2.07-2.86-5.36-4.58-8.89-4.65c-6.44-0.12-16.73-0.26-16.73-0.26s-13.27-1.46-17.47,3.73c-4.21,5.19-18.44,41.18-19.25,58.37
			c-0.81,17.19,3.4,37.45,3.4,37.45s4.69,0.32,6.8,0c2.1-0.32-0.49-33.24,1.78-38.59c2.27-5.35,12.46-30.97,13.11-33.4l2.53,13.41
			c0.47,2.47,0.25,5.02-0.62,7.38c-2.14,5.78-6.28,16.9-7.94,21.02c0,0,31.85,5.14,47.55-2.65l-0.14-0.6
			C125.81,416.03,124.97,404.7,125.9,393.44z"/>
		<g>
			<g>
				<path style="fill:#282828;" d="M107.72,336.21c-0.64-0.34-1.31-0.59-1.99-0.76c-0.68-0.16-1.37-0.22-2.06-0.16
					c-0.34,0.03-0.68,0.1-1.01,0.19c-0.17,0.04-0.33,0.1-0.49,0.16c-0.08,0.03-0.16,0.07-0.24,0.1c-0.08,0.03-0.16,0.06-0.24,0.1
					c-0.63,0.3-1.22,0.7-1.8,1.14c0.43-0.59,0.98-1.1,1.62-1.48c0.32-0.19,0.66-0.36,1.02-0.48c0.36-0.12,0.73-0.2,1.1-0.24
					c0.75-0.07,1.52,0.03,2.22,0.28c0.35,0.12,0.69,0.29,1,0.47C107.16,335.73,107.46,335.95,107.72,336.21z"/>
			</g>
		</g>
		<g>
			<g>
				<path style="fill:#282828;" d="M113.4,336.21c0.26-0.26,0.56-0.48,0.87-0.67c0.32-0.19,0.65-0.35,1-0.47
					c0.7-0.25,1.46-0.35,2.22-0.28c0.38,0.03,0.75,0.12,1.1,0.24c0.36,0.12,0.7,0.28,1.02,0.48c0.64,0.39,1.19,0.9,1.62,1.48
					c-0.58-0.44-1.17-0.83-1.8-1.14c-0.08-0.04-0.16-0.07-0.24-0.1c-0.08-0.03-0.16-0.07-0.24-0.1c-0.16-0.06-0.32-0.12-0.49-0.16
					c-0.33-0.09-0.67-0.16-1.01-0.19c-0.68-0.07-1.38,0-2.06,0.16C114.71,335.61,114.04,335.87,113.4,336.21z"/>
			</g>
		</g>
		<path style="fill:#EFAC7F;" d="M96.22,360.74c0,0,10.13,12.87,12.29,17.51c0,0,5.95-7.82,6.21-17.15L96.22,360.74z"/>
		<path style="fill:#62BDF3;" d="M108.51,378.26c0.27,4.46,0.45,8.93,0.54,13.4c0.06,2.24,0.08,4.47,0.11,6.71
			c0.01,2.24,0.01,4.47-0.01,6.71c-0.01,1.12-0.02,2.24-0.05,3.35c-0.02,1.12-0.04,2.24-0.07,3.35c-0.08,2.24-0.14,4.47-0.27,6.71
			c-0.24,4.47-0.58,8.94-1.22,13.36l0.11-1.67l0.13-1.67c0.07-1.12,0.11-2.23,0.17-3.35l0.05-0.84l0.03-0.84l0.06-1.67l0.07-1.67
			l0.04-1.67c0.13-4.46,0.19-8.93,0.23-13.4c0.05-4.47,0.05-8.94,0.06-13.4L108.51,378.26z"/>
		<path style="fill:#62BDF3;" d="M88.16,384.23c-0.06,0.36-0.12,0.72-0.19,1.08c-0.08,0.36-0.15,0.72-0.24,1.07
			c-0.18,0.71-0.38,1.42-0.67,2.09c0.21-0.7,0.37-1.41,0.5-2.12c0.14-0.71,0.23-1.43,0.33-2.15c0.17-1.44,0.26-2.89,0.3-4.34
			l0.03-1.09l-0.01-1.09c0.01-0.73-0.04-1.45-0.05-2.18c0-0.36-0.04-0.73-0.05-1.09l-0.05-1.09c-0.05-0.73-0.11-1.45-0.15-2.18
			c0.12,0.72,0.22,1.44,0.33,2.17c0.07,0.73,0.16,1.45,0.21,2.18l0.07,1.09c0.03,0.36,0.03,0.73,0.04,1.1l0.02,1.1L88.16,384.23z"/>
		<path style="fill:#282828;" d="M121.64,324.55c-2.78-9.56-15.45-9.9-15.45-9.9c-19.6,1.36-16.52,18.6-15.87,21.45
			c0.57-0.13,1.35-0.11,2.3,0.4c0.4,0.22,0.72,0.45,0.98,0.68c2.31-0.71,3.01-4.55,4.2-6.4c1.62-2.51,8.77-1.22,11.48-3
			c2.71-1.78,2.99-4.54,2.99-4.54c10.46,1.66,10.29,12.73,10.29,12.73c0.45-0.1,1.01-0.05,1.01-0.05S124.12,333.09,121.64,324.55z"
			/>
		<path style="fill:#FFFFFF;" d="M114.68,346.31c-0.36,1.47-2.06,2.6-4.13,2.62c-2.07,0.02-3.8-1.07-4.19-2.53L114.68,346.31z"/>
	</g>
	<g>
		<ellipse style="fill:#3797DB;" cx="215.24" cy="205.61" rx="45.01" ry="45.1"/>
		<path style="fill:#FFFFFF;" d="M253.71,203.19c1.33,21.29-14.81,39.63-36.05,40.96c-21.24,1.34-39.55-14.84-40.88-36.13
			c-1.33-21.29,14.81-39.63,36.05-40.96C234.07,165.73,252.37,181.91,253.71,203.19z"/>
		<g>
			<rect x="173.8" y="204.85" style="fill:#3797DB;" width="14.21" height="1.09"/>
			<rect x="242.57" y="204.85" style="fill:#3797DB;" width="14.21" height="1.09"/>
			<rect x="214.64" y="164.37" style="fill:#3797DB;" width="1.09" height="14.24"/>
			<rect x="214.64" y="233.01" style="fill:#3797DB;" width="1.09" height="14.24"/>
			<circle style="fill:#3797DB;" cx="215.24" cy="205.61" r="1.18"/>
			<g>
				<path style="fill:#3797DB;" d="M215.24,206.14c-0.13,0-0.27-0.05-0.37-0.15l-21.13-21.18c-0.21-0.21-0.21-0.54,0-0.75
					c0.21-0.21,0.54-0.21,0.74,0l21.13,21.18c0.21,0.21,0.21,0.54,0,0.75C215.51,206.09,215.38,206.14,215.24,206.14z"/>
			</g>
			<g>
				<path style="fill:#3797DB;" d="M222.04,227.01c-0.09-0.04-0.16-0.12-0.19-0.22l-6.83-20.68c-0.07-0.2,0.04-0.42,0.24-0.48
					c0.2-0.07,0.42,0.04,0.48,0.24l6.83,20.68c0.07,0.2-0.04,0.42-0.24,0.48C222.23,227.07,222.13,227.06,222.04,227.01z"/>
			</g>
		</g>
	</g>
	<g>
		<path style="fill:#96A65F;" d="M632.73,251.03c-0.16-1.41-0.35-2.84-1-4.1c-0.79-1.53-2.19-2.63-3.41-3.84
			c-2.28-2.27-4.03-5.06-5.08-8.1c-0.81-2.35-1.22-4.85-2.34-7.07c-0.68-1.35-1.62-2.57-2.39-3.87c-1.84-3.08-2.84-6.72-5.33-9.3
			c-0.48,3.13,0.47,6.44,2.52,8.84c0.61,0.72,1.32,1.36,1.79,2.18c0.85,1.49,0.77,3.3,0.87,5.01c0.19,3.21,1.09,6.38,2.63,9.2
			c1.63,3,3.99,5.67,4.87,8.98c0.65,2.48,0.46,5.25,1.86,7.4c0.15,0.23,0.32,0.47,0.36,0.74c0.02,0.15,0,0.31-0.03,0.47
			c-0.03,0.2-0.06,0.4-0.09,0.6c-0.32,2.03-0.65,4.6,1.1,6.12c1.21,1.05,2.76,1.07,3.63-0.32c0.87-1.41,0.8-3.46,0.73-5.05
			C633.3,256.29,633.02,253.65,632.73,251.03z"/>
		<path style="fill:#9ED16F;" d="M635.86,249.4c-0.68-2.35-1.73-4.58-2.26-6.96c-0.51-2.31-0.52-4.7-0.52-7.07
			c0-2.6,0-5.19-0.01-7.79c0-1.62,0-3.24-0.27-4.83c-0.57-3.43-2.36-6.6-2.66-10.06c-0.13-1.5,0.02-3.01-0.14-4.51
			c-0.09-0.85-0.31-1.73-0.71-2.48c-0.42-0.81-1.6-0.78-1.98,0.06c-0.87,1.88-1.41,3.9-1.06,5.91c0.21,1.21,0.73,2.33,1.12,3.49
			c1.74,5.16,0.81,10.88,2.16,16.16c0.41,1.59,1.02,3.16,1.09,4.8c0.17,3.93-2.77,7.52-2.5,11.45c0.22,3.22,2.54,5.88,3.51,8.96
			c0.54,1.72,0.66,3.56,1.24,5.27c0.45,1.33,1.51,2.94,3.14,2.54c1.55-0.38,1.08-1.65,1.01-2.86
			C636.8,257.37,637.02,253.4,635.86,249.4z"/>
		<path style="fill:#96A65F;" d="M639.42,251.55c-0.07-1.22-0.27-2.44-0.1-3.65c0.14-1.02,0.55-1.98,0.84-2.97
			c0.54-1.85,0.68-3.8,0.81-5.73c0.24-3.5,0.48-7.01,0.72-10.51c0.37-5.45,0.75-10.91,1.76-16.27c0.28-1.49,0.6-3.1-0.07-4.46
			c-0.14-0.29-0.42-0.59-0.72-0.49c-0.22,0.07-0.32,0.31-0.4,0.52c-2.23,6.05-3.07,12.56-5.55,18.51c-0.6,1.42-1.29,2.83-1.6,4.34
			c-0.37,1.82-0.17,3.69-0.12,5.55c0.07,2.66-0.19,5.34-0.92,7.89c-0.38,1.34-0.9,2.64-1.11,4.02c-0.26,1.72-0.04,3.46,0.12,5.19
			c0.32,3.32,0.42,6.66,0.32,10c-0.06,1.96,1.59,1.91,2.69,0.7c0.77-0.84,0.76-1.77,1.02-2.82
			C637.97,257.92,639.62,255.28,639.42,251.55z"/>
		<path style="fill:#9ED16F;" d="M629.08,256.86c-1.46-2.35-4.38-3.69-5.31-6.3c-0.24-0.66-0.33-1.38-0.62-2.02
			c-0.65-1.43-2.11-2.23-3.56-2.89c-0.2-0.09-0.43,0.05-0.43,0.27l0,0c0,0.35,0.16,0.68,0.45,0.88c1.11,0.75,1.96,1.89,2.33,3.18
			c0.45,1.53,0.25,3.2,0.81,4.7c0.47,1.25,1.42,2.28,1.87,3.54c0.41,1.15,0.37,2.41,0.56,3.61c0.19,1.21,0.73,2.49,1.84,3
			C631.02,266.68,630.02,258.38,629.08,256.86z"/>
		<path style="fill:#96A65F;" d="M645.75,256.09c-0.06,1.14,0.11,2.33-0.33,3.38c-0.28,0.67-0.8,1.21-1.22,1.81
			c-1.48,2.09-2.01,5.04-4.28,6.22c-0.15,0.08-0.32,0.15-0.48,0.12c-0.23-0.04-0.38-0.27-0.48-0.48c-0.56-1.29,0.07-2.75,0.44-4.11
			c0.06-0.24,0.12-0.5,0.01-0.72c-0.13-0.24-0.41-0.34-0.6-0.53c-0.39-0.38-0.35-1-0.27-1.54c0.19-1.34,0.46-2.66,0.81-3.97
			c0.2-0.74,0.42-1.49,0.85-2.12c0.47-0.7,1.15-1.22,1.79-1.77c2.82-2.43,4.99-5.62,6.2-9.15c0.26-0.76,0.5-1.57,1.04-2.17
			c0.54-0.6,1.51-0.91,2.16-0.44c0.47,0.33-1.45,3.42-1.68,3.79c-0.64,1.06-0.65,1.98-1.01,3.16
			C647.8,250.42,645.92,253,645.75,256.09z"/>
		<path style="fill:#9ED16F;" d="M643.51,257.4c0.42-1.08,0.84-2.18,0.98-3.34c0.15-1.28-0.05-2.6,0.17-3.87
			c0.28-1.64,1.24-3.08,1.71-4.67c0.34-1.15,0.43-2.36,0.63-3.54c0.59-3.38,2.18-6.69,1.72-10.09c-0.1-0.74-0.43-1.6-1.17-1.73
			c-0.66-0.11-1.27,0.49-1.44,1.15c-0.17,0.65-0.04,1.34,0,2.02c0.13,1.88-0.4,3.8-1.49,5.34c-1.04,1.48-2.56,2.59-3.5,4.14
			c-1.15,1.9-1.31,4.21-1.9,6.35c-1.17,4.26-4.1,7.97-4.64,12.36c-0.21,1.74,0.2,3.87,1.81,4.56
			C641.05,268.09,642.46,260.13,643.51,257.4z"/>
		<path style="fill:#7772D6;" d="M635.37,260.6h-0.74h-9.94c-0.73,0-1.27,0.68-1.1,1.4l3.9,16.43c0.12,0.51,0.58,0.87,1.1,0.87h6.05
			h0.74h6.05c0.52,0,0.98-0.36,1.1-0.87l3.9-16.43c0.17-0.71-0.37-1.4-1.1-1.4H635.37z"/>
	</g>
	<path style="fill:#282828;" d="M612.73,389.17c2.35-9.17,6.1-12.81,12.61-16.23c4.99-2.62,10.88-3.47,16.92-1.51
		c12.32,3.99,15.5,17.5,16.74,24.48c4.24,23.8,24.15,44.05,16.91,60.34c-7.24,16.29-41.25,14.54-41.25,14.54l-15.6-11.24
		c0,0-1.38-27.37-1.39-29.6c0-2.23-5.91-2.07-5.91-13.26C611.76,407.78,609.96,399.95,612.73,389.17z"/>
	<path style="fill:#EFAC7F;" d="M571.43,422.84c-0.02,0.28-0.34,0.42-0.56,0.25c-1.69-1.32-7.03-5.44-7.46-5.09
		c-0.51,0.42,4.17,4.22,3.96,4.8c-0.21,0.58-4.68-3.24-5.16-2.7c-0.48,0.54,3.72,3.89,3.6,4.18c-0.12,0.3-4.49-2.48-4.96-2.33
		c-0.47,0.15,3.83,3.68,3.78,4.08c-0.05,0.4-3.82-1.04-3.98-0.73c-0.16,0.31-0.32,0.49,7.24,6.19l3.07,2.12l3.44,0.37l1.95-3.68
		c0,0-3.37-11.73-3.85-11.88C572.05,418.27,571.78,418.58,571.43,422.84z"/>
	<path style="fill:#3797DB;" d="M622.92,417.46c0,0-26.36,29.91-27.48,30.04c-1.11,0.13-18.78-20.56-18.78-20.56
		s-6.33,5.27-7.43,7.1c0,0,18.88,31.47,23.73,33.25c4.85,1.79,37.04-28.59,37.04-28.59L622.92,417.46z"/>
	<g>
		<path style="fill:#F4A640;" d="M619.84,455.96l0.32,0.16c0,0,0.03-0.25,0.08-0.68C620.11,455.63,619.97,455.8,619.84,455.96z"/>
	</g>
	<path style="fill:#EFAC7F;" d="M644.27,417.75c-1.34,1.34-2.27,3.04-2.78,4.88c-1.8,6.43-7.79,27.32-10.31,28.74
		c-2.99,1.68-40.76,9.77-44.49,9.45c-3.73-0.33-7.25,3.4-7.99,6.27h13.85h0.96h48.51c0,0,12.67-15.6,14.08-32.03
		C657.35,420.43,650.53,411.51,644.27,417.75z"/>
	<path style="fill:#EFAC7F;" d="M639.43,405.56v10.56c0,0.59-0.33,1.12-0.86,1.37c-1.61,0.76-5.21,2-8.57,0.02
		c-0.45-0.27-0.72-0.77-0.72-1.29v-9.53L639.43,405.56z"/>
	<path style="fill:#D19369;" d="M639.43,411.21v-5.65l-10.16,1.12v4.8C631.17,412.05,634.72,412.63,639.43,411.21z"/>
	<path style="fill:#EFAC7F;" d="M622.59,403.75c-0.36-0.73-0.65-1.5-0.87-2.3c-0.63-2.15-0.87-4.4-0.93-6.35
		c-0.01-0.42-0.05-0.84-0.09-1.25c-0.18-1.68-0.05-3.45,0.47-5.23c1.65-5.75,6.98-9.79,12.95-9.83c8.04-0.04,14.22,6.74,13.68,14.57
		c0.88-0.41,1.84-0.46,2.66-0.02c1.56,0.83,1.98,3.09,0.95,5.05c-1.04,1.96-3.14,2.87-4.7,2.03c-0.22-0.12-0.41-0.26-0.58-0.43
		c-1.13,6.61-6.93,11.37-13.45,10.82c-3.19-0.27-5.99-1.77-8.02-4.02c-0.14-0.13-0.28-0.29-0.43-0.46
		C623.56,405.55,623.02,404.68,622.59,403.75z"/>
	<g>
		<circle style="fill:#333333;" cx="635.95" cy="395.47" r="1.09"/>
		<circle style="fill:#333333;" cx="626.55" cy="395.28" r="1.09"/>
		<path style="fill:#333333;" d="M633.73,393.1c0.55-0.17,1.08-0.31,1.6-0.38c0.52-0.08,1.03-0.08,1.53-0.02
			c0.49,0.07,0.99,0.19,1.46,0.42l0.18,0.07c0.06,0.03,0.12,0.06,0.18,0.09l0.36,0.19c0.24,0.13,0.46,0.29,0.73,0.42
			c-0.14-0.25-0.3-0.5-0.48-0.73c-0.21-0.2-0.4-0.44-0.65-0.6c-0.47-0.37-1.07-0.58-1.67-0.67c-0.61-0.08-1.23-0.01-1.79,0.2
			C634.61,392.33,634.1,392.65,633.73,393.1z"/>
		<path style="fill:#333333;" d="M629.33,392.95c-0.34-0.48-0.83-0.83-1.37-1.08c-0.54-0.25-1.16-0.37-1.77-0.32
			c-0.61,0.04-1.22,0.22-1.72,0.55c-0.27,0.14-0.47,0.36-0.69,0.55c-0.2,0.21-0.38,0.45-0.53,0.69c0.28-0.11,0.51-0.26,0.76-0.37
			l0.37-0.16c0.06-0.02,0.12-0.06,0.18-0.08l0.19-0.06c0.49-0.2,0.99-0.28,1.49-0.32c0.5-0.03,1.01,0.01,1.52,0.12
			C628.28,392.57,628.79,392.74,629.33,392.95z"/>
		<path style="fill:#D19369;" d="M631.38,394.07c-0.45,0.54-0.85,1.12-1.22,1.72c-0.37,0.6-0.71,1.21-0.99,1.87
			c-0.14,0.33-0.26,0.66-0.34,1.03c-0.02,0.09-0.03,0.19-0.03,0.29c0,0.05,0.01,0.11,0.01,0.16c0.01,0.06,0.02,0.12,0.05,0.18
			c0.02,0.03,0.04,0.06,0.05,0.09l0.05,0.05c0.03,0.04,0.06,0.07,0.1,0.11c0.07,0.06,0.14,0.13,0.21,0.18
			c0.28,0.23,0.59,0.41,0.91,0.57c0.32,0.16,0.64,0.3,0.98,0.4c-0.58-0.38-1.17-0.77-1.66-1.23c-0.06-0.06-0.11-0.12-0.17-0.18
			l-0.07-0.09l-0.04-0.05c0-0.01,0-0.02-0.01-0.02c-0.03-0.07-0.01-0.25,0.02-0.4c0.07-0.31,0.2-0.63,0.34-0.95
			c0.27-0.63,0.58-1.25,0.89-1.87C630.77,395.33,631.09,394.71,631.38,394.07z"/>
	</g>
	<polygon style="fill:#EFAC7F;" points="604.96,557.67 605.59,573.32 598.07,573.37 597.35,558.59 	"/>
	<g>
		<path style="fill:#D1EAF2;" d="M585.79,582.31l21.61,0.15c0.47,0,0.85-0.37,0.85-0.83l-0.01-0.62c0-0.46-0.39-0.84-0.86-0.84
			l-21.61-0.15c-0.47,0-0.85,0.37-0.85,0.83l0.01,0.62C584.93,581.93,585.32,582.3,585.79,582.31z"/>
		<path style="fill:#45258F;" d="M607.1,573.17l0.83,6.4c0.1,0.79-0.34,1.5-0.93,1.5l-20.55-0.14c-0.53,0-1.06-0.33-1.35-0.95
			c-0.29-0.63-0.36-1.58,0.55-2.85c1.82-2.53,7.86-3.11,10.79-5.27l9.57,0.06C606.55,571.93,607.01,572.46,607.1,573.17z"/>
		<g>
			<path style="fill:#FFFFFF;" d="M597.93,575.58L597.93,575.58c0.15-0.09,0.2-0.33,0.11-0.52c-0.41-0.88-1.69-3.02-4.25-2.6
				c-0.15,0.02-0.25,0.22-0.22,0.42l0,0.01c0.03,0.19,0.16,0.32,0.3,0.3c2.3-0.37,3.38,1.52,3.72,2.25
				C597.66,575.6,597.81,575.66,597.93,575.58z"/>
		</g>
		<g>
			<path style="fill:#FFFFFF;" d="M595.8,576.39L595.8,576.39c0.15-0.09,0.2-0.33,0.11-0.52c-0.41-0.88-1.69-3.02-4.25-2.6
				c-0.15,0.02-0.25,0.22-0.22,0.42l0,0.01c0.03,0.19,0.16,0.32,0.3,0.3c2.3-0.37,3.38,1.52,3.72,2.25
				C595.54,576.4,595.68,576.47,595.8,576.39z"/>
		</g>
		<g>
			<path style="fill:#FFFFFF;" d="M593.83,577.15L593.83,577.15c0.15-0.09,0.2-0.33,0.11-0.52c-0.41-0.88-1.69-3.02-4.25-2.6
				c-0.15,0.02-0.25,0.22-0.22,0.42l0,0.01c0.03,0.19,0.16,0.32,0.3,0.3c2.3-0.37,3.39,1.52,3.72,2.25
				C593.56,577.16,593.7,577.22,593.83,577.15z"/>
		</g>
		<path style="opacity:0.3;fill:#45258F;" d="M601.51,581.03c1.57-5.15,4.36-5.7,5.88-5.57l0.53,4.11c0.1,0.79-0.34,1.5-0.93,1.5
			L601.51,581.03z"/>
	</g>
	<polygon style="fill:#EFAC7F;" points="569.59,557.67 570.22,572.64 562.7,572.69 561.98,558.59 	"/>
	<g>
		<path style="fill:#D1EAF2;" d="M550.42,582.31l21.61,0.15c0.47,0,0.85-0.37,0.85-0.83l-0.01-0.62c0-0.46-0.39-0.84-0.86-0.84
			l-21.61-0.15c-0.47,0-0.85,0.37-0.85,0.83l0.01,0.62C549.56,581.93,549.95,582.3,550.42,582.31z"/>
		<path style="fill:#45258F;" d="M571.73,573.17l0.83,6.4c0.1,0.79-0.34,1.5-0.93,1.5l-20.55-0.14c-0.53,0-1.06-0.33-1.35-0.95
			c-0.29-0.63-0.36-1.58,0.55-2.85c1.82-2.53,7.86-3.11,10.79-5.27l9.57,0.06C571.18,571.93,571.64,572.46,571.73,573.17z"/>
		<g>
			<path style="fill:#FFFFFF;" d="M562.56,575.58L562.56,575.58c0.15-0.09,0.2-0.33,0.11-0.52c-0.41-0.88-1.69-3.02-4.25-2.6
				c-0.15,0.02-0.25,0.22-0.22,0.42l0,0.01c0.03,0.19,0.16,0.32,0.3,0.3c2.3-0.37,3.38,1.52,3.72,2.25
				C562.29,575.6,562.43,575.66,562.56,575.58z"/>
		</g>
		<g>
			<path style="fill:#FFFFFF;" d="M560.43,576.39L560.43,576.39c0.15-0.09,0.2-0.33,0.11-0.52c-0.41-0.88-1.69-3.02-4.25-2.6
				c-0.15,0.02-0.25,0.22-0.22,0.42l0,0.01c0.03,0.19,0.16,0.32,0.3,0.3c2.3-0.37,3.38,1.52,3.72,2.25
				C560.16,576.4,560.31,576.47,560.43,576.39z"/>
		</g>
		<g>
			<path style="fill:#FFFFFF;" d="M558.45,577.15L558.45,577.15c0.15-0.09,0.2-0.33,0.11-0.52c-0.41-0.88-1.69-3.02-4.25-2.6
				c-0.15,0.02-0.25,0.22-0.22,0.42l0,0.01c0.03,0.19,0.16,0.32,0.3,0.3c2.3-0.37,3.38,1.52,3.72,2.25
				C558.19,577.16,558.33,577.22,558.45,577.15z"/>
		</g>
		<path style="opacity:0.3;fill:#45258F;" d="M566.14,581.03c1.57-5.15,4.36-5.7,5.88-5.57l0.53,4.11c0.1,0.79-0.34,1.5-0.93,1.5
			L566.14,581.03z"/>
	</g>
	<path style="fill:#2D185D;" d="M600.68,475.97c0,0-37.39,0.14-43.17,7.65c-5.77,7.52-10.16,58.29,0,80.5c0,0,13.16,0.46,16.16-1.39
		c0,0-0.92-37.47-0.46-47.42c0.46-9.95,7.39-11.33,8.31-12.26C582.44,502.13,600.68,475.97,600.68,475.97z"/>
	<path style="fill:#45258F;" d="M604.91,530.45c-0.34-3.13-0.77-7.19-1.25-11.78l0,0c-0.85-9.03-1.91-14.44-0.78-14.33
		c9.01,0.87,33.51-3.5,47.99-6.33c8.81-1.72,13.85-11.33,9.93-19.42c-0.49-1.01-1.08-1.91-1.79-2.62
		c-6.76-6.75-20.71-4.58-20.69-5.53c-78.95,6.59-61.55,20.15-54.15,66.95l0,0c0.04,0.2,0.08,0.4,0.12,0.6l0,0
		c3.21,15.48,6.24,28.21,6.24,28.21s11.54,0.46,18.24-1.16C608.77,565.12,606.68,546.84,604.91,530.45z"/>
	<path style="fill:#62BDF3;" d="M653.61,415.89c-2.57-2.43-8.67-2.99-14.31-2.91c0.08,0.03,0.13,0.05,0.13,0.05
		c-4.95,5.51-10.16,0.65-10.16,0.65l0,0c-1.01,0.12-1.6,0.21-1.6,0.21s-3.74,1.78-7.78,6.8c-0.06,0.07-4.4,4.71-4.82,10.22
		c-0.3,3.93,4.73,9.67,4.73,11.91c0,2.24-2.32,18.52-2.32,18.52l0.88-0.11c0,0.05,0,0.09,0,0.11c0.01,0.2-1.8,0.49-4.09,0.77
		c-0.1,2.91-0.15,4.72-0.15,4.72v5.67c30.04,4.99,48.04,13.41,48.04,13.41C663.63,427.31,654.01,416.27,653.61,415.89z"/>
	<path style="fill:#3797DB;" d="M644.27,417.75c-1.34,1.34-2.27,3.04-2.78,4.88c-1.8,6.43-7.79,27.32-10.31,28.74
		c-2.37,1.34-26.74,6.73-38.5,8.71c0,0,0.86,3.51,1.63,7h47.69c0,0,12.67-15.6,14.08-32.03
		C657.35,420.43,650.53,411.51,644.27,417.75z"/>
	<path style="fill:#45258F;" d="M498.2,422.29h56.85l16.12,39.43h27.39c0.77,0,1.39,0.62,1.39,1.39l0,0c0,0.77-0.62,1.39-1.39,1.39
		h-81.46L498.2,422.29z"/>
	
		<ellipse transform="matrix(-0.9805 0.1966 -0.1966 -0.9805 1135.1157 775.8121)" style="fill:#DAEEF7;" cx="529.04" cy="444.26" rx="2.71" ry="3.1"/>
	<path style="fill:#282828;" d="M625.31,377.66c0,0,15.27,14.09,22.48,15.7c0,0,0.96-10.93,0.87-11.3
		c-0.09-0.37-9.15-8.98-9.71-8.89c-0.56,0.09-16.99,2.43-16.99,2.43l-4.5,11.13L625.31,377.66z"/>
	<path style="fill:#282828;" d="M616.65,380.66l3.98,11.3c0,0,8.03-5.68,11.12-11.3c3.09-5.61-8.01-3.55-8.01-3.55L616.65,380.66z"
		/>
	<path style="opacity:0.3;fill:#D19369;" d="M634.71,402.66c0,0-1.51-0.43-2.84,0.58c0,0-1.57-0.84-2.69,0.15
		c0,0,0.71,2.2,3.16,1.88C634.8,404.94,634.71,402.66,634.71,402.66z"/>
	<path style="fill:#D19369;" d="M635.95,401.77c-0.26,0.25-0.54,0.48-0.83,0.68c-0.29,0.21-0.59,0.4-0.9,0.57
		c-0.63,0.33-1.29,0.58-1.99,0.69c-0.69,0.11-1.4,0.07-2.09-0.08c-0.69-0.17-1.34-0.46-1.97-0.82c0.28,0.22,0.59,0.42,0.9,0.6
		c0.32,0.18,0.66,0.31,1.01,0.42c0.35,0.1,0.71,0.17,1.08,0.2c0.37,0.02,0.74,0,1.1-0.05c0.73-0.12,1.43-0.39,2.05-0.77
		C634.93,402.81,635.5,402.34,635.95,401.77z"/>
	<rect x="161.66" y="438.84" style="fill:#D1EAF2;" width="21.97" height="4.49"/>
	<rect x="196.79" y="438.84" style="fill:#D1EAF2;" width="21.97" height="4.49"/>
	<rect x="490.49" y="230.59" style="fill:#D1EAF2;" width="10" height="3.45"/>
	<rect x="504.09" y="240.8" style="fill:#97CEF7;" width="5.96" height="16.43"/>
	<rect x="513.8" y="226.4" style="fill:#97CEF7;" width="10.86" height="2.6"/>
	<rect x="513.8" y="271.22" style="fill:#97CEF7;" width="10.86" height="3.4"/>
	<g>
		<polygon style="fill:#45258F;" points="418.71,498.93 424.56,582.47 421.63,582.47 412.38,499.83 		"/>
		<polygon style="fill:#45258F;" points="357.32,498.93 351.47,582.47 354.39,582.47 363.65,499.83 		"/>
		<path style="fill:#3797DB;" d="M444.22,408.55c0,0-46.72-1.38-49.75-1.17c-3.02,0.22-5.82,9.94-5.82,9.94
			s-13.65,50.64-13.38,52.03c0.27,1.39-12.73,34.02-12.73,34.02s11.22-0.3,11.71,0c0.5,0.3,43.38-3.68,43.98-4.08
			c0.6-0.4,2.78-7.86,2.88-8.26c0.1-0.4,3.38-29.45,3.38-29.45l1.69-16.02c0,0,6.45-13.74,6.55-13.78
			c0.1-0.04,6.06-12.08,6.45-12.68c0.4-0.6,6.55-7.26,6.75-7.86C446.13,410.65,444.22,408.55,444.22,408.55z"/>
		<path style="opacity:0.3;fill:#3797DB;" d="M444.22,408.55c0,0-16.11-0.48-30.02-0.83c5.41,3.18,8.44,12.08,6.19,27.91
			c-1.91,13.45-4.04,28.05-12.51,45.56c-4.36,9.02-23.15,3.97-38.55,4.86c-3.32,8.61-6.79,17.32-6.79,17.32s11.22-0.3,11.71,0
			c0.5,0.3,43.38-3.68,43.98-4.08c0.6-0.4,2.78-7.86,2.88-8.26c0.1-0.4,3.38-29.45,3.38-29.45l1.69-16.02c0,0,6.45-13.74,6.55-13.78
			c0.1-0.04,6.06-12.08,6.45-12.68c0.4-0.6,6.55-7.26,6.75-7.86C446.13,410.65,444.22,408.55,444.22,408.55z"/>
		<g>
			<g>
				<path style="fill:#3B77BE;" d="M354.01,505.15L354.01,505.15c-0.1-1.6,1.1-2.98,2.7-3.08c4.99-0.34,15.79-1.11,26.9-2.16
					c21.29-2.02,28.98-3.67,31.74-4.54c0.95-0.3,1.68-1.07,1.92-2.04c0.75-2.98,1.19-9.15,1.55-14.32
					c1.39-19.61,3.68-51.93,23.83-69.68c1.26-1.11,3.19-0.91,4.21,0.42l0,0c0.93,1.21,0.77,2.94-0.38,3.95
					c-18.35,16.11-20.46,45.83-21.87,65.73c-0.8,11.34-1.3,16.91-3.78,19.5c-1.19,1.25-3.42,3.57-35.79,6.68
					c-11.48,1.1-22.79,1.91-27.95,2.26C355.49,507.99,354.11,506.76,354.01,505.15z M416.77,494.78L416.77,494.78L416.77,494.78z"/>
			</g>
		</g>
	</g>
	<polygon style="fill:#EFAC7F;" points="316.47,556.93 314.7,571.17 305.18,571.91 305.32,558.71 	"/>
	<g>
		<path style="fill:#D1EAF2;" d="M290.7,582.33l26.03,0.18c0.57,0,1.03-0.44,1.02-1l-0.01-0.75c0-0.56-0.47-1.01-1.04-1.02
			l-26.03-0.18c-0.57,0-1.03,0.44-1.02,1l0.01,0.75C289.67,581.87,290.13,582.33,290.7,582.33z"/>
		<path style="fill:#96A65F;" d="M316.37,571.33l1,7.71c0.12,0.95-0.41,1.81-1.12,1.8l-24.75-0.17c-0.64,0-1.28-0.4-1.63-1.14
			c-0.35-0.76-0.43-1.9,0.66-3.43c2.19-3.05,9.46-3.75,13-6.35l11.53,0.08C315.71,569.83,316.26,570.47,316.37,571.33z"/>
		<g>
			<path style="fill:#D1EAF2;" d="M305.32,574.24L305.32,574.24c0.18-0.11,0.24-0.4,0.14-0.63c-0.5-1.06-2.04-3.64-5.12-3.13
				c-0.18,0.03-0.3,0.26-0.26,0.5l0,0.01c0.03,0.23,0.19,0.38,0.37,0.36c2.77-0.44,4.08,1.83,4.48,2.72
				C305,574.25,305.18,574.32,305.32,574.24z"/>
		</g>
		<g>
			<path style="fill:#D1EAF2;" d="M302.76,575.21L302.76,575.21c0.18-0.11,0.24-0.4,0.14-0.63c-0.5-1.06-2.04-3.64-5.12-3.13
				c-0.18,0.03-0.3,0.26-0.26,0.5l0,0.01c0.03,0.23,0.19,0.39,0.37,0.36c2.77-0.44,4.08,1.83,4.48,2.72
				C302.44,575.22,302.61,575.3,302.76,575.21z"/>
		</g>
		<g>
			<path style="fill:#D1EAF2;" d="M300.38,576.12L300.38,576.12c0.18-0.11,0.24-0.4,0.14-0.63c-0.49-1.06-2.04-3.64-5.12-3.13
				c-0.18,0.03-0.3,0.26-0.26,0.5l0,0.01c0.03,0.23,0.19,0.38,0.37,0.36c2.77-0.44,4.08,1.83,4.48,2.72
				C300.06,576.13,300.23,576.21,300.38,576.12z"/>
		</g>
		<path style="opacity:0.3;fill:#E87B50;" d="M309.64,580.79c1.89-6.21,5.25-6.87,7.09-6.72l0.64,4.96c0.12,0.95-0.41,1.81-1.12,1.8
			L309.64,580.79z"/>
	</g>
	<polygon style="fill:#D19369;" points="360.44,439.81 358.87,456.23 365.12,457.42 368.56,450.92 368,442.3 363.14,438.91 	"/>
	<path style="fill:#45258F;" d="M366.79,413.95c0,0-6.35,16.55-6.35,25.87c0,0,3.33,2.19,8.12,1.59c4.8-0.6,0.76-19.5,0.94-20
		C369.69,420.91,366.79,413.95,366.79,413.95z"/>
	<polygon style="fill:#EFAC7F;" points="331.1,557.24 326.89,570.98 317.19,571.04 318.88,561.01 	"/>
	<path style="fill:#D19369;" d="M387.16,451.75l-11.65,17.61l-15.49-3.06l-26.29-19.66l4.61-6.84c0,0,24.64,14.8,26.73,15.21
		c2.1,0.41,7.81-12.97,7.81-12.97L387.16,451.75z"/>
	<path style="fill:#2D185D;" d="M353.97,472.12c0,0-40.49-1.28-49.69,7.43c-9.2,8.71-3.03,74.24-1.5,80.25c0,0,8.4,4,15.04,1.95
		c6.64-2.05,4.09-30.73,4.09-30.73s-0.77-27.4,0.26-31.24c1.02-3.84,15.08-6.66,15.08-6.66s21.72-15.11,20.44-15.11
		C356.41,478.01,353.97,472.12,353.97,472.12z"/>
	<g>
		<path style="fill:#D1EAF2;" d="M303.26,582.59l26.03,0.18c0.57,0,1.03-0.44,1.02-1l-0.01-0.75c-0.01-0.56-0.47-1.01-1.04-1.02
			l-26.03-0.18c-0.57,0-1.03,0.44-1.02,1l0.01,0.75C302.23,582.13,302.7,582.58,303.26,582.59z"/>
		<path style="fill:#9ED16F;" d="M328.94,571.58l1,7.71c0.12,0.95-0.41,1.81-1.12,1.8l-24.75-0.17c-0.64,0-1.28-0.4-1.63-1.14
			c-0.35-0.76-0.43-1.9,0.66-3.43c2.19-3.05,9.46-3.75,13-6.35l11.53,0.08C328.27,570.09,328.83,570.72,328.94,571.58z"/>
		<g>
			<path style="fill:#D1EAF2;" d="M317.89,574.49L317.89,574.49c0.18-0.11,0.24-0.4,0.14-0.63c-0.49-1.06-2.04-3.64-5.12-3.13
				c-0.18,0.03-0.3,0.26-0.26,0.5l0,0.01c0.03,0.23,0.19,0.39,0.37,0.36c2.77-0.44,4.08,1.83,4.48,2.72
				C317.57,574.5,317.74,574.58,317.89,574.49z"/>
		</g>
		<g>
			<path style="fill:#D1EAF2;" d="M315.33,575.46L315.33,575.46c0.18-0.11,0.24-0.4,0.14-0.63c-0.5-1.06-2.04-3.64-5.12-3.13
				c-0.18,0.03-0.3,0.26-0.26,0.5l0,0.01c0.03,0.23,0.19,0.39,0.37,0.36c2.77-0.44,4.08,1.83,4.48,2.72
				C315,575.48,315.18,575.55,315.33,575.46z"/>
		</g>
		<g>
			<path style="fill:#D1EAF2;" d="M312.94,576.37L312.94,576.37c0.18-0.11,0.24-0.4,0.14-0.63c-0.5-1.06-2.04-3.64-5.12-3.13
				c-0.18,0.03-0.3,0.26-0.26,0.5l0,0.01c0.03,0.23,0.19,0.39,0.37,0.36c2.77-0.44,4.08,1.83,4.48,2.72
				C312.62,576.39,312.8,576.46,312.94,576.37z"/>
		</g>
		<path style="opacity:0.3;fill:#96A65F;" d="M322.2,581.05c1.9-6.21,5.25-6.87,7.09-6.72l0.64,4.96c0.12,0.95-0.41,1.81-1.12,1.8
			L322.2,581.05z"/>
	</g>
	<path style="fill:#45258F;" d="M413.9,485.77c-1.32-12.34-15.94-12.53-15.94-12.53l-7.86-0.68l-0.19-1.67
		c0,0-54.2-6.45-61.61,18.13c-7.41,24.58-13.03,73.24-13.03,73.24s7.15,4.35,16.87,0c0,0,13.73-52.24,18.88-57.36
		c5.14-5.12,42.1-5.96,42.1-5.96S415.22,498.11,413.9,485.77z"/>
	<path style="fill:#7772D6;" d="M363.14,464.09c0,0,1.28-44.97,3.65-50.14c2.37-5.17,10.78-6.17,10.78-6.17s21.9-3.25,27.59,2.13
		c0.43,0.4,10.33,13.54,8.74,75.87c0,0-18.81-10.35-50.76-15.65V464.09z"/>
	<path style="fill:#EFAC7F;" d="M390.07,398.85v11.23c0,0.62-0.36,1.19-0.92,1.46c-1.71,0.8-5.54,2.12-9.12,0.02
		c-0.48-0.28-0.77-0.82-0.77-1.38v-10.14L390.07,398.85z"/>
	<path style="fill:#D19369;" d="M390.07,407.47v-6.01l-10.81,1.19v5.1C381.29,408.37,385.07,408.98,390.07,407.47z"/>
	<rect x="249.42" y="455.93" style="fill:#62BDF3;" width="60.23" height="8.36"/>
	<rect x="242.14" y="447.57" style="fill:#7772D6;" width="60.23" height="8.36"/>
	<path style="fill:#45258F;" d="M343.18,433.66l-6.47-17.9c-0.24-0.68-1.02-0.99-1.67-0.67l-12.25,6.03
		c-0.66,0.32-0.95,1.11-0.65,1.79l10.6,24.34c0.32,0.74,1.17,1.1,1.93,0.82l10.75-3.98L343.18,433.66z"/>
	<path style="fill:#EFAC7F;" d="M332.21,434.94c0.01-0.05,0.01-0.09,0.02-0.14c0.3-1.17,0.63-1.31,0.85-1.31
		c-0.04-0.19-0.04-0.36,0.01-0.52c0.55-1.66,1.17-0.16,1.17-0.16c1.55,2.31,6.36,4.39,6.36,4.39l1.64,0.36
		c-0.08-0.27,0.9-3.9,0.9-3.9s3.43,6.22,3.46,6.3c0.11,0.29-1.7,2.83-2.46,3.67c-0.75,0.84-2.24,2.87-2.33,3.03
		c0,0-3.56-2.26-4.83-3.37c-1.48-1.23-3.8-3.19-4.72-4.22c-0.66-0.74-0.68-1.47-0.53-2.04
		C331.38,436.22,331.78,435.46,332.21,434.94z"/>
	<g>
		<path style="fill:#D19369;" d="M332.24,434.84c0.07,0.47,0.26,0.91,0.48,1.32c0.23,0.42,0.52,0.79,0.84,1.14
			c0.33,0.34,0.68,0.66,1.07,0.93c0.19,0.14,0.4,0.26,0.59,0.38c0.21,0.11,0.42,0.22,0.63,0.32c-0.38-0.27-0.77-0.53-1.12-0.83
			c-0.36-0.29-0.7-0.61-1.01-0.94c-0.31-0.34-0.6-0.7-0.85-1.09C332.61,435.7,332.39,435.29,332.24,434.84z"/>
		<path style="fill:#D19369;" d="M331.76,437.01c0.1,0.46,0.33,0.89,0.59,1.28c0.26,0.4,0.58,0.75,0.92,1.08
			c0.35,0.32,0.73,0.6,1.14,0.84c0.2,0.12,0.41,0.22,0.62,0.33c0.22,0.09,0.43,0.18,0.65,0.27c-0.4-0.24-0.81-0.47-1.19-0.73
			c-0.38-0.26-0.74-0.55-1.08-0.86c-0.34-0.31-0.65-0.65-0.93-1.02C332.2,437.84,331.95,437.44,331.76,437.01z"/>
		<path style="fill:#D19369;" d="M333.09,433.49c0.07,0.47,0.26,0.91,0.48,1.32c0.23,0.42,0.52,0.79,0.84,1.14
			c0.33,0.34,0.68,0.66,1.07,0.93c0.19,0.14,0.4,0.25,0.59,0.38c0.21,0.11,0.42,0.22,0.63,0.32c-0.38-0.27-0.77-0.53-1.12-0.83
			c-0.36-0.29-0.7-0.61-1.01-0.94c-0.31-0.34-0.6-0.7-0.85-1.09C333.46,434.34,333.24,433.93,333.09,433.49z"/>
	</g>
	<path style="fill:#EFAC7F;" d="M395.28,451.75l-11.65,17.61l-15.49-3.06l-26.29-19.66l4.61-6.84c0,0,24.64,14.8,26.73,15.21
		c2.1,0.41,7.81-12.97,7.81-12.97L395.28,451.75z"/>
	<path style="fill:#45258F;" d="M405.27,421.88c-1.27,6.99-4.62,23.16-9.45,30.63c0,0-11.69-0.85-18.27-8.85
		c0,0,9-22.23,11.34-26.78c1.89-3.66,10.99-14.54,15.49-3.75C405.53,415.9,405.81,418.94,405.27,421.88z"/>
	<g>
		<rect x="242.14" y="470.12" style="fill:#7772D6;" width="4.1" height="112.35"/>
		<rect x="280.86" y="470.12" style="fill:#7772D6;" width="4.1" height="112.35"/>
		<rect x="397.96" y="470.12" style="fill:#7772D6;" width="4.1" height="112.35"/>
		<rect x="436.68" y="470.12" style="fill:#7772D6;" width="4.1" height="112.35"/>
		<path style="fill:#9ED16F;" d="M450.53,471.45H232.96c-1,0-1.81-0.81-1.81-1.81v-3.55c0-1,0.81-1.81,1.81-1.81h217.57
			c1,0,1.81,0.81,1.81,1.81v3.55C452.34,470.64,451.53,471.45,450.53,471.45z"/>
	</g>
	<g>
		<path style="fill:#5E2E0D;" d="M399.64,389.16c0,0,3.74-13.39-3.52-18.81c-7.26-5.42-15.21-5.22-20.74-2.44
			c-5.53,2.79-9.23,13.22-7.08,19.39l18.18-4.94L399.64,389.16z"/>
		<path style="fill:#D19369;" d="M371.88,389.02c0.67,1.73,0.09,3.57-1.3,4.11c-1.38,0.53-3.05-0.44-3.71-2.17
			c-0.67-1.73-0.09-3.57,1.3-4.11C369.55,386.31,371.22,387.29,371.88,389.02z"/>
		<path style="fill:#EFAC7F;" d="M372.18,399.09c-0.41-0.75-0.76-1.54-1.03-2.37c-0.78-2.23-1.15-4.59-1.31-6.64
			c-0.03-0.44-0.09-0.88-0.16-1.31c-0.27-1.76-0.23-3.63,0.22-5.53c1.44-6.14,6.84-10.68,13.13-11.03
			c8.47-0.47,15.33,6.36,15.17,14.62c0.91-0.48,1.92-0.58,2.8-0.16c1.69,0.79,2.25,3.15,1.26,5.27c-0.99,2.11-3.16,3.18-4.85,2.39
			c-0.23-0.11-0.44-0.25-0.63-0.42c-0.85,7.02-6.71,12.34-13.6,12.1c-3.37-0.12-6.4-1.55-8.66-3.81c-0.15-0.13-0.31-0.29-0.48-0.47
			C373.3,400.93,372.69,400.04,372.18,399.09z"/>
		<path style="fill:#D19369;" d="M380.64,386.35c-0.1,0.82-0.17,1.62-0.27,2.4c-0.11,0.76-0.27,1.58-0.62,2.09l-0.07,0.08
			c-0.03,0.03-0.03,0.05-0.08,0.1c-0.08,0.1-0.18,0.18-0.24,0.29c-0.14,0.21-0.25,0.47-0.28,0.73c-0.06,0.54,0.18,1.05,0.51,1.38
			c0.68,0.68,1.62,0.81,2.42,0.68c-0.79-0.21-1.53-0.55-1.93-1.11c-0.19-0.28-0.3-0.58-0.23-0.85c0.03-0.13,0.08-0.26,0.17-0.38
			c0.03-0.06,0.1-0.11,0.15-0.17l0.11-0.13l0.13-0.15c0.29-0.42,0.41-0.85,0.49-1.28c0.08-0.43,0.1-0.85,0.1-1.26
			C381,387.96,380.89,387.14,380.64,386.35z"/>
		<circle style="fill:#333333;" cx="386.55" cy="387.87" r="1.25"/>
		<circle style="fill:#333333;" cx="375.78" cy="388.19" r="1.25"/>
		<path style="fill:#5E2E0D;" d="M383.96,384.87c0.65-0.14,1.26-0.24,1.86-0.29c0.6-0.04,1.18-0.01,1.74,0.1
			c0.55,0.12,1.11,0.29,1.63,0.58c0.28,0.11,0.52,0.31,0.8,0.45c0.27,0.16,0.51,0.36,0.82,0.53c-0.13-0.3-0.29-0.6-0.49-0.88
			c-0.22-0.25-0.42-0.54-0.7-0.74c-0.51-0.46-1.18-0.76-1.87-0.91c-0.69-0.14-1.42-0.1-2.07,0.1
			C385.02,384.03,384.41,384.37,383.96,384.87z"/>
		<path style="fill:#5E2E0D;" d="M378.41,385.04c-0.47-0.49-1.09-0.81-1.75-1c-0.66-0.18-1.39-0.2-2.08-0.04
			c-0.68,0.17-1.34,0.48-1.84,0.96c-0.27,0.21-0.47,0.5-0.68,0.76c-0.18,0.28-0.33,0.59-0.46,0.89c0.3-0.17,0.54-0.38,0.8-0.55
			c0.28-0.15,0.51-0.35,0.78-0.48c0.51-0.31,1.06-0.49,1.61-0.63c0.55-0.13,1.13-0.18,1.73-0.16
			C377.14,384.83,377.76,384.91,378.41,385.04z"/>
		<path style="fill:#5E2E0D;" d="M397.98,387.01c0.85-0.68,1.48-0.6,1.48-0.6l-0.18-4.39l-1.24-2.7c0,0-5.01-7.33-5.19-7.51
			c-0.18-0.18-4.14-2.65-4.38-2.78c-0.24-0.13-5.96,0.48-5.96,0.48s-9.9-2.48-8.45,2.83c1.46,5.31,8.64,8.37,9.02,8.16
			c-1.13-1.23-1.11-4.56-1.11-4.56C386.9,381.78,396.49,386.33,397.98,387.01z"/>
		<path style="fill:#FFFFFF;" d="M377.12,395.73c0.22,1.58,1.63,2.86,3.41,2.98c1.78,0.12,3.34-0.97,3.76-2.51L377.12,395.73z"/>
	</g>
	<path style="opacity:0.5;fill:#96A65F;" d="M450.53,471.45h-60.12c-1,0-1.81-0.81-1.81-1.81v-3.55c0-1,0.81-1.81,1.81-1.81h60.12
		c1,0,1.81,0.81,1.81,1.81v3.55C452.34,470.64,451.53,471.45,450.53,471.45z"/>
	<rect x="245" y="448.87" style="fill:#3B77BE;" width="28.49" height="5.57"/>
	<rect x="293.84" y="455.93" style="fill:#D1EAF2;" width="3.08" height="8.36"/>
	<path style="fill:#62BDF3;" d="M746.95,588.68H3.83c-1.68,0-3.05-1.37-3.05-3.05v-0.01c0-1.68,1.37-3.05,3.05-3.05h743.12
		c1.68,0,3.05,1.37,3.05,3.05v0.01C750,587.32,748.63,588.68,746.95,588.68z"/>
	<rect x="491.6" y="470.12" style="fill:#7772D6;" width="4.1" height="112.35"/>
	<rect x="530.32" y="470.12" style="fill:#7772D6;" width="4.1" height="112.35"/>
	<rect x="647.42" y="470.12" style="fill:#7772D6;" width="4.1" height="112.35"/>
	<rect x="686.14" y="470.12" style="fill:#7772D6;" width="4.1" height="112.35"/>
	<path style="fill:#9ED16F;" d="M699.99,471.45H482.42c-1,0-1.81-0.81-1.81-1.81v-3.55c0-1,0.81-1.81,1.81-1.81h217.57
		c1,0,1.81,0.81,1.81,1.81v3.55C701.8,470.64,700.99,471.45,699.99,471.45z"/>
	<path style="opacity:0.5;fill:#96A65F;" d="M699.72,471.45H639.6c-1,0-1.81-0.81-1.81-1.81v-3.55c0-1,0.81-1.81,1.81-1.81h60.12
		c1,0,1.81,0.81,1.81,1.81v3.55C701.53,470.64,700.72,471.45,699.72,471.45z"/>
</g>
</svg>
