<?xml version="1.0" encoding="utf-8"?>
<!-- Generator: Adobe Illustrator 17.0.0, SVG Export Plug-In . SVG Version: 6.00 Build 0)  -->
<!DOCTYPE svg PUBLIC "-//W3C//DTD SVG 1.1//EN" "http://www.w3.org/Graphics/SVG/1.1/DTD/svg11.dtd">
<svg version="1.1" id="Calque_1" xmlns="http://www.w3.org/2000/svg" xmlns:xlink="http://www.w3.org/1999/xlink" x="0px" y="0px"
	 width="2355px" height="948px" viewBox="0 0 2355 948" style="enable-background:new 0 0 2355 948;" xml:space="preserve">
<path style="fill:#FFFFFF;" d="M537.08,426.36c-18.47-21.84-45.06-32.75-79.72-32.75c-21.84,0-40.2,4.19-55.08,12.56
	c-14.88,8.38-28.83,22.36-41.84,41.95c-21.28-36.34-51.71-54.52-91.27-54.52c-33.35,0-60.5,10.92-81.4,32.75
	c-20.9,21.87-31.37,50.03-31.37,84.51v278.08h114.75V538.01c0-20.53,5.65-30.81,16.94-30.81c6.02,0,10.1,2.06,12.15,6.21
	c2.09,4.15,3.1,12.34,3.1,24.6v250.93H418.1V536.03c0-19.22,5.65-28.83,16.94-28.83c6.02,0,10.06,2.02,12.04,6.06
	c1.94,4.08,2.95,12.3,2.95,24.75v250.93h114.72V520.78C564.75,479.68,555.51,448.24,537.08,426.36"/>
<path style="fill:#FFFFFF;" d="M359.28,238.08c-40.2,0-72.79,32.59-72.79,72.79c0,40.2,32.59,72.79,72.79,72.79
	c40.2,0,72.79-32.59,72.79-72.79C432.08,270.67,399.49,238.08,359.28,238.08"/>
<path style="fill:#FFFFFF;" d="M169.15,419.56v-38.29c0-2.88-1.57-5.57-4.04-7.03v-28.31l113.15-1.49
	c-5.98-11.78-9.39-25.13-9.39-39.22c0-47.93,38.85-86.79,86.75-86.79c29.99,0,56.42,15.22,72.01,38.33l59.75-83.08l-215.75-10.36
	L165.11,332.44l-8.41,13.39l-0.15,0.22h0.15v28.19c-2.43,1.46-4.04,4.15-4.04,7.03v38.29c0,4.52,3.7,8.26,8.23,8.26
	C165.45,427.82,169.15,424.08,169.15,419.56"/>
<path style="fill:#FFFFFF;" d="M907.44,339.36c5.53,0,10.32-2.07,14.39-6.22c4.06-4.15,6.09-8.85,6.09-14.12
	c0-5.71-1.99-10.53-5.96-14.45c-3.97-3.93-8.81-5.89-14.52-5.89c-5.53,0-10.28,1.99-14.25,5.96c-3.97,3.97-5.95,8.77-5.95,14.38
	c0,5.71,1.96,10.53,5.89,14.46C897.04,337.4,901.82,339.36,907.44,339.36"/>
<path style="fill:#FFFFFF;" d="M907.44,389.81c5.44,0,10.21-1.98,14.32-5.95c4.1-3.97,6.16-8.77,6.16-14.39
	c0-5.71-1.99-10.53-5.96-14.45c-3.97-3.93-8.81-5.89-14.52-5.89c-5.53,0-10.28,1.99-14.25,5.95c-3.97,3.97-5.95,8.77-5.95,14.39
	c0,6.07,1.98,10.97,5.95,14.72C897.15,387.94,901.9,389.81,907.44,389.81"/>
<path style="fill:#FFFFFF;" d="M769.46,508.78c5.62,1.34,10.48,2.01,14.59,2.01h166.48l5.35-0.94c4.46-1.43,8.43-3.88,11.91-7.36
	c4.37-4.64,7.09-9.59,8.16-14.86l0.4-3.21v26.1h22.48v-38.68h-22.75v-53.4c-0.54-4.37-1.34-7.63-2.41-9.77
	c-3.21-6.51-8.83-9.77-16.86-9.77c-9.72,0-15.92,4.42-18.6,13.25c-0.63,1.6-0.94,3.61-0.94,6.02v45.9l-0.27,2.54
	c-0.36,1.79-1.03,3.08-2.01,3.88c-0.98,0.98-2.36,1.61-4.15,1.87c-0.27,0.18-1.07,0.27-2.41,0.27H785.92
	c-5.18-0.8-8.74-1.52-10.71-2.14c-7.14-2.76-10.71-7.63-10.71-14.59c0-7.85,3.61-13.25,10.84-16.19c1.07-0.54,2.5-0.98,4.28-1.34
	c1.78-0.36,3.97-0.67,6.56-0.94h82.3c4.37-0.54,7.63-1.34,9.77-2.41c6.51-3.21,9.77-8.83,9.77-16.86c0-7.94-3.26-13.56-9.77-16.86
	c-2.14-1.07-5.35-1.87-9.64-2.41h-84.98c-3.48,0-8.34,0.72-14.59,2.14c-11.24,2.77-20.21,7.58-26.9,14.45
	c-9.64,9.9-14.45,23.06-14.45,39.48c0,16.59,4.86,29.76,14.59,39.48C749.16,501.33,758.22,506.11,769.46,508.78"/>
<path style="fill:#FFFFFF;" d="M1207.01,304.9c-3.97,3.97-5.95,8.77-5.95,14.39c0,5.44,1.96,10.22,5.89,14.32
	c4.19,4.01,8.96,6.02,14.32,6.02c5.53,0,10.32-2.08,14.39-6.22c4.06-4.15,6.09-8.85,6.09-14.12c0-5.53-2.01-10.31-6.02-14.32
	c-4.02-4.01-8.83-6.02-14.45-6.02C1215.73,298.94,1210.98,300.93,1207.01,304.9"/>
<path style="fill:#FFFFFF;" d="M1221.26,510.52l6.69-0.94c5.08-1.34,9.26-3.64,12.51-6.89c3.26-3.26,5.55-7.43,6.89-12.51
	c0.27-0.72,0.49-1.65,0.67-2.81c0.18-1.16,0.27-2.45,0.27-3.88v-65.71c-0.63-4.37-1.43-7.63-2.41-9.77
	c-3.21-6.51-8.83-9.77-16.86-9.77c-7.94,0-13.56,3.26-16.86,9.77c-1.07,2.41-1.87,5.67-2.41,9.77v45.37l-0.27,2.54
	c-0.36,1.69-1.03,3.06-2.01,4.08c-0.98,1.03-1.9,1.63-2.74,1.81c-0.85,0.18-2.12,0.27-3.81,0.27h-27.43l-174.37-0.13v38.68
	l174.37,0.13H1221.26z"/>
<path d="M1416.35,439.09c-3.4-5.73-9.47-8.64-18.04-8.64c-8.56,0-14.67,2.95-18.18,8.79c-1.09,1.88-1.89,4.63-2.48,8.66v62.9
	l3.69,16.41c4.16,12.31,10.28,22.42,18.18,30.05l0.01,0.01c11.39,10.75,26.02,16.21,43.47,16.21c17.28,0,31.68-5.5,42.83-16.37
	c7.81-7.81,13.83-17.96,17.94-30.31l3.34-14.74l110.32-0.01l4.66-0.59l7.31-2.17c4.89-1.75,8.89-4.01,11.94-6.78
	c1.9-1.9,3.29-3.62,4.26-5.27l2.91-5.17c1.09-2.9,1.81-5.23,2.14-6.94c0.33-1.72,0.49-4.09,0.49-7.25v-66.78l-0.03-0.31
	c-0.84-4.02-1.81-7-3.03-9.22c-4.03-6.14-10.36-9.25-18.8-9.25c-8.41,0-14.48,3.28-18.03,9.71c-0.61,1.02-1.12,2.36-1.51,3.97
	c-0.37,1.51-0.69,3.34-0.98,5.64v58.97h-30.55l-0.01-59.17c-0.56-4.34-1.42-7.46-2.58-9.5c-3.48-6.39-9.6-9.63-18.2-9.63
	c-8.5,0-14.62,3.28-18.19,9.76c-1.17,2.14-2.01,5.2-2.59,9.56v58.97h-30.29l-0.01-59.17c-0.57-4.34-1.42-7.46-2.58-9.5
	c-3.48-6.39-9.6-9.63-18.19-9.63c-8.5,0-14.62,3.28-18.19,9.76c-1.17,2.15-2.02,5.21-2.59,9.56l0.02,96.77
	c-0.95,5.72-1.94,9.62-2.91,11.56c-4.21,7.58-10.96,11.27-20.62,11.27c-9.37,0-15.8-3.71-19.65-11.34c-0.5-1-0.84-1.73-1-2.18
	c-0.17-0.47-0.47-1.56-0.89-3.26c-0.43-1.7-0.78-3.79-1.03-6.05l0.25-60.74C1418.28,443.67,1417.43,440.86,1416.35,439.09"/>
<path d="M1686.33,565.43c1.2,0.6,2.76,1.07,4.78,1.46c1.93,0.36,4.03,0.69,6.44,0.96l12.43-0.02l7.39-1.24
	c5.97-1.68,10.76-4.53,14.25-8.49c3.47-3.94,5.84-9.32,7.06-16.06l0.53-4c0.19-1.34,0.28-2.38,0.28-3.16l-0.02-118.53
	c-0.83-5.43-1.69-9.18-2.67-11.53c-3.74-7.86-10.14-11.84-19.04-11.84c-9.08,0-15.54,4.03-19.21,12.06
	c-1.11,2.79-1.96,6.62-2.52,11.54l0.01,103.85l-0.25,2.84l-0.83,1.97c-0.79,0.62-1.54,1.03-2.23,1.22l-0.38,0.1l-0.08,0.08
	c-0.13,0.01-0.36,0.03-0.75,0.03l-0.34,0.04c-3.63,0.84-6.23,1.66-8.09,2.6c-5.45,3.4-8.21,9.42-8.21,17.88
	C1674.89,555.91,1678.74,562.05,1686.33,565.43"/>
<path d="M1893.92,512.04v-0.13l234.74,0.13l8.69-0.55l5.77-0.69l13.33-2.97c4.93-1.37,9.47-3.31,13.49-5.78
	c8.23-4.93,14.4-11.16,18.36-18.52l5.89-11.11l1.08-3.76l1.74-8.72c0.55-3.02,0.83-5.85,0.83-8.44c0-6.13-1.39-12.93-4.11-20.2
	c-4.29-11.5-10.43-19.94-18.29-25.11l-11.24-6.96l-5.9-2.14c-3.32-1.23-5.99-1.83-8.06-1.83h-0.01l-7.18-0.4
	c-5.83,0-12.77,1.19-20.64,3.54c-7.96,2.38-15.63,7-22.8,13.72c-6.68,6.13-11.19,12.82-13.4,19.87c-2.18,6.93-3.29,13.42-3.29,19.31
	l0.28,8.47l0.96,6.54l0.92,4.04l-194.07-0.13v0.13h-11.55l0-17.42l-0.67-13.87l-0.71-6.51l-2.47-9.43
	c-3.1-7.57-7.37-13.96-12.7-19.02c-8.2-7.37-18.62-12.36-30.94-14.81c-2.42-0.54-4.14-0.81-5.25-0.83
	c-0.65-0.13-1.99-0.27-5.52-0.27c-8.41,0-16.88,2.17-25.23,6.48c-5.97,3.35-11.33,7.25-16.04,11.68l-6.87,7.54
	c-1.84,2.21-3.46,4.65-4.8,7.23c-1.32,2.56-2.5,5.43-3.52,8.58l-1.05,4.35c-0.16,0.48-0.34,1.36-0.34,3.96
	c0,3.44,0.68,6.55,2.05,9.29c2.03,3.77,5.11,6.58,9.15,8.37c3.92,1.73,7.37,2.6,10.25,2.6c1.59,0,3.41-0.34,5.63-1.1
	c4.01-2,7.06-4.82,9.11-8.45l4.78-9.69c2.04-3.56,4.35-6.39,6.89-8.42c3.14-2.64,6.49-3.93,10.26-3.93c7.39,0,12.25,2.45,14.83,7.46
	c0.47,0.94,0.83,2.07,1.11,3.5c0.64,2.15,0.74,3,0.74,3.31l0.04,0.36c0.08,0.35,0.25,0.92,0.49,1.74l0.13,27.7l-54.65,0.02
	c-4.78,0.74-8.08,1.46-10.22,2.28c-6.95,3.47-10.48,9.47-10.48,17.82c0,8.7,3.57,14.92,10.54,18.45c2.24,1.27,5.58,2.17,10.39,2.74
	H1893.92z M2127.6,440.14c3.35-3.31,7.22-4.91,11.85-4.91c4.88,0,8.84,1.62,12.09,4.96c3.26,3.35,4.85,7.22,4.85,11.85
	c0,4.87-1.66,8.8-5.07,12.01c-3.45,3.24-7.33,4.81-11.88,4.81c-4.63,0-8.5-1.61-11.85-4.91c-3.35-3.3-4.97-7.19-4.97-11.9
	C2122.63,447.33,2124.26,443.44,2127.6,440.14"/>
<path style="fill:#FFFFFF;" d="M1330.72,465.16c-5.19-5.12-11.36-7.65-18.51-7.57c-7.14,0.07-13.21,2.67-18.18,7.79
	c-4.98,5.12-7.43,11.32-7.35,18.61c0.08,7.51,2.56,13.66,7.46,18.46c4.9,4.8,11.1,7.16,18.61,7.08c7.22-0.07,13.35-2.64,18.4-7.68
	c5.05-5.04,7.54-11.14,7.47-18.29C1338.55,476.42,1335.91,470.29,1330.72,465.16"/>
<path d="M730.22,679.86c0-10.61,4.15-19.89,12.44-27.82c8.29-7.92,17.74-11.89,28.36-11.89c7.85,0,14.8,1.74,20.83,5.24
	c6.03,3.49,11.02,8.58,14.95,15.27c3.2-5.82,7.82-10.58,13.85-14.29c6.03-3.71,12.4-5.78,19.09-6.22h0.98h1.2
	c13.67,0,24.11,4.55,31.31,13.64c7.2,9.09,10.8,20.04,10.8,32.83v102.32h-42.76v-95.99v-0.87c-0.15-1.74-0.66-3.38-1.53-4.91
	c-0.87-1.53-2.33-2.29-4.36-2.29c-2.18,0-3.78,0.76-4.8,2.29c-1.02,1.53-1.67,3.24-1.96,5.13v0.76v0.76v95.12h-42.98v-95.99v-0.87
	c-0.15-1.74-0.65-3.38-1.53-4.91c-0.87-1.53-2.33-2.29-4.36-2.29c-2.33,0-4,0.87-5.02,2.62c-1.02,1.74-1.53,3.64-1.53,5.67v95.77
	h-42.98V679.86z"/>
<path d="M1015.36,739.34c0,14.71-4.8,27.28-14.4,37.69c-9.6,10.41-21.89,15.62-36.87,15.62c-15.13,0-27.89-5.06-38.29-15.18
	c-10.4-10.13-15.6-22.76-15.6-37.91v-96.13h43.42v94.45c0,2.91,0.87,5.39,2.62,7.43c1.75,2.04,4.07,3.06,6.98,3.06
	c2.91,0,5.16-1.02,6.76-3.06c1.6-2.04,2.4-4.44,2.4-7.21v-94.66h42.98V739.34z"/>
<path d="M1086.7,788.95h-43.63V643.43h65.01c4.22,0.15,8.43,0.44,12.65,0.87c4.22,0.44,8.36,1.38,12.44,2.83
	c13.81,4.95,25.49,13.62,35.01,26c9.53,12.38,14.29,26.07,14.29,41.08c0,21.85-7.17,39.88-21.49,54.08
	c-14.33,14.2-32.33,21.37-54,21.52h-3.38c-1.09,0-2.22-0.07-3.38-0.22c-1.17,0-2.29-0.04-3.38-0.11c-1.09-0.07-2.22-0.11-3.38-0.11
	v-42.76h11.13c9.01,0.15,16.94-2.36,23.78-7.53c6.84-5.16,10.25-12.62,10.25-22.36c0-8.43-3.02-15.49-9.06-21.16
	c-6.03-5.67-13.13-8.51-21.27-8.51l-21.6-0.22V788.95z"/>
<path d="M1258.4,754.26h-11.78v34.69h-43.85v-93.81c0-16.43,4.87-29.71,14.62-39.82c9.74-10.11,22.98-15.16,39.71-15.16
	c15.56,0,28.04,5.45,37.42,16.36c9.38,10.91,14.07,23.85,14.07,38.83v93.59h-43.85v-93.81v-1.09c-0.15-2.47-0.91-4.8-2.29-6.98
	c-1.38-2.18-3.46-3.34-6.22-3.49c-3.2,0-5.6,1.2-7.2,3.6c-1.6,2.4-2.4,5.13-2.4,8.18v20.73h11.78V754.26z"/>
<path d="M1379.26,788.95h-43.2V643.43h59.78c12.65,0.15,24.22,4.66,34.69,13.53c10.47,8.87,15.71,20,15.71,33.38
	c0,7.71-1.64,14.91-4.91,21.6c-3.27,6.69-8.04,12.44-14.29,17.24l25.09,59.78h-45.6l-20.94-46.91v-37.31
	c0.29,0.15,0.62,0.22,0.98,0.22h1.2c3.78-0.14,7.27-0.95,10.47-2.4c3.2-1.45,4.8-4.58,4.8-9.38c0-3.49-1.24-6.03-3.71-7.64
	c-2.47-1.6-5.24-2.47-8.29-2.62h-0.54h-0.55l-10.69-0.22V788.95z"/>
<path d="M1509.72,788.95h-43.2V643.43h59.78c12.65,0.15,24.22,4.66,34.69,13.53c10.47,8.87,15.71,20,15.71,33.38
	c0,7.71-1.64,14.91-4.91,21.6c-3.27,6.69-8.04,12.44-14.29,17.24l25.09,59.78h-45.6l-20.94-46.91v-37.31
	c0.29,0.15,0.62,0.22,0.98,0.22h1.2c3.78-0.14,7.27-0.95,10.47-2.4c3.2-1.45,4.8-4.58,4.8-9.38c0-3.49-1.24-6.03-3.71-7.64
	c-2.47-1.6-5.24-2.47-8.29-2.62h-0.55h-0.55l-10.69-0.22V788.95z"/>
<rect x="1597.21" y="643.43" width="43.85" height="145.52"/>
<path d="M1741.41,642.99v41.23c-1.17-0.29-2.37-0.62-3.6-0.98c-1.24-0.36-2.44-0.55-3.6-0.55c-3.35,0-6.18,1.27-8.51,3.83
	c-2.33,2.55-3.49,5.43-3.49,8.64c0,2.48,0.83,5.35,2.51,8.63c1.67,3.28,3.53,6.89,5.56,10.82c2.03,4.08,3.89,8.42,5.56,13
	c1.67,4.59,2.51,9.44,2.51,14.54c0,14.57-5.31,26.63-15.92,36.18c-10.62,9.54-23.05,14.32-37.31,14.32c-3.35,0-6.65-0.44-9.93-1.31
	c-3.27-0.87-6.44-1.96-9.49-3.27v-42.32c1.75,1.17,3.52,2.07,5.35,2.73c1.82,0.65,3.67,0.98,5.56,0.98h0.87h0.87
	c2.91-0.44,5.56-1.68,7.96-3.72c2.4-2.04,3.6-4.6,3.6-7.66c0-2.34-0.8-5.07-2.4-8.21c-1.6-3.14-3.42-6.68-5.45-10.62
	c-1.89-3.94-3.68-8.35-5.35-13.25c-1.67-4.89-2.51-10.18-2.51-15.88c0-13.47,4.83-25.16,14.51-35.08
	c9.67-9.92,21.34-14.88,35.02-14.88c3.05,0,6.07,0.26,9.05,0.76c2.98,0.51,5.85,1.27,8.62,2.29V642.99z"/>
<path style="fill:#FFFFFF;" d="M1767.59,766.69c0-6.55,2.4-12.4,7.2-17.56c4.8-5.16,10.54-7.75,17.23-7.75
	c7.13,0,13.27,2.48,18.43,7.42c5.16,4.95,7.74,10.98,7.74,18.11c0,6.98-2.55,12.87-7.64,17.67c-5.09,4.8-11.05,7.2-17.89,7.2
	c-6.84,0-12.73-2.44-17.67-7.31c-4.95-4.87-7.42-10.72-7.42-17.56V766.69z"/>
<path style="fill:#FFFFFF;" d="M1847.22,693.17c0-14.11,4.94-26.47,14.84-37.09c9.89-10.61,22.1-15.93,36.65-15.93
	c15.13,0,27.85,5.06,38.18,15.16c10.33,10.11,15.49,22.8,15.49,38.07v95.56h-43.41V694.7c0-2.76-0.84-5.13-2.51-7.09
	c-1.67-1.96-3.96-2.95-6.87-2.95c-2.91,0-5.2,1.02-6.87,3.05c-1.67,2.04-2.51,4.44-2.51,7.2v94.03h-42.98V693.17z"/>
<path style="fill:#FFFFFF;" d="M2060.8,732.66h-28.36c-0.15,0.14-0.26,0.22-0.33,0.22h-0.33c-2.47,0-4.76,0.4-6.87,1.2
	c-2.11,0.8-3.16,2.8-3.16,6c0,3.05,0.98,5.02,2.95,5.89c1.96,0.87,4.11,1.38,6.44,1.53h1.64h1.64h29.02v41.45h-35.56
	c-6.4,0-12.4-0.66-18-1.96c-5.6-1.31-10.95-4.22-16.04-8.73c-4.36-3.93-7.74-8.58-10.15-13.96c-2.4-5.38-3.6-10.98-3.6-16.8v-64.36
	c0-10.82,4.25-20.14,12.76-27.97c8.51-7.82,18.07-11.74,28.69-11.74l41.89-0.22v42.11h-29.02c-0.15,0.15-0.26,0.22-0.33,0.22h-0.33
	c-2.33,0-4.44,0.51-6.33,1.53c-1.89,1.02-2.84,2.91-2.84,5.67c0,2.54,0.87,4.31,2.62,5.29c1.74,0.99,3.63,1.63,5.67,1.9h1.2h1.2
	h25.53V732.66z"/>
<polygon style="fill:#FFFFFF;" points="2158.97,788.95 2115.56,788.95 2115.56,684.88 2082.4,684.88 2082.4,643.43 2197.84,643.43 
	2197.84,684.88 2158.97,684.88 "/>
<path style="fill:#FFFFFF;" d="M805.74,579.1c-15.96,0-28.89,12.94-28.89,28.89s12.94,28.89,28.89,28.89
	c15.96,0,28.89-12.93,28.89-28.89S821.69,579.1,805.74,579.1"/>
<path style="fill:#FFFFFF;" d="M730.27,651.13v-15.2c0-1.14-0.62-2.21-1.6-2.79v-11.23l44.91-0.59c-2.38-4.67-3.73-9.97-3.73-15.57
	c0-19.03,15.42-34.45,34.43-34.45c11.9,0,22.39,6.04,28.58,15.21l23.72-32.98l-85.63-4.11l-42.28,67.13l-3.34,5.31l-0.06,0.09h0.06
	v11.19c-0.96,0.58-1.6,1.65-1.6,2.79v15.2c0,1.8,1.47,3.28,3.27,3.28C728.8,654.41,730.27,652.93,730.27,651.13"/>
<rect y="1" style="fill:none;" width="2355.18" height="947.66"/>
</svg>
