<?xml version="1.0" encoding="utf-8"?>
<!-- Generator: Adobe Illustrator 17.0.0, SVG Export Plug-In . SVG Version: 6.00 Build 0)  -->
<!DOCTYPE svg PUBLIC "-//W3C//DTD SVG 1.1//EN" "http://www.w3.org/Graphics/SVG/1.1/DTD/svg11.dtd">
<svg version="1.1" id="Calque_1" xmlns="http://www.w3.org/2000/svg" xmlns:xlink="http://www.w3.org/1999/xlink" x="0px" y="0px"
	 width="750px" height="750px" viewBox="0 0 750 750" style="enable-background:new 0 0 750 750;" xml:space="preserve">
<g>
	<g>
		<rect x="-6533.02" y="-4612.48" style="fill:#FFFFFF;" width="3710" height="3710"/>
	</g>
</g>
<linearGradient id="SVGID_1_" gradientUnits="userSpaceOnUse" x1="1276.2413" y1="-1984.4231" x2="-1215.233" y2="-5078.6782">
	<stop  offset="0" style="stop-color:#DAE3FE"/>
	<stop  offset="1" style="stop-color:#E9EFFD"/>
</linearGradient>
<path style="fill:url(#SVGID_1_);" d="M590.82-3204.69c-57.23,60.25-111.38,99.1-154.16,129.8
	c-502.89,360.83-1097.95,255.65-1224.41,229.96c-186.75-37.93-547.74-111.25-808.72-418.16
	c-394.85-464.34-333.37-1195.88-27.09-1678.79c56.02-88.33,351.95-578.59,953.41-657.21c364-47.58,788.31,48.38,1095.58,305.82
	C1070.41-4752.9,1024.5-3661.24,590.82-3204.69z"/>
<g>
	<path style="fill:#91B3FA;" d="M228.48,499.06c0,0,2.35-98.75-43.13-125.18c-45.48-26.43-131.96-42.95-135.2-184.75
		C48.24,106.12,46.19,69.83,44.81,54c-0.54-6.17,4.95-11.16,11.04-10.01c43.08,8.11,183.01,41.52,212.35,137.03
		C302.98,294.25,228.48,499.06,228.48,499.06z"/>
	<path style="opacity:0.5;fill:#FFFFFF;" d="M89.17,83.45c47.28,42.17,101.96,116.8,131.1,191.44c3.74,12.3,14.68,38.46,19.43,84.93
		c4.24,38.76,2.13,79.72-3.01,106.83c-0.33,1.71-1.98,2.84-3.69,2.51c-2.95-0.56-2.56-3.73-2.53-3.63
		c5.88-46.32,3.44-103.98-10.03-156c-17.21-63.88-55.58-125.81-95.27-178.34l-4.08-5.17C90.33,86.53,83.86,86.24,86.73,83.49
		C87.41,82.84,88.47,82.83,89.17,83.45z"/>
</g>
<g>
	<path style="fill:#BDD0FB;" d="M301.57,688.91c6.15,3.02-58.26-77.98-78.43-205.19c-9.51-59.94-9.63-135.05-43.78-163.99
		c-28.42-24.09-125.13-8.88-156.77-3.1c-3.95,0.72-5.29,5.72-2.21,8.3c15.17,12.74,47.64,42.8,56.09,73.1
		c11.15,39.93,49.11,65.33,83.1,72.2c33.99,6.87,52.89,13.54,69.45,67.9C245.58,592.48,284.08,680.34,301.57,688.91z"/>
	<path style="fill:#91B3FA;" d="M67.09,333.51c40.37,1.69,83.71,20.11,105.7,54.65l2.08,3.3c4.79,7.73,31.96,62.68,47.05,108.22
		c0.19,0.57-0.12,1.18-0.69,1.37c-0.96,0.32-1.45-0.74-1.36-0.65c-10.51-25.73-25.61-58.35-37.64-82.75
		c-12.9-26.62-21.92-44.65-51.34-61.92c-32.74-18.6-64.02-20.51-63.93-20.49c-0.48-0.05-0.83-0.48-0.78-0.95
		C66.24,333.83,66.64,333.49,67.09,333.51z"/>
</g>
<path style="fill:#91B3FA;" d="M273.96,699.57c3.65,1.93-20.57-39.76-22.43-76.49c-1.86-36.73-10.14-99.42-41.82-136.92
	c-31.67-37.5-66.36-40.92-110.06-6.83c-36.42,28.41-59.14,42.75-72.46,45.41c-3.3,0.66-4.98,4.38-3.38,7.34
	c8.55,15.74,32.71,51.89,73.27,49.34c51.74-3.25,114.46-36.88,133.57-8.82c19.11,28.06,16.66,43.76,17.25,57.06
	C248.48,642.96,249.79,686.83,273.96,699.57z"/>
<path style="opacity:0.5;fill:#FFFFFF;" d="M114.33,524.36c15.85-15.2,41.67-30.13,64.23-27.35c29.36,4.73,48.91,24.33,59.58,53.51
	c4.17,12.39,5.89,19.01,8.35,34.19c0.2,1.21-1.59,1.58-1.89,0.39c-1.79-7.13-3.57-14.6-6.23-22.33
	c-15.47-49.85-48.5-56.56-49.79-57.58c-2.5,0.25-17.64-11.09-53.56,8.24c-6.71,3.65-13.24,7.82-19.37,12.42l-0.03,0.03
	c-0.44,0.33-1.07,0.24-1.41-0.2C113.91,525.27,113.97,524.7,114.33,524.36z"/>
<g>
	<path style="fill:#94EBFF;" d="M441.67,137.7l-194.4,19.64c-2.11,0.21-3.98,1.47-4.98,3.34l-52.5,98.39
		c-1.72,3.22-2.36,6.9-1.84,10.51l66.75,461.9c0.5,3.46,3.76,5.82,7.2,5.21l321.38-56.87c4.02-0.71,6.75-4.49,6.16-8.53
		l-64.84-448.68c-0.68-4.69-2.8-9.05-6.06-12.47l-64.7-67.94C450.7,138.9,446.21,137.24,441.67,137.7z"/>
</g>
<g style="opacity:0.54;">
	<path style="fill:#FFFFFF;" d="M276.12,715.06c-1.42,0-2.81-0.45-4-1.31c-1.56-1.13-2.62-2.89-2.9-4.82l-62.18-430.25
		c-0.53-3.67,0.07-7.33,1.75-10.6l46.87-91.36c1.11-2.16,3.18-3.58,5.55-3.82l175.08-17.43c4.48-0.44,9.01,1.3,12.13,4.68
		l58.6,63.52c3.16,3.43,5.19,7.7,5.86,12.37l60.4,417.94c0.65,4.52-2.26,8.67-6.63,9.44l-289.34,51.53
		C276.92,715.03,276.52,715.06,276.12,715.06z M436.43,156.83l0.13,1.35l-175.08,17.43c-1.44,0.14-2.71,1.02-3.4,2.35l-46.87,91.36
		c-1.42,2.76-1.93,5.86-1.48,8.96l62.18,430.25c0.18,1.23,0.82,2.29,1.8,3c0.92,0.67,2.03,0.92,3.13,0.73l289.34-51.53
		c2.91-0.52,4.85-3.32,4.41-6.37l-60.4-417.94c-0.6-4.12-2.38-7.89-5.17-10.91L446.42,162c-2.58-2.79-6.18-4.19-9.86-3.82
		L436.43,156.83z"/>
</g>
<g>
	<path style="fill:#FFFFFF;" d="M394.16,594.94l-3.61-21.65c-22.72,2.85-45.93,1.25-62.94-3.05c-6.07-1.54-10.02-7.41-9.38-13.64
		l2.14-21.08c0.79-7.73,8.19-12.9,15.76-11.11c16.83,3.97,37.11,5.96,58.05,2.47c21.74-3.62,36.72-13.69,34.2-28.8
		c-2.27-13.63-16.15-19.65-47.71-22.72c-45.07-4.61-79.15-18.25-85.47-56.19c-5.71-34.26,14.99-64.59,57.3-78.83l-3.61-21.65
		c-1.16-6.97,3.55-13.55,10.51-14.71l12.72-2.12c6.97-1.16,13.55,3.55,14.71,10.51l3.24,19.44c21.02-2.64,36.82-1.6,49.59,0.63
		c6.54,1.14,11.03,7.24,10.37,13.85l-1.95,19.49c-0.75,7.52-7.78,12.74-15.19,11.26c-11.81-2.35-28.24-4.11-48.65-0.71
		c-25.79,4.3-31.38,16.21-29.78,25.78c1.96,11.79,18.79,17.32,54.03,22.05c50.29,6.39,73.49,22.97,79.45,58.71
		c5.46,32.79-13.94,66.31-59.87,81.54l4.03,24.23c1.16,6.97-3.55,13.55-10.51,14.71l-12.72,2.12
		C401.9,606.61,395.32,601.9,394.16,594.94z"/>
</g>
<linearGradient id="SVGID_2_" gradientUnits="userSpaceOnUse" x1="433.93" y1="-70.9257" x2="331.8257" y2="319.7921">
	<stop  offset="0" style="stop-color:#FDF53F"/>
	<stop  offset="1" style="stop-color:#D93C65"/>
</linearGradient>
<circle style="fill:url(#SVGID_2_);" cx="359.18" cy="215.1" r="32.38"/>
<circle style="fill:#FFFFFF;" cx="359.18" cy="215.1" r="26.41"/>
<linearGradient id="SVGID_3_" gradientUnits="userSpaceOnUse" x1="267.3558" y1="118.427" x2="393.6638" y2="118.427">
	<stop  offset="0" style="stop-color:#09005D"/>
	<stop  offset="1" style="stop-color:#1A0F91"/>
</linearGradient>
<path style="fill:url(#SVGID_3_);" d="M333.87,222.64c-1.25-4.12-1.42-8.47-0.52-13.03l1.73-1.33
	c57.15-43.92,54.99-100.4,33.91-138.61c-17.35-31.46-46.56-50.34-66.49-43c-24.66,9.08-30.19,56.76-15.87,126.7l-11.42,1.15
	l0.11,0.54C253.8,49.88,280.76,23.07,298.74,16.44c25.27-9.31,59.57,11.31,79.79,47.96c23.27,42.18,25.81,104.39-36.81,152.51
	L333.87,222.64z"/>
<g>
	
		<linearGradient id="SVGID_4_" gradientUnits="userSpaceOnUse" x1="458.4023" y1="258.1537" x2="673.7496" y2="360.3694" gradientTransform="matrix(0.9999 -0.015 0.015 0.9999 -56.2628 -5.3261)">
		<stop  offset="0" style="stop-color:#09005D"/>
		<stop  offset="1" style="stop-color:#1A0F91"/>
	</linearGradient>
	<path style="fill:url(#SVGID_4_);" d="M550.84,233.66c0,0-11.9-29.16,32.99-23.28c44.89,5.88,33.98,22.83,37.53,36.07
		c3.55,13.25,22.38,28.26,74.8,48.69c52.41,20.44,36.87,76.15,13.33,94.64s-36.38,6.2-41.86,38.12
		c-5.48,31.92-27.32,57.84-54.57,30.78c-27.25-27.06-58.23-59.05-49.57-101c8.66-41.95-1.15-34.02-18.06-53.26
		S564.37,266.54,550.84,233.66z"/>
	<linearGradient id="SVGID_5_" gradientUnits="userSpaceOnUse" x1="486.1604" y1="359.1247" x2="555.1406" y2="275.6224">
		<stop  offset="0" style="stop-color:#FEBBBA"/>
		<stop  offset="1" style="stop-color:#FF928E"/>
	</linearGradient>
	<path style="fill:url(#SVGID_5_);" d="M560.86,311.75c-7.13-7.23-14.06,10.15-15.91,14.5c-4.67,11-9.53,20.87-19.4,28.4
		c-6.1,4.66-14.35,7.65-22.07,5.41c-27.81-8.07-27.94-30.41-28.57-47.14c0.64-4.75-2.2-9.45-5.65-10.92c-4-1.7-5.54-5.85-5.54-5.85
		s-2.72,6.03,0.62,8.86c1.17,0.99,1.51,2.16,1.48,3.26c-0.39-0.07-0.79-0.12-1.21-0.18c-8.36-1.05,0.03,10.92,0.03,10.92
		s-8.09,43.8,28.98,61.21c18.35,8.62,32.42,6.57,41.99,2.31c4.83-1.69,9-4.72,12.56-8.58c1.44-1.43,2.17-2.4,2.17-2.4l0-0.14
		C565.13,352.61,567.69,318.68,560.86,311.75z"/>
	
		<linearGradient id="SVGID_6_" gradientUnits="userSpaceOnUse" x1="4833.8721" y1="771.4114" x2="4831.1753" y2="1103.1218" gradientTransform="matrix(-0.9922 -0.1247 -0.1247 0.9922 5429.0117 519.3178)">
		<stop  offset="0" style="stop-color:#4F52FF"/>
		<stop  offset="1" style="stop-color:#4042E2"/>
	</linearGradient>
	<path style="fill:url(#SVGID_6_);" d="M561.17,308.97c7.28-2.18,28.49-6.22,48.67,12.4c3.42,3.16,4.82,7.96,3.6,12.45
		c-5.42,19.95-19.72,78.89-7.18,104.39c0,0-22.09,24.35-46.19,4.72c0,0-10.81-47.13-24.98-67.82
		c-9.78-14.28,15.59-53.64,22.01-63.14C558.07,310.54,559.5,309.47,561.17,308.97z"/>
	
		<linearGradient id="SVGID_7_" gradientUnits="userSpaceOnUse" x1="-8068.7617" y1="1489.7823" x2="-8062.9312" y2="1448.3856" gradientTransform="matrix(0.9602 0.2794 -0.2794 0.9602 8728.0117 1152.2823)">
		<stop  offset="0" style="stop-color:#FEBBBA"/>
		<stop  offset="1" style="stop-color:#FF928E"/>
	</linearGradient>
	<path style="fill:url(#SVGID_7_);" d="M581.28,269.34c0,0,10.77,30.47,11.58,43.92c0,0-11.91,5.41-23.13-3.72
		c0,0-1.18-30.44-2.88-35.89L581.28,269.34z"/>
	
		<linearGradient id="SVGID_8_" gradientUnits="userSpaceOnUse" x1="-8095.4922" y1="1401.0812" x2="-8040.9756" y2="1463.7606" gradientTransform="matrix(0.9602 0.2794 -0.2794 0.9602 8728.0117 1152.2823)">
		<stop  offset="0" style="stop-color:#FEBBBA"/>
		<stop  offset="1" style="stop-color:#FF928E"/>
	</linearGradient>
	<path style="fill:url(#SVGID_8_);" d="M566.32,227.79c0,0-28.18,39.43-11.33,50.89c16.84,11.45,36.9-16.57,36.9-16.57
		s6.54-21.58-0.3-28.91C584.75,225.88,566.32,227.79,566.32,227.79z"/>
	<linearGradient id="SVGID_9_" gradientUnits="userSpaceOnUse" x1="448.882" y1="172.4025" x2="664.2313" y2="274.6192">
		<stop  offset="0" style="stop-color:#09005D"/>
		<stop  offset="1" style="stop-color:#1A0F91"/>
	</linearGradient>
	<path style="fill:url(#SVGID_9_);" d="M601.29,227.4c-5.33-12.84-21.93-9.04-21.93-9.04s-12.95,3.07-14.76,8.92
		c-0.82,2.63,2.82,5.18,7.58,7.21c10.6,4.52,18.3,14.05,20.48,25.37l0.5,2.61C593.16,262.48,606.62,240.25,601.29,227.4z"/>
	
		<linearGradient id="SVGID_10_" gradientUnits="userSpaceOnUse" x1="-8081.8716" y1="1389.2334" x2="-8027.3555" y2="1451.9121" gradientTransform="matrix(0.9602 0.2794 -0.2794 0.9602 8728.0117 1152.2823)">
		<stop  offset="0" style="stop-color:#FEBBBA"/>
		<stop  offset="1" style="stop-color:#FF928E"/>
	</linearGradient>
	<path style="fill:url(#SVGID_10_);" d="M586.42,259.21c0,0,10.97-12.7,15.33-4.42c4.36,8.28-9.87,14.5-14.8,10.43L586.42,259.21z"
		/>
	
		<linearGradient id="SVGID_11_" gradientUnits="userSpaceOnUse" x1="4663.7549" y1="804.4946" x2="4793.8188" y2="574.9036" gradientTransform="matrix(-1 -9.500000e-003 -9.500000e-003 1 5331.8579 42.8846)">
		<stop  offset="0" style="stop-color:#FEBBBA"/>
		<stop  offset="1" style="stop-color:#FF928E"/>
	</linearGradient>
	<path style="fill:url(#SVGID_11_);" d="M531.93,541.89c0.08,2.14-3.67,19.11-5.72,28.16c-0.82,3.64-0.25,7.45,1.6,10.69
		l70.8,119.16c0.86,1.44,1.48,3,1.86,4.64c1.3,5.59,3.99,19.3,2.58,31.76l-3.66,7.61l15.84-3.6l3.45-42.54l-4.48-2.73
		c-3.87-2.36-6.89-5.89-8.62-10.09c-6.4-15.55-22.3-55.14-26.4-74.43c-4.66-21.92-29-39.73-29-39.73l4.28-10.11L531.93,541.89z"/>
	
		<linearGradient id="SVGID_12_" gradientUnits="userSpaceOnUse" x1="4692.1079" y1="723.3212" x2="4730.126" y2="723.3212" gradientTransform="matrix(-1 -9.500000e-003 -9.500000e-003 1 5331.8579 42.8846)">
		<stop  offset="0" style="stop-color:#09005D"/>
		<stop  offset="1" style="stop-color:#1A0F91"/>
	</linearGradient>
	<path style="fill:url(#SVGID_12_);" d="M632.84,725.68c0,0-8.55-13.56-9.56-18.84c-1.01-5.28-3.81-14.6-9.08-11.79
		c0,0-2.49,25.64-1.63,35.66c0.86,10.02-11.33,9.7-11.33,9.7s-3.36,0.47-5.82,2.93c-1.7,1.7-0.48,4.64,1.91,4.8
		c3.99,0.26,10.32,0.32,16.97-0.96c2.32-0.45,4.05-2.43,4.19-4.79l1.76-29.51l10.79,13.62L632.84,725.68z"/>
	
		<linearGradient id="SVGID_13_" gradientUnits="userSpaceOnUse" x1="4775.0464" y1="646.1937" x2="4580.5308" y2="708.3936" gradientTransform="matrix(-1 -9.500000e-003 -9.500000e-003 1 5331.8579 42.8846)">
		<stop  offset="0" style="stop-color:#FEBBBA"/>
		<stop  offset="1" style="stop-color:#FF928E"/>
	</linearGradient>
	<path style="fill:url(#SVGID_13_);" d="M574.22,560.87c0,0,2.5,106.59,2.84,121.73c0.34,15.14-2.39,48.69-17.57,58.71l6.6,4.89
		c0,0,8.25-7.01,16.31-20.51c9.06-15.16,11.8-17.94,11.8-17.94l-3.01-6.15c-1.32-2.69-1.7-5.74-1.1-8.68
		c3.27-15.87,14.21-68.67,17.2-80.03c3.52-13.42,3.77-31.34-8.48-46.34C586.57,551.53,574.22,560.87,574.22,560.87z"/>
	
		<linearGradient id="SVGID_14_" gradientUnits="userSpaceOnUse" x1="4727.3555" y1="730.1876" x2="4772.6768" y2="730.1876" gradientTransform="matrix(-1 -9.500000e-003 -9.500000e-003 1 5331.8579 42.8846)">
		<stop  offset="0" style="stop-color:#09005D"/>
		<stop  offset="1" style="stop-color:#1A0F91"/>
	</linearGradient>
	<path style="fill:url(#SVGID_14_);" d="M588.24,751c0.47,0,0.87-0.33,0.94-0.8c0.51-3.55,2.61-17.8,4.33-21.49
		c1.97-4.22,8.41-22.01,0-23.52c0,0-20.91,30.55-24.93,34.67c-4.01,4.12-9.08,1.44-9.08,1.44s-3.91,1.16-6.86,4.92
		c-1.4,1.79-0.1,4.43,2.18,4.45l14.09,0.13c4.09,0.04,7.77-2.45,9.29-6.24c2.48-6.19,6.74-15.28,11.7-19.31l-2.58,24.7
		C587.26,750.51,587.68,750.99,588.24,751L588.24,751z"/>
	
		<linearGradient id="SVGID_15_" gradientUnits="userSpaceOnUse" x1="4747.481" y1="525.8701" x2="4683.9526" y2="815.9434" gradientTransform="matrix(-1 -9.500000e-003 -9.500000e-003 1 5331.8579 42.8846)">
		<stop  offset="0" style="stop-color:#09005D"/>
		<stop  offset="1" style="stop-color:#1A0F91"/>
	</linearGradient>
	<path style="fill:url(#SVGID_15_);" d="M556.73,431.45c0,0,3.17,10.12-1.7,26.78l-30.25,105.63c-0.48,1.66,0.42,3.4,2.05,3.98
		c9.05,3.25,38.79,12.43,79.39,9.63c2.04-0.14,3.76-1.59,4.2-3.59c2.68-12.04,11.8-53.13,13.68-61.57
		c7.16-32.17,15.16-66.86-20.02-87.84C587.87,431.41,572.75,435.5,556.73,431.45z"/>
	<g>
		<linearGradient id="SVGID_16_" gradientUnits="userSpaceOnUse" x1="476.9493" y1="306.3065" x2="479.987" y2="378.4512">
			<stop  offset="0" style="stop-color:#09005D"/>
			<stop  offset="1" style="stop-color:#1A0F91"/>
		</linearGradient>
		<path style="fill:url(#SVGID_16_);" d="M495.12,336.83c0.98-2.16,0.73-4.98,0.51-7.21c-0.51-5.18-0.47-10.34-0.55-15.54
			c-0.22-13.47-0.1-26.98-1.17-40.42c-0.23-2.9,0.08-5.81-0.15-8.7c-0.57-7.33-4.87-9.49-12.03-11.02
			c-6.05-1.29-12.65-3.07-18.9-1.75c-2.46,0.52-4.83,1.87-5.14,4.44c-1.24,10.38-0.93,78.37,11.59,80.24
			c4.23,0.63,8.43,1.37,12.63,2.13c2.99,0.54,6.99,1.67,10,0.66C493.57,339.12,494.55,338.09,495.12,336.83z"/>
		<linearGradient id="SVGID_17_" gradientUnits="userSpaceOnUse" x1="509.7198" y1="249.3028" x2="446.7762" y2="326.6831">
			<stop  offset="0" style="stop-color:#09005D"/>
			<stop  offset="1" style="stop-color:#1A0F91"/>
		</linearGradient>
		<path style="fill:url(#SVGID_17_);" d="M490.15,336.83c0.98-2.16,0.73-4.98,0.51-7.21c-0.51-5.18-0.47-10.34-0.55-15.54
			c-0.22-13.47-0.1-26.98-1.17-40.42c-0.23-2.9,0.08-5.81-0.15-8.7c-0.57-7.33-4.87-9.49-12.03-11.02
			c-6.05-1.29-12.65-3.07-18.9-1.75c-2.46,0.52-4.83,1.87-5.14,4.44c-1.24,10.38-0.93,78.37,11.59,80.24
			c4.23,0.63,8.43,1.37,12.63,2.13c2.99,0.54,6.99,1.67,10,0.66C488.6,339.12,489.58,338.09,490.15,336.83z"/>
	</g>
	<linearGradient id="SVGID_18_" gradientUnits="userSpaceOnUse" x1="470.1968" y1="284.1881" x2="445.7477" y2="314.2448">
		<stop  offset="0" style="stop-color:#FEBBBA"/>
		<stop  offset="1" style="stop-color:#FF928E"/>
	</linearGradient>
	<path style="fill:url(#SVGID_18_);" d="M454.04,317.79c0,0-2.27-1.54-4.14-10.77c-1.87-9.22-3.72-14.81,0-19.09
		c3.72-4.28,9.49-4.47,9.49,0s-0.97,12.69-0.3,19.09C459.76,313.43,458.18,328.56,454.04,317.79z"/>
	<path style="fill:#91B3FA;" d="M597.09,224.28c4.3,0.91,8.45,2.95,11.63,6.14c1.56,1.62,2.77,3.58,3.57,5.7l0.53,1.62l0.3,1.67
		c0.21,1.13,0.32,2.17,0.5,3.25c1.57,8.55,5.33,16.71,10.91,23.36c2.75,3.36,5.95,6.34,9.51,8.84c3.53,2.54,7.47,4.4,11.45,6.31
		c3.97,1.88,8,3.64,12.09,5.26c4.07,1.65,8.22,3.15,12.46,4.33c-8.64-1.83-16.92-5.05-25.02-8.55c-4.04-1.73-8.08-3.69-11.75-6.24
		c-3.67-2.53-7.01-5.57-9.87-9c-5.64-6.93-9.51-15.31-10.89-24.13c-0.15-1.09-0.23-2.25-0.4-3.29l-0.23-1.59l-0.45-1.54
		c-0.68-2.02-1.78-3.9-3.22-5.52C605.3,227.68,601.29,225.52,597.09,224.28z"/>
	<path style="fill:#91B3FA;" d="M711.06,316.7c3.58,5.27,6.11,11.24,7.74,17.43c1.62,6.21,2.08,12.74,1.3,19.15
		c-0.94,6.39-3.21,12.58-6.72,17.98c-0.93,1.31-1.8,2.67-2.84,3.88c-0.51,0.62-0.99,1.26-1.52,1.86l-1.64,1.76
		c-1.07,1.19-2.33,2.19-3.48,3.29c-1.2,1.05-2.48,2.01-3.72,2.99c4.73-4.24,8.97-9.02,12.23-14.38c1.53-2.74,3.02-5.51,4.03-8.47
		c1.03-2.95,1.77-6,2.19-9.1c0.88-6.2,0.42-12.54-0.93-18.68c-0.66-3.08-1.59-6.1-2.7-9.06C713.92,322.37,712.6,319.48,711.06,316.7
		z"/>
</g>
<path style="fill:#FFFFFF;" d="M656.71,510.08c-0.35,0-0.65-0.25-0.71-0.61c-0.04-0.23-3.78-23.51-10.93-27.58
	c-1.15-0.66-2.3-0.74-3.51-0.26c-9.61,3.82-4.71,25.75-4.66,25.97c0.09,0.39-0.15,0.77-0.54,0.86c-0.39,0.09-0.77-0.15-0.86-0.54
	c-0.22-0.95-5.21-23.35,5.53-27.62c1.62-0.64,3.21-0.53,4.75,0.34c7.74,4.41,11.48,27.62,11.64,28.6c0.06,0.39-0.21,0.76-0.6,0.82
	C656.78,510.08,656.75,510.08,656.71,510.08z"/>
<polygon style="fill:#E2F4F7;" points="666.61,507.72 629.51,504.3 621.25,508.88 628.33,517.73 662.22,514.28 "/>
<polygon style="fill:#F2F2F2;" points="684.52,596.45 697.24,589.14 666.61,507.72 659.26,512.69 "/>
<path style="fill:#FFFFFF;" d="M649.99,518.93c-0.02,0-0.04,0-0.06,0c-0.4-0.03-0.69-0.38-0.66-0.77
	c0.02-0.24,1.66-23.82-5.04-31.49c-1.26-1.44-2.69-2.19-4.37-2.28c-1.65-0.11-3.09,0.47-4.43,1.72c-7.22,6.73-7.65,30.09-7.65,30.33
	c-0.01,0.39-0.33,0.71-0.72,0.71c0,0-0.01,0-0.01,0c-0.4-0.01-0.71-0.33-0.71-0.73c0.01-0.99,0.44-24.21,8.11-31.36
	c1.62-1.51,3.48-2.22,5.49-2.1c2.06,0.12,3.87,1.05,5.37,2.77c7.2,8.24,5.41,32.3,5.39,32.54
	C650.68,518.65,650.36,518.93,649.99,518.93z"/>
<polygon style="fill:#94EBFF;" points="621.23,509.14 659.26,512.69 684.52,596.45 629.92,597.88 "/>
<g>
	<path style="fill:#94EBFF;" d="M685.29,595.14c-0.04,0-0.08-0.01-0.13-0.02c-0.27-0.07-0.43-0.35-0.36-0.62l2.44-9.31l-19.26-59.76
		c-0.08-0.27,0.06-0.55,0.33-0.64c0.27-0.08,0.55,0.06,0.64,0.33l19.31,59.91c0.03,0.09,0.03,0.19,0.01,0.28l-2.48,9.45
		C685.72,594.99,685.51,595.14,685.29,595.14z"/>
</g>
<g>
	<path style="fill:#94EBFF;" d="M696.32,589.31c-0.07,0-0.15-0.02-0.22-0.05l-6.58-3.15c-0.25-0.12-0.36-0.42-0.24-0.67
		c0.12-0.25,0.43-0.36,0.67-0.24l6.58,3.15c0.25,0.12,0.36,0.42,0.24,0.67C696.69,589.2,696.51,589.31,696.32,589.31z"/>
</g>
<linearGradient id="SVGID_19_" gradientUnits="userSpaceOnUse" x1="549.7039" y1="432.9124" x2="533.8593" y2="269.9395" gradientTransform="matrix(0.997 0.0777 -0.0777 0.997 110.5029 -47.3823)">
	<stop  offset="0" style="stop-color:#FEBBBA"/>
	<stop  offset="1" style="stop-color:#FF928E"/>
</linearGradient>
<path style="fill:url(#SVGID_19_);" d="M597.09,347.42c-0.39,3,26.46,32.17,34.35,68.77s5.24,61.04,5.24,61.04
	s-8.02,5.98-5.14,10.23c2.88,4.24,2.12,7.13,5.81,7.95c3.69,0.82,8.26,1.98,7.7-5.29c-0.56-7.28,8.13-8.74,6.69-13.14
	c-1.44-4.38,8.39-122.5-39.16-154.54c-0.22-0.15-0.45-0.3-0.68-0.45C597.08,331.31,597.63,343.2,597.09,347.42z"/>
</svg>
