<?xml version="1.0" encoding="utf-8"?>
<!-- Generator: Adobe Illustrator 17.0.0, SVG Export Plug-In . SVG Version: 6.00 Build 0)  -->
<!DOCTYPE svg PUBLIC "-//W3C//DTD SVG 1.1//EN" "http://www.w3.org/Graphics/SVG/1.1/DTD/svg11.dtd">
<svg version="1.1" id="Capa_1" xmlns="http://www.w3.org/2000/svg" xmlns:xlink="http://www.w3.org/1999/xlink" x="0px" y="0px"
	 width="463.9px" height="463.9px" viewBox="0 0 463.9 463.9" style="enable-background:new 0 0 463.9 463.9;" xml:space="preserve"
	>
<g>
	<g id="Layer_2_9_">
		<g>
			<path style="fill:#FFFFFF;" d="M90.72,80.25c4.48,2.52,34.62,17.08,49.18,24.09c0.06,5.65,0.18,15.43,0.37,15.59
				c1.6,14,4.36,29.54,5.16,33.94c-1.32,0.73-8.13,5.18-8.13,19.02c0.01,0.08,0.01,0.15,0.02,0.23c-0.01,0.36-0.02,0.73-0.02,1.1
				c2.93,38.47,18.23,21.89,21.38,38.74c5.25,28.02,30.06,48.29,45.5,55.29c8.93,4.04,18.11,6.11,27.76,6.3
				c9.65-0.2,18.84-2.26,27.76-6.3c15.44-7,40.25-27.27,45.5-55.29c3.15-16.85,18.45-0.27,21.39-38.74c0-0.38-0.01-0.74-0.02-1.1
				c0.01-0.08,0.01-0.15,0.02-0.23c0-13.84-6.81-18.29-8.13-19.02c0.8-4.39,3.55-19.94,5.16-33.94c0.19-0.17,0.32-9.94,0.37-15.59
				c8-3.85,20.69-9.98,31.26-15.14v37.19c-2.93,1.73-5,4.79-5,8.43c0,3.23,1.64,5.96,4.02,7.77c0,0-4.24,23.85-5.62,30.87
				c-1.37,7.01,24.2,5.61,23.05,0c-1.15-5.61-5.61-30.87-5.61-30.87c2.39-1.81,4.02-4.54,4.02-7.77c0-3.65-2.05-6.7-4.99-8.43V84.35
				c3.94-1.95,6.87-3.44,8.04-4.1c3.17-1.78,4.88-4.06,4.52-6.43c0.43-2.47-1.35-5.13-6.15-7.47
				C337.32,49.59,250.08,6.89,241.45,2.78c-3.76-1.79-6.86-2.59-9.5-2.78c-2.63,0.19-5.73,0.98-9.5,2.78
				c-8.63,4.12-95.88,46.81-130.1,63.56c-4.8,2.35-6.58,5-6.15,7.47C85.85,76.19,87.55,78.47,90.72,80.25z"/>
			<path style="fill:#FFFFFF;" d="M348.1,320.88c-16.1-5.8-44.13-22.54-48.93-25.12c-1.24-0.72-2.69-1.14-4.23-1.14
				c-3.37,0-6.27,1.98-7.62,4.84c-13.27,22.22-37.89,86.85-55.06,88.05c-0.1-0.01-0.21-0.03-0.32-0.04
				c-0.11,0.01-0.21,0.03-0.32,0.04c-17.17-1.2-41.78-65.82-55.06-88.04c-1.35-2.86-4.25-4.84-7.62-4.84
				c-1.54,0-2.99,0.42-4.23,1.14c-4.8,2.58-32.83,19.32-48.93,25.12c-54.04,19.49-78.35,39.36-78.35,52.91c0,0.39,0,0.84,0,1.33
				c0,16.5,0,87.44,0,87.44c0,0.86,0,1.33,0,1.33h194.18h0.32h0.32h194.18c0,0,0-0.47,0-1.33c0,0,0-70.94,0-87.44
				c0-0.49,0-0.94,0-1.33C426.45,360.24,402.15,340.37,348.1,320.88z"/>
		</g>
	</g>
</g>
</svg>
