<?xml version="1.0" encoding="utf-8"?>
<!-- Generator: Adobe Illustrator 17.0.0, SVG Export Plug-In . SVG Version: 6.00 Build 0)  -->
<!DOCTYPE svg PUBLIC "-//W3C//DTD SVG 1.1//EN" "http://www.w3.org/Graphics/SVG/1.1/DTD/svg11.dtd">
<svg version="1.1" id="Calque_1" xmlns="http://www.w3.org/2000/svg" xmlns:xlink="http://www.w3.org/1999/xlink" x="0px" y="0px"
	 width="750px" height="750px" viewBox="0 0 750 750" style="enable-background:new 0 0 750 750;" xml:space="preserve">
<rect x="2084.05" y="-2907.77" style="fill:#FFFAFA;" width="2293.69" height="1503.49"/>
<g>
	<path style="fill:#FFFFFF;" d="M461.74,221.87c2.65,0,5.19,0.39,7.53,1.11c3.08-7.48,10.74-12.78,19.7-12.78
		c9.96,0,18.32,6.55,20.56,15.36c1.72-0.65,3.6-1.01,5.56-1.01c8.29,0,15.02,6.39,15.02,14.27h-21.97h-8.06h-17.18H469.8h-29.22
		C440.58,229.46,450.05,221.87,461.74,221.87z"/>
</g>
<g>
	<path style="fill:#FFFFFF;" d="M282.32,228.73c2.24,0,4.39,0.33,6.36,0.93c2.61-6.32,9.08-10.8,16.65-10.8
		c8.42,0,15.48,5.53,17.37,12.98c1.45-0.55,3.04-0.85,4.7-0.85c7.01,0,12.69,5.4,12.69,12.06h-18.56h-6.81H300.2h-11.06h-24.69
		C264.45,235.15,272.45,228.73,282.32,228.73z"/>
</g>
<linearGradient id="SVGID_1_" gradientUnits="userSpaceOnUse" x1="-72.2974" y1="-2804.2292" x2="-72.2974" y2="-843.6911">
	<stop  offset="0" style="stop-color:#FFFFFF"/>
	<stop  offset="1" style="stop-color:#DEDEDE"/>
</linearGradient>
<polygon style="fill:url(#SVGID_1_);" points="1701.66,-1404.27 1701.66,-3258.47 1600.34,-3258.47 1600.34,-1770.2 
	-667.89,-1770.2 -667.89,-3258.47 -1846.25,-3258.47 -1846.25,-1404.27 "/>
<rect x="-2424.77" y="-1262.77" style="fill:#F7F7F7;" width="3547.91" height="466.2"/>
<g>
	<g>
		<linearGradient id="SVGID_2_" gradientUnits="userSpaceOnUse" x1="213.9242" y1="634.3616" x2="547.6255" y2="634.3616">
			<stop  offset="0" style="stop-color:#FF9F55"/>
			<stop  offset="1" style="stop-color:#FFD255"/>
		</linearGradient>
		<polygon style="fill:url(#SVGID_2_);" points="526.75,595.34 380.77,595.34 234.8,595.34 213.92,673.38 380.77,673.38 
			547.63,673.38 		"/>
		<path style="fill:#FFFFFF;" d="M237.1,616.07h19.1c0.8,0,1.4,0.62,1.25,1.29l-1.85,8.31c-0.11,0.51-0.64,0.88-1.25,0.88h-19.43
			c-0.82,0-1.42-0.65-1.24-1.32l2.18-8.31C235.99,616.42,236.51,616.07,237.1,616.07z"/>
		<polygon style="fill:#FFFFFF;" points="264.96,616.07 279.41,616.07 277.48,626.55 262.77,626.55 		"/>
		<polygon style="fill:#FFFFFF;" points="286.63,616.07 301.07,616.07 299.56,626.55 284.84,626.57 		"/>
		<polygon style="fill:#FFFFFF;" points="308.29,616.07 322.73,616.07 321.63,626.55 306.91,626.55 		"/>
		<polygon style="fill:#FFFFFF;" points="329.95,616.07 344.39,616.07 343.7,626.55 328.99,626.55 		"/>
		<polygon style="fill:#FFFFFF;" points="351.61,616.07 366.05,616.07 365.77,626.55 351.06,626.57 		"/>
		<polygon style="fill:#FFFFFF;" points="524.95,616.07 503.29,616.07 505.62,626.55 527.69,626.55 		"/>
		<polygon style="fill:#FFFFFF;" points="496.06,616.07 481.62,616.07 483.55,626.55 498.26,626.55 		"/>
		<polygon style="fill:#FFFFFF;" points="474.4,616.07 459.96,616.07 461.47,626.55 476.19,626.57 		"/>
		<polygon style="fill:#FFFFFF;" points="452.74,616.07 438.3,616.07 439.4,626.55 454.12,626.55 		"/>
		<polygon style="fill:#FFFFFF;" points="431.08,616.07 416.64,616.07 417.33,626.55 432.04,626.55 		"/>
		<polygon style="fill:#FFFFFF;" points="409.42,616.07 394.98,616.07 395.25,626.55 409.97,626.57 		"/>
		<polygon style="fill:#FFFFFF;" points="373.27,616.07 387.71,616.07 387.95,626.55 373.27,626.55 		"/>
		<polygon style="fill:#FFFFFF;" points="230.75,634.36 260.93,634.36 259.21,645.17 228.46,645.17 		"/>
		<polygon style="fill:#FFFFFF;" points="529.66,634.36 492.36,634.36 494.48,645.17 532.49,645.17 		"/>
		<polygon style="fill:#FFFFFF;" points="484.9,634.36 469.98,634.36 471.68,645.17 486.88,645.17 		"/>
		<polygon style="fill:#FFFFFF;" points="462.52,634.36 447.6,634.36 448.87,645.17 464.08,645.17 		"/>
		<polygon style="fill:#FFFFFF;" points="440.14,634.36 425.22,634.36 426.07,645.17 441.27,645.17 		"/>
		<polygon style="fill:#FFFFFF;" points="417.76,634.36 402.84,634.36 403.26,645.17 418.47,645.17 		"/>
		<polygon style="fill:#FFFFFF;" points="226.24,653.64 257.09,653.64 254.84,664.38 223.43,664.38 		"/>
		<polygon style="fill:#FFFFFF;" points="264.8,653.64 280.23,653.64 278.4,664.38 262.69,664.38 		"/>
		<polygon style="fill:#FFFFFF;" points="287.94,653.64 303.37,653.64 403.62,653.64 404.05,664.38 286.25,664.38 		"/>
		<polygon style="fill:#FFFFFF;" points="411.34,653.64 426.76,653.64 427.61,664.38 411.9,664.38 		"/>
		<polygon style="fill:#FFFFFF;" points="434.48,653.64 449.9,653.64 451.17,664.38 435.46,664.38 		"/>
		<polygon style="fill:#FFFFFF;" points="457.61,653.64 473.04,653.64 474.73,664.38 459.02,664.38 		"/>
		<polygon style="fill:#FFFFFF;" points="480.75,653.64 496.18,653.64 498.29,664.38 482.58,664.38 		"/>
		<polygon style="fill:#FFFFFF;" points="503.89,653.64 534.74,653.64 537.55,664.38 506.14,664.38 		"/>
		<polygon style="fill:#FFFFFF;" points="395.41,634.36 380.61,634.36 380.61,645.17 395.69,645.17 		"/>
		<polygon style="fill:#FFFFFF;" points="373.03,634.36 358.11,634.36 357.69,645.17 372.89,645.17 		"/>
		<polygon style="fill:#FFFFFF;" points="350.65,634.36 335.73,634.36 334.88,645.17 350.08,645.17 		"/>
		<polygon style="fill:#FFFFFF;" points="328.27,634.36 313.35,634.36 312.08,645.17 327.28,645.17 		"/>
		<polygon style="fill:#FFFFFF;" points="305.89,634.36 290.97,634.36 289.27,645.17 304.47,645.17 		"/>
		<polygon style="fill:#FFFFFF;" points="283.51,634.36 268.59,634.36 266.47,645.17 281.67,645.17 		"/>
		<polygon style="fill:#FFFFFF;" points="237.81,609.48 240.26,600.12 247.27,600.12 244.98,609.48 		"/>
		<polygon style="fill:#FFFFFF;" points="254.28,600.12 268.31,600.12 266.34,609.48 252.08,609.48 		"/>
		<polygon style="fill:#FFFFFF;" points="275.32,600.12 289.34,600.12 287.75,609.48 273.48,609.48 		"/>
		<polygon style="fill:#FFFFFF;" points="296.35,600.12 310.38,600.12 309.15,609.48 294.88,609.48 		"/>
		<polygon style="fill:#FFFFFF;" points="317.39,600.12 331.41,600.12 330.55,609.48 316.28,609.48 		"/>
		<polygon style="fill:#FFFFFF;" points="338.42,600.12 352.44,600.12 351.95,609.48 337.69,609.48 		"/>
		<polygon style="fill:#FFFFFF;" points="359.46,600.12 373.48,600.12 373.36,609.48 359.09,609.48 		"/>
		<polygon style="fill:#FFFFFF;" points="380.49,600.12 394.51,600.12 394.76,609.48 380.49,609.48 		"/>
		<polygon style="fill:#FFFFFF;" points="401.53,600.12 415.55,600.12 416.16,609.48 401.89,609.48 		"/>
		<polygon style="fill:#FFFFFF;" points="422.56,600.12 436.58,600.12 437.56,609.48 423.3,609.48 		"/>
		<polygon style="fill:#FFFFFF;" points="443.59,600.12 457.62,600.12 458.97,609.48 444.7,609.48 		"/>
		<polygon style="fill:#FFFFFF;" points="464.63,600.12 478.65,600.12 480.37,609.48 466.1,609.48 		"/>
		<polygon style="fill:#FFFFFF;" points="485.66,600.12 499.69,600.12 501.77,609.48 487.5,609.48 		"/>
		<polygon style="fill:#FFFFFF;" points="506.7,600.12 520.72,600.12 523.17,609.48 508.9,609.48 		"/>
		<linearGradient id="SVGID_3_" gradientUnits="userSpaceOnUse" x1="59.2586" y1="675.6834" x2="392.96" y2="675.6834">
			<stop  offset="0" style="stop-color:#E37E30"/>
			<stop  offset="1" style="stop-color:#E8A12E"/>
		</linearGradient>
		<rect x="213.92" y="673.38" style="fill:url(#SVGID_3_);" width="333.7" height="4.6"/>
	</g>
	<g>
		<rect x="358.81" y="411.52" style="fill:#F08533;" width="45.93" height="139.49"/>
	</g>
	<g>
		<linearGradient id="SVGID_4_" gradientUnits="userSpaceOnUse" x1="171.5267" y1="335.035" x2="612.0906" y2="335.035">
			<stop  offset="0" style="stop-color:#FF9F55"/>
			<stop  offset="1" style="stop-color:#FFD255"/>
		</linearGradient>
		<path style="fill:url(#SVGID_4_);" d="M197.45,474.91H566.1c7.71,0,13.96-6.25,13.96-13.96V209.11c0-7.71-6.25-13.96-13.96-13.96
			H197.45c-7.71,0-13.96,6.25-13.96,13.96v251.84C183.49,468.66,189.74,474.91,197.45,474.91z"/>
	</g>
	<g>
		<linearGradient id="SVGID_5_" gradientUnits="userSpaceOnUse" x1="197.5114" y1="316.4587" x2="565.3382" y2="316.4587">
			<stop  offset="0" style="stop-color:#404B61"/>
			<stop  offset="0.486" style="stop-color:#3C4860"/>
			<stop  offset="1" style="stop-color:#2F3E5C"/>
		</linearGradient>
		<rect x="197.51" y="208.85" style="fill:url(#SVGID_5_);" width="367.83" height="215.21"/>
	</g>
	<linearGradient id="SVGID_6_" gradientUnits="userSpaceOnUse" x1="278.4674" y1="551.0131" x2="485.0807" y2="551.0131">
		<stop  offset="0" style="stop-color:#FF9F55"/>
		<stop  offset="1" style="stop-color:#FFD255"/>
	</linearGradient>
	<rect x="278.47" y="545.75" style="fill:url(#SVGID_6_);" width="206.61" height="10.53"/>
	<g>
		<g>
			<g>
				<path style="fill:#323657;" d="M213.43,401.07c-0.01,0-0.01,0-0.02,0C213.49,401.1,213.5,401.11,213.43,401.07z"/>
			</g>
		</g>
	</g>
	<g>
		<g>
			<polygon style="fill:#FFC855;" points="184.47,86.29 267.43,86.29 267.43,146.42 267.43,159.09 254.77,146.42 184.47,146.42 			
				"/>
		</g>
		<path style="fill:#FFFFFF;" d="M246.4,107.65h-40.9c-0.8,0-1.45-0.65-1.45-1.45v-1.64c0-0.8,0.65-1.45,1.45-1.45h40.9
			c0.8,0,1.45,0.65,1.45,1.45v1.64C247.85,107,247.2,107.65,246.4,107.65z"/>
		<path style="fill:#FFFFFF;" d="M242.16,116.63H205.5c-0.8,0-1.45-0.65-1.45-1.45v-1.64c0-0.8,0.65-1.45,1.45-1.45h36.66
			c0.8,0,1.45,0.65,1.45,1.45v1.64C243.62,115.98,242.97,116.63,242.16,116.63z"/>
		<path style="fill:#FFFFFF;" d="M232.99,125.84H205.5c-0.8,0-1.45-0.65-1.45-1.45v-1.64c0-0.8,0.65-1.45,1.45-1.45h27.49
			c0.8,0,1.45,0.65,1.45,1.45v1.64C234.45,125.19,233.8,125.84,232.99,125.84z"/>
	</g>
	<g>
		<linearGradient id="SVGID_7_" gradientUnits="userSpaceOnUse" x1="588.8994" y1="577.3093" x2="588.8994" y2="483.248">
			<stop  offset="0" style="stop-color:#3076A1"/>
			<stop  offset="1" style="stop-color:#639C38"/>
		</linearGradient>
		<path style="fill:url(#SVGID_7_);" d="M670.49,567.41H517.9c-5.85,0-10.59-4.74-10.59-10.59v-35.26c0-5.85,4.74-10.59,10.59-10.59
			h152.59V567.41z"/>
		<path style="fill:#3A7D8D;" d="M696.6,516.79v44.82h2.67v5.81H588.53c-5.85,0-10.59-4.74-10.59-10.59v-35.26
			c0-5.85,4.74-10.59,10.59-10.59h110.74v5.81H696.6z"/>
		<path style="fill:#FFFFFF;" d="M696.6,561.6H596.54c-5.77,0-10.46-4.68-10.46-10.46v-23.91c0-5.77,4.68-10.46,10.46-10.46H696.6
			V561.6z"/>
		<rect x="635.8" y="538.97" style="fill:#DECCC5;" width="43.07" height="1.11"/>
		<rect x="615.62" y="542.34" style="fill:#DECCC5;" width="45.99" height="1.11"/>
	</g>
	<g>
		
			<linearGradient id="SVGID_8_" gradientUnits="userSpaceOnUse" x1="-10069.4336" y1="489.3596" x2="-9865.5527" y2="489.3596" gradientTransform="matrix(-1 0 0 1 -9374.1475 0)">
			<stop  offset="0" style="stop-color:#7F90DE"/>
			<stop  offset="1" style="stop-color:#8F55FF"/>
		</linearGradient>
		<path style="fill:url(#SVGID_8_);" d="M504.49,511.14h152.18c6.07,0,10.99-4.92,10.99-11v-21.58c0-6.07-4.92-10.99-10.99-10.99
			H504.49V511.14z"/>
		<path style="fill:#8187E3;" d="M478.38,472.06v34.6h-2.67v4.48h110.33c6.07,0,11-4.92,11-10.99v-21.58c0-6.07-4.92-10.99-11-10.99
			H475.71v4.48H478.38z"/>
		<path style="fill:#FFFFFF;" d="M478.38,506.66h101.58c6.05,0,10.96-4.91,10.96-10.96v-12.69c0-6.05-4.91-10.96-10.96-10.96H478.38
			V506.66z"/>
		<rect x="522.79" y="482.56" style="fill:#C5D2DE;" width="33.36" height="0.66"/>
		<rect x="536.16" y="484.58" style="fill:#C5D2DE;" width="35.63" height="0.66"/>
	</g>
	<g>
		<linearGradient id="SVGID_9_" gradientUnits="userSpaceOnUse" x1="618.3235" y1="469.2619" x2="618.3235" y2="414.0094">
			<stop  offset="0" style="stop-color:#3076A1"/>
			<stop  offset="1" style="stop-color:#639C38"/>
		</linearGradient>
		<path style="fill:url(#SVGID_9_);" d="M709.55,467.58H533.96c-3.79,0-6.86-3.07-6.86-6.86v-16.47c0-3.79,3.07-6.86,6.86-6.86
			h175.59V467.58z"/>
		<path style="fill:#3A7D8D;" d="M735.67,440.5v23.97h2.67v3.11H623.63c-3.66,0-6.62-2.96-6.62-6.62v-16.94
			c0-3.66,2.96-6.62,6.62-6.62h114.71v3.11H735.67z"/>
		<path style="fill:#FFFFFF;" d="M735.66,464.47H628.96c-3.66,0-6.62-2.96-6.62-6.62v-10.73c0-3.66,2.96-6.62,6.62-6.62h106.71
			V464.47z"/>
		<rect x="674.87" y="445.62" style="fill:#DECCC5;" width="43.06" height="0.86"/>
		<rect x="654.68" y="454.17" style="fill:#DECCC5;" width="45.99" height="0.59"/>
	</g>
	<g>
		<linearGradient id="SVGID_10_" gradientUnits="userSpaceOnUse" x1="489.603" y1="422.302" x2="655.4384" y2="422.302">
			<stop  offset="0" style="stop-color:#7F90DE"/>
			<stop  offset="1" style="stop-color:#8F55FF"/>
		</linearGradient>
		<path style="fill:url(#SVGID_10_);" d="M644.79,437.39H518.51c-3.56,0-6.45-2.89-6.45-6.44v-17.29c0-3.56,2.89-6.45,6.45-6.45
			h126.28V437.39z"/>
		<path style="fill:#8187E3;" d="M663.79,410.32v23.97h1.94v3.11H584.1c-3.66,0-6.63-2.97-6.63-6.63v-16.92
			c0-3.66,2.97-6.63,6.63-6.63h81.63v3.11H663.79z"/>
		<path style="fill:#FFFFFF;" d="M663.79,434.29h-76.9c-3.06,0-5.55-2.48-5.55-5.55v-12.88c0-3.06,2.48-5.55,5.55-5.55h76.9V434.29z
			"/>
		<rect x="619.56" y="415.43" style="fill:#C5D2DE;" width="31.33" height="0.86"/>
		<rect x="604.87" y="423.99" style="fill:#C5D2DE;" width="33.45" height="0.59"/>
	</g>
	<g>
		
			<rect x="605.04" y="201.46" transform="matrix(-1 -4.409689e-003 4.409689e-003 -1 1211.2736 460.2036)" style="fill:#292929;" width="2.2" height="54.62"/>
	</g>
	<path style="fill:#292929;" d="M605.99,254.35v-0.01c0.01,0,0.02,0.01,0.03,0.01c0.01,0,0.02-0.01,0.03-0.01v0.01
		c5.18,0.27,4.46,26.91,4.46,26.91l-4.58-0.02l-0.07,0l-4.58-0.02C601.29,281.22,600.81,254.57,605.99,254.35z"/>
	<polygon style="fill:#272A45;" points="477.41,181.18 427.1,151.37 532.66,122.77 649.27,207.25 585.67,220.37 	"/>
	<path style="fill:#51578F;" d="M475.75,195.16c0,0,50.28-0.36,104.3,35.1l10.52-18.5c0,0-36.21-46.85-113.31-36.11L475.75,195.16z"
		/>
	<g>
		<g>
			<g>
				<rect x="85.3" y="474.58" style="fill:#E2D2CA;" width="46.06" height="2.73"/>
			</g>
			<g>
				<rect x="91.47" y="484.43" style="fill:#706865;" width="4.04" height="124.35"/>
			</g>
			<g>
				<rect x="124.15" y="473.8" style="fill:#CCBDB7;" width="32.02" height="3.9"/>
			</g>
			<g>
				<linearGradient id="SVGID_11_" gradientUnits="userSpaceOnUse" x1="140.1586" y1="459.9075" x2="140.1586" y2="479.3623">
					<stop  offset="0.0829" style="stop-color:#BCD7E8"/>
					<stop  offset="1" style="stop-color:#E6E7E8"/>
				</linearGradient>
				<rect x="134.1" y="440.49" style="fill:url(#SVGID_11_);" width="12.12" height="36.82"/>
			</g>
			<g>
				<rect x="68.77" y="477.36" style="fill:#B59074;" width="177.39" height="7.07"/>
			</g>
			<g>
				<path style="fill:#FFB755;" d="M34.73,434.57c0,0-1.94,27.21,3.38,30.46c3.33,2.04,16.61,8.92,16.22,10.21
					c-0.39,1.29-7.5,11.48-7.5,11.48s-25.51-16.8-26.33-22.09c-0.8-5.17,1.26-39.84,4.76-41.44c2.63-1.2,4.01-0.21,7.32,2.25
					C37.22,428.89,34.73,434.57,34.73,434.57z"/>
			</g>
			<g>
				<g>
					<g>
						<path style="fill:#EAD8CF;" d="M81.21,442.33l2.25-0.83c0,0-2.8-6.58-4.03-6.42c-1.41,0.18-3.17,0.65-3.17,0.65L81.21,442.33z
							"/>
					</g>
				</g>
			</g>
			<g>
				<g>
					<g>
						<path style="fill:#DA9B5B;" d="M81.73,443.47c-0.29-0.21-4.78-8.83-4.78-8.83l-9.6,1.3l5.19,10.21L81.73,443.47z"/>
					</g>
				</g>
			</g>
			<g>
				<g>
					<g>
						<path style="fill:#424773;" d="M66.11,591.8c0,0-0.79,5.51-0.89,6.33c-0.1,0.83-8.82-0.49-8.82-0.49l-0.71-6.55
							C55.69,591.09,65.02,591.02,66.11,591.8z"/>
					</g>
				</g>
			</g>
			<g>
				<g>
					<g>
						<path style="fill:#292C47;" d="M65.31,597.43c0,0,2.76,3.32,5.44,4.76c2.67,1.45,6.87,2.02,8.46,3.52
							c1.14,1.08,4.16,5.73-6.95,5.64c-11.1-0.09-16.46,0.66-17.65-1.13c-1.19-1.78,1.72-13.16,1.72-13.16
							S58.96,598.01,65.31,597.43z"/>
					</g>
				</g>
			</g>
			<g>
				<g>
					<g>
						<path style="fill:#424773;" d="M122,591.85c0,0-0.79,5.51-0.89,6.33c-0.1,0.83-8.82-0.49-8.82-0.49l-0.71-6.55
							C111.58,591.14,120.91,591.08,122,591.85z"/>
					</g>
				</g>
			</g>
			<g>
				<g>
					<g>
						<path style="fill:#292C47;" d="M121.2,597.48c0,0,2.76,3.32,5.44,4.76c2.67,1.45,12.51,2.63,14.09,4.13
							c1.14,1.08,3.04,5.43-12.58,5.02c-11.1-0.29-16.46,0.66-17.65-1.13c-1.19-1.78,1.72-13.16,1.72-13.16
							S114.7,598.12,121.2,597.48z"/>
					</g>
				</g>
			</g>
			<g>
				<g>
					<g>
						<path style="fill:#292C47;" d="M37.97,496.7c0,0,31.72,5.37,38.88,6.49c7.16,1.13,46.01,10.79,50.86,13.74
							c3.87,2.34-2.03,58.65-3.4,80.13h-15.3l-1.11-64.44c-18.36,0.46-31.46-4.29-44.83-2.26c-13.37,2.03-24.51,4.92-33.01-6.48
							C30.06,523.88,29.75,499.19,37.97,496.7z"/>
					</g>
				</g>
			</g>
			<g>
				<g>
					<g>
						<path style="fill:#292C47;" d="M69.23,597.11l-14.91-0.92l-1.45-63.57c-7.9,0.2-10.61-0.3-17.01-1.08l-12.04-27.98
							c10.55,2.11,44.35,10.63,48.86,13.37C76.55,519.27,70.61,575.63,69.23,597.11z"/>
					</g>
				</g>
			</g>
			<g>
				<g>
					<g>
						<path style="fill:#EEA886;" d="M52.57,377.82c0,0,11.63-3.21,16.06,5.81c4.44,9.03,2.42,26.14-3.43,27.75
							c-5.86,1.61-14.29-0.24-16.72-5.86c-2.43-5.62-4.37-13.6-3.79-18.77C45.27,381.57,49.48,379.05,52.57,377.82z"/>
					</g>
				</g>
			</g>
			<g>
				<g>
					<g>
						<path style="fill:#EEA886;" d="M62.16,409.57c0,0-0.13,6.86,0.63,8.33c0.76,1.46-16.19,1.1-16.19,1.1s2.67-8.24,1.16-15.27
							C46.26,396.78,62.16,409.57,62.16,409.57z"/>
					</g>
				</g>
			</g>
			<g>
				<g>
					<g>
						<path style="fill:#3A3F47;" d="M46.84,401.13c0,0,0.91,1.84,5.29,1.54c4.39-0.3,10.17-5.59,12.03-6.06
							c1.86-0.47,1.97-1.53,1.97-1.53l0.99,1.75l1.91,0.29c0,0-1.3-5.3,1.53-7.17c2.83-1.87-1.27-16.91-15.58-13.28
							c0,0-10.92,2-11.06,8.09C43.78,390.86,44.72,397.9,46.84,401.13z"/>
					</g>
				</g>
			</g>
			<g>
				<g>
					<g>
						<path style="fill:#E2D2CA;" d="M63.68,417.72c0,0-0.05-2.8-1.31-3.06c-1.27-0.27-13.32-1.93-14.88-1.31l-0.67,3.69
							C46.82,417.04,49.82,418.88,63.68,417.72z"/>
					</g>
				</g>
			</g>
			<g>
				<g>
					<g>
						<path style="fill:#EEA886;" d="M67.17,393.83c-0.33-2.29-2.93-4.92-4.42-1.35c-1.49,3.57,1.01,8.77,2.68,8.49
							C67.1,400.69,67.61,396.94,67.17,393.83z"/>
					</g>
				</g>
			</g>
			<g>
				<g>
					<g>
						<path style="fill:#323657;" d="M114.17,450.76c-0.01,0-0.01,0-0.02,0C114.24,450.8,114.25,450.8,114.17,450.76z"/>
					</g>
				</g>
			</g>
			<g>
				<g>
					<g>
						<path style="fill:#3A3F47;" d="M49.18,379.45c0,0-14.18-0.67-2.47,21.46L49.18,379.45z"/>
					</g>
				</g>
			</g>
			<g>
				<g>
					<polygon style="fill:#736A67;" points="17.59,604.65 18.65,607.62 63.21,593.81 61.07,587.81 					"/>
				</g>
			</g>
			<g>
				<g>
					<rect x="59.67" y="543.25" style="fill:#736A67;" width="5.06" height="48.44"/>
				</g>
			</g>
			<g>
				<g>
					<rect x="47.27" y="540.68" style="fill:#5E5854;" width="29.87" height="2.85"/>
				</g>
			</g>
			<g>
				<g>
					<polygon style="fill:#736A67;" points="107.2,604.65 106.15,607.62 61.59,593.81 63.55,587.43 					"/>
				</g>
			</g>
			<g>
				<g>
					<polygon style="fill:#736A67;" points="75.81,607.3 75.81,610.75 61.59,593.81 63.55,587.43 					"/>
				</g>
			</g>
			<g>
				<g>
					<circle style="fill:#BFB2AC;" cx="107.2" cy="608.78" r="4.16"/>
				</g>
			</g>
			<g>
				<g>
					<circle style="fill:#BFB2AC;" cx="72" cy="608.78" r="4.16"/>
				</g>
			</g>
			<g>
				<g>
					<circle style="fill:#BFB2AC;" cx="17.59" cy="608.78" r="4.16"/>
				</g>
			</g>
			<g>
				<path style="fill:#736A67;" d="M92.44,540.68H32.35c-2.95,0-5.34-2.39-5.34-5.34v-0.14c0-2.95,2.39-5.34,5.34-5.34h60.09
					c2.95,0,5.34,2.39,5.34,5.34v0.14C97.78,538.29,95.39,540.68,92.44,540.68z"/>
			</g>
			<g>
				<rect x="219.44" y="484.43" style="fill:#706865;" width="4.04" height="124.35"/>
			</g>
			<g>
				
					<linearGradient id="SVGID_12_" gradientUnits="userSpaceOnUse" x1="-4491.4692" y1="421.3004" x2="-4386.7773" y2="421.3004" gradientTransform="matrix(-1 0 0 1 -4298.9648 0)">
					<stop  offset="0.0829" style="stop-color:#BCD7E8"/>
					<stop  offset="1" style="stop-color:#E6E7E8"/>
				</linearGradient>
				<path style="fill:url(#SVGID_12_);" d="M187.18,458.23H93.14c-2.94,0-5.32-2.38-5.32-5.32v-63.2c0-2.94,2.38-5.33,5.32-5.33
					h94.04c2.94,0,5.32,2.38,5.32,5.33v63.2C192.5,455.84,190.12,458.23,187.18,458.23z"/>
			</g>
			<g>
				<rect x="91.91" y="388.37" style="fill:#F5F7FF;" width="96.49" height="58.29"/>
			</g>
			<g>
				<path style="fill:#FFC655;" d="M161.83,477.45v-1.31c0,0-1.85-8.17-14.92-8.17c-13.07,0-12.8,9.49-12.8,9.49H161.83z"/>
			</g>
			<g>
				<g>
					<path style="fill:#EEA886;" d="M133.95,469.18c0,0,2.84-0.22,3.88-0.85c1.04-0.63,7.26-4.81,8.73-4.14
						c1.46,0.67,11.19,3.65,10.85,5.07c-0.34,1.42-1.24,1.29-1.92,1.03c-0.69-0.25-7.75-1.73-8.37-1.48c0,0,6.94,2.53,6.97,4.38
						c0.03,1.85-1.45,2.3-2.11,3c-0.66,0.7-1.45,2.43-3.24,2.57c-1.79,0.13-10.51-2.9-12.31-3.04c-1.8-0.14-5.12,0.11-5.35-0.18
						C130.85,475.23,133.95,469.18,133.95,469.18z"/>
				</g>
			</g>
			<g>
				<g>
					<g>
						<path style="fill:#FFB755;" d="M82.26,421.6c-9.05-1.59-18.58-3.88-18.58-3.88l-16.86-0.69c0,0-15.47,3.41-21.57,6.16
							c-0.58,0.26-0.58,13.8-2.17,17.36l5.05,10.66c0,0,2.92,21.11,3.52,30.5c0.28,4.31-0.79,41.66-0.79,41.66s1.51,0.75,13.02,2.02
							s40.26-0.46,40.44-1.82c0.18-1.36-5.57-50.61-5.82-53.16c-0.39-3.91,1.13-22,1.13-22c2.17,2.91,7.69,16.06,13.46,22.32
							c3.39,3.68,20.17,5.94,23.33,6.04c6.88,0.23,19.44,1.6,19.81,0.93c0.29-0.4,1.09-11.15,0.31-11.41
							c-0.69-0.23-24.01-1.57-29.99-4.74c-2.19-1.16-8.72-15.41-8.72-15.41S87.26,423.84,82.26,421.6z"/>
					</g>
				</g>
			</g>
			<g>
				<path style="fill:#736A67;" d="M49.04,522.29h-28.3c-5.66,0-10.25-4.59-10.25-10.25v-47.09c0-5.66,4.59-10.25,10.25-10.25h28.3
					c5.66,0,10.25,4.59,10.25,10.25v47.09C59.29,517.71,54.7,522.29,49.04,522.29z"/>
			</g>
			<g>
				<path style="fill:#918783;" d="M50.64,537.99c-7.19,0-13.03-2.42-17.35-7.18c-9.76-10.77-8-29.7-7.92-30.51
					c0.15-1.49,1.48-2.58,2.97-2.43c1.49,0.15,2.58,1.48,2.43,2.97c-0.02,0.22-1.58,17.38,6.55,26.34
					c3.29,3.62,7.64,5.39,13.31,5.39c1.5,0,2.72,1.22,2.72,2.72C53.35,536.77,52.14,537.99,50.64,537.99z"/>
			</g>
			<g>
				<g>
					<g>
						<path style="fill:#DFE1E8;" d="M126.26,396.09H99.52c-0.42,0-0.76-0.34-0.76-0.76v-1.55c0-0.42,0.34-0.76,0.76-0.76h26.74
							c0.42,0,0.76,0.34,0.76,0.76v1.55C127.02,395.75,126.68,396.09,126.26,396.09z"/>
					</g>
				</g>
			</g>
			<g>
				<g>
					<g>
						<path style="fill:#DFE1E8;" d="M126.26,402.69H99.52c-0.42,0-0.76-0.34-0.76-0.76v-1.55c0-0.42,0.34-0.76,0.76-0.76h26.74
							c0.42,0,0.76,0.34,0.76,0.76v1.55C127.02,402.35,126.68,402.69,126.26,402.69z"/>
					</g>
				</g>
			</g>
			<g>
				<g>
					<g>
						<path style="fill:#DFE1E8;" d="M124.45,442.01h-23.13c-1.42,0-2.57-1.15-2.57-2.57v-29.69c0-1.42,1.15-2.57,2.57-2.57h23.13
							c1.42,0,2.57,1.15,2.57,2.57v29.69C127.02,440.86,125.87,442.01,124.45,442.01z"/>
					</g>
				</g>
			</g>
			<g>
				<g>
					<g>
						<path style="fill:#DFE1E8;" d="M179,442.01h-42.21c-2.24,0-4.06-1.82-4.06-4.06v-40.88c0-2.24,1.82-4.06,4.06-4.06H179
							c2.24,0,4.06,1.82,4.06,4.06v40.88C183.06,440.19,181.24,442.01,179,442.01z"/>
					</g>
				</g>
			</g>
		</g>
		<g>
			<path style="fill:#36572B;" d="M224.4,438.05c-6.31,0-11.42-5.11-11.42-11.42c0-1.7,0.37-3.32,1.04-4.77
				c1.81-3.93,5.77-6.65,10.38-6.65c6.31,0,11.42,5.11,11.42,11.42c0,2.17-0.6,4.19-1.65,5.92
				C232.17,435.84,228.54,438.05,224.4,438.05z"/>
			<path style="fill:#45613C;" d="M212.8,437.02c-4.41,0-7.99-3.58-7.99-7.99c0-0.25,0.01-0.51,0.04-0.76
				c0.38-4.06,3.8-7.24,7.96-7.24c4.41,0,7.99,3.58,7.99,7.99c0,2.8-1.44,5.26-3.62,6.69C215.92,436.54,214.41,437.02,212.8,437.02z
				"/>
			<path style="fill:#925E2E;" d="M224.58,427.22c0,0,0.64,5.3,0.85,12.52c0.21,7.21-5.52,7.21-5.52,7.21v26.43h-3.98
				c0,0,0.09-26.95-1.89-29.12c-1.98-2.17-1.98-12.45-1.98-12.45l1.13-0.66c0,0-1.7,12.17,6.04,13.96
				c7.73,1.79,4.81-17.35,4.81-17.35L224.58,427.22z"/>
			<path style="fill:#48753A;" d="M227.23,428.46c-6.56-1.23-10.88-4.06-13.21-6.61c1.81-3.93,5.77-6.65,10.38-6.65
				c6.31,0,11.42,5.11,11.42,11.42c0,2.17-0.6,4.19-1.65,5.92C233.85,430.99,232.15,429.38,227.23,428.46z"/>
			<path style="fill:#538742;" d="M210.46,431.22c-2.65-0.76-4.44-1.81-5.62-2.95c0.38-4.06,3.8-7.24,7.96-7.24
				c4.41,0,7.99,3.58,7.99,7.99c0,2.8-1.44,5.26-3.62,6.69C216.36,434.19,214.53,432.39,210.46,431.22z"/>
			<polygon style="fill:#877670;" points="205.96,461.1 232.84,461.1 231.45,466.09 207.63,466.09 			"/>
			<polygon style="fill:#876455;" points="209.32,466.09 229.27,466.09 226.5,477.37 211.26,477.37 			"/>
			<path style="fill:#538742;" d="M212.07,422.04l-0.69,0.21c0,0-1.08-2.95-1.16-3.35C210.16,418.5,212.07,422.04,212.07,422.04z"/>
			<path style="fill:#538742;" d="M205.56,422.25l3.42,1.04c0,0-0.02,0.31-0.47,0.31C208.06,423.6,205.56,422.25,205.56,422.25z"/>
			<path style="fill:#538742;" d="M206.74,429.42h0.87c0,0-0.17,1.3-0.87,2.12C206.03,432.37,206.74,429.42,206.74,429.42z"/>
			<path style="fill:#48753A;" d="M227.72,413.06c0.35,0.26-1.25,4.17-1.25,4.17h-0.8C225.67,417.23,227.37,412.8,227.72,413.06z"/>
			<path style="fill:#48753A;" d="M224,416.26c-0.14-1.06,0.68-2.85,0.68-2.85v2.69C224.68,416.1,224.14,417.32,224,416.26z"/>
			<path style="fill:#48753A;" d="M230.31,431.69c-0.5-0.41-0.52-3.97-0.52-3.97l0.78,0.28C230.57,428,230.81,432.09,230.31,431.69z
				"/>
			<path style="fill:#715346;" d="M215.93,466.09h13.34l-2.77,11.28h-4.37C224.6,468.29,215.93,466.09,215.93,466.09z"/>
		</g>
		<g>
			<path style="fill:#9E633A;" d="M225.8,477.37c-1.09-0.46-2.86-5.62-3.71-8.3c-0.3-0.95-0.49-1.59-0.49-1.59h10.01
				c-0.86,6.18-2.97,9.89-2.97,9.89H225.8z"/>
			<path style="fill:#97A43C;" d="M224.99,464.41c0-0.36-1.61-1.86-2.41-2.85c-0.8-0.98,0.31-2.85,0.31-2.85
				c3.58,1.48,2.97,5.7,2.97,5.7S224.99,464.77,224.99,464.41z"/>
			<path style="fill:#97A43C;" d="M227.03,464.57h-0.43c0,0-0.31-7.28,2.35-8.26c2.66-0.99,2.66-2.97,2.66-2.97s0.8,2.72-0.49,4.14
				c-1.3,1.42-2.78,3.09-2.53,4.45C228.82,463.28,227.03,464.57,227.03,464.57z"/>
			<path style="fill:#82522F;" d="M222.08,469.07c-0.3-0.95-0.49-1.59-0.49-1.59h10.01c-0.86,6.18-2.97,9.89-2.97,9.89h-0.65
				C228.11,471.58,224.3,469.68,222.08,469.07z"/>
			<polygon style="fill:#C67B47;" points="221.6,464.41 231.68,464.41 232.25,467.48 221.19,467.48 			"/>
		</g>
	</g>
	<path style="fill:#EEA886;" d="M435.21,351.42c0,0,3.55,8.09,6.94,7.08c3.4-1.01,8.44-0.72,10.02-0.54c2.12,0.23,9-1.38,8.6,1.19
		c-0.41,2.57-11.24,3.18-13.51,3.74c-2.27,0.56,5.88,6.32,6.45,8.54c0.57,2.22-10.81,15.05-15.89,10.46
		c-5.08-4.6-7.19-12.86-8.26-13.49c-1.07-0.63-5.74-7.22-5.74-7.22L435.21,351.42z"/>
	<path style="fill:#EEA886;" d="M452.81,370.07c0,0,14.54,15.1,14.59,16.92c0.05,1.82-0.89,2.57-2.31,1.21
		c-1.42-1.36-14.51-14.18-14.51-14.18s13.93,20.78,14.31,22.25c0.22,0.86-1.51,2.4-2.34,1.75c-0.84-0.65-15.91-20.44-15.91-20.44
		s12.97,19.43,12.9,20.77c-0.06,1.17-2,2.22-3.07,0.85c-1.07-1.37-14.2-18.71-14.2-18.71s8.48,14.75,7.73,15.88
		c-0.46,0.69-1.9,2.09-3.96-1.79c-2.06-3.88-7.95-12.49-7.95-12.49L452.81,370.07z"/>
	<g>
		<path style="fill:#292C47;" d="M363.92,424.06h-44.87c-0.99-5.21-1.88-8.36-2.52-8.28c-0.66,0.07-1.92,3.21-3.53,8.28h-49.48
			c2.28-19.39,5.19-41.01,7.46-58.2c0.15-1.07,0.28-2.1,0.42-3.09c0.78-5.87,1.37-10.19,1.65-12.26c0.12-0.9,0.18-1.38,0.18-1.38
			c1.08-0.5,2.21-0.95,3.38-1.37c28.03-10.07,82.09,0.59,82.09,0.59s0.03,0.27,0.09,0.77c0.07,0.6,0.18,1.56,0.33,2.79
			c0.32,2.66,0.78,6.63,1.31,11.23c0,0.04,0.02,0.07,0.02,0.1c0.01,0.14,0.03,0.28,0.04,0.42c1.89,16.39,2.82,25.38,4.31,42.86
			C364.86,407.53,364.5,414.34,363.92,424.06z"/>
	</g>
	<g>
		<path style="fill:#8382E6;" d="M333.49,194c0,0,45.9,9.75,49.73,22.5c3.83,12.76,11.26,42.72,21.59,75.3
			c6.18,19.49,37.6,63.89,37.6,63.89s-17.98,13.25-17.98,11.46c0-1.79-42.34-58.28-42.85-65.17c-0.51-6.89-13.34-42.12-13.34-42.12
			s-6.08,67.73-6.08,78.19c0,10.46,0.69,31.64,0.69,31.64s-17.01,6.52-50.04,4.79c0,0-52.57-1.81-43.59-17.83
			c6.78-12.11,2.63-93.62,1.61-94.13c-1.02-0.51-19.35,22.44-17.56,26.86c1.79,4.42,49.21,20.27,49.21,20.27s1.39,5.11-5.98,16.68
			c0,0-70.84-20.7-71.1-25.04c-0.26-4.34,29.47-88.57,39.17-92.98c13.97-6.35,50.52-16.33,50.52-16.33L333.49,194z"/>
	</g>
	<path style="fill:#EEA886;" d="M332.74,178.04c0,0-1.89,10.36,1.36,17.44c0,0,3.31,16.5-13.58,17.24
		c-16.89,0.74-17.28-14.39-17.28-14.39s4.04-5.42,1.34-20.19C301.89,163.38,332.74,178.04,332.74,178.04z"/>
	<g>
		<path style="fill:#EEA886;" d="M322.47,118.09c0,0,21.61,3.49,18.32,38.11c-3.29,34.63-22.37,31.79-23.64,31.75
			c-1.28-0.04-19.15,0.63-20.54-41.65C296.61,146.32,296,115.05,322.47,118.09z"/>
	</g>
	<g>
		<path style="fill:#EEA886;" d="M341.13,146.43c0,0,2.37-2.59,3.23,0.03c0.87,2.62-3.08,13.91-3.37,14.86c0,0-0.43,1.02-1,0.46
			C339.42,161.21,341.13,146.43,341.13,146.43z"/>
	</g>
	<g>
		<path style="fill:#EEA886;" d="M297.14,145.99c0,0-2.32-2.63-3.23-0.03c-0.92,2.6,2.91,14.48,3.09,14.92c0,0,0.41,1.02,0.99,0.48
			C298.57,160.8,297.14,145.99,297.14,145.99z"/>
	</g>
	<g>
		<path style="fill:#434343;" d="M341.12,151.74l-3.09,4.24c0,0,0.09-9.29-0.41-10.74c-0.5-1.46,0.59-6.53,0.17-7.58
			c-0.42-1.05-14.78,2.85-38.34,0.45c0,0,2.62,8.37,1.08,8.96c-1.54,0.59-0.78,10.88-0.78,10.88l-2.54-2.94
			c0,0-2.87-17.56-2.59-20.5c0.37-3.9-0.95-22.13,32.2-19c3.8,0.36,7.44,1.75,10.47,4.12c3.41,2.66,6.91,6.81,6.59,12.51
			C343.45,139.67,341.12,151.74,341.12,151.74z"/>
	</g>
	<path style="fill:#A77860;" d="M307.31,183.37c0,0,8.92,10.41,23.07,0c0,0-3.97,7.9-12.29,8.08
		C309.77,191.64,307.31,183.37,307.31,183.37z"/>
	
		<rect x="250.54" y="242.21" transform="matrix(0.9603 0.2788 -0.2788 0.9603 93.4383 -67.8644)" style="fill:#6E6760;" width="69.54" height="104.72"/>
	<path style="fill:#C98462;" d="M314.93,308.96c0,0,4.36-0.12,5.69-0.31c1.34-0.19,0.45,2.65-1.1,3.18
		C317.98,312.36,314.93,308.96,314.93,308.96z"/>
	<path style="fill:#EEA886;" d="M317.47,329.78c0,0-1.9,0.46-2.83,0.26c0,0-1.66-0.5-2.87-0.79c-0.38-0.09-0.72-0.16-0.94-0.18
		c-0.92-0.09-2.98-0.02-5.14-0.86c-2.16-0.84-9.47-4.6-9.47-4.6l2.09-6.8l1.58-5.39c0,0,12.37-3.29,14.47-2.74
		c0.2,0.06,0.41,0.12,0.59,0.19c1.73,0.64,2.75,1.85,3.62,2.29c0.32,0.16,3.38,2,3.54,3.06c0.22,1.46-0.22,2.57-0.97,3.25
		c0,0,0.31,2.89-0.76,4.52c0,0,0.37,2.65-1.54,4.31C318.84,326.3,318.92,329.04,317.47,329.78z"/>
	<path style="fill:#8382E6;" d="M302.49,309.68c0,0,0.62,8.68-5.98,16.68c0,0-52.02-16.23-58.22-18.67
		c-6.2-2.44,22.51-78.73,22.51-78.73l21.12,7.19l-11.35,21.46c0,0-5.62,12.02-17.3,31.8C253.27,289.41,260.47,296.24,302.49,309.68z
		"/>
	<path style="fill:#8382E6;" d="M339.12,206.04l-4.8-15.13c0,0-7.72,3.59-30.11,1.1l-5.09,14.47
		C299.12,206.49,318.33,223.23,339.12,206.04z"/>
	<g>
		<path style="fill:#CFBFB8;" d="M551.77,404.62c0,0-1.55-2.35-1.81-3.74c-0.25-1.38-1.03-2.17-1.03-2.17s-5.89-0.86-8.15-2.96
			c-2.26-2.1-7.06-7.82-9.32-6.11c-2.26,1.71,1.64,8.93,3.95,11.11c2.31,2.18,5.44,6,8.28,5.72
			C546.53,406.19,550.4,404.84,551.77,404.62z"/>
		<path style="fill:#25354D;" d="M551.77,404.26l-2.84-5.55c0,0,13.59-2.49,17.57-4.89c1-0.6,1.99-1.2,2.91-1.77
			c2.1-1.3,3.84-2.42,4.45-2.94c1.96-1.67,9.83-7.24,11.96-9.29c2.12-2.05,4.63-0.8,7.95-0.77c3.31,0.04,15.32,3.36,18.91,3.84
			c3.59,0.47,16.56,2.88,16.56,2.88C626.96,392.02,551.77,404.26,551.77,404.26z"/>
		<path style="fill:#2F4563;" d="M630,385.58c0,0-7.32,1.05-9.2,1.2c-1.93,0.15-12.82,1.02-18.07,1.53
			c-5.25,0.5-15.57,0.2-17.62,1.1c-2.05,0.9-13.88,4.91-17.75,6.16c-3.87,1.25-29.04,5.86-29.04,5.86s-0.43,3.41,1.8,6.03
			c0,0,11.09-0.99,16.94-0.13c5.85,0.86,16.08-0.45,22.28-3.26c6.2-2.81,16.04-0.25,21.54,1.68c5.5,1.93,26.51,3.48,29.14,2.89
			c2.62-0.59,7.85-3.11,11.64-7.23C645.45,397.28,630,385.58,630,385.58z"/>
		<path style="fill:#EDDAD3;" d="M540.12,407.45c0,0-0.94-2.66-0.85-4.06c0.09-1.4-0.34-2.07-0.34-2.07s-5.64-2.54-7.33-5.12
			s-4.95-9.3-7.56-8.18c-2.61,1.12-0.57,9.06,1.15,11.73c1.71,2.67,2.77,9.79,5.6,10.2C533.6,410.36,538.73,407.33,540.12,407.45z"
			/>
		<path style="fill:#2F4563;" d="M646.44,380.9c0,0,9.25,20.98-5.11,26.07c-11.45,4.06-32.55,0.32-32.55,0.32l12.98-20.46
			L646.44,380.9z"/>
		<path style="fill:#323657;" d="M622.64,301.72c3.52,0.78,1.42,9.62,3.78,21.98c2.36,12.36,9.81,14.29,9.81,14.29
			s-3.31-5.48-2.95-11.21c0.28-4.48,5.71-16.69,0.35-24.67c-4.14-6.17-11.44-0.57-11.44-0.57L622.64,301.72z"/>
		<path style="fill:#EEA886;" d="M627.94,327.45l-6.85,7.05c-0.06-1.29-0.54-2.87-1.03-4.18c-0.24-0.64-0.48-1.22-0.68-1.67
			c-0.26-0.59-0.44-0.96-0.44-0.96l6.11-6.46L627.94,327.45z"/>
		<path style="fill:#FFB555;" d="M619.79,333.8c0,0-0.26,3.39-2.11,6.51c-1.84,3.13-4.89,8.31-4.46,11.69
			c0.43,3.37,1.87,4.6,3.16,5.81c1.3,1.21,4.85,9.98,5.29,13.35c0.43,3.37,0.71,10.38-0.12,15.54c0,0,24,2.79,26.42-1.41
			c0,0-2.98-13.49-4.38-16.87c-1.41-3.38-4.35-23.6-5.61-27.04c-1.26-3.44-4.24-6.76-6.06-9.15c-1.63-2.13-4.59-6.09-4.59-6.09
			L619.79,333.8z"/>
		<path style="fill:#EEA886;" d="M616.79,302.44c-3.17,0.21-9.97,2.6-10.09,11.08c0,0,0.51,2.22,1.26,3.93
			c0.75,1.71-0.23,7.1,0.21,7.31c0.44,0.21,2.19,0.34,2.19,0.34s2.5,5.48,4.49,5.2c1.99-0.28,9.38-2.72,12.13-10.22
			C629.74,312.59,629.59,301.59,616.79,302.44z"/>
		<path style="fill:#323657;" d="M606.71,313.52c0,0,5.52,2.9,10.67,3.01c5.16,0.12,9.38,8.38,9.38,8.38s6.24-14.01-0.91-21.12
			C618.73,296.71,604.48,303.92,606.71,313.52z"/>
		<path style="fill:#EEA886;" d="M618.59,316.48c-0.09-0.99,0.84-2.59,2.6-1.43c1.77,1.16,0.14,6.08-1.23,5.77
			C618.58,320.52,618.68,317.5,618.59,316.48z"/>
		<path style="fill:#A77860;" d="M624.29,324.73c-0.1,0.16-2.61,4.27-4.22,5.59c-0.24-0.64-0.48-1.22-0.68-1.67
			C619.39,328.64,622.98,326.51,624.29,324.73z"/>
		
			<rect x="572.59" y="387.46" transform="matrix(-0.9826 0.1855 -0.1855 -0.9826 1241.2375 661.7432)" style="fill:#C4C4C4;" width="34.14" height="2.97"/>
		
			<rect x="547.65" y="377.17" transform="matrix(-0.5655 -0.8247 0.8247 -0.5655 571.7915 1058.537)" style="fill:#C4C4C4;" width="34.14" height="2.97"/>
		<path style="fill:#EEA886;" d="M579.57,389.34c-0.17-0.75,0-1.99,2.35-3.25c2.35-1.26,7.42-4.12,9.2-4.19
			c1.78-0.07,5.3,0.21,6.02,0.21c0.72,0-1.13,4.24-1.13,4.24L579.57,389.34z"/>
		<path style="fill:#EEA886;" d="M596.31,382.44c0,0,9.79-3.85,11.38-4.62c1.59-0.77,9-3.26,9.66-3.59
			c0.66-0.33,3.76-18.83,4.03-23.49c0.27-4.66,0.55-14.52,5.81-14.08c5.26,0.44,6.52,3.89,5.86,10.69
			c-0.66,6.8-4.55,31.13-6.19,31.95c-1.64,0.82-20.52,5.04-30.47,7.03C586.87,388.22,596.31,382.44,596.31,382.44z"/>
		<path style="fill:#EDDAD3;" d="M620.84,352.19c0,0,7.58,1.41,11.95,1.85c0,0,5.44-15.49-1.96-17.97
			C622.05,333.14,620.09,345.15,620.84,352.19z"/>
	</g>
	<g>
		<path style="fill:#DE9673;" d="M562.21,522.08c0,0-5.45,0.33-6.98,1.18c-1.53,0.85-11.83-2.4-12.02-3.15c-0.19-0.75,0-1.12,0-1.12
			h20.23L562.21,522.08z"/>
		<g>
			<path style="fill:#DE9673;" d="M586.68,498.04c0,0,1.74,13.66,0,15.45c-6.64,6.84-31.26,6.3-31.26,6.3l0.01,2.78
				c0,0,37.42,4.67,40.9-2.59c4.18-8.72,2.56-22.94,2.56-22.94L586.68,498.04z"/>
		</g>
		<g>
			<polygon style="fill:#2F4563;" points="599.03,642.03 596.81,639.5 600.82,635.3 604.21,637.67 			"/>
		</g>
		<g>
			<path style="fill:#1E2D40;" d="M604.21,637.67c0,0-4.58,3.45-5.85,3.59c-1.27,0.14-1.88,0.71-1.72,2.65
				c0.15,1.94-1.86,10.12-3.26,10.25s-6.18,0.16-7.04,3.3c-0.87,3.15,15.15,2.49,16.14-0.1c0.99-2.58,7.89-15.09,7.07-16.1
				C608.72,640.26,606.56,637.99,604.21,637.67z"/>
		</g>
		<g>
			<path style="fill:#3C4145;" d="M574.82,539.87c0,0-29.92,52.12-17.78,62.91c4.76,4.23,9.35,8.05,15.94,13.71
				c3.5,3.01,7.73,6.49,12.75,11.71l0.21,0.22c3.58,3.73,6.53,6.88,7.44,7.85c0.03,0.03,0.06,0.06,0.09,0.09l0.1,0.11l3.33,3.18
				l4.89-4.3c0,0-5.54-7.66-8.66-13.55c-4.38-8.26-11.75-17.97-15.16-20.68c-5.84-4.64-7.44-5.55-7.44-9.99
				c0-4.76,27.43-31.35,27.43-31.35s3.98-16.64-5.53-20.99C583.16,534.55,574.82,539.87,574.82,539.87z"/>
		</g>
		<path style="fill:#EEA987;" d="M597.64,650.1c0,0,0.19-2.4-0.22-3.94c-0.41-1.53,6.2-0.65,6.2-0.65s0.85,6.41,0.6,7.88
			C603.97,654.86,597.64,650.1,597.64,650.1z"/>
		<g>
			<path style="fill:#3C4145;" d="M596.41,646.18l8.9,1.6c0,0,0.64-11.36,0.53-20.06c-0.12-9.35,0.35-16.7-2.51-24.15
				c-2.67-6.96-2.06-9.62-2.3-14.37c-0.24-4.75,2.28-29.23,2.28-29.23s3.04-10.96-4-18.69c-6.86-7.53-24.6-0.03-24.6-0.03
				s3.7,33.44,12.57,54.12c2.51,5.85,1.15,9.41,4.36,18.46C591.64,613.83,596.5,633.56,596.41,646.18z"/>
		</g>
		<g>
			<path style="fill:#EEA987;" d="M588.66,475.14c0.47,0.79,0.81,1.79,1.06,2.86c0.24,1.01,0.39,2.07,0.49,3.05
				c0.22,2.13,0.18,3.89,0.18,3.89s11.87-2.58,9.92-5.35c-1.95-2.77-0.8-11.16-0.8-11.16S587.12,472.55,588.66,475.14z"/>
		</g>
		<g>
			<path style="fill:#EEA886;" d="M581.98,452.27c0,0-3.04,2.64-1.68,10.24c0,0-0.67,6.06-1.6,7.11c-0.93,1.06,2.49,1.45,2.85,2.21
				c0.36,0.76,1.04,4.32,3.42,6.47c2.38,2.15,14.17-4.32,14.75-7.98c0.57-3.65,8.75-19.32-4.19-20.03
				C582.6,449.57,581.98,452.27,581.98,452.27z"/>
		</g>
		<g>
			<path style="fill:#FFB755;" d="M573.84,508.37c0.24,0.76-0.67,12.46-0.58,13.47c0.45,5.53-0.98,13.94-1.54,16.95
				c-0.13,0.71-0.21,1.08-0.21,1.08c12.82,6.27,30.65,5.72,30.65,5.72c-0.06-0.48-2.55-6.51-2.62-6.97
				c-1.06-7.53-2.61-10.96-2.19-16.05l0,0c0.24-2.86,0.96-5.85,2.47-9.55c4.35-10.7,4.12-17.82,3.41-23.69
				c-0.71-5.88-2.47-9.23-2.47-9.23l-10.83,1.16c-2.3,2.55-4.34,3.9-10.88,9.7C572.1,497.14,570.88,499.01,573.84,508.37z"/>
		</g>
		<g>
			<path style="fill:#23344A;" d="M604.62,651.73c0,0-6.26-1.78-6.45-1.96c-0.19-0.18-0.23-0.55-1.09-0.21
				c-0.86,0.35-1.22,1.65-2.07,2.07c-0.85,0.41-6.02,1.93-8.85,3.32c-1.02,0.5-5.35,2.16-5.98,3.54c-0.62,1.38-0.43,3.45,7.01,2.96
				c7.44-0.49,15.58,0.56,17.21-0.26C606.03,660.38,605.05,653.88,604.62,651.73z"/>
		</g>
		<g>
			<path style="fill:#464240;" d="M579.97,459.78c0,0-1.45-15.79,13.85-12.97c15.31,2.82,7.42,20.07,5.35,25.7
				c0,0,0.25-8.74-7.12-9.02C584.69,463.21,583.17,461.5,579.97,459.78z"/>
		</g>
		<g>
			<path style="fill:#EEA987;" d="M593.26,461.27c0.92-1.6,4.08-0.75,3.72,1.69c-0.36,2.44-2.89,4.88-3.73,3.7
				C592.41,465.48,591.91,463.63,593.26,461.27z"/>
		</g>
		<g>
			<path style="fill:#EEA987;" d="M592.91,492.29c0,0,1.26,13.53-0.48,15.32c-6.64,6.84-32.85,6.97-32.85,6.97l-1.25,3.93
				c0,0,38.96,2.65,42.44-4.61c4.18-8.72,2.56-22.94,2.56-22.94L592.91,492.29z"/>
		</g>
		<path style="fill:#464240;" d="M598.68,450.7c0,0,5.9-5.66,10.09,0.75c4.19,6.41-4.98,15.34-8.7,10.04
			C596.35,456.18,598.68,450.7,598.68,450.7z"/>
		<path style="fill:#A77860;" d="M589.71,478c0.24,1.01,0.39,2.07,0.49,3.05c3.94-1.8,6.89-7.29,6.89-7.29
			C594.24,476.23,589.71,478,589.71,478C589.71,478,589.71,478,589.71,478z"/>
		<rect x="533.36" y="518.51" style="fill:#C4C4C4;" width="37.16" height="2.07"/>
		
			<rect x="507.34" y="502.5" transform="matrix(-0.4505 -0.8928 0.8928 -0.4505 313.2898 1199.8998)" style="fill:#C4C4C4;" width="37.16" height="2.07"/>
		<path style="fill:#EEA987;" d="M565.05,514.58c0,0-5.45-0.42-6.98-1.5c-1.53-1.08-11.83,3.05-12.02,4.01c-0.19,0.95,0,1.42,0,1.42
			h20.23L565.05,514.58z"/>
		<polygon style="fill:#FFB755;" points="600.76,480.1 600,478.03 589.6,480.1 589.6,481.94 		"/>
		<g>
			<path style="fill:#EEA987;" d="M592.93,492.47c0,0-1.12-7.84,4.34-8.53c5.46-0.69,6.06,7.05,6.06,7.05L592.93,492.47z"/>
		</g>
	</g>
</g>
</svg>
